<?xml version="1.0" encoding="utf-8"?>
<svg width="26.7719472" height="26.7714756" viewBox="0 0 26.7719472 26.7714756" xmlns="http://www.w3.org/2000/svg"><path d="M13.3859736 24.7833383c-.0249932 0-.0499864-.0018863-.0749796-.0018863-2.8383772-.0377255-5.13680722-2.3573762-5.13680722-5.2047132 0-2.8709155 2.33568402-5.2065995 5.21178682-5.2065995l-.0047157-1.9886089c-3.96731474 0-7.19520839 3.2278937-7.19520839 7.1952084 0 .4064929.03395301.8059124.09902961 1.1940141-.75875543-1.2524887-1.19637198-2.7214279-1.19637198-4.2898683 0-4.5775257 3.7244564-8.30151055 8.30198216-8.30151055V6.19123678c-5.67392499 0-10.29011943 4.61572282-10.29011943 10.28964782 0 .8162869.10563158 1.6071091.28577115 2.3686939-.89032333-1.6231424-1.39820375-3.484899-1.39820375-5.4636049 0-6.28460757 5.11322876-11.39783633 11.39783633-11.39783633 6.2846075 0 11.3978363 5.11322876 11.3978363 11.39783633 0 6.284136-5.1132288 11.3973647-11.3978363 11.3973647m13.3859736-11.3973647C26.7719472 6.0049668 20.7669804 0 13.3859736 0S0 6.0049668 0 13.3859736s6.0049668 13.385502 13.3859736 13.385502h.0047157c7.3786489-.0028294 13.3812579-6.0063815 13.3812579-13.385502" fill="#FFF" fill-rule="evenodd"/></svg>
