<?xml version="1.0" encoding="utf-8"?>
<svg width="236px" height="46px" viewBox="0 0 236 46" version="1.1" xmlns="http://www.w3.org/2000/svg" xmlns:xlink="http://www.w3.org/1999/xlink">
    <g id="Page-1" stroke="none" stroke-width="1" fill="none" fill-rule="evenodd">
        <g id="Artboard" transform="translate(0.000000, 1.000000)">
            <g id="Group-2" transform="translate(0.000000, -1.000000)">
                <g id="Group" transform="translate(8.000000, 7.000000)" fill="#000000" fill-rule="nonzero">
                    <polygon id="Path" points="58.1134555 14.4874555 58.1134555 16.8084555 48.8844555 16.8084555 48.8844555 26.1584555 46.2774555 26.1584555 46.2774555 5.42345545 60.3409555 5.42345545 60.3409555 7.73895545 48.8844555 7.73895545 48.8844555 14.4654555"></polygon>
                    <path d="M60.7534555,18.7499555 C60.7534555,14.0254555 63.5639555,10.9509555 67.9419555,10.9509555 C72.3199555,10.9509555 74.7839555,13.9099555 74.7839555,18.2274555 C74.7926797,18.6145982 74.7816655,19.001934 74.7509555,19.3879555 L63.2009555,19.3879555 C63.2614555,21.9949555 64.7409555,24.6074555 67.9859555,24.6074555 C70.8844555,24.6074555 71.9844555,22.6659555 72.2484555,21.6209555 L74.5969555,21.6209555 C73.8434555,24.3709555 71.7534555,26.6039555 67.9584555,26.6039555 C63.2724555,26.6039555 60.7534555,23.2434555 60.7534555,18.7499555 Z M63.1844555,17.3584555 L72.3199555,17.3584555 C72.3535838,16.1650632 71.8877566,15.0117599 71.0347378,14.1764906 C70.1817189,13.3412213 69.0188769,12.8997444 67.8264555,12.9584555 C65.331578,12.896845 63.2563833,14.8638541 63.1844555,17.3584555 L63.1844555,17.3584555 Z" id="Shape"></path>
                    <polygon id="Path" points="77.9134555 11.3854555 81.2739555 23.5734555 81.3344555 23.5734555 84.5794555 11.3964555 87.1039555 11.3964555 90.3489555 23.5734555 90.4094555 23.5734555 93.8249555 11.3964555 96.3494555 11.3964555 91.6249555 26.1804555 89.1004555 26.1804555 85.8279555 14.1794555 85.7674555 14.1794555 82.4949555 26.1804555 79.9704555 26.1804555 75.2734555 11.3964555"></polygon>
                    <path d="M103.158455,22.3744555 C103.158455,18.9809555 105.655455,18.0844555 109.477955,17.3584555 C112.002455,16.8964555 113.162955,16.6049555 113.162955,15.1584555 C113.162955,13.9979555 112.524955,12.9584555 110.088455,12.9584555 C107.277955,12.9584555 106.463955,13.7999555 106.320955,15.9449555 L103.884455,15.9449555 C104.027455,13.1069555 105.825955,10.9289555 110.176455,10.9289555 C112.926455,10.9289555 115.423455,12.0894555 115.423455,15.7139555 L115.423455,22.8144555 C115.423455,23.9749555 115.593955,24.5579555 116.176955,24.5579555 C116.293315,24.5596728 116.409512,24.5486065 116.523455,24.5249555 L116.523455,26.1474555 C116.154901,26.2418067 115.776371,26.291662 115.395955,26.2959555 C114.119955,26.2959555 113.333455,25.8009555 113.195955,23.9749555 L113.113455,23.9749555 C112.161955,25.5699555 110.478955,26.5544555 108.014955,26.5544555 C105.044955,26.5764555 103.158455,24.8659555 103.158455,22.3744555 Z M113.162955,20.4604555 L113.162955,18.1119555 C112.728455,18.5739555 111.276455,18.9534555 109.681455,19.2724555 C106.810455,19.8829555 105.594955,20.5484555 105.594955,22.2589555 C105.594955,23.7054555 106.348455,24.5469555 108.262455,24.5469555 C111.045455,24.5469555 113.162955,23.3039555 113.162955,20.4604555 Z" id="Shape"></path>
                    <path d="M118.580455,11.3854555 L120.895955,11.3854555 L120.895955,13.1564555 L120.956455,13.1564555 C121.737455,12.1114555 123.304955,10.9839555 125.823955,10.9839555 C128.518955,10.9839555 130.773955,12.4579555 130.773955,15.8514555 L130.773955,26.1694555 L128.452955,26.1694555 L128.452955,16.4234555 C128.452955,14.5094555 127.550955,13.0024555 125.235455,13.0024555 C122.628455,13.0024555 120.884955,14.6524555 120.884955,16.9459555 L120.884955,26.1639555 L118.569455,26.1639555 L118.580455,11.3854555 Z" id="Path"></path>
                    <path d="M144.292955,13.2994555 L144.292955,5.42345545 L146.608455,5.42345545 L146.608455,26.1474555 L144.292955,26.1474555 L144.292955,24.3434555 L144.232455,24.3434555 C143.151978,25.8095174 141.41584,26.6456649 139.595955,26.5764555 C135.883455,26.5764555 132.924455,23.6504555 132.924455,18.7774555 C132.924455,13.9044555 135.883455,10.9839555 139.595955,10.9839555 C141.442545,10.8798051 143.206361,11.7606665 144.232455,13.2994555 L144.292955,13.2994555 Z M144.292955,18.7994555 C144.292955,15.3234555 142.582455,13.0299555 139.826955,13.0299555 C136.779955,13.0299555 135.360955,15.9009555 135.360955,18.7994555 C135.360955,21.6979555 136.779955,24.5689555 139.826955,24.5689555 C142.582455,24.5469555 144.292955,22.2589555 144.292955,18.7774555 L144.292955,18.7994555 Z" id="Shape"></path>
                    <polygon id="Path" points="188.545955 14.4874555 188.545955 16.8084555 179.294955 16.8084555 179.294955 26.1584555 176.687955 26.1584555 176.687955 5.42345545 190.745955 5.42345545 190.745955 7.73895545 179.294955 7.73895545 179.294955 14.4654555"></polygon>
                    <path d="M190.822955,22.3744555 C190.822955,18.9809555 193.314455,18.0844555 197.142455,17.3584555 C199.661455,16.8964555 200.821955,16.6049555 200.821955,15.1584555 C200.821955,13.9979555 200.183955,12.9584555 197.752955,12.9584555 C194.936955,12.9584555 194.128455,13.7999555 193.979955,15.9449555 L191.548955,15.9449555 C191.691955,13.1069555 193.490455,10.9289555 197.835455,10.9289555 C200.585455,10.9289555 203.082455,12.0894555 203.082455,15.7139555 L203.082455,22.8144555 C203.082455,23.9749555 203.258455,24.5579555 203.835955,24.5579555 C203.954132,24.5595939 204.072143,24.5485304 204.187955,24.5249555 L204.187955,26.1474555 C203.817536,26.2418273 203.437183,26.2916795 203.054955,26.2959555 C201.778955,26.2959555 200.997955,25.8009555 200.854955,23.9749555 L200.794455,23.9749555 C199.837455,25.5699555 198.154455,26.5544555 195.690455,26.5544555 C192.703955,26.5764555 190.822955,24.8659555 190.822955,22.3744555 Z M200.821955,20.4604555 L200.821955,18.1119555 C200.387455,18.5739555 198.940955,18.9534555 197.345955,19.2724555 C194.474955,19.8829555 193.259455,20.5484555 193.259455,22.2589555 C193.259455,23.7054555 194.012955,24.5469555 195.921455,24.5469555 C198.704455,24.5469555 200.821955,23.3039555 200.821955,20.4604555 L200.821955,20.4604555 Z" id="Shape"></path>
                    <path d="M208.560455,11.3854555 L208.560455,14.3169555 L208.615455,14.3169555 C209.401955,12.3699555 210.589955,10.9839555 212.707455,10.9839555 C213.161669,10.9793281 213.61564,11.0068971 214.065955,11.0664555 L214.065955,13.3874555 C213.750456,13.3279251 213.430021,13.2984597 213.108955,13.2994555 C210.386455,13.2994555 208.560455,15.4444555 208.560455,18.2879555 L208.560455,26.1694555 L206.239455,26.1694555 L206.239455,11.3854555 L208.560455,11.3854555 Z" id="Path"></path>
                    <path d="M214.483955,2.81095545 C214.517194,1.30049482 215.762738,0.0997101744 217.273403,0.121748108 C218.784069,0.143786041 219.994056,1.38039252 219.983219,2.89117996 C219.972383,4.4019674 218.744782,5.62108979 217.233955,5.62144956 C216.494006,5.62163454 215.785205,5.32361308 215.267705,4.79472809 C214.750205,4.2658431 214.467677,3.55072607 214.483955,2.81095545 Z M219.494455,2.81095545 C219.437387,1.58381893 218.406399,0.629399828 217.178512,0.667011332 C215.950625,0.704622835 214.979985,1.72035398 214.998129,2.94868278 C215.016274,4.17701158 216.016493,5.16362916 217.244955,5.16495545 C217.859618,5.16404895 218.447274,4.91227084 218.871932,4.46788642 C219.296589,4.02350201 219.521441,3.42502621 219.494455,2.81095545 L219.494455,2.81095545 Z M216.095455,1.25995545 L217.338455,1.25995545 C218.080955,1.25995545 218.438455,1.59545545 218.438455,2.17845545 C218.452853,2.56899694 218.166275,2.90572648 217.778455,2.95395545 L217.778455,2.95395545 C218.570455,3.08045545 218.328455,4.24095545 218.509955,4.30145545 L218.509955,4.33445545 L217.778455,4.33445545 C217.629955,4.19695545 217.871955,3.23445545 217.129455,3.23445545 L216.826955,3.23445545 L216.826955,4.33445545 L216.095455,4.33445545 L216.095455,1.25995545 Z M217.151455,2.66245545 C217.464955,2.66245545 217.767455,2.60195545 217.767455,2.23345545 C217.767455,1.86495545 217.464955,1.83745545 217.151455,1.83745545 L216.826955,1.83745545 L216.826955,2.67345545 L217.151455,2.66245545 Z" id="Shape"></path>
                    <path d="M31.2294564,15.6204555 C31.23168,9.30397927 27.4281447,3.60833036 21.592907,1.19009188 C15.7576693,-1.22814661 9.040261,0.107414164 4.57383758,4.57383758 C0.107414164,9.040261 -1.22814661,15.7576693 1.19009188,21.592907 C3.60833036,27.4281447 9.30397927,31.23168 15.6204555,31.2294564 L15.6204555,31.2294564 C24.2372983,31.2203612 31.2203612,24.2372983 31.2294564,15.6204555 L31.2294564,15.6204555 Z M15.6204555,28.9139555 L15.5324555,28.9139555 C12.1805012,28.8896549 9.48290492,26.1526597 9.50720545,22.8007055 C9.53150598,19.4487512 12.2685012,16.7511549 15.6204555,16.7754555 L15.6204555,14.4544555 C13.156591,14.4642347 10.8213026,15.5554516 9.23305339,17.4391152 C7.6448042,19.3227787 6.96382259,21.808858 7.37045545,24.2389555 C5.56057225,21.2495504 5.50352948,17.5164424 7.22123142,14.4731351 C8.93893336,11.4298277 12.1643598,9.54940929 15.6589555,9.55395545 L15.6589555,7.23295545 C11.9850206,7.21614444 8.50750611,8.89004116 6.22893078,11.7720846 C3.95035544,14.654128 3.12394995,18.4240208 3.98795545,21.9949555 C1.12212195,16.7414768 2.12154338,10.2204897 6.42919683,6.06643617 C10.7368503,1.9123826 17.2898131,1.1502841 22.4358218,4.20489274 C27.5818304,7.25950138 30.0510964,13.377086 28.4673857,19.1480391 C26.883675,24.9189922 21.6377716,28.9194555 15.6534555,28.9194555 L15.6204555,28.9139555 Z" id="Shape"></path>
                </g>
                <rect id="Rectangle" x="0" y="0" width="236" height="46"></rect>
            </g>
        </g>
    </g>
</svg>
