<?xml version="1.0" encoding="UTF-8"?>
<svg width="120px" height="69px" viewBox="0 0 120 69" version="1.1" xmlns="http://www.w3.org/2000/svg" xmlns:xlink="http://www.w3.org/1999/xlink">
    <title>Group 16</title>
    <defs>
        <polygon id="path-1" points="0 0 87 0 87 69 0 69"></polygon>
    </defs>
    <g id="Exports" stroke="none" stroke-width="1" fill="none" fill-rule="evenodd">
        <g id="Clients" transform="translate(-1190, -810)">
            <g id="Group-16" transform="translate(1190, 810)">
                <g id="Group-3">
                    <mask id="mask-2" fill="white">
                        <use xlink:href="#path-1"></use>
                    </mask>
                    <g id="Clip-2"></g>
                    <path d="M53.671001,21.2724086 C52.6111988,21.3442878 51.5511432,21.4132373 50.4916958,21.4897131 C50.1341373,21.515525 50.115892,21.5395689 50.1394082,21.9114416 C50.1865927,22.657864 50.2408727,23.4038824 50.2935308,24.1499513 C50.3208989,24.5380889 50.3407661,24.5624864 50.7357275,24.5354623 C51.8291822,24.4607038 52.921674,24.371903 54.0154836,24.303206 C54.2427904,24.288911 54.297121,24.2069798 54.2798893,23.9931606 C54.2177537,23.2226942 54.166768,22.4512681 54.1209519,21.6795894 C54.0958645,21.2571538 54.1043283,21.2566992 53.671001,21.2724086 M53.7284232,25.7228584 C52.7982137,25.7862515 51.754731,25.861414 50.7105894,25.9253628 C50.484499,25.9392032 50.4256577,26.0425517 50.4407608,26.2489961 C50.5321397,27.4986235 50.6165245,28.7487056 50.7050145,29.9984846 C50.8178823,31.5921019 50.9339938,33.1855171 51.0457466,34.7791848 C51.1516204,36.2890524 51.2548081,37.7990716 51.3560698,39.3092423 C51.3700073,39.5177071 51.4508444,39.6007496 51.6756171,39.5823631 C52.7350645,39.4957342 53.7955256,39.421683 54.8559359,39.3472276 C55.3626502,39.3116163 55.3629543,39.3157079 55.3258554,38.7999758 C55.324639,38.7832056 55.3235747,38.766385 55.3223584,38.7496148 C55.1763448,36.7200247 55.0288614,34.690485 54.884571,32.6607432 C54.7325263,30.5218946 54.5847389,28.3827934 54.4323394,26.2440458 C54.3928585,25.6897727 54.3881451,25.6901263 53.7284232,25.7228584 M23.8205733,36.0873057 C23.9142835,36.0729097 23.9790039,36.0584126 24.0443831,36.0536139 C24.5660991,36.0151234 25.0879672,35.9780978 25.6098353,35.9412742 C27.225969,35.8272676 28.8422041,35.7138672 30.4583885,35.5995575 C31.6115461,35.5180304 32.764501,35.4334221 33.9179627,35.3556834 C34.0918512,35.3439645 34.1551018,35.2731461 34.1412657,35.1012522 C34.0656995,34.1598517 33.9307852,33.2297155 33.6399743,32.3271085 C32.4443456,28.616262 29.3651364,26.7436645 25.6038548,27.3080401 C21.7042633,27.8931763 19.0324832,31.6392805 19.6321982,35.5236878 C20.1550799,38.9103455 23.2357588,41.8221356 26.9692669,41.6256421 C30.067735,41.4625374 32.2489681,40.0301054 33.4792124,37.1819105 C33.5136759,37.1020503 33.5302994,37.0145627 33.5652697,36.8970708 C33.4429244,36.8970708 33.3612764,36.8922216 33.280338,36.897778 C32.1016875,36.9785474 30.9232398,37.062297 29.744488,37.14145 C29.4214437,37.1631199 29.1059509,37.1852948 28.8766675,37.4642751 C28.8149881,37.5393871 28.7153988,37.5848483 28.6303044,37.6394522 C27.9094606,38.1018937 27.103573,38.1584171 26.2863835,38.0851236 C25.1813226,37.9859171 24.3637277,37.4511923 23.9199092,36.4100298 C23.8785024,36.3128438 23.856912,36.2072728 23.8205733,36.0873057 M45.1229977,27.7615913 C45.1025223,27.770431 45.0819963,27.7792202 45.0614703,27.7880094 C44.9643137,27.7001177 44.8757223,27.5995979 44.7683788,27.5266074 C44.3935886,27.2718732 44.0384629,26.9670305 43.6288038,26.7885195 C42.169935,26.1527193 40.6936824,26.2808694 39.2371449,26.8164529 C36.8715829,27.6862268 34.4480412,30.5743771 34.9073682,34.2735047 C35.3239707,37.6285416 38.1639121,40.1849261 41.0491629,40.3259063 C42.8782605,40.4153134 44.5190255,40.0068192 45.810189,38.6171712 C45.8564106,38.5674164 45.9176846,38.5315526 46.0099757,38.4594713 C46.0385095,38.8838769 46.0714525,39.2514055 46.0850858,39.6196918 C46.0940058,39.8611413 46.1836108,39.9764612 46.4405663,39.9440322 C46.6579395,39.9165534 46.8781002,39.9106435 47.0969939,39.8947321 C47.9723659,39.8310864 48.8475351,39.7648646 49.7232112,39.7055629 C49.9054621,39.6931874 49.979812,39.6135798 49.9656718,39.4336039 C49.9432706,39.1485622 49.9296372,38.8628638 49.9100235,38.57762 C49.8379036,37.5286279 49.7661385,36.4796359 49.69189,35.4307449 C49.5808974,33.8616767 49.4666611,32.2928106 49.3562767,30.7236919 C49.2635801,29.4062262 49.1754449,28.0885079 49.0835592,26.7709917 C48.971705,25.1683327 48.8566071,23.5658758 48.7464254,21.9631158 C48.7249871,21.651454 48.6934125,21.6125089 48.3829879,21.6345323 C47.2380407,21.7157563 46.0933976,21.8013244 44.9482476,21.8796692 C44.7891582,21.8905799 44.7227654,21.9433149 44.735081,22.1114204 C44.8423739,23.5796152 44.9451561,25.0481636 45.0472287,26.516712 C45.0760159,26.9314192 45.0979103,27.3466316 45.1229977,27.7615913 M-1.5204469e-05,25.0036622 L-1.5204469e-05,0 L69.2310014,0 C69.2368804,0.151133247 69.2478783,0.302266494 69.247929,0.45339974 C69.2487399,6.85125599 69.2485879,13.2491122 69.2487399,19.646918 C69.2487399,19.7395073 69.2508685,19.8320966 69.2513754,19.9246859 C69.2522876,20.0852145 69.329425,20.1497189 69.4919101,20.1341611 C69.7270725,20.111683 69.9634006,20.1015805 70.1991713,20.0848104 C72.7251404,19.9053902 75.2511096,19.7249092 77.7771801,19.5467518 C78.2210999,19.5154341 78.2241408,19.5238697 78.2546511,19.9643887 C78.3407084,21.2064898 78.4312764,22.4482879 78.5125696,23.6906921 C78.5247839,23.8774366 78.6048607,23.9475479 78.7821448,23.9337075 C78.8662762,23.9271914 78.9509651,23.927949 79.0351472,23.9219381 C80.0623612,23.848796 81.0897271,23.7768663 82.116637,23.6995317 C82.2816562,23.6870552 82.3723762,23.7258487 82.3757718,23.9105222 C82.3794209,24.1119659 82.4032412,24.3131065 82.4194087,24.5142975 C82.4418606,24.7927222 82.4654275,25.0710963 82.4947215,25.4238752 C82.5654729,25.2945633 82.5988214,25.2373327 82.6287742,25.1783847 C83.4648173,23.5331437 85.0805962,23.1598062 86.5265413,23.2425961 C86.6661183,23.2505771 86.7622105,23.301039 86.7730057,23.4677301 C86.844264,24.5675882 86.9200329,25.6671432 86.9987921,26.7664961 C87.0101447,26.9247011 86.9414205,26.9797091 86.7949001,26.9789515 C86.6175653,26.9780422 86.4400785,26.9795071 86.2628958,26.9857706 C84.2549429,27.056387 83.0043753,28.5003864 83.1001127,30.4027358 C83.2126258,32.637255 83.4049624,34.8678342 83.5689172,37.0996762 C83.5835642,37.2985942 83.5397246,37.3904259 83.3224021,37.4043168 C82.1009257,37.4824596 80.8800575,37.569543 79.6593414,37.6588995 C79.4971604,37.6708205 79.4507867,37.5925767 79.4410052,37.455688 C79.4139919,37.0781074 79.3836843,36.7007794 79.357482,36.3231483 C79.251,34.7871658 79.1465453,33.2510317 79.0395565,31.7150492 C78.943667,30.338686 78.8460036,28.9624238 78.7480362,27.5861616 C78.6697331,26.4868087 78.5851963,25.3878598 78.5141914,24.2880523 C78.4988856,24.0509469 78.39585,23.9923524 78.1748783,24.0096782 C77.0725036,24.0961555 75.9696221,24.1762177 74.8662845,24.2489051 C74.6750629,24.2614827 74.6232157,24.3303817 74.6394845,24.5157624 C74.6887976,25.0772083 74.7227036,25.640018 74.7612216,26.2024236 C74.8841751,27.9986968 75.0034795,29.7952225 75.12993,31.5912937 C75.2723452,33.6138626 75.419271,35.636179 75.5695925,37.6581924 C75.5842395,37.8547868 75.5371057,37.9532861 75.3212529,37.9647019 C74.8156029,37.9913725 74.3109159,38.0353183 73.8057728,38.0713337 C72.9974018,38.1290189 72.1887268,38.182158 71.3808626,38.2457532 C71.181532,38.261412 71.0853891,38.2048381 71.0756076,37.9932414 C71.0585279,37.6236418 71.0208208,37.255002 70.995328,36.8857055 C70.9049627,35.5764228 70.8176384,34.2668876 70.7263102,32.9577059 C70.6139492,31.3462578 70.4989021,29.7350622 70.3845644,28.1237656 C70.3077819,27.0412333 70.2245121,25.9591051 70.1574604,24.8759667 C70.1428641,24.6403261 70.0537659,24.5833481 69.8286384,24.6003708 C68.7765398,24.6800794 67.7235289,24.7488774 66.670366,24.8140384 C66.1302019,24.8474271 66.1211299,24.8554586 66.1711526,25.3920019 C66.1994836,25.6955817 66.2087583,26.0008789 66.2310075,26.3805305 C66.0990327,26.2582904 66.0345151,26.1808043 65.9540328,26.1269075 C65.5219725,25.8375217 65.1196115,25.46772 64.6453334,25.2837537 C62.8388398,24.583045 61.0521626,24.7958034 59.4441379,25.7957984 C56.9402659,27.3528951 55.7393663,29.6476252 56.0075224,32.6196766 C56.2011767,34.7664052 57.2224102,36.4591279 58.9739651,37.7122912 C60.2249381,38.6072708 61.6262327,38.9544428 63.1598061,38.8493264 C64.5440717,38.754464 65.7607333,38.3006602 66.7512031,37.3107677 C66.8497788,37.2122685 66.9240273,37.0896242 67.009527,36.9781938 C67.0419126,36.9980452 67.0742981,37.0179471 67.1066836,37.037849 C67.1397787,37.4273 67.1844291,37.8162963 67.2014581,38.2064545 C67.2113917,38.4333564 67.3104235,38.4965475 67.5203972,38.4773527 C67.9406994,38.4388623 68.3616098,38.4002707 68.7831284,38.3840563 C69.2789968,38.3649625 69.2478276,38.2793945 69.2478276,38.8218982 C69.2486386,48.7638088 69.2486386,58.7057195 69.247929,68.6476302 C69.2478783,68.7650717 69.2368804,68.8825636 69.2310014,69 L-1.5204469e-05,69 C-1.5204469e-05,60.3960681 -1.5204469e-05,51.7920807 -1.5204469e-05,43.1881437 C0.732333397,43.1338428 1.46463132,43.0790368 2.1970306,43.0253421 C2.77789201,42.9828106 3.35885478,42.9415925 3.93971618,42.8998187 C4.09039247,42.889009 4.20158782,42.8466291 4.18749835,42.6587733 C4.13134318,41.9120477 4.08086434,41.1649181 4.02744597,40.4179905 C3.93262076,39.0920387 3.83632579,37.766188 3.74226081,36.4401857 C3.64637129,35.0889777 3.55169813,33.7376686 3.4580386,32.3863091 C3.42651466,31.9314445 3.39960275,31.4762768 3.3706129,31.0212102 C3.46782014,31.1114759 3.51110219,31.209369 3.55017768,31.3088786 C4.99368999,34.9838613 6.43852002,38.6583894 7.87584918,42.3357967 C7.9607408,42.5529497 8.06185052,42.6261422 8.30431112,42.6032096 C9.10254575,42.5276429 9.90341583,42.4792015 10.7037284,42.4269716 C11.1021362,42.4009577 11.1022882,42.4074233 11.1963532,42.0129211 C12.1095336,38.1826126 13.0227647,34.3523546 13.936452,30.5221472 C13.9538358,30.4494598 13.9766931,30.3780857 13.9970164,30.3061054 C14.0674638,30.4157175 14.0856078,30.513459 14.0923485,30.6119583 C14.1993372,32.1733486 14.3028797,33.734941 14.4112369,35.2962303 C14.5603927,37.4449793 14.7136031,39.5934253 14.8633671,41.7421238 C14.888049,42.0962161 14.9211948,42.1378889 15.2720126,42.1141985 C16.4679961,42.0334797 17.6634728,41.9451334 18.8594057,41.8639094 C19.0290369,41.8523925 19.1023731,41.7826348 19.0895507,41.6099833 C19.0340544,40.8632577 18.9832208,40.1161786 18.9303092,39.3692511 C18.8340142,38.009658 18.7365029,36.6501659 18.6412216,35.2905223 C18.5500961,33.9896753 18.4623157,32.6885756 18.3709368,31.3877285 C18.2760102,30.0365205 18.1783468,28.6855145 18.0822546,27.3343571 C18.0046611,26.2433387 17.9233172,25.1525223 17.8539342,24.0609483 C17.8401995,23.8448561 17.7690932,23.7730274 17.5449287,23.7911108 C16.7456804,23.8556152 15.9447596,23.8996621 15.1447005,23.953963 C14.1255449,24.023064 13.1067441,24.0974183 12.0873858,24.1628319 C11.876145,24.1764198 11.7778228,24.2702719 11.7344901,24.4768678 C11.6395635,24.9295604 11.5228438,25.3777573 11.414588,25.8276717 C10.6645516,28.9441383 9.91456577,32.0606553 9.16346499,35.1768693 C9.14217874,35.2653671 9.10913436,35.3510363 9.06113892,35.5022705 C8.99535425,35.3527537 8.95926897,35.2779953 8.92901208,35.2009638 C8.44880426,33.9786635 7.96930598,32.7560097 7.48960498,31.5334569 C6.62862657,29.3389941 5.76739475,27.1446323 4.9070752,24.9499674 C4.85081866,24.8063605 4.81098295,24.6746241 4.59827243,24.6926065 C3.9085977,24.7510494 3.21735185,24.7914088 2.52661281,24.8374257 C1.68443726,24.893545 0.842211028,24.9483005 -1.5204469e-05,25.0036622" id="Fill-1" fill="#FFFFFF" mask="url(#mask-2)"></path>
                </g>
                <path d="M120,24.959614 C119.487705,24.9933301 118.975764,25.0356358 118.462963,25.0567639 C118.233232,25.066242 118.176962,25.170846 118.192129,25.370428 C118.250623,26.1409636 118.301989,26.9120421 118.357905,27.6827751 C118.451891,28.9782068 118.547545,30.2735891 118.642036,31.5690209 C118.704828,32.429894 118.767165,33.2908165 118.828744,34.1518378 C118.837541,34.2748056 118.836934,34.3984645 118.84745,34.5212841 C118.860949,34.6796465 118.787691,34.7374033 118.628891,34.7476219 C117.671289,34.8091304 116.714193,34.8781918 115.756844,34.9436496 C115.471348,34.963198 115.185296,34.976181 114.900053,34.9985433 C114.748483,35.0104402 114.691505,34.9498202 114.681444,34.8037003 C114.582857,33.3767607 114.480024,31.9501667 114.377292,30.5235233 C114.284014,29.2279435 114.189422,27.9325117 114.095335,26.6370307 C114.072686,26.3254399 114.047256,26.0140466 114.027741,25.7022584 C114.006709,25.3662814 113.983958,25.3492012 113.630817,25.3800048 C113.278687,25.4107591 112.925899,25.4343061 112.573162,25.4580506 C112.482159,25.4641718 112.390348,25.4589392 112.258444,25.4589392 C112.224824,25.0570108 112.189282,24.6677691 112.160262,24.2780832 C112.107177,23.5648602 112.05571,22.8515385 112.008035,22.13797 C111.98397,21.7781004 111.990896,21.7741019 112.3679,21.7501106 C112.712346,21.7281926 113.056741,21.698475 113.40154,21.6912677 C113.65291,21.6859857 113.740728,21.5837511 113.721769,21.3410736 C113.640979,20.3084603 113.570957,19.2750077 113.496588,18.2419006 C113.478893,17.9959651 113.466304,17.7494372 113.43875,17.5045383 C113.419488,17.333736 113.488043,17.2648721 113.658674,17.2542093 C114.423097,17.206276 115.187318,17.1536037 115.951489,17.1013264 C116.3881,17.0714607 116.825419,17.0479137 117.260665,17.0044726 C117.504198,16.9801358 117.61057,17.0517641 117.626597,17.3021425 C117.705871,18.5409034 117.800008,19.778677 117.884944,21.0170923 C117.907593,21.3468493 117.915126,21.36467 118.259622,21.3477873 C118.646283,21.3288312 119.032742,21.3032602 119.418593,21.2727034 C119.7232,21.2486133 119.739631,21.2597698 119.761623,21.5683987 C119.827499,22.4949764 119.894588,23.4214554 119.962992,24.3478357 C119.968351,24.4205995 119.98731,24.4924253 120,24.5646954 L120,24.959614 Z" id="Fill-4" fill="#FFFFFF"></path>
                <path d="M97.2007105,34.6458865 C97.0211873,34.919473 96.8951863,35.1319724 96.7502777,35.3287563 C96.043756,36.2882931 95.0886296,36.7718206 93.9720506,36.9314302 C92.9271626,37.0808063 91.9048751,37.0080239 90.9479269,36.4937962 C89.6780195,35.8114485 88.9953784,34.6514731 88.7498266,33.2154572 C88.5940363,32.3041114 88.5587323,31.3681741 88.4919158,30.4414781 C88.3737929,28.802883 88.2731004,27.1629303 88.164579,25.5236042 C88.1117462,24.725661 88.060883,23.9275611 88.0017969,23.13014 C87.9875177,22.9378463 88.0577809,22.8643852 88.2326757,22.8519068 C89.4025799,22.7685777 90.5723365,22.682116 91.7417975,22.5912164 C91.9233887,22.5771194 91.9890235,22.6539742 92.0007422,22.839846 C92.131224,24.9045364 92.2592931,26.9694357 92.4034631,29.033082 C92.4591517,29.8296155 92.5022845,30.6336152 92.643254,31.4155296 C92.8719664,32.6845219 93.5848398,33.1608966 94.790245,32.9491281 C96.0495661,32.7279094 96.7020241,31.916078 96.7027134,30.5014165 C96.7030581,29.7984976 96.637768,29.0951611 96.5932072,28.3926599 C96.5036426,26.9786249 96.4075292,25.5651121 96.3149118,24.1513382 C96.2791155,23.6048439 96.2514435,23.0576709 96.2075721,22.5119077 C96.1928006,22.3285421 96.2518374,22.265471 96.4188541,22.2538279 C97.5643853,22.1743103 98.7096703,22.0905636 99.8545122,22.0015957 C100.029702,21.9880208 100.078055,22.0606466 100.089084,22.2351885 C100.162351,23.3976178 100.245711,24.5593162 100.323262,25.7214323 C100.43262,27.3606018 100.539911,28.9999279 100.647743,30.639254 C100.737357,32.0009734 100.826281,33.3627449 100.915797,34.7245165 C100.940317,35.0974608 100.956418,35.4713972 100.994479,35.8428274 C101.017622,36.0686929 100.974981,36.1708701 100.73194,36.1860114 C99.6841966,36.2512753 98.6373884,36.3343955 97.5910233,36.4212749 C97.3893428,36.4380347 97.3092812,36.3744415 97.2995812,36.1566687 C97.2783595,35.6800852 97.2385256,35.2044937 97.2007105,34.6458865" id="Fill-6" fill="#FFFFFF"></path>
                <path d="M106.730235,21 C107.73653,21.0223505 108.883482,21.2944546 109.827961,22.1568714 C110.613116,22.8737501 111.014924,23.7915233 111.192609,24.8270264 C111.224649,25.0138348 111.121381,25.053338 110.976147,25.0634217 C110.198707,25.1173747 109.421319,25.1717436 108.643878,25.224813 C108.336286,25.245812 108.027614,25.2548042 107.721153,25.2866146 C107.530406,25.3064702 107.43151,25.2383272 107.398596,25.0506871 C107.386819,24.9833758 107.357247,24.9188193 107.332459,24.8543147 C107.022038,24.0454352 106.070771,23.7997878 105.40457,24.3561069 C104.776529,24.8805636 104.884991,25.8701182 105.639905,26.2280378 C106.015023,26.405906 106.432825,26.4965554 106.836691,26.6065926 C107.66232,26.8314488 108.508776,26.9916446 109.316302,27.2687906 C112.198082,28.2578254 112.322589,30.8812523 111.687348,32.6970991 C111.305699,33.7879066 110.569556,34.6060382 109.559866,35.1345491 C107.710919,36.102325 105.777836,36.2978658 103.824952,35.5204848 C102.246621,34.8921764 101.440638,33.5933534 101.099258,31.9615083 C101.059092,31.769658 101.136594,31.7165366 101.308416,31.7048936 C102.444722,31.6278624 103.580771,31.5475046 104.716563,31.4628327 C104.885711,31.450254 104.960487,31.5011923 104.988927,31.6800482 C105.092298,32.3304992 105.563894,32.7742342 106.214873,32.7933621 C106.52483,32.8024582 106.851554,32.7637347 107.145672,32.6680434 C107.620817,32.5134093 107.853684,32.1036158 107.846021,31.574793 C107.838667,31.0676969 107.613617,30.7113886 107.112089,30.5692812 C106.520048,30.4015486 105.905892,30.3150574 105.310148,30.1590718 C104.706689,30.0010591 104.095156,29.8477764 103.520086,29.6109132 C101.804081,28.9041182 100.989407,27.5753041 101,25.7137168 C101.011521,23.7280063 102.097479,22.1696579 103.964683,21.462655 C104.752357,21.164406 105.649574,21.0010915 106.730235,21" id="Fill-8" fill="#FFFFFF"></path>
                <path d="M67,31.5912138 C67.0017714,33.5117116 65.5439088,34.9939523 63.6472167,35 C61.5577839,35.0066268 59.9968758,33.5136335 60,31.5114268 C60.0030815,29.5697876 61.5783303,28.0065132 63.5383307,28 C65.4919167,27.9935271 66.998121,29.5561262 67,31.5912138" id="Fill-10" fill="#FFFFFF"></path>
                <path d="M46,33.5726097 C46.001978,35.5151953 44.5343559,36.9991171 42.6103359,37 C40.5589685,37.0008822 39.0030265,35.5061622 39,33.5317011 C38.9969821,31.573593 40.5863243,29.9881267 42.5402532,30 C44.4888672,30.0119554 45.9979659,31.5702705 46,33.5726097" id="Fill-12" fill="#FFFFFF"></path>
                <path d="M30,32.6340242 C27.9912953,32.7565523 26.0160034,32.8770183 24,33 C24.0191946,32.8785854 24.0209956,32.7916074 24.0475837,32.7108156 C24.2984407,31.9473555 24.8980237,31.4679247 25.7356672,31.2177134 C26.7333133,30.9196621 27.7332817,30.9020108 28.7009273,31.325807 C29.2492772,31.5659554 29.634307,31.94983 29.9106147,32.4205176 C29.9415631,32.4733066 29.9581036,32.5325292 30,32.6340242" id="Fill-14" fill="#FFFFFF"></path>
            </g>
        </g>
    </g>
</svg>