<?xml version="1.0" encoding="UTF-8"?>
<svg width="161px" height="75px" viewBox="0 0 161 75" version="1.1" xmlns="http://www.w3.org/2000/svg" xmlns:xlink="http://www.w3.org/1999/xlink">
    <title>Group 38</title>
    <defs>
        <polygon id="path-1" points="0 0 29.9189403 0 29.9189403 41.9193198 0 41.9193198"></polygon>
    </defs>
    <g id="Exports" stroke="none" stroke-width="1" fill="none" fill-rule="evenodd">
        <g id="Clients" transform="translate(-2115, -957)">
            <g id="Group-38" transform="translate(2115, 957)">
                <g id="Group-3" transform="translate(0, 13.9383)">
                    <mask id="mask-2" fill="white">
                        <use xlink:href="#path-1"></use>
                    </mask>
                    <g id="Clip-2"></g>
                    <path d="M14.2749467,5.99949563 C12.4078645,5.91329772 10.7321648,6.45652688 9.0523102,7.0177248 C8.40519355,7.23387063 8.15460464,7.61564147 8.20991598,8.26694355 C8.38182257,10.2877769 8.55113238,12.3086102 8.71161315,14.3302248 C8.7482277,14.7929852 8.89754234,15.0911623 9.42936212,14.9541831 C11.9645948,14.3007977 14.5972066,13.9458498 16.9049617,12.5846519 C17.9330254,11.9784019 18.7240035,11.142204 19.1420845,9.98725605 C19.7577801,8.28569355 19.2184297,7.1005373 17.5068944,6.5302248 C16.4416968,6.17527688 15.3505314,5.92111022 14.2749467,5.99949563 M8.7355035,28.2419436 C8.7355035,29.5002769 8.70927606,30.7591311 8.74225511,32.0164227 C8.78146644,33.5213706 9.49480088,34.2500165 10.9604214,34.3497561 C13.8675125,34.5471519 16.6380131,34.0143394 19.2701055,32.7648602 C23.3688572,30.8192873 23.781485,26.6877769 20.2036466,23.8481936 C17.3671879,21.5968915 14.1027804,21.692204 10.8014987,22.0367352 C9.30004266,22.1932456 8.80821323,22.8013186 8.74433254,24.3375165 C8.69031959,25.6369956 8.7331664,26.9403811 8.7355035,28.2419436 M-5.19355253e-05,5.59298522 C0.346358021,5.21121438 0.721332517,4.85183938 1.03398438,4.4442873 C3.13607479,1.70444355 6.25895795,1.2677248 9.33276204,0.778922718 C11.4169347,0.447672718 13.5172074,0.152099801 15.6211155,0.0257977179 C21.4500992,-0.323941865 25.8168382,2.89793313 26.8108842,8.74376647 C27.3071282,11.6622561 25.9259028,14.0593915 23.6487897,15.8810061 C22.0805965,17.1356936 22.0377497,17.1317873 23.6942333,18.3289227 C26.418771,20.2979331 28.6779664,22.5802248 29.5642461,25.9893394 C30.8693859,31.0093915 28.4826888,36.4849123 23.885356,38.8409019 C20.0605642,40.8007977 16.0425723,42.0895998 11.7132269,41.9010581 C8.45738876,41.7593915 5.2833491,41.1450686 2.59101144,39.0492352 C1.22900228,37.989079 0.59175338,36.7416831 1.08591991,34.9820477 C1.50867509,33.4755373 1.56788159,31.9000165 1.60034129,30.3474123 C1.73926882,23.717204 1.76315916,17.0838706 1.96440933,10.4557456 C2.02335615,8.51694355 1.63435906,6.9692873 -5.19355253e-05,5.85340188 C-5.19355253e-05,5.76668313 -5.19355253e-05,5.67970397 -5.19355253e-05,5.59298522" id="Fill-1" fill="#FFFFFF" mask="url(#mask-2)"></path>
                </g>
                <path d="M148.629217,37.3527344 C150.299724,37.1795573 152.144214,37.011849 153.981173,36.7826823 C154.468848,36.7220052 155.159071,36.5446615 154.626213,35.810026 C153.676831,34.5014323 152.298722,33.827474 150.72923,33.8243416 C149.317883,33.8217448 148.166991,34.5084635 147.506371,35.8522135 C146.861852,37.1636719 146.999221,37.3873698 148.629217,37.3527344 L148.629217,37.3527344 Z M161,37.4998698 C160.889118,37.6785156 160.71825,37.8441406 160.675922,38.0378906 C160.130859,40.536849 158.472558,41.9811198 156.181422,42.8102865 C153.688257,43.7123698 151.036689,43.8548177 148.467179,44.3917969 C148.176599,44.452474 147.66088,44.2582031 147.66062,44.7696615 C147.66036,45.1990885 148.160759,45.188151 148.463543,45.2936198 C150.022648,45.8378906 151.676534,45.8964844 153.28342,46.1988281 C153.706434,46.2785156 154.130228,46.355599 154.550127,46.449349 C155.737893,46.7141927 156.846197,47.1764323 157.183518,48.4641927 C157.540315,49.8259115 156.72285,50.780599 155.752175,51.5803385 C154.656855,52.4826823 153.422866,53.0334635 151.962699,53.0347656 C150.364383,53.0360677 148.766327,53.1019531 147.198913,52.6938802 C141.110252,51.108724 138.495038,45.5376302 139.176173,40.2990885 C139.491681,37.872526 139.96741,35.5160156 141.1357,33.355599 C144.861035,26.4665365 152.110975,26.8266927 157.212602,30.6019531 C159.222507,32.0891927 160.313932,34.1316406 161,36.4582031 L161,37.4998698 Z" id="Fill-4" fill="#FFFFFF"></path>
                <path d="M47.0016508,0 C47.7544563,0.531510417 48.080871,1.29895833 48.2494018,2.17630208 C48.5921763,3.96067708 48.9783169,5.73671875 49.3140801,7.52239583 C49.4569028,8.28125 49.5989465,8.64869792 50.5452117,8.2453125 C52.9433346,7.2234375 54.6042327,7.94088542 55.7101998,10.3151042 C56.2999277,11.5815104 56.5918053,12.9393229 56.8081168,14.3072917 C56.9727524,15.3492187 56.5741472,16.2666667 55.9870161,17.1046875 C55.6252852,17.6213542 55.187209,18.0598958 54.4886762,17.9140625 C53.8592176,17.7825521 53.5730529,17.2820312 53.473077,16.6976562 C53.2474171,15.3770833 53.0705767,14.0481771 52.8425797,12.728125 C52.7506538,12.1963542 52.7919426,11.4046875 52.2149389,11.3028646 C51.6600078,11.2052083 51.3865672,11.9505208 51.0635283,12.3940104 C50.5098956,13.1541667 50.3751229,14.0588542 50.2091889,14.9546875 C50.0751952,15.6773437 49.9328919,16.4010417 49.7404708,17.1096354 C49.4779367,18.0760417 48.9035298,18.7330729 47.8204144,18.7065104 C46.75262,18.6802083 46.2413147,18.0427083 45.9595645,17.0497396 C45.2906349,14.6916667 45.2124719,12.2622396 45.0255041,9.84895833 C44.8546362,7.646875 44.7593345,5.43723958 44.6907796,3.22916667 C44.6523473,1.99505208 44.8676201,0.809635417 45.9629403,0 L47.0016508,0 Z" id="Fill-6" fill="#FFFFFF"></path>
                <path d="M97.3791108,75 C96.0072339,74.4643229 95.5683787,73.3111979 95.5556545,71.9924479 C95.5257916,68.9161458 95.4928125,65.8356771 95.6249884,62.7640625 C95.6815981,61.4486979 95.2489752,60.9835938 94.0178436,60.9768229 C93.3761801,60.9731771 92.7267264,60.8690104 92.0962291,60.7361979 C91.1637267,60.5398438 90.4825923,60.0328125 90.5527053,58.9703125 C90.6220392,57.9208333 91.390685,57.4710938 92.2951422,57.3442708 C93.9199451,57.1164063 95.5559142,56.9559896 97.1918832,56.8236979 C99.1719251,56.6632813 101.152746,56.4872396 103.142656,56.7742188 C104.716562,57.0010417 105.591416,57.7789063 105.519225,58.9914063 C105.449112,60.1651042 104.568286,60.8528646 103.023204,60.8919271 C101.986571,60.9182292 100.945004,60.9466146 99.9120064,60.8778646 C99.0244282,60.81875 98.7998071,61.1440104 98.9179604,61.9908854 C99.2534639,64.3919271 99.555469,66.7984375 99.8185224,69.2085938 C99.9309628,70.2393229 99.9499193,71.284375 99.9455048,72.3223958 C99.9408306,73.4841146 99.3516221,74.3507812 98.4178213,75 L97.3791108,75 Z" id="Fill-8" fill="#FFFFFF"></path>
                <path d="M131.656558,75 C131.044757,74.6960938 130.418415,74.4179688 129.824532,74.0822917 C128.86762,73.5416667 128.533934,72.6838542 128.833083,71.6489583 C129.119507,70.6575521 129.95541,70.3841146 130.87337,70.3867188 C131.475043,70.3882813 132.075158,70.5354167 132.67813,70.5606771 C132.980135,70.5734375 133.463654,70.7911458 133.554282,70.3867188 C133.62855,70.05625 133.122438,70.0778646 132.866915,69.9559896 C131.853393,69.4723958 130.799622,69.0588542 129.832063,68.4963542 C127.757239,67.290625 127.359153,65.1291667 128.783485,63.1833333 C130.096415,61.3898438 132.630089,60.4622396 134.786452,60.9859375 C136.251034,61.3414063 137.17237,62.4169271 137.115501,63.7044271 C137.058631,64.9867188 136.414631,65.4377604 135.240369,64.9427083 C134.413555,64.5942708 133.62024,64.3007813 132.780962,64.8523438 C132.253557,65.1989583 131.988945,65.5020833 132.793946,65.8958333 C133.763063,66.3700521 134.710626,66.9026042 135.61768,67.4875 C137.064864,68.4205729 138.198097,69.6111979 137.941535,71.5127604 C137.6803,73.4502604 136.183258,74.1572917 134.556638,74.6742188 C134.273849,74.7640625 133.945876,74.7315104 133.733979,75 L131.656558,75 Z" id="Fill-10" fill="#FFFFFF"></path>
                <path d="M72.0858865,41.02375 C72.0656317,42.5641146 73.3486988,43.605 74.5006288,42.8820833 C76.5609111,41.5891146 77.9081186,39.7401562 78.3672287,37.2922396 C78.4830449,36.6747917 78.2843915,36.4240104 77.6741491,36.3435417 C75.4497505,36.0497917 72.1149704,38.8276562 72.0858865,41.02375 M85.323473,47.795625 C85.2232374,49.5880729 85.5301764,51.8057812 85.0606792,53.9961458 C84.1331108,58.3219271 81.9920687,61.88625 78.40644,64.49875 C76.6102498,65.8076042 74.5704821,66.4430208 72.3146625,66.3091667 C70.6244208,66.2091667 69.1227051,65.1190625 68.7048838,63.6208854 C68.282648,62.1063021 68.8308274,60.783125 70.360848,59.7297396 C70.7849016,59.4380729 71.2489455,59.1859896 71.726233,58.9940625 C75.6476249,57.4180208 77.7247862,54.3641146 78.6461225,50.3719271 C78.7240257,50.0344271 78.8699646,49.6583854 78.5822418,49.3870312 C78.2659544,49.0888542 77.9112348,49.345625 77.6328603,49.5070833 C73.0604567,52.1578646 69.1105003,50.1318229 66.7315935,47.5635937 C63.8182702,44.4177604 63.4471908,40.0036979 65.7006733,35.9872917 C67.8762525,32.1099479 71.3260698,30.0906771 75.5723184,29.3372917 C76.9231614,29.0977083 78.2360915,29.5753125 79.4176247,30.2427604 C80.2932577,30.7372917 81.1953777,31.1036979 82.1634559,31.3599479 C84.0806559,31.8675 84.6966112,32.7036979 84.8287871,34.6622917 C85.1152115,38.8990104 85.3535956,43.1365104 85.323473,47.795625" id="Fill-12" fill="#FFFFFF"></path>
                <path d="M50.1004619,39.7367708 C49.0147497,39.8284375 48.0796505,39.2448437 47.1043014,38.7885937 C45.1078998,37.8547396 44.1990281,38.2438021 43.4817985,40.3357292 C42.7240591,42.5453646 42.1101812,44.7922396 41.5845937,47.0714062 C41.3033628,48.2917187 41.8333649,49.4508333 41.5186356,50.6784375 C40.9335819,52.9578646 39.4941888,54.3107292 37.3004322,54.3440625 C35.0126723,54.3786979 33.380858,53.0901562 32.8357947,50.8096875 C32.6646671,50.0932812 32.5659896,49.3732292 32.5649509,48.6273958 C32.5563816,42.689375 32.6064994,36.7531771 32.7750301,30.8167187 C32.8181366,29.3039583 33.6501438,28.4432812 34.7384527,27.6807812 C35.2510563,27.3216667 35.8023519,27.4203646 36.3414427,27.6729687 C37.5925695,28.2583854 38.4289912,29.2065625 38.7600801,30.5510937 C39.0104094,31.5685417 39.4773097,31.7234896 40.4339621,31.2953646 C44.220062,29.6000521 47.6844212,30.3622917 50.8106802,32.9177604 C52.0114295,33.8992708 52.836685,35.1708854 52.9402964,36.7943229 C53.0750691,38.9055208 52.2757814,39.745625 50.1004619,39.7367708" id="Fill-14" fill="#FFFFFF"></path>
                <path d="M110.465383,37.9 C107.776681,37.9101562 107.742923,37.9125 107.927034,40.5815104 C108.010131,41.784375 108.233973,42.9799479 108.436781,44.1716146 C108.642446,45.3820312 109.418363,45.9838542 110.619632,45.9382812 C111.736765,45.8958333 112.848704,45.7304687 113.965578,45.6658854 C115.148669,45.5976562 116.052607,46.0640625 116.614549,47.1575521 C117.229726,48.3554687 116.996275,49.4466146 116.174915,50.4080729 C114.288877,52.615625 111.755721,53.0708333 109.094026,52.6414062 C104.617962,51.9195312 101.63167,48.2786458 101.354594,43.6893229 C101.242413,41.8304687 101.125298,39.9760417 101.110497,38.1140625 C101.102966,37.1257812 100.675017,36.4260417 99.7596535,35.9403646 C97.5095469,34.7471354 97.291937,32.5234375 99.5690501,31.3989583 C101.797604,30.2986979 102.241393,28.6091146 102.440046,26.5158854 C102.52522,25.6200521 102.740233,24.721875 103.014193,23.8627604 C103.346321,22.8203125 103.948773,21.9736979 105.20821,21.9997396 C106.450248,22.0252604 107.056855,22.8502604 107.362755,23.9148437 C107.795378,25.4210937 107.835108,26.9898437 107.890939,28.5416667 C107.962091,30.5192708 108.195281,30.8166667 110.130139,30.8421875 C111.129638,30.8554687 112.109402,31.0151042 113.060342,31.2854167 C114.71267,31.7549479 115.818897,33.2473958 115.685423,34.7205729 C115.532473,36.4106771 114.079057,37.7794271 112.28053,37.8940104 C111.677818,37.9322917 111.070692,37.9 110.465383,37.9" id="Fill-16" fill="#FFFFFF"></path>
                <path d="M130.45303,37.8978385 C127.726155,37.9100781 127.699149,37.9121615 127.932339,40.6215365 C128.035951,41.8246615 128.228372,43.0251823 128.46312,44.2103385 C128.683067,45.3204948 129.408606,45.9720573 130.564172,45.9358594 C131.681045,45.9007031 132.793764,45.7436719 133.909858,45.660599 C135.218374,45.5632031 136.151136,46.1113802 136.715675,47.3145052 C137.296314,48.5514844 136.933025,49.6217969 136.097642,50.5421094 C134.192907,52.6405469 131.695068,53.0702344 129.084529,52.6353385 C124.699093,51.9051302 121.599061,48.2465365 121.392618,43.7754427 C121.304587,41.8736198 121.01219,39.9827344 121.1171,38.0704948 C121.170074,37.1048698 120.713301,36.4501823 119.86805,35.9801302 C117.443181,34.6322135 117.433832,32.6546094 119.824425,31.161901 C120.080207,31.0020052 120.360139,30.8811719 120.627867,30.7408073 C121.574132,30.2444531 122.09141,29.5303906 122.201514,28.3978385 C122.343038,26.9410677 122.629722,25.4884635 122.980287,24.0655469 C123.248534,22.976224 123.815929,22.0124219 125.14444,22.0037622 C126.500996,21.994974 127.164213,22.8796094 127.441289,24.0694531 C127.79471,25.5879427 127.920913,27.1382031 127.910007,28.702526 C127.897802,30.4145052 128.313286,30.8202344 130.057281,30.8402865 C131.100926,30.8522656 132.124575,31.0066927 133.115764,31.2957552 C134.812758,31.7908073 135.869126,33.3165885 135.684236,34.8905469 C135.501942,36.4421094 134.088257,37.7535677 132.397496,37.8895052 C131.753236,37.9410677 131.101445,37.8978385 130.45303,37.8978385" id="Fill-18" fill="#FFFFFF"></path>
                <path d="M96.015959,38.3139323 C95.7279766,41.7272135 95.9416912,45.3790365 95.4467457,48.996224 C95.3462504,49.7295573 95.1187728,50.4292969 94.7575613,51.0816406 C93.9959268,52.4579427 92.6785822,53.2032552 91.4967893,52.9222656 C89.9163912,52.546224 88.9610372,51.3488281 88.8833936,49.6358073 C88.7826387,47.4134115 89.1882552,45.2308594 89.4931167,43.0501302 C89.9057444,40.0964844 90.4622336,37.1623698 90.9911969,34.2261719 C91.2584052,32.7417969 91.9782316,32.1308594 93.3251795,32.1188802 C94.7718435,32.105599 95.3945505,32.618099 95.7861443,34.0808594 C96.1421624,35.4102865 95.8427541,36.7613281 96.015959,38.3139323" id="Fill-20" fill="#FFFFFF"></path>
                <path d="M61.4094745,38.173151 C61.2284792,41.7614323 61.3902584,45.3663802 60.9192032,48.9413802 C60.8103982,49.7666406 60.5546158,50.5489323 60.1282251,51.2622135 C59.3588003,52.5489323 58.0406766,53.2041406 56.8929015,52.8989323 C55.3968987,52.501276 54.4410254,51.3754948 54.3662382,49.8197656 C54.2301671,46.9872135 54.819116,44.218724 55.2060357,41.4379948 C55.5394617,39.0408594 56.0099976,36.662474 56.4483334,34.2809635 C56.7261885,32.7715885 57.4187487,32.1455469 58.7373917,32.1192448 C60.2292397,32.0892969 60.8968709,32.624974 61.2708067,34.1551823 C61.3222228,34.3653385 61.4006455,34.5773177 61.4032423,34.7890365 C61.4164858,35.916901 61.4094745,37.045026 61.4094745,38.173151" id="Fill-22" fill="#FFFFFF"></path>
                <path d="M33.3121473,12.1282031 C33.3121473,10.5240365 33.2887764,8.91934896 33.3227941,7.31596354 C33.3381151,6.58809896 33.1708827,6.19513021 32.3362788,6.18601562 C31.5203717,6.17716146 30.6930388,6.06518229 29.8955688,5.88653646 C29.0661584,5.70059896 28.3364643,5.31388021 28.2915401,4.28575521 C28.2473949,3.27325521 28.8607534,2.66986979 29.7215848,2.55736979 C33.5715653,2.05528646 37.4298555,1.42507812 41.3255393,1.98002604 C42.6587242,2.16986979 43.3964684,3.12403646 43.2897409,4.16466146 C43.1788585,5.24721354 42.3278949,5.93315104 40.9736761,5.97013021 C39.8505704,6.00085937 38.7222711,6.03184896 37.6025411,5.96179687 C36.6625081,5.90294271 36.5290338,6.29955729 36.6541984,7.11335937 C37.1281101,10.1959115 37.5726782,13.2834115 37.6866767,16.4071094 C37.7121251,17.1021615 37.7064122,17.791224 37.4859459,18.4638802 C37.1706972,19.4250781 36.5814887,20.0292448 35.5149927,20.0238129 C34.4586241,20.0183073 33.8452655,19.444349 33.5427411,18.467526 C33.3227941,17.7573698 33.223857,17.0339323 33.2287908,16.2907031 C33.2376199,14.9032031 33.2313876,13.5157031 33.2313876,12.1282031 C33.2581344,12.1282031 33.2851409,12.1282031 33.3121473,12.1282031" id="Fill-24" fill="#FFFFFF"></path>
                <path d="M62.8099939,11.1823177 C63.7931334,11.0828385 64.6111179,11.0120052 65.4257266,10.912526 C65.8651012,10.8588802 66.0686884,10.6817969 65.7118914,10.2403906 C64.936494,9.28101563 63.1678297,9.33049479 62.5503163,10.3466406 C62.4163226,10.5669531 62.2205257,10.8255469 62.3893161,11.0588802 C62.482021,11.1864844 62.7694842,11.1721615 62.8099939,11.1823177 M62.5817372,14.9664323 C63.6765381,15.514349 64.645655,15.4765885 65.5630961,15.6698177 C66.3265483,15.8304948 67.1775119,15.9758073 67.321633,16.9336198 C67.4683509,17.909401 66.7677406,18.4286719 66.0258416,18.8325781 C63.1148554,20.4172135 58.7164357,18.1333594 58.2061692,14.745599 C57.9155899,12.8140885 58.1921466,10.9401302 59.1202345,9.19846354 C60.0742901,7.40757813 61.5232912,6.35367188 63.6020106,6.44455729 C65.8666592,6.54377604 67.7179011,7.48804688 68.7895906,9.55653646 C69.7361156,11.3833594 68.8742455,13.3317969 66.8113665,14.0052344 C65.5090832,14.4304948 64.131753,14.623724 62.5817372,14.9664323" id="Fill-26" fill="#FFFFFF"></path>
                <path d="M125.936872,65.330625 C125.852477,67.2134375 126.201224,68.8665625 126.557502,70.5207292 C126.666307,71.0267187 126.755117,71.5439062 126.781084,72.0595312 C126.81718,72.7730729 126.518031,73.3379167 125.821056,73.5939062 C125.182509,73.8288021 124.626799,73.6324479 124.189761,73.1254167 C123.826992,72.7048437 123.611719,72.2884375 122.871378,72.7623958 C118.81781,75.3558854 115.60352,73.6228125 115.31372,68.7590104 C115.222054,67.2204687 115.420707,65.7285417 115.933311,64.2845312 C116.2161,63.4879167 116.40904,62.4634375 117.592391,62.67125 C118.677325,62.861875 118.60851,63.8241146 118.621234,64.6428646 C118.643826,66.0764583 118.698878,67.5030208 119.087096,68.8944271 C119.21304,69.3459896 119.243422,69.9277604 119.789784,70.0415625 C120.433005,70.1759375 120.657886,69.5702083 120.911851,69.1415625 C121.722045,67.7741146 121.935759,66.2079687 122.299308,64.6975521 C122.816326,62.5491146 123.325814,61.8886979 124.487612,62.0142187 C125.681869,62.143125 126.036848,62.9032812 125.937651,65.1155208 C125.931938,65.2454687 125.936872,65.3756771 125.936872,65.330625" id="Fill-28" fill="#FFFFFF"></path>
                <path d="M104.525881,67.5602083 C104.525881,66.0883333 104.533931,64.6164583 104.523024,63.1448437 C104.515753,62.1779167 104.890208,61.3372917 105.813103,61.1245312 C106.728986,60.9133333 107.332996,61.6328646 107.614746,62.4536979 C107.867153,63.1885937 108.233298,63.0701042 108.792903,62.8570833 C110.462631,62.2211458 112.013945,62.5667187 113.449443,63.564375 C114.030601,63.9682812 114.484777,64.4927604 114.718228,65.1651562 C114.936876,65.795625 115.036333,66.4870312 114.534376,67.0044792 C114.040729,67.5135937 113.369462,67.4810417 112.712997,67.2826042 C110.34993,66.5693229 110.336687,66.5677604 109.651917,68.9602083 C109.331734,70.0794792 109.048166,71.1971875 109.07751,72.3953646 C109.110489,73.7359896 108.311201,74.6036979 107.137199,74.7313021 C105.843485,74.8719271 104.925784,74.2417187 104.603005,72.8654167 C104.192455,71.114375 104.591839,69.3273958 104.525881,67.5602083" id="Fill-30" fill="#FFFFFF"></path>
                <path d="M145.645132,70.3117187 C146.773951,70.2013021 147.787213,70.1138021 148.037802,71.4101562 C148.275147,72.6380208 147.445737,73.2401042 146.480775,73.6375 C143.831024,74.7289062 140.771243,73.0007812 140.264352,70.1317708 C140.129319,69.3666667 140.04856,68.5835937 140.034018,67.8070312 C140.013763,66.71875 140.04804,65.7632812 138.850926,65.0648437 C137.936602,64.5317708 138.458034,63.5002604 139.146959,63.1583333 C140.414186,62.5299479 140.608165,61.4789062 140.754883,60.3046875 C140.802664,59.9223958 140.905236,59.5411458 141.029102,59.1752604 C141.212695,58.6333333 141.579879,58.3122396 142.190121,58.3356771 C142.810751,58.3596354 143.162614,58.7492187 143.269341,59.2841146 C143.420993,60.04375 143.522787,60.825 143.531875,61.5984375 C143.541484,62.4127604 143.840632,62.7809896 144.67238,62.7976562 C145.224714,62.8088542 145.79964,62.8950521 146.318995,63.0778646 C147.143732,63.3679687 147.559735,64.0255208 147.443659,64.9049479 C147.336932,65.7151042 146.822251,66.2143229 146.015692,66.3773437 C145.805613,66.4197917 145.578914,66.3861979 145.371951,66.4369792 C144.775472,66.5833333 143.800901,66.0513021 143.627177,66.7674479 C143.369058,67.8304687 143.501753,69.034375 144.102128,70.0203125 C144.474246,70.6320312 145.205757,70.3119792 145.645132,70.3117187" id="Fill-32" fill="#FFFFFF"></path>
                <path d="M58.0277966,21.4534896 C59.6403947,21.4675521 60.8652941,22.6774479 60.8421828,24.2329167 C60.8182924,25.8514062 59.4414816,27.2644271 57.8906868,27.2623461 C56.2575742,27.2605208 55.1336895,26.0396875 55.1596572,24.2964583 C55.1853653,22.5941146 56.3507985,21.4386458 58.0277966,21.4534896" id="Fill-34" fill="#FFFFFF"></path>
                <path d="M89.6953796,24.2646615 C89.7413425,22.5576302 90.9008031,21.4297656 92.5855916,21.453724 C94.2498655,21.4774219 95.3088309,22.5844531 95.2779293,24.2688281 C95.2457292,26.0141406 94.0161557,27.2836719 92.3778495,27.2628385 C90.7600579,27.2422656 89.6486376,26.0000781 89.6953796,24.2646615" id="Fill-36" fill="#FFFFFF"></path>
            </g>
        </g>
    </g>
</svg>