<?xml version="1.0" encoding="UTF-8"?>
<svg width="140px" height="60px" viewBox="0 0 140 60" version="1.1" xmlns="http://www.w3.org/2000/svg" xmlns:xlink="http://www.w3.org/1999/xlink">
    <title>Group 3</title>
    <g id="Exports" stroke="none" stroke-width="1" fill="none" fill-rule="evenodd">
        <g id="Clients" transform="translate(-123, -373)" fill="#FFFFFF">
            <g id="Group-6" transform="translate(121, 365)">
                <g id="Group-3" transform="translate(2, 7.9999)">
                    <path d="M83.1519432,26.1280167 C83.1831662,25.1658466 83.9887215,24.1594646 85.1339837,24.1929357 C85.6632771,24.2096713 86.1493579,24.4382242 86.5023035,24.8366305 C86.8285221,25.204813 87.0076177,25.6931418 86.9933799,26.1762251 C86.9616573,27.1638733 86.1216318,27.9374561 85.0810293,27.9374561 C85.0585487,27.9374561 85.0360681,27.9369565 85.0133377,27.9362072 C83.915035,27.9017369 83.1322102,27.1411429 83.1519432,26.1280167 M138.168491,45.9801443 C132.455169,48.2928995 129.73002,44.7459587 128.491588,41.914401 C126.404138,45.6379394 119.427406,49.4906165 116.158725,44.823392 C114.825625,46.155493 113.575952,46.8306607 112.08299,46.8528915 C108.99965,46.8531413 107.712759,43.2652359 106.678651,40.3822225 C106.118385,38.8038338 105.344302,36.5123103 104.492037,36.4890803 C103.238868,36.4548598 101.217861,40.3472526 100.168766,43.0933841 C99.3217467,45.1478621 98.6485773,46.916087 97.4366226,46.8586366 C95.861731,46.7797046 96.0418257,43.4967862 96.0503183,41.5050041 C94.7506893,43.8082675 91.9883218,46.9513066 89.0745849,46.8334083 C85.9025708,46.6887831 83.9260255,44.1309892 83.0815039,41.0396554 C82.5142432,42.4839098 80.4247953,46.8533911 75.9219291,46.8536409 C73.8509653,46.851143 72.2938083,45.6224528 71.1527924,43.0971309 C70.199115,40.985702 69.6883056,38.3047643 69.2376942,35.9395543 C68.7348779,33.3008302 68.2145767,30.5961629 67.2566529,30.6318821 C64.6683852,30.7280492 63.898799,43.092385 63.7779033,44.572858 C63.7194537,45.291738 63.5828215,45.8867248 63.2718398,46.2878788 C62.2100056,47.5460437 60.6645885,46.4879563 60.7425213,44.5723585 C61.0799802,36.2727669 60.1697653,29.0330112 58.006631,30.6678511 C55.9783804,32.2005292 54.9937296,41.0384065 54.7646772,43.9588876 C54.6869942,44.9345461 54.4746773,45.6858981 54.1334716,46.1924611 C53.0471586,47.6849239 51.6406217,46.3987832 51.6643512,44.0892751 C51.6853331,42.0352967 52.4711554,34.6411741 50.5175903,26.9001008 C48.7108986,19.7550134 44.3584026,13.2508733 36.7402233,12.4880312 C35.2619983,16.3601915 33.5574684,21.1423169 32.4209487,24.5988356 C37.3024883,24.5271475 46.5270322,24.9630215 47.326093,27.9229686 C47.8781168,29.9679548 45.0630448,32.7080914 42.404338,34.0968936 C42.8609442,38.078959 40.624623,41.4445562 37.12664,43.6004468 C37.3641851,47.5587827 37.1960801,53.8423631 35.854737,56.8969785 C34.7914041,59.4607672 33.2814565,59.9975542 32.1876499,60.0000521 C28.1488833,60.0000521 25.7681867,51.7094527 25.3128294,46.7869484 C19.5410576,46.9995151 13.5105089,46.3558202 9.91486016,42.1956584 C5.51790253,42.3355377 -2.38852817,41.1268302 0.696311157,36.2850063 C2.48027249,33.4849214 5.76244162,32.054655 8.95793551,30.3408831 C11.2714401,25.2505236 15.2979672,20.2243586 18.8671388,16.8904841 C17.0534531,12.8689527 14.2258919,8.82743847 12.7039546,5.32396022 C11.8826629,3.47430555 11.3211472,0.889784699 12.8845488,0.188889221 C16.2898617,-1.58607987 23.5710817,9.66896266 25.4487122,12.1725533 C28.5130692,10.5569468 31.6336277,9.68644758 34.6742552,9.58803246 C35.5642376,7.24230565 35.4103703,7.44288265 36.3100943,5.01172952 C37.059448,2.75018011 37.5585175,1.32191199 39.3899379,1.45254931 C40.6575945,1.54322111 41.3172756,2.93726874 40.2851658,4.46445155 C39.7568714,5.24577765 39.5390593,5.64818058 39.0827029,6.67454534 C38.6183534,7.71939416 38.5821346,7.79208147 37.7983107,9.74414781 C45.6210636,10.9993152 50.8023447,17.0718277 53.1263403,24.451213 C53.995091,27.2575425 54.3190615,29.6926922 54.382257,30.5514515 C55.5027906,28.0810822 56.9370535,26.8356564 58.6718073,26.8431499 C59.6237363,26.8471465 61.8985242,27.2325641 62.8614437,30.6613567 C63.5875674,28.7834764 65.2219078,26.8281628 67.1697278,26.8031844 C71.3019138,26.7287486 72.0133003,32.6863602 72.8143593,36.1738522 C73.5654615,39.8701641 74.2748497,43.3611531 76.2376567,43.4363383 C79.2048475,43.537501 81.0824781,37.2669094 81.6027793,35.3398215 C81.9090152,34.2107953 82.4615386,32.7068425 83.7207026,32.6753696 C85.1944315,32.6354041 85.4844314,33.9620099 85.6175666,35.393775 C85.9083158,37.7584854 86.5854817,43.2937113 89.2829052,43.1478371 C91.6468663,43.0229448 93.0359182,39.8034716 94.0500436,37.4524994 C94.6465291,36.2070735 95.8689747,32.6558864 97.5360369,32.6558864 C98.5069495,32.6628804 98.9980259,33.2631127 99.1364066,34.6019579 C99.2213333,35.406514 99.2190853,36.4421208 99.1763721,37.2514228 C100.360351,34.9938699 102.422322,32.7605462 104.818006,32.7000983 C107.419013,32.6004343 108.744619,35.6260746 109.743508,38.4344025 C110.835316,41.5032556 111.193008,43.1600766 112.634514,43.1600766 C114.619303,43.1600766 115.34068,40.3512492 115.774556,39.1073221 C116.493186,37.0465994 118.104547,35.2568931 119.850041,34.1860667 C121.819343,32.9783583 124.388127,32.4638021 126.662665,32.6943533 C126.34394,27.1171636 126.875981,23.3391721 126.894215,23.1575787 C126.98139,22.2820838 127.784947,21.5677 128.660192,21.6840996 C129.528943,21.7995001 130.143413,22.6302835 130.050993,23.5517388 C128.977918,34.2510106 130.822327,41.1026011 132.897787,42.7122129 C133.27771,43.0067089 134.40174,43.9416525 136.995753,42.8520922 C137.805554,42.4958994 138.77247,42.9672429 139.060972,43.7992753 C139.381445,44.6605324 138.985537,45.6494295 138.168491,45.9801443 M8.19084712,39.0121542 C7.76321595,37.6251005 7.6443185,36.1114061 7.82990843,34.5225265 C6.30322519,35.2319146 3.45218422,37.1475124 3.56134007,37.8199324 C3.66699894,38.4691225 4.62192531,38.7738597 7.19170888,38.9611981 C7.51093354,38.9844281 7.84439593,39.0014134 8.19084712,39.0121542 M24.482046,16.1076593 C23.8873089,16.5145583 23.1889113,17.018124 22.6039158,17.4884683 C23.5905649,19.9281141 24.4605645,22.7644178 24.6936135,25.3027285 C25.7264726,25.0969061 28.562027,24.8643566 29.1355323,24.8193954 C27.8029317,21.7550384 26.0734234,18.7356426 24.482046,16.1076593 M21.3814702,14.7805539 C21.8250876,14.4435945 22.4497988,14.0064716 22.9011595,13.6994863 C21.3012894,11.2188759 16.0325836,4.32232413 15.7206027,4.5283964 C15.408372,4.73446866 20.0673536,12.5886944 21.3814702,14.7805539 M13.5497251,28.3288685 C16.1227558,27.346216 18.9103515,26.5024438 21.5535718,25.9049591 C21.4161903,23.978121 20.8177065,21.7070798 20.1023235,19.7535147 C17.8137973,22.0657704 15.5487509,25.0249681 13.5497251,28.3288685 M11.4377966,38.6564609 C17.1536167,36.4341277 20.3685938,33.746196 21.3732273,29.2098586 C17.9876474,30.0386438 14.5586049,31.2411067 11.4944977,32.6448959 C11.25995,33.3680222 11.0955918,34.0779099 11.0061689,34.7623196 C10.8153335,36.2218108 10.9612077,37.5274347 11.4377966,38.6564609 M25.4636993,40.0270288 C22.0116767,40.803609 17.9731599,41.5177431 14.5054008,41.8871745 C14.9640053,42.1399564 15.4660722,42.3670106 16.0098532,42.567088 C18.3668203,43.4353392 21.4741403,43.7877852 25.215913,43.6126862 C25.2381438,42.4676738 25.3205727,41.2752023 25.4636993,40.0270288 M28.1019238,28.0950701 C27.9263253,28.104562 25.6927517,28.3481019 24.6876187,28.5189545 C24.2979547,32.325921 22.439058,35.5276595 19.2652954,38.0115172 C21.5648121,37.6208542 23.815371,37.1627493 25.97301,36.6491922 C26.4381089,34.0986421 27.2161878,31.0163006 28.1019238,28.0950701 M39.2630473,35.6705363 C38.3143656,36.0911735 37.3686812,36.4740932 36.3358221,36.8607597 C36.5204129,37.8743855 36.6757789,38.8945056 36.8019201,39.9221193 C38.1622468,38.7508795 39.0677158,37.3688215 39.2630473,35.6705363 M39.0866994,27.7818403 C40.2232192,28.6655781 41.0545022,29.9177481 41.4666467,30.9581008 C43.0944927,30.1000908 44.102873,29.3340016 44.0299359,28.8052076 C43.9584975,28.2869047 42.5589546,27.8869996 39.0866994,27.7818403 M34.0900091,28.4674989 C34.7074765,30.2035016 35.2322739,31.9524931 35.6656501,33.7189695 C36.669784,33.3350507 37.7426087,32.8861878 38.6665618,32.4533112 C38.3058729,31.6812271 37.3007398,29.2355864 34.0900091,28.4674989 M34.0125759,45.1176382 C32.3557549,45.7460961 30.4976075,46.2121941 28.4748522,46.4971983 C28.7074016,49.9504699 30.8645411,56.5460312 32.0874863,56.4433697 C33.576452,56.3182277 34.0545397,46.5084386 34.0125759,45.1176382 M33.2956942,37.9133519 C31.8539377,38.3762027 30.3394939,38.8155737 28.7671001,39.2259697 C28.5622768,40.6634799 28.4411312,42.0148144 28.4006662,43.2964589 C30.4311648,42.9802317 32.2560908,42.4591811 33.8057543,41.7650298 C33.6838594,40.4683981 33.5142557,39.1852549 33.2956942,37.9133519 M30.9749458,29.1544065 C30.318512,31.3540093 29.7142832,33.8665922 29.3838182,35.7697008 C30.5123448,35.4549722 31.6051523,35.1255064 32.6542474,34.7833015 C32.2188729,32.9573764 31.6181411,30.9448622 30.9749458,29.1544065 M33.5257458,12.5799519 C31.4822583,12.8277382 29.2092188,13.5823374 27.0800552,14.6181939 C28.224568,16.3926635 29.5114581,18.5098374 30.5957729,20.5605686 C31.4845063,18.0572278 32.5348504,15.2041885 33.5257458,12.5799519 M126.921022,35.9477972 C125.123992,35.7012598 123.371254,35.843637 121.506362,36.9227063 C120.372341,37.6183563 119.136407,39.0433772 118.722514,40.2820589 C117.536786,44.3635386 120.935855,44.5256488 123.820117,42.3610158 C126.573742,40.3005429 126.927187,37.3805614 126.921022,35.9477972" id="Fill-1"></path>
                </g>
            </g>
        </g>
    </g>
</svg>