<?xml version="1.0" encoding="UTF-8"?>
<svg width="208px" height="40px" viewBox="0 0 208 40" version="1.1" xmlns="http://www.w3.org/2000/svg" xmlns:xlink="http://www.w3.org/1999/xlink">
    <title>Group 28</title>
    <g id="Exports" stroke="none" stroke-width="1" fill="none" fill-rule="evenodd">
        <g id="Clients" transform="translate(-1441, -975)" fill="#FFFFFF">
            <g id="Group-28" transform="translate(1441, 975)">
                <path d="M51.1554996,10 C50.5175063,10 50,10.5273305 50,11.1778551 L50,11.1778551 L50,32.8218444 C50,33.472369 50.5175063,34 51.1554996,34 L51.1554996,34 L55.0848447,34 C55.7231318,34 56.2403442,33.472369 56.2403442,32.8218444 L56.2403442,32.8218444 L56.2403442,26.4307785 C56.2403442,26.2138368 56.4128463,26.0380599 56.6253149,26.0380599 L56.6253149,26.0380599 L60.4626784,26.0380599 C62.5926532,26.0380599 63.7507976,26.6474197 63.9376994,29.3901395 L63.9376994,29.3901395 C64.0702351,31.1464056 64.259194,32.4041866 64.5310243,33.2184691 L64.5310243,33.2184691 C64.688539,33.6896111 65.1308144,34 65.6192275,34 L65.6192275,34 L70.0096558,34 C70.5392107,34 70.911251,33.4684628 70.7372796,32.9588602 L70.7372796,32.9588602 C70.4504618,32.1178356 70.3261545,30.8489371 70.1031066,28.4757994 L70.1031066,28.4757994 C69.8721243,26.0194306 68.7371956,24.633047 66.8011755,24.0017528 L66.8011755,24.0017528 C66.6175063,23.9416581 66.6222082,23.6772417 66.8082284,23.6261612 L66.8082284,23.6261612 C69.2635181,22.9540026 71,20.7833838 71,17.6187996 L71,17.6187996 C71,12.9332198 67.9734257,10 61.8826616,10 L61.8826616,10 L51.1554996,10 Z M56.2403442,20.6547813 L56.2403442,15.5734782 C56.2403442,15.3565365 56.4128463,15.1807597 56.6253149,15.1807597 L56.6253149,15.1807597 L60.7615449,15.1807597 C63.4519312,15.1807597 64.7975651,16.2092796 64.7975651,18.1521396 L64.7975651,18.1521396 C64.7975651,20.3618199 63.4519312,21.0471993 60.7615449,21.0471993 L60.7615449,21.0471993 L56.6253149,21.0471993 C56.4128463,21.0471993 56.2403442,20.8714225 56.2403442,20.6547813 L56.2403442,20.6547813 Z" id="Clip-2"></path>
                <path d="M73,25.2682419 C73,30.7061825 76.8979762,34 82.3627772,34 L82.3627772,34 C86.4879776,34 89.461428,32.1736591 90.6116751,28.8725918 L90.6116751,28.8725918 C90.7805904,28.3868564 90.450875,27.8700074 89.9399212,27.8231859 L89.9399212,27.8231859 L86.686949,27.5220179 C86.2496326,27.4815399 85.8357601,27.6948043 85.5886989,28.0578976 L85.5886989,28.0578976 C84.9701443,28.966839 83.993922,29.365577 82.5924058,29.365577 L82.5924058,29.365577 C80.8641798,29.365577 79.4293014,28.5179566 79.097482,26.7317916 L79.097482,26.7317916 C79.0526984,26.4889239 79.2393468,26.2635766 79.4861074,26.2635766 L79.4861074,26.2635766 L89.818194,26.2635766 C90.470712,26.2635766 91,25.7334363 91,25.0794455 L91,25.0794455 L91,24.540243 C91,19.906122 87.9808643,16 82.2864347,16 L82.2864347,16 C76.9743187,16 73,19.8680607 73,25.2682419 L73,25.2682419 Z M79.2077879,22.7876082 C79.5387056,21.4261596 80.4295685,20.4426059 82.2103927,20.4426059 L82.2103927,20.4426059 C83.8553633,20.4426059 84.8243722,21.4895952 85.0618154,22.8105659 L85.0618154,22.8105659 C85.1053967,23.0531315 84.9187483,23.2763644 84.6728894,23.2763644 L84.6728894,23.2763644 L79.5913038,23.2763644 C79.3358269,23.2763644 79.1470745,23.0362153 79.2077879,22.7876082 L79.2077879,22.7876082 Z" id="Clip-5"></path>
                <path d="M107.078274,10 C106.436849,10 105.917094,10.539038 105.917094,11.2040052 L105.917094,11.2040052 L105.917094,19.3009399 C105.917094,19.5054979 105.658103,19.5779839 105.557695,19.4016832 L105.557695,19.4016832 C104.621841,17.7624547 102.855855,16.697893 100.434564,16.697893 L100.434564,16.697893 C95.4779912,16.697893 93,20.7478961 93,25.8486394 L93,25.8486394 C93,30.9893114 95.4779912,35 100.434564,35 L100.434564,35 C102.856446,35 104.622727,33.934824 105.558286,32.3204742 L105.558286,32.3204742 C105.659579,32.1457092 105.917094,32.2188095 105.917094,32.4224461 L105.917094,32.4224461 L105.917094,33.3285214 C105.917094,33.9934885 106.436849,34.5328337 107.078274,34.5328337 L107.078274,34.5328337 L110.839115,34.5328337 C111.480245,34.5328337 112,33.9934885 112,33.3285214 L112,33.3285214 L112,11.2040052 C112,10.539038 111.480245,10 110.839115,10 L110.839115,10 L107.078274,10 Z M99.1207063,25.8486394 C99.1207063,23.3564715 100.171734,21.604214 102.57501,21.604214 L102.57501,21.604214 C104.602645,21.604214 105.917094,23.2397567 105.917094,25.7319246 L105.917094,25.7319246 L105.917094,25.9656613 C105.917094,28.4968364 104.602645,30.1323791 102.57501,30.1323791 L102.57501,30.1323791 C100.171734,30.1323791 99.1207063,28.3801216 99.1207063,25.8486394 L99.1207063,25.8486394 Z" id="Clip-8"></path>
                <path d="M132.188143,19.9059879 C132.105539,20.0435876 131.899331,20.033048 131.832215,19.8878365 L131.832215,19.8878365 C131.038967,18.1634491 129.470086,17 126.623567,17 L126.623567,17 C124.338576,17 122.626049,17.868049 121.618697,19.3233851 L121.618697,19.3233851 C121.510278,19.4803072 121.255783,19.4050666 121.255783,19.2165257 L121.255783,19.2165257 L121.255783,18.5929357 C121.255783,17.959099 120.720979,17.445296 120.06166,17.445296 L120.06166,17.445296 L116.194427,17.445296 C115.534804,17.445296 115,17.959099 115,18.5929357 L115,18.5929357 L115,32.8520674 C115,33.4859042 115.534804,34 116.194427,34 L116.194427,34 L120.06166,34 C120.720979,34 121.255783,33.4859042 121.255783,32.8520674 L121.255783,32.8520674 L121.255783,25.87108 C121.255783,23.3843319 121.989507,21.7509945 124.036098,21.7509945 L124.036098,21.7509945 C125.928108,21.7509945 126.391848,22.9387432 126.391848,25.2026969 L126.391848,25.2026969 L126.391848,32.8520674 C126.391848,33.4859042 126.926349,34 127.585971,34 L127.585971,34 L131.453205,34 C132.112827,34 132.647328,33.4859042 132.647328,32.8520674 L132.647328,32.8520674 L132.647328,25.87108 C132.647328,23.3843319 133.342483,21.7509945 135.427642,21.7509945 L135.427642,21.7509945 C137.319653,21.7509945 137.74452,22.9387432 137.74452,25.2026969 L137.74452,25.2026969 L137.74452,32.8520674 C137.74452,33.4859042 138.279021,34 138.938643,34 L138.938643,34 L142.805877,34 C143.465499,34 144,33.4859042 144,32.8520674 L144,32.8520674 L144,23.6068335 C144,20.1545456 142.609995,17 137.860531,17 L137.860531,17 C135.154926,17 133.190636,18.2307851 132.188143,19.9059879 L132.188143,19.9059879 Z" id="Clip-11"></path>
                <path d="M146.97866,20.9072707 C146.733847,21.6477905 147.24001,22.4256244 148.001616,22.4775003 L148.001616,22.4775003 L151.365206,22.7071494 C151.852174,22.7405198 152.310201,22.4592982 152.503925,22.0006067 L152.503925,22.0006067 C152.859774,21.1569421 153.503847,20.6151279 154.561355,20.6151279 L154.561355,20.6151279 C155.556257,20.6151279 156.169617,21.0055617 156.461089,21.7020932 L156.461089,21.7020932 C156.565629,21.9526747 156.62853,22.3986247 156.652746,22.7987663 L156.652746,22.7987663 C156.664853,23.0002022 156.524581,23.1779755 156.330266,23.2110426 L156.330266,23.2110426 L154.819161,23.4713318 L151.970593,23.9615735 C148.32823,24.6153302 146,26.0384265 146,29.3460411 L146,29.3460411 C146,32.2692891 148.140708,34 151.40714,34 L151.40714,34 C153.895429,34 155.729604,33.0953585 156.75699,31.3485691 L156.75699,31.3485691 C156.839382,31.2087168 157.043146,31.2187279 157.102209,31.3704116 L157.102209,31.3704116 C157.761933,33.0723026 159.290461,34 161.207619,34 L161.207619,34 C162.693328,34 163.790112,33.6298918 164.617573,33.1347962 L164.617573,33.1347962 C164.855002,32.9928203 165,32.731621 165,32.4500961 L165,32.4500961 L165,30.1220548 C165,29.8626757 164.760503,29.6739812 164.515395,29.7392052 L164.515395,29.7392052 C164.232783,29.8138336 163.964345,29.8459905 163.648363,29.8459905 L163.648363,29.8459905 C163.009901,29.8459905 162.634265,29.461624 162.634265,28.5770048 L162.634265,28.5770048 L162.634265,22.7305086 C162.634265,17.9612701 159.367833,16 154.93699,16 L154.93699,16 C150.592968,16 147.956139,17.9491354 146.97866,20.9072707 L146.97866,20.9072707 Z M151.857785,28.5381737 C151.857785,27.4229952 152.721569,26.9615735 154.186015,26.6539589 L154.186015,26.6539589 L155.56866,26.3964 L156.192356,26.279907 C156.43835,26.2340985 156.662786,26.4358378 156.648021,26.6918799 L156.648021,26.6918799 C156.632664,26.9646071 156.605791,27.2482556 156.568582,27.426939 L156.568582,27.426939 C156.227203,29.0648195 155.008455,30.0001011 153.547257,30.0001011 L153.547257,30.0001011 C152.533751,30.0001011 151.857785,29.4230964 151.857785,28.5381737 L151.857785,28.5381737 Z" id="Clip-14"></path>
                <path d="M173.428824,18.7169696 C173.328323,18.8915663 173.071029,18.8183582 173.071029,18.6149683 L173.071029,18.6149683 L173.071029,17.6666326 C173.071029,17.0037778 172.552314,16.4658975 171.912172,16.4658975 L171.912172,16.4658975 L168.159151,16.4658975 C167.51901,16.4658975 167,17.0037778 167,17.6666326 L167,17.6666326 L167,38.7989585 C167,39.462426 167.51901,40 168.159151,40 L168.159151,40 L171.912172,40 C172.552314,40 173.071029,39.462426 173.071029,38.7989585 L173.071029,38.7989585 L173.071029,31.6631611 C173.071029,31.4606902 173.327144,31.3868695 173.428529,31.5599347 L173.428529,31.5599347 C174.377542,33.1812334 176.119953,34.2523994 178.580018,34.2523994 L178.580018,34.2523994 C183.489243,34.2523994 186,30.2522973 186,25.1258934 L186,25.1258934 C186,20.0386972 183.489243,16 178.580018,16 L178.580018,16 C176.120542,16 174.378426,17.0702471 173.428824,18.7169696 L173.428824,18.7169696 Z M173.071029,25.2425975 L173.071029,25.0094956 C173.071029,22.5240964 174.382847,20.893302 176.443855,20.893302 L176.443855,20.893302 C178.804892,20.893302 179.891541,22.6404942 179.891541,25.1258934 L179.891541,25.1258934 C179.891541,27.6505003 178.804892,29.3979988 176.443855,29.3979988 L176.443855,29.3979988 C174.382847,29.3979988 173.071029,27.7668981 173.071029,25.2425975 L173.071029,25.2425975 Z" id="Clip-17"></path>
                <path d="M195.428924,18.7169696 C195.328421,18.8915663 195.071123,18.8183582 195.071123,18.6149683 L195.071123,18.6149683 L195.071123,17.6666326 C195.071123,17.0037778 194.5524,16.4658975 193.912248,16.4658975 L193.912248,16.4658975 L190.158874,16.4658975 C189.518723,16.4658975 189,17.0037778 189,17.6666326 L189,17.6666326 L189,38.7989585 C189,39.462426 189.518723,40 190.158874,40 L190.158874,40 L193.912248,40 C194.5524,40 195.071123,39.462426 195.071123,38.7989585 L195.071123,38.7989585 L195.071123,31.6631611 C195.071123,31.4606902 195.326948,31.3868695 195.428334,31.5599347 L195.428334,31.5599347 C196.377656,33.1812334 198.120094,34.2523994 200.580197,34.2523994 L200.580197,34.2523994 C205.489204,34.2523994 208,30.2522973 208,25.1258934 L208,25.1258934 C208,20.0386972 205.489204,16 200.580197,16 L200.580197,16 C198.120389,16 196.378246,17.0702471 195.428924,18.7169696 L195.428924,18.7169696 Z M195.071123,25.2425975 L195.071123,25.0094956 C195.071123,22.5240964 196.382667,20.893302 198.444001,20.893302 L198.444001,20.893302 C200.804781,20.893302 201.891741,22.6404942 201.891741,25.1258934 L201.891741,25.1258934 C201.891741,27.6505003 200.804781,29.3979988 198.444001,29.3979988 L198.444001,29.3979988 C196.382667,29.3979988 195.071123,27.7668981 195.071123,25.2425975 L195.071123,25.2425975 Z" id="Clip-20"></path>
                <path d="M24.6796733,10.6310834 C23.9031552,10.9951349 23.2754493,11.5948922 22.8381985,12.3345524 L22.8381985,12.3345524 C22.2637711,13.3056605 22.333278,14.5240317 22.9965029,15.4379621 L22.9965029,15.4379621 C23.7916991,16.5337662 24.2212949,17.4917964 24.491974,18.0955076 L24.491974,18.0955076 C24.5614809,18.2515296 24.6221081,18.3862621 24.6689564,18.4778072 L24.6689564,18.4778072 C25.0510915,19.2229419 25.33953,19.9978819 25.6187826,20.7475785 L25.6187826,20.7475785 C25.8560861,21.3841364 26.0799168,21.9857186 26.3561074,22.5696608 L26.3561074,22.5696608 C26.8114238,23.5316448 27.4066727,24.2640057 28.1256256,24.7463663 L28.1256256,24.7463663 C28.4985748,24.9963666 28.9180661,25.1891892 29.3730763,25.3193597 L29.3730763,25.3193597 C29.6777433,25.4066469 29.9554649,25.4388853 30.3069802,25.4799438 L30.3069802,25.4799438 C30.5773531,25.5112698 30.8841634,25.5468538 31.2470081,25.6146763 L31.2470081,25.6146763 C32.8701637,25.9163798 33.6120815,27.6000799 33.4865403,29.0310425 L33.4865403,29.0310425 C33.3288483,30.8230153 32.2197991,32.1968002 30.5197878,32.7068372 L30.5197878,32.7068372 C28.6976035,33.2536748 27.5928411,33.1298912 26.0747114,32.6895015 L26.0747114,32.6895015 C24.9999564,32.3777615 23.9475539,31.8546465 22.857489,31.0903513 L22.857489,31.0903513 C21.5683954,30.1867615 20.5683527,29.582138 19.4357263,30.0380387 L19.4357263,30.0380387 C18.9531583,30.232382 18.5394848,30.5933921 18.2703367,31.0535508 L18.2703367,31.0535508 C18.1000906,31.3446095 17.9714875,32.0526395 18.0054755,32.5097567 L18.0054755,32.5097567 C18.0673275,33.3348793 18.8331287,34.5076299 19.9565691,35.4969862 L19.9565691,35.4969862 C21.1911595,36.5842745 22.7521569,37.3975358 24.4037889,37.8242394 L24.4037889,37.8242394 C25.7645328,38.0340936 27.1344627,38.0666362 28.5221521,37.8640813 L28.5221521,37.8640813 C29.5522021,37.7132295 30.5121329,37.4227791 31.4830867,37.0225353 L31.4830867,37.0225353 C33.4491841,36.2129238 34.870249,34.8905379 35.8905008,33.0818376 L35.8905008,33.0818376 C36.9386166,31.2253879 37.1159052,29.2196072 36.9413723,27.1517826 L36.9413723,27.1517826 C36.871253,26.2372439 36.7417312,25.3239217 36.2441595,24.3400399 L36.2441595,24.3400399 C35.7606728,23.2405861 35.0126311,22.3397336 34.1430288,21.5158276 L34.1430288,21.5158276 C33.1656448,20.5912523 31.9971932,20.0085267 30.7598471,19.5246454 L30.7598471,19.5246454 C30.1942994,19.3035381 30.1587804,19.085168 30.5384659,18.6405203 L30.5384659,18.6405203 C30.8979424,18.2198994 31.3269258,17.8220888 31.5605548,17.3363826 L31.5605548,17.3363826 C32.3790221,15.6301764 32.3190073,13.9464763 31.2362912,12.3418517 L31.2362912,12.3418517 C30.1376527,10.7128961 28.7514944,10 27.2560233,10 L27.2560233,10 C26.4210214,10 25.5520314,10.2220197 24.6796733,10.6310834 L24.6796733,10.6310834 Z" id="Clip-23"></path>
                <path d="M12.1800566,0.115547719 C10.8222821,0.369144556 9.79780912,1.01073847 8.8067847,2.0129629 L8.8067847,2.0129629 C8.0519722,2.776186 7.48985889,3.6011359 7.18053377,4.66417492 L7.18053377,4.66417492 C6.81970379,5.90448846 6.79720742,7.13172687 7.17372566,8.32126023 L7.17372566,8.32126023 C7.54669183,9.49923883 8.18872647,10.5558923 9.13564615,11.3838829 L9.13564615,11.3838829 C9.44763532,11.6566364 9.3982025,12.0455457 9.05898088,12.1975821 L9.05898088,12.1975821 C8.52350801,12.4371916 7.98152303,12.6619015 7.44013007,12.8881318 L7.44013007,12.8881318 C6.03943487,13.4740804 4.88975183,14.4474179 3.80962994,15.4861311 L3.80962994,15.4861311 C2.61850621,16.6312698 1.75742795,18.0430805 1.06388846,19.5594922 L1.06388846,19.5594922 C0.535223706,20.7161857 0.069311989,21.9121046 0.0343834105,23.1886028 L0.0343834105,23.1886028 C-0.00261720227,24.5380786 -0.0674422759,25.8881625 0.205178239,27.2470645 L0.205178239,27.2470645 C0.615441034,29.2925632 1.29921236,31.2024453 2.50395231,32.8778873 L2.50395231,32.8778873 C3.43399972,34.1720217 4.45758467,35.4184167 5.85798386,36.211439 L5.85798386,36.211439 C6.65216502,36.661771 7.51057923,37.0269626 8.37964963,37.2978916 L8.37964963,37.2978916 C9.11906987,37.5280748 9.88631458,37.6627791 10.6505992,37.8096464 L10.6505992,37.8096464 C11.0709262,37.8905298 11.4956932,37.9422222 11.9231243,37.9625951 L11.9231243,37.9625951 C12.74809,38.0015164 13.4010768,38.0304033 14.1517452,37.94131 L14.1517452,37.94131 C14.9027097,37.8522166 15.951455,37.6056134 16.6023698,37.3666121 L16.6023698,37.3666121 C17.2556526,37.1266985 17.7331085,36.9378692 18.2111565,36.7037331 L18.2111565,36.7037331 C18.6243793,36.5009164 18.7398212,35.9517607 18.4426323,35.594779 L18.4426323,35.594779 C17.5990183,34.5831283 17.0907779,33.5210015 17.0232888,32.5884098 L17.0232888,32.5884098 C16.976224,31.9349571 17.1171223,30.9023253 17.4711442,30.275631 L17.4711442,30.275631 C17.8923592,29.5300441 18.545346,28.9443996 19.3099267,28.6257312 L19.3099267,28.6257312 C21.2280384,27.8272356 22.834457,28.991835 24.0072285,29.842023 L24.0072285,29.842023 C24.9275077,30.509159 25.8036822,30.9625318 26.6857768,31.2270752 L26.6857768,31.2270752 C27.9278134,31.5998687 28.7231786,31.6910906 30.1514022,31.2480563 L30.1514022,31.2480563 C31.6139624,30.7943794 31.9312797,29.5641003 31.9901847,28.8714221 L31.9901847,28.8714221 C32.0789861,27.828756 31.5503214,27.1552344 31.0074484,27.0509374 L31.0074484,27.0509374 C30.7058194,26.9925554 30.4474071,26.961844 30.197283,26.9317408 L30.197283,26.9317408 C29.8234288,26.8864339 29.4699989,26.8438637 29.0606242,26.7228427 L29.0606242,26.7228427 C28.4736464,26.549217 27.9292934,26.2898428 27.4423654,25.9520178 L27.4423654,25.9520178 C26.5268222,25.3168094 25.7826659,24.3820892 25.2297287,23.1737033 L25.2297287,23.1737033 C24.9363878,22.5324134 24.6986959,21.8728792 24.4689961,21.2349342 L24.4689961,21.2349342 C24.2019997,20.4929962 23.9495075,19.792108 23.61887,19.1243639 L23.61887,19.1243639 C23.556413,18.9987817 23.4906999,18.8473534 23.4146266,18.6722074 L23.4146266,18.6722074 C22.8841859,17.4483138 21.6480694,14.6018869 17.6182586,12.3584367 L17.6182586,12.3584367 C17.5321212,12.3204276 17.4468718,12.2812022 17.3631024,12.2389361 L17.3631024,12.2389361 C17.0312809,12.0713919 17.0090806,11.7338709 17.280517,11.4963899 L17.280517,11.4963899 C18.1919161,10.6985025 18.8644393,9.73580758 19.2433256,8.56299823 L19.2433256,8.56299823 C19.8243832,6.76531897 19.8081029,5.00139181 18.8934478,3.32169286 L18.8934478,3.32169286 C18.0539779,1.77882673 16.8193414,0.717612152 15.1270814,0.2405217 L15.1270814,0.2405217 C14.5682241,0.0827078413 13.9948626,0 13.4040368,0 L13.4040368,0 C13.0044302,0 12.5968315,0.0377050453 12.1800566,0.115547719 L12.1800566,0.115547719 Z" id="Clip-26"></path>
            </g>
        </g>
    </g>
</svg>