<?xml version="1.0" encoding="UTF-8"?>
<svg width="150px" height="60px" viewBox="0 0 150 60" version="1.1" xmlns="http://www.w3.org/2000/svg" xmlns:xlink="http://www.w3.org/1999/xlink">
    <title>Logo</title>
    <g id="Exports" stroke="none" stroke-width="1" fill="none" fill-rule="evenodd">
        <g id="Clients" transform="translate(-1784, -662)" fill="#FFFFFF">
            <g id="Logo" transform="translate(1784, 662)">
                <path d="M71.6404019,20.7081929 L75.316441,20.7081929 C75.4278361,23.2700847 76.7643815,24.6905686 79.8834451,24.6905686 C82.5571242,24.6905686 84.0329135,23.6601637 84.0329135,21.7105529 C84.0329135,20.4575539 83.4204364,19.8727294 80.9418949,19.3155577 L78.2127143,18.7028845 C74.0910946,17.7840708 72.4203639,16.0295976 72.4203639,13.3282658 C72.4203639,10.0421096 74.8710566,7.45217292 79.7443973,7.45217292 C84.4229926,7.45217292 87.2076746,9.84716813 87.4581175,13.940939 L83.7824706,13.940939 C83.6710755,11.768734 82.4457291,10.5433877 79.7443973,10.5433877 C77.488646,10.5433877 76.0405093,11.4066999 76.0405093,12.9662316 C76.0405093,14.0244853 76.7088801,14.7207049 79.2431192,15.2776805 L81.8607085,15.8625049 C86.1217682,16.8093635 87.792499,18.6473831 87.792499,21.571309 C87.792499,25.7766711 84.3670989,27.9208312 79.7998987,27.9208312 C74.9265581,27.9208312 71.612357,25.4981833 71.6404019,20.7081929" id="Fill-4"></path>
                <path d="M98.2220834,22.1840606 L98.2220834,20.6802264 C97.5815614,20.9587142 96.8017955,21.0979582 96.0498784,21.2372021 C94.4066042,21.5435387 92.8472685,21.8498753 92.8472685,23.3815582 C92.8472685,24.3841144 93.4875944,25.0803339 94.9914286,25.0803339 C96.6902043,25.0803339 98.2220834,24.1613241 98.2220834,22.1840606 M101.591786,18.5082176 L101.591786,27.4474803 L98.5005712,27.4474803 L98.5005712,26.1664364 C97.4978189,27.2803876 96.1053799,27.7816657 94.3511027,27.7816657 C91.120448,27.7816657 89.2826245,26.08289 89.2826245,23.4651046 C89.2826245,20.0120518 92.4852344,19.3993786 95.4370091,18.8422069 C96.4397614,18.6474615 97.4142726,18.45252 98.2220834,18.1740322 C98.2220834,16.5309541 97.637259,16.0294799 95.8827857,16.0294799 C93.9055222,16.0294799 93.3761993,16.670198 93.3206978,17.9231971 L89.9231465,17.9231971 C90.0625865,14.5536906 92.2902929,13.3840418 95.8827857,13.3840418 C100.004405,13.3840418 101.591786,14.9155287 101.591786,18.5082176" id="Fill-6"></path>
                <path d="M109.452909,10.4878274 C108.673339,10.4878274 108.172061,10.9055591 108.172061,11.8522216 L108.172061,13.718286 L110.901241,13.718286 L110.901241,16.5029681 L108.172061,16.5029681 L108.172061,27.4475392 L104.802358,27.4475392 L104.802358,16.5029681 L102.741548,16.5029681 L102.741548,13.718286 L104.802358,13.718286 L104.802358,11.7410225 C104.802358,9.09519219 106.417588,7.7306019 108.895933,7.7306019 C109.675895,7.7306019 110.427812,7.84219315 111.096183,8.12068096 L111.096183,10.7663152 C110.761801,10.6825727 110.177173,10.4878274 109.452909,10.4878274" id="Fill-8"></path>
                <path d="M115.111604,18.9536608 L121.07144,18.9536608 C120.848453,17.0599437 119.650956,16.1409339 118.119273,16.1409339 C116.643484,16.1409339 115.501487,16.9763973 115.111604,18.9536608 M118.286169,25.052544 C119.929444,25.052544 120.764907,24.1335342 121.15479,22.9917341 L124.608039,22.9917341 C123.52174,26.6956221 120.79256,27.8374221 118.174774,27.8374221 C114.0812,27.8374221 111.407913,24.9966503 111.407913,20.5410414 C111.407913,15.5563056 114.777615,13.3841007 118.258713,13.3841007 C122.463683,13.3841007 124.635888,16.5308168 124.635888,20.8195292 L124.635888,21.4878999 L114.972557,21.4878999 C115.111604,23.7713039 116.336951,25.052544 118.286169,25.052544" id="Fill-10"></path>
                <path d="M132.711681,16.614422 C131.681276,16.614422 130.817964,17.0321537 130.344535,17.8117235 C129.926999,18.5359879 129.926999,19.4548016 129.926999,20.4575539 L129.926999,27.4474019 L126.557297,27.4474019 L126.557297,13.7181487 L129.787559,13.7181487 L129.787559,15.2776805 C130.427885,13.940939 131.542229,13.4675097 132.600286,13.4675097 C133.213155,13.4675097 133.769935,13.5510561 134.215515,13.6903 L134.215515,16.8093635 C133.769935,16.6979684 133.240612,16.614422 132.711681,16.614422" id="Fill-12"></path>
                <path d="M83.0581669,39.1530684 C83.0581669,37.2872 81.7773191,36.0061561 79.883602,36.0061561 L75.8455286,36.0061561 L75.8455286,42.3278295 L79.883602,42.3278295 C81.7773191,42.3278295 83.0581669,41.0467855 83.0581669,39.1530684 M86.9291475,39.1530684 C86.9291475,42.8569563 84.0609192,45.6418345 80.2734849,45.6418345 L75.8455286,45.6418345 L75.8455286,52.1582532 L72.3087334,52.1582532 L72.3087334,32.6923472 L80.2734849,32.6923472 C84.0609192,32.6923472 86.9291475,35.4772254 86.9291475,39.1530684" id="Fill-14"></path>
                <path d="M92.4319883,52.4090491 C91.1789893,52.4090491 90.2601756,52.1027125 89.6751551,51.5178881 C88.8118428,50.6267271 88.7563414,49.2899856 88.7563414,48.6494636 L88.7563414,32.692308 L92.097999,32.692308 L92.097999,48.6494636 C92.097999,49.4292295 92.487882,49.624171 92.9893562,49.624171 C93.3788469,49.624171 93.6853796,49.5963222 93.9358225,49.5125798 L93.9358225,52.2698052 C93.490242,52.3533516 92.8777649,52.4090491 92.4319883,52.4090491" id="Fill-16"></path>
                <path d="M103.89992,46.8949512 L103.89992,45.391117 C103.259398,45.6696048 102.479633,45.8088487 101.727715,45.9480926 C100.084833,46.2544292 98.5254978,46.5607658 98.5254978,48.0924488 C98.5254978,49.0950049 99.1658237,49.7912245 100.669658,49.7912245 C102.368434,49.7912245 103.89992,48.8722147 103.89992,46.8949512 M107.269623,43.2191082 L107.269623,52.1583709 L104.178408,52.1583709 L104.178408,50.8773269 C103.176048,51.9912782 101.783609,52.4925563 100.029332,52.4925563 C96.7986772,52.4925563 94.9608538,50.7937806 94.9608538,48.1759951 C94.9608538,44.7229424 98.1630714,44.1102692 101.115238,43.5530974 C102.117598,43.3583521 103.092502,43.1634106 103.89992,42.8849228 C103.89992,41.2418447 103.315096,40.7403705 101.560623,40.7403705 C99.5833593,40.7403705 99.0544285,41.3810886 98.9985348,42.6340876 L95.6013757,42.6340876 C95.7404235,39.2645812 97.9681299,38.0949324 101.560623,38.0949324 C105.682242,38.0949324 107.269623,39.6264192 107.269623,43.2191082" id="Fill-18"></path>
                <path d="M120.572652,50.7380242 C119.458701,51.8521716 117.982912,52.548195 115.838556,52.548195 C113.833443,52.548195 112.246063,51.9355218 111.048565,50.7380242 C109.767325,49.4571764 109.043453,47.5075656 109.043453,45.3077079 C109.043453,43.1076542 109.767325,41.1860883 111.076218,39.8771956 C112.246063,38.7075467 113.833443,38.0948735 115.838556,38.0948735 C117.815819,38.0948735 119.4032,38.7075467 120.600697,39.9050443 C121.380463,40.6848102 121.965091,41.6873663 122.299473,42.8568191 L118.623434,42.8568191 C118.12196,41.6314727 117.147448,40.9911468 115.810707,40.9911468 C113.248423,40.9911468 112.635946,43.3582932 112.635946,45.3077079 C112.635946,47.2849714 113.248423,49.6240729 115.838556,49.6240729 C117.425936,49.6240729 118.2614,48.7329119 118.678935,47.5911119 L122.32693,47.5911119 C121.99294,48.8445032 121.408116,49.9025608 120.572652,50.7380242" id="Fill-20"></path>
                <path d="M126.949945,43.6645514 L132.90978,43.6645514 C132.686794,41.7708342 131.489296,40.8518245 129.957613,40.8518245 C128.481824,40.8518245 127.339828,41.6872879 126.949945,43.6645514 M130.12451,49.7634345 C131.767784,49.7634345 132.603248,48.8444247 132.99313,47.7026247 L136.446379,47.7026247 C135.360081,51.4065126 132.6309,52.5483127 130.013115,52.5483127 C125.91954,52.5483127 123.246253,49.7075408 123.246253,45.2519319 C123.246253,40.2671962 126.615956,38.0949912 130.097053,38.0949912 C134.302023,38.0949912 136.474228,41.2417074 136.474228,45.5304197 L136.474228,46.1987905 L126.810897,46.1987905 C126.949945,48.4821945 128.175291,49.7634345 130.12451,49.7634345" id="Fill-22"></path>
                <path d="M137.509673,47.7025855 L140.93527,47.7025855 C141.074317,49.0950245 142.07707,49.7633953 143.692299,49.7633953 C145.279679,49.7633953 146.226538,49.0950245 146.226538,48.2317123 C146.226538,47.6190391 145.753109,47.1734586 144.054333,46.8392732 L142.773093,46.5886342 C139.347889,45.9202635 137.899556,44.5556732 137.899556,42.4115131 C137.899556,39.7656828 140.071761,38.094952 143.413811,38.094952 C146.72762,38.094952 149.122811,39.7380301 149.317753,42.7456985 L145.892157,42.7456985 C145.80861,41.4923072 144.945298,40.768435 143.385962,40.768435 C142.160616,40.768435 141.325152,41.2418643 141.325152,42.1330253 C141.325152,42.7733512 141.742688,43.051839 143.747996,43.5252683 L144.917253,43.8037561 C146.894713,44.2771854 149.568196,44.9455561 149.568196,47.8696782 C149.568196,50.2089758 147.841571,52.4925759 143.580904,52.4925759 C140.155308,52.4925759 137.81601,51.0163943 137.509673,47.7025855" id="Fill-24"></path>
                <path d="M7.35780248,31.9769397 C11.485795,31.9769397 17.268396,29.1475576 20.2442994,30.2322485 C24.434445,31.7596107 26.0963081,31.8895781 28.6953709,31.3263206 C29.8107954,31.0845615 31.4089367,31.1474932 31.4089367,32.8865166 C31.4089367,35.1131624 28.2632394,36.2218925 26.9539047,36.5041076 C24.9520616,36.8613716 23.215105,36.4554431 21.9787071,35.9600031 C21.3963884,35.7268434 20.937788,36.6004594 21.3505088,37.1551176 C21.7430347,37.6822188 22.2222222,38.2376587 22.790032,38.7461931 C25.6349626,41.2947283 28.9645707,41.620331 32.1471286,40.6423502 C36.2012039,39.3966168 37.4658353,36.9170719 38.9720213,35.6269737 C39.4523852,35.2157683 40.2884144,35.0230647 40.9375919,35.0994816 C41.5822599,35.1753123 42.4959316,35.6846284 42.198106,36.377658 C40.5809462,40.142806 39.2608278,40.9720572 39.2602396,40.9726435 C39.2600435,40.9726435 43.9307492,39.1071705 45.0671529,41.2267153 C45.4377193,41.9181813 41.9345921,44.0717326 40.5695743,44.8882802 C39.0935827,45.7714727 33.5186166,49.1467183 29.9745113,49.1780684 C27.4391702,49.2002688 15.8080897,44.5464559 5.75613199,42.0076927 C4.16034351,38.8136199 3.2174578,35.3170062 2.99452973,31.6828028 C4.55953571,31.870425 6.03140992,31.9769397 7.35780248,31.9769397 M52.6514127,28.0065799 C48.5234202,28.0065799 42.7408192,30.8359621 39.7651119,29.7512711 C35.5749662,28.223909 33.9129071,28.0939415 31.3140404,28.6571991 C30.1984197,28.8989581 28.6004745,28.8362219 28.6004745,27.097003 C28.6004745,24.8703572 31.7459757,23.7616272 33.0555065,23.4794121 C35.0573496,23.1221481 36.7941102,23.5280766 38.030508,24.0235165 C38.6128267,24.2568716 39.0716232,23.3830602 38.6587064,22.828402 C38.2663765,22.3013009 37.7869929,21.7458609 37.2191832,21.2373265 C34.3744486,18.6887913 31.0446444,18.3631886 27.8622826,19.3411694 C23.8082074,20.5870983 22.5433798,23.0664477 21.0371939,24.356546 C20.55683,24.7679468 19.7208007,24.960455 19.0716232,24.884038 C18.4271513,24.8082074 17.5134796,24.2990866 17.8111092,23.6058616 C19.4219948,19.8557625 20.7377997,19.0181074 20.7491716,19.0110716 C20.7491716,19.0108762 16.078466,20.8765446 14.9422583,18.7568044 C14.5714958,18.0653383 18.0748191,15.9119825 19.4398369,15.0952395 C20.9158285,14.212047 26.4905986,10.8368014 30.0347038,10.8054512 C32.5684764,10.7832509 44.1858322,15.4310051 54.2332804,17.9707455 C55.8331863,21.1654047 56.779013,24.6635819 57.0044899,28.2995442 C55.4432092,28.1127037 53.9748642,28.0065799 52.6514127,28.0065799 M56.0306256,44.875772 C56.0747407,44.7975961 56.1186597,44.7194202 56.1621865,44.6412442 C58.3028449,40.8485392 59.6370802,36.5441727 59.9343176,31.9575912 C59.9394153,31.8823469 59.944317,31.8071025 59.9488265,31.7318582 C59.956081,31.605995 59.9625512,31.4799363 59.9680411,31.3536822 C59.9741192,31.2223466 59.9788248,31.0914019 59.9831382,30.9602618 C59.9860793,30.8684051 59.9894124,30.7767438 59.9913731,30.6846917 C59.9958826,30.4876884 59.9982354,30.2908805 59.9988236,30.094268 C59.9990197,30.0628022 60,30.0315318 60,30.000066 C60,29.9947891 60,29.9895123 60,29.9842354 C60,29.7545936 59.9966669,29.5251473 59.991177,29.2958964 C59.9886281,29.1897726 59.9843146,29.0842351 59.9807854,28.9783067 C59.9778444,28.8952448 59.9762759,28.8121828 59.9725506,28.7293163 L59.9725506,28.7293163 C59.9721585,28.7291209 59.9717664,28.7291209 59.9711782,28.7289255 C59.6435504,20.9213003 56.3137463,13.8876169 51.1009156,8.7452045 C51.0850342,8.72937387 51.0687607,8.71393413 51.0526832,8.69829894 C50.8413231,8.49054642 50.6266298,8.28631181 50.4089955,8.08500881 C50.3729192,8.0515886 50.3372351,8.01797295 50.3009627,7.98474818 C50.0629375,7.76644191 49.8217752,7.55145811 49.5766916,7.34077399 C49.5723781,7.33706064 49.5676725,7.33334728 49.563359,7.32943848 C49.32004,7.12070876 49.0726036,6.9166696 48.8226183,6.71556203 C48.795365,6.69367277 48.7681117,6.67158807 48.7406623,6.64989425 C44.967747,3.63699408 40.4493853,1.51412682 35.5045782,0.600054812 C34.2528871,0.357123123 32.9655118,0.179468332 31.6402957,0.0803803466 C21.7267612,-0.660141108 12.0871321,3.75464885 6.18022469,11.7254662 C5.36027293,12.8320464 4.62757093,13.9624703 3.97741309,15.1104838 C3.97525636,15.1140017 3.97329569,15.1175196 3.97113895,15.121233 C3.92800424,15.1974545 3.88526165,15.273676 3.8429112,15.350093 C1.70088034,19.1418208 0.365272631,23.445601 0.0662706115,28.0317917 C0.0613689391,28.1068405 0.0564672666,28.1820849 0.051957728,28.2571338 C0.0447032527,28.384756 0.0380369782,28.5123782 0.0321549713,28.6403912 C0.0262729643,28.7711405 0.0215673588,28.9016943 0.017253887,29.0322481 C0.0143128836,29.1246911 0.0107836794,29.2169387 0.00882301041,29.3095772 C0.00392133796,29.5175251 0.00117640139,29.7250822 0.000784267592,29.9326393 C0.000784267592,29.9551149 0,29.977395 0,30.000066 C0,30.0029976 0,30.0061247 0,30.0090563 C0,30.2379163 0.00333313727,30.4663854 0.00882301041,30.6946591 C0.0113718801,30.8031282 0.0154892849,30.9112064 0.019214556,31.0194801 C0.0219594926,31.0972651 0.0233319609,31.1750502 0.0266650981,31.2526398 C0.0272532988,31.2528352 0.0276454326,31.2528352 0.0280375664,31.2528352 C0.351155814,39.0618284 3.67723467,46.0976617 8.88712429,51.2430057 C8.90594671,51.2615725 8.92535733,51.2799438 8.94437582,51.2987061 C9.1506382,51.5013771 9.36023371,51.7009212 9.5723781,51.8977291 C9.61414034,51.9364262 9.65551046,51.9753187 9.69727271,52.0136249 C9.93274905,52.2293905 10.1707743,52.4422244 10.413113,52.6505633 C10.4184068,52.6552538 10.4240927,52.6597489 10.4295826,52.6644395 C10.6701567,52.8710194 10.9146521,53.0729087 11.1618924,53.2718664 C11.1934592,53.2972736 11.225026,53.3228762 11.2569849,53.3480879 C15.0285277,56.3604018 19.5449287,58.4832691 24.4877752,59.3985137 C25.741623,59.6420317 27.0313511,59.8202728 28.3589201,59.9195563 C38.2769641,60.660664 47.9209066,56.2423562 53.8268337,48.2654801 C54.6436484,47.1624178 55.3734094,46.0355119 56.0216066,44.8912118 C56.0247436,44.8861303 56.0276846,44.8808535 56.0306256,44.875772" id="Fill-1"></path>
            </g>
        </g>
    </g>
</svg>