<?xml version="1.0" encoding="UTF-8"?>
<svg width="164px" height="31px" viewBox="0 0 164 31" version="1.1" xmlns="http://www.w3.org/2000/svg" xmlns:xlink="http://www.w3.org/1999/xlink">
    <title>electher</title>
    <defs>
        <polygon id="path-1" points="0 0 19.8830692 0 19.8830692 22.1979392 0 22.1979392"></polygon>
        <polygon id="path-3" points="0 0 19.0797402 0 19.0797402 22.1979392 0 22.1979392"></polygon>
    </defs>
    <g id="Exports" stroke="none" stroke-width="1" fill="none" fill-rule="evenodd">
        <g id="Clients" transform="translate(-121, -534)">
            <g id="Group-6" transform="translate(121, 365)">
                <g id="electher" transform="translate(0, 169)">
                    <path d="M16.1728464,25.9388434 L16.1728464,29.8076835 C16.1728464,30.2514481 15.8240207,30.6004393 15.3800907,30.6004393 L0.792755781,30.6004393 C0.348825775,30.6004393 0,30.2514481 0,29.8076835 L0,9.19520622 C0,8.75127622 0.348825775,8.40245044 0.792755781,8.40245044 L15.3800907,8.40245044 C15.7922641,8.40245044 16.1728464,8.75127622 16.1728464,9.19520622 L16.1728464,13.0638809 C16.1728464,13.5079763 15.7922641,13.8566367 15.3800907,13.8566367 L6.5325855,13.8566367 L6.5325855,16.7742691 L13.6359618,16.7742691 C14.0481352,16.7742691 14.4287176,17.1229294 14.4287176,17.5670248 L14.4287176,21.4356995 C14.4287176,21.8797949 14.0481352,22.2284553 13.6359618,22.2284553 L6.5325855,22.2284553 L6.5325855,25.1459223 L15.3800907,25.1459223 C15.8240207,25.1459223 16.1728464,25.494748 16.1728464,25.9388434" id="Fill-1" fill="#FFFFFF"></path>
                    <path d="M35.911258,25.9388434 L35.911258,29.8076835 C35.911258,30.2514481 35.5624322,30.6004393 35.1185022,30.6004393 L19.7384115,30.6004393 C19.2944815,30.6004393 18.9456557,30.2514481 18.9456557,29.8076835 L18.9456557,9.19520622 C18.9456557,8.75127622 19.2944815,8.40245044 19.7384115,8.40245044 L24.7170766,8.40245044 C25.1294155,8.40245044 25.4782413,8.75127622 25.4782413,9.19520622 L25.4782413,25.1459223 L35.1185022,25.1459223 C35.5624322,25.1459223 35.911258,25.494748 35.911258,25.9388434" id="Fill-3" fill="#FFFFFF"></path>
                    <path d="M54.6914324,25.9388434 L54.6914324,29.8076835 C54.6914324,30.2514481 54.3426066,30.6004393 53.8986766,30.6004393 L39.3113417,30.6004393 C38.8674117,30.6004393 38.5185859,30.2514481 38.5185859,29.8076835 L38.5185859,9.19520622 C38.5185859,8.75127622 38.8674117,8.40245044 39.3113417,8.40245044 L53.8986766,8.40245044 C54.31085,8.40245044 54.6914324,8.75127622 54.6914324,9.19520622 L54.6914324,13.0638809 C54.6914324,13.5079763 54.31085,13.8566367 53.8986766,13.8566367 L45.0511714,13.8566367 L45.0511714,16.7742691 L52.1545477,16.7742691 C52.5667212,16.7742691 52.9473035,17.1229294 52.9473035,17.5670248 L52.9473035,21.4356995 C52.9473035,21.8797949 52.5667212,22.2284553 52.1545477,22.2284553 L45.0511714,22.2284553 L45.0511714,25.1459223 L53.8986766,25.1459223 C54.3426066,25.1459223 54.6914324,25.494748 54.6914324,25.9388434" id="Fill-5" fill="#FFFFFF"></path>
                    <path d="M74.2770321,21.6260403 L79.2239406,21.6260403 C79.6678706,21.6260403 79.8264879,22.0699703 79.7313837,22.4823092 C78.4946979,27.587835 74.0868236,30.9490666 68.5372023,30.9490666 C62.0681299,30.9490666 56.6455348,25.8119496 56.6455348,19.4697379 C56.6455348,13.1273609 62.0681299,8.02183504 68.5372023,8.02183504 C74.0233105,8.02183504 78.4311848,11.3197189 79.6996272,16.3618971 C79.7947314,16.774236 79.6996272,17.1864094 79.2239406,17.1864094 L74.213519,17.1864094 C73.8329367,17.1864094 73.6111371,16.9644444 73.547624,16.774236 C72.659764,14.6177682 70.9473916,13.6030475 68.5372023,13.6030475 C65.3661792,13.6030475 63.0828507,16.1715233 63.0828507,19.4697379 C63.0828507,22.7676218 65.3661792,25.336263 68.5372023,25.336263 C70.9789828,25.336263 72.7231116,24.2896203 73.5793805,22.0699703 C73.6744847,21.7846576 73.9282063,21.6260403 74.2770321,21.6260403" id="Fill-7" fill="#FFFFFF"></path>
                    <path d="M100.546193,9.19514006 L100.546193,13.0639801 C100.546193,13.5079101 100.197533,13.8567359 99.7534374,13.8567359 L94.2039815,13.8567359 L94.2039815,29.8076174 C94.2039815,30.2515474 93.8551558,30.6003731 93.4112257,30.6003731 L88.4641518,30.6003731 C88.0203872,30.6003731 87.671396,30.2515474 87.671396,29.8076174 L87.671396,13.8567359 L82.1219402,13.8567359 C81.6780102,13.8567359 81.3291844,13.5079101 81.3291844,13.0639801 L81.3291844,9.19514006 C81.3291844,8.7829666 81.6780102,8.40238428 82.1219402,8.40238428 L99.7534374,8.40238428 C100.197533,8.40238428 100.546193,8.7829666 100.546193,9.19514006" id="Fill-9" fill="#FFFFFF"></path>
                    <path d="M163.207244,30.6006047 L104.111626,30.6006047 C103.667696,30.6006047 103.319036,30.2517789 103.319036,29.8078489 L103.319036,25.9398358 C103.319036,25.4959058 103.667696,25.1470801 104.111626,25.1470801 L163.207244,25.1470801 C163.651174,25.1470801 164,25.4959058 164,25.9398358 L164,29.8078489 C164,30.2517789 163.651174,30.6006047 163.207244,30.6006047" id="Fill-11" fill="#FFFFFF"></path>
                    <g id="Group-15" transform="translate(103.319, 0)">
                        <mask id="mask-2" fill="white">
                            <use xlink:href="#path-1"></use>
                        </mask>
                        <g id="Clip-14"></g>
                        <path d="M19.8830692,0.792706161 L19.8830692,21.4051835 C19.8830692,21.8491135 19.5342434,22.1979392 19.0903134,22.1979392 L14.1432395,22.1979392 C13.6993095,22.1979392 13.3504837,21.8491135 13.3504837,21.4051835 L13.3504837,13.8261206 L6.5325855,13.8261206 L6.5325855,21.4051835 C6.5325855,21.8491135 6.18375973,22.1979392 5.73982972,22.1979392 L0.792755781,22.1979392 C0.348825775,22.1979392 0,21.8491135 0,21.4051835 L0,0.792706161 C0,0.348776156 0.348825775,-4.96195982e-05 0.792755781,-4.96195982e-05 L5.73982972,-4.96195982e-05 C6.18375973,-4.96195982e-05 6.5325855,0.380532699 6.5325855,0.792706161 L6.5325855,8.37176899 L13.3504837,8.37176899 L13.3504837,0.792706161 C13.3504837,0.348776156 13.6993095,-4.96195982e-05 14.1432395,-4.96195982e-05 L19.0903134,-4.96195982e-05 C19.5342434,-4.96195982e-05 19.8830692,0.380532699 19.8830692,0.792706161" id="Fill-13" fill="#FFFFFF" mask="url(#mask-2)"></path>
                    </g>
                    <path d="M142.147512,17.5364261 L142.147512,21.4052662 C142.147512,21.8490308 141.798687,22.1980219 141.354757,22.1980219 L126.767587,22.1980219 C126.323492,22.1980219 125.974831,21.8490308 125.974831,21.4052662 L125.974831,0.79278886 C125.974831,0.348858855 126.323492,3.30797321e-05 126.767587,3.30797321e-05 L141.354757,3.30797321e-05 C141.76693,3.30797321e-05 142.147512,0.348858855 142.147512,0.79278886 L142.147512,4.66146353 C142.147512,5.10555894 141.76693,5.45421931 141.354757,5.45421931 L132.507251,5.45421931 L132.507251,8.37185169 L139.610628,8.37185169 C140.022801,8.37185169 140.403384,8.72051207 140.403384,9.16460747 L140.403384,13.0332821 C140.403384,13.4773775 140.022801,13.8260379 139.610628,13.8260379 L132.507251,13.8260379 L132.507251,16.7435049 L141.354757,16.7435049 C141.798687,16.7435049 142.147512,17.0923307 142.147512,17.5364261" id="Fill-16" fill="#FFFFFF"></path>
                    <g id="Group-20" transform="translate(144.9201, 0)">
                        <mask id="mask-4" fill="white">
                            <use xlink:href="#path-3"></use>
                        </mask>
                        <g id="Clip-19"></g>
                        <path d="M9.60866979,10.1476544 L6.5325855,10.1476544 L6.5325855,5.26409355 L9.54515671,5.26409355 C11.3527987,5.26409355 12.1136325,6.78609203 12.1136325,7.73746513 C12.1136325,8.72059477 11.2892856,10.1476544 9.60866979,10.1476544 M18.9316961,21.1514619 C18.6779746,20.7708796 16.3312984,16.6802399 14.8091345,14.1114333 C16.9022545,12.8113998 17.980323,10.5280713 17.980323,7.76922167 C17.980323,3.04427813 14.9044041,-4.96195982e-05 9.73553057,-4.96195982e-05 L0.792755781,-4.96195982e-05 C0.348991174,-4.96195982e-05 0,0.348776156 0,0.792706161 L0,21.4051835 C0,21.8491135 0.348991174,22.1979392 0.792755781,22.1979392 L5.73982972,22.1979392 C6.18375973,22.1979392 6.5325855,21.8491135 6.5325855,21.4051835 L6.5325855,15.4117976 L8.24495784,15.4117976 C9.67201748,18.0118645 11.4161464,21.1830531 11.5430071,21.4051835 C11.7649721,21.7856004 12.1771456,22.1979392 12.7479364,22.1979392 L18.3609053,22.1979392 C19.12207,22.1979392 19.2171742,21.6587396 18.9316961,21.1514619" id="Fill-18" fill="#FFFFFF" mask="url(#mask-4)"></path>
                    </g>
                </g>
            </g>
        </g>
    </g>
</svg>