<?xml version="1.0" encoding="UTF-8"?>
<svg width="160px" height="60px" viewBox="0 0 160 60" version="1.1" xmlns="http://www.w3.org/2000/svg" xmlns:xlink="http://www.w3.org/1999/xlink">
    <title>m2</title>
    <g id="Exports" stroke="none" stroke-width="1" fill="none" fill-rule="evenodd">
        <g id="Clients" transform="translate(-123, -660)" fill="#FFFFFF">
            <g id="m2" transform="translate(123, 660)">
                <path d="M1.63081199,54.29436 C0.354524346,50.6905018 0,45.0807449 0,37.4939239 C0,30.4743418 0.496334085,24.7851715 2.19805095,20.5143349 C3.97067268,15.9473522 7.79977197,13.0742869 14.0394005,11.9740797 C20.3499338,10.861346 24.604226,12.7346526 25.9514185,18.9494644 C26.8022769,22.9118648 27.298611,23.8170837 28.2912792,23.642185 C29.2839473,23.46705 29.7805178,22.3869325 30.6313762,18.1243681 C31.9783324,11.4344937 36.2328609,8.06083998 42.5433942,6.94810623 C48.7830227,5.84789901 52.6118857,7.37069925 54.3847438,11.3125373 C56.0862243,14.983046 56.5825584,20.4973177 56.5825584,27.5168998 C56.5825584,35.1037208 56.228034,40.8385066 54.9517464,44.8923743 C53.6045538,49.3135293 51.1228834,51.8072535 46.8685913,52.557427 C42.472253,53.3326536 40.1326287,50.7673154 40.1326287,43.6056873 C40.1326287,41.5496824 40.3451069,39.810386 40.3451069,38.4631935 C40.3451069,36.9741912 39.8490092,36.4944016 39.1399605,36.6194305 C37.8636729,36.8444353 37.792768,38.3459641 37.1546242,41.3655661 C35.3820024,49.9741263 33.467571,54.7077354 28.2912792,55.6205174 C23.1152237,56.5332994 21.2007923,52.4744683 19.4281705,44.4910527 C18.7900267,41.6966919 18.7191218,40.2202161 17.4428342,40.4452209 C16.7337855,40.5702498 16.2374514,41.2249381 16.2374514,42.7139404 C16.2374514,44.0611329 16.450166,45.7255065 16.450166,47.7815114 C16.450166,54.9431395 14.1103053,58.333574 9.71420344,59.1088006 C5.45967493,59.8589741 2.97800451,58.2402159 1.63081199,54.29436" id="Fill-1"></path>
                <path d="M58.6851241,39.908991 C58.6851241,32.6057895 63.4357503,27.5847793 68.6118058,24.4030415 C73.1497174,21.6176619 74.4980917,19.6777047 74.071717,18.7434149 C73.4245919,17.3264992 71.8956466,17.7311297 71.0057905,18.6209858 C70.1913299,19.4354464 68.7538519,20.832745 66.6267058,21.2078318 C63.1521308,21.8204498 59.5359825,20.7564041 59.5359825,15.2967292 C59.5359825,9.26957892 64.7829428,3.02664154 76.3404365,0.988599244 C87.8272617,-1.03668017 93.3578415,3.02238724 93.3578415,11.0346375 C93.3578415,18.4089802 88.9617396,21.7365457 86.6218789,23.8509289 C85.4164961,24.9142656 84.7074474,25.5356286 84.7074474,26.2446773 C84.7074474,26.8119163 85.0619718,26.9622346 85.5583059,26.8745489 C86.2673546,26.74952 87.2600227,26.4328116 88.1108812,26.2827296 C91.44341,25.6951646 94.2086999,27.8310556 94.2086999,33.2198257 C94.2086999,40.097598 89.2453591,45.2273289 77.1915313,47.3525842 C63.4357503,49.7782398 58.6851241,47.2830974 58.6851241,39.908991" id="Fill-4"></path>
                <path d="M100.860569,8.80345031 C100.860569,7.37849879 100.964327,6.22676736 101.203749,5.72665169 C101.380538,5.33171156 101.650922,5.0967801 102.108495,5.0161849 C102.659662,4.91880888 102.982043,5.18446579 102.982043,6.02705198 C102.982043,6.94219749 102.950845,7.65502778 102.950845,8.44538072 C102.950845,9.162938 103.138034,9.41086869 103.522811,9.34303637 C103.824393,9.28985772 104.115339,8.97858534 104.115339,8.28159047 C104.115339,7.45980304 104.105176,6.76493532 104.105176,5.86018919 C104.105176,4.97624182 104.531551,4.59926427 105.093117,4.5002338 C105.664847,4.39931253 106.11202,4.62242652 106.11202,5.50637389 C106.11202,6.41112002 106.091222,7.11142378 106.091222,7.93297487 C106.091222,8.63020608 106.382404,8.8386664 106.715184,8.78005171 C107.068763,8.71789177 107.266588,8.40212875 107.266588,7.68457148 C107.266588,6.89398218 107.22499,6.19391477 107.22499,5.27876926 C107.22499,4.43618307 107.547371,4.05707837 108.150299,3.95072106 C108.576674,3.8755619 108.836658,4.00649956 109.003048,4.32037178 C109.242234,4.75667308 109.346228,5.87200667 109.346228,7.30735757 C109.346228,9.44986637 108.711865,10.6746298 107.089562,10.9608491 C106.237049,11.1111675 105.748042,10.8020222 105.373664,10.3583941 C105.259271,10.2224931 105.197111,10.1816046 105.103517,10.1979127 C105.009922,10.2146936 104.947526,10.2773262 104.843532,10.4519885 C104.469154,11.0378991 103.980384,11.5089438 103.138034,11.6576076 C101.52613,11.9416998 100.860569,10.9459591 100.860569,8.80345031" id="Fill-6"></path>
                <path d="M110.122069,9.3026915 C110.028474,8.74679732 109.986877,7.98480633 109.986877,6.98622942 C109.986877,6.00845127 110.028474,5.23157025 110.122069,4.63266046 C110.257261,3.95362816 110.61084,3.51709052 111.214004,3.41049686 C111.817168,3.30413956 112.108351,3.55443375 112.11875,4.0935471 C112.139785,4.37054879 112.139785,4.77636099 112.139785,4.99451164 C112.139785,5.20249926 112.170747,5.32185579 112.409933,5.2899486 C112.514163,5.27174968 112.62832,5.25142362 112.763512,5.22778866 C112.877905,5.20769895 112.992298,5.18737289 113.075493,5.17271921 C113.335477,5.11646802 113.377075,4.98434861 113.377075,4.77636099 C113.377075,4.52677585 113.387474,4.12970859 113.397874,3.86806962 C113.408273,3.32517467 113.689056,2.97419557 114.292221,2.86760191 C114.895385,2.76148096 115.269762,3.06991714 115.394555,3.70309762 C115.488149,4.26891848 115.52951,5.03138217 115.52951,6.00892397 C115.52951,7.00750088 115.488149,7.7843819 115.394555,8.37289231 C115.269762,9.0814683 114.926583,9.53715026 114.365016,9.63618073 C113.720255,9.74986487 113.408273,9.38895909 113.397874,8.69385502 C113.387474,8.33200384 113.377075,7.79241778 113.377075,7.38707828 C113.377075,7.16845493 113.335477,7.06162493 113.085892,7.09518657 C112.981899,7.11338548 112.877905,7.13182075 112.763512,7.15191046 C112.62832,7.17578177 112.503527,7.19799863 112.399533,7.21619754 C112.170747,7.2670127 112.139785,7.38684193 112.139785,7.60522893 C112.139785,8.0004054 112.129149,8.55369973 112.11875,8.91956885 C112.11875,9.62672675 111.796369,10.0890265 111.151607,10.202947 C110.590041,10.3017411 110.257261,9.97581506 110.122069,9.3026915" id="Fill-8"></path>
                <path d="M116.463682,8.68364472 C116.297292,8.35960947 116.193298,7.28563705 116.193298,5.89188367 C116.193298,4.48773091 116.297292,3.43975694 116.474082,3.04458047 C116.692469,2.56928149 117.181239,2.33742257 118.543558,2.09752776 C120.280019,1.79121873 120.862384,1.86519614 120.862384,2.63475032 C120.862384,3.16511875 120.592236,3.48348161 119.968273,3.59338416 C119.489666,3.67776095 119.042729,3.73566659 118.595555,3.81460735 C118.397731,3.84958708 118.314536,3.90583828 118.304373,4.12587972 C118.293973,4.27336185 118.293973,4.42935256 118.293973,4.56454451 C118.293973,4.75173337 118.377168,4.77891357 118.57452,4.74393383 C119.08409,4.654121 119.364873,4.58368883 119.832845,4.50143918 C120.446409,4.39319108 120.675431,4.57139865 120.675431,5.03913444 C120.675431,5.50734293 120.436246,5.7680365 119.895241,5.86328537 C119.500301,5.93300849 119.01153,5.99824097 118.52276,6.08427221 C118.366532,6.11192511 118.304373,6.19582921 118.304373,6.29958666 C118.304373,6.61156809 118.304373,6.97578277 118.314536,7.02588888 C118.324935,7.17006211 118.397731,7.22985855 118.553958,7.20220565 L120.176261,6.91598633 C120.571201,6.84649956 120.852221,7.00485376 120.852221,7.49386101 C120.852221,8.11782386 120.519441,8.57161502 118.585156,8.9129038 C117.160441,9.16390703 116.682069,9.06133132 116.463682,8.68364472" id="Fill-10"></path>
                <path d="M124.578154,3.21737563 C124.578154,2.7494035 124.338968,2.64588239 123.715005,2.75602128 C123.371825,2.81652677 123.278231,2.89546753 123.278231,3.43647168 C123.278231,4.03939942 123.351263,4.12023097 123.704606,4.05807103 C124.370166,3.9406053 124.578154,3.60215272 124.578154,3.21737563 M121.458339,7.39745403 C121.323147,6.62033666 121.291949,5.70022781 121.291949,5.00346929 C121.291949,4.31687381 121.312748,3.44994361 121.468975,2.60097597 C121.624729,1.78297013 122.155098,1.47075236 123.746203,1.19044177 C125.784482,0.830954085 126.49164,1.45515328 126.49164,2.74491286 C126.49164,3.46247013 126.179658,3.94391419 125.81568,4.30954697 C125.763683,4.37099786 125.721849,4.44072098 125.721849,4.53431541 C125.721849,4.66974371 125.763683,4.73497619 125.836479,4.79477263 C126.252454,5.22067454 126.730589,5.92688704 126.793222,6.45654641 C126.834819,7.01102249 126.49164,7.50830197 125.836479,7.62387691 C125.264513,7.72456182 124.942132,7.40714436 124.713345,6.97935165 C124.380565,6.40360411 124.172578,6.03466244 124.026986,5.7588425 C123.891794,5.49153114 123.808599,5.42275342 123.652609,5.45040632 C123.46542,5.48325891 123.434458,5.61372386 123.434458,5.79051334 C123.434458,6.24808609 123.46542,6.48183581 123.46542,7.14739619 C123.46542,7.61536832 123.174473,8.08286776 122.602508,8.18378903 C121.988708,8.29203713 121.593768,8.10153938 121.458339,7.39745403" id="Fill-12"></path>
                <path d="M127.404422,6.75453594 C127.238032,6.43026434 127.134038,5.35652827 127.134038,3.96277489 C127.134038,2.55862213 127.238032,1.51064816 127.414821,1.11547169 C127.633444,0.639936367 128.121979,0.408313794 129.484298,0.168182637 C131.220994,-0.137890048 131.80336,-0.0639126347 131.80336,0.705641546 C131.80336,1.23600997 131.532976,1.55413648 130.909013,1.66427538 C130.430878,1.74841582 129.983468,1.80655782 129.536295,1.88549857 C129.338943,1.92047831 129.255748,1.97649315 129.245112,2.19677095 C129.234713,2.34425307 129.234713,2.50024379 129.234713,2.63543574 C129.234713,2.82262459 129.317908,2.84980479 129.515732,2.81458871 C130.025302,2.72477587 130.305849,2.65458005 130.774057,2.57209405 C131.387621,2.46384595 131.616171,2.64228987 131.616171,3.11002566 C131.616171,3.57823415 131.376985,3.83869137 130.836217,3.93394024 C130.441277,4.00366336 129.95227,4.06913219 129.463499,4.15516343 C129.307745,4.18257998 129.245112,4.26672043 129.245112,4.37047789 C129.245112,4.68245931 129.245112,5.04667399 129.255748,5.0967801 C129.265911,5.24071698 129.338943,5.30051342 129.494697,5.27286052 L131.117001,4.98687755 C131.512177,4.91739078 131.79296,5.07574499 131.79296,5.56475224 C131.79296,6.18871508 131.46018,6.64250625 129.526132,6.98355867 C128.101416,7.23479826 127.622809,7.13198619 127.404422,6.75453594" id="Fill-14"></path>
                <path d="M101.058158,20.6876264 C100.912566,20.1206238 100.870969,19.2336038 100.870969,18.0476017 C100.870969,17.0076637 100.933365,16.1750041 101.110154,15.5614407 C101.307743,14.8505012 101.734117,14.5047218 102.514071,14.3671663 C103.325223,14.2241748 103.803594,14.4621788 104.229969,15.9055656 C104.614746,17.1376559 104.645944,17.2884469 104.7809,17.2645756 C104.916091,17.2407043 104.947526,17.0790412 105.321904,15.7129407 C105.737643,14.1317622 106.237049,13.7105872 107.0586,13.5657049 C107.827918,13.4302766 108.254293,13.6255014 108.451881,14.2667178 C108.618271,14.8200121 108.680667,15.6306911 108.680667,16.6706292 C108.680667,17.8563949 108.639306,18.7580685 108.493478,19.3765953 C108.358287,19.8996369 108.077503,20.1988555 107.609531,20.2813415 C107.0586,20.3782448 106.756782,20.109279 106.756782,18.9549477 C106.756782,18.153959 106.78798,17.4931257 106.78798,16.9731566 C106.78798,16.775332 106.756782,16.7290075 106.684223,16.7417704 C106.538395,16.7675325 106.538395,16.9027244 106.174417,18.1319785 C105.685882,19.9755051 105.44646,20.5276177 104.7809,20.6448471 C104.105176,20.7642036 103.834792,20.3019039 103.36682,18.6268945 C103.023641,17.522433 103.03404,17.3853503 102.888449,17.4111124 C102.805254,17.425766 102.763656,17.4850898 102.763656,17.6829144 C102.763656,18.2028834 102.805254,18.8715163 102.805254,19.6621056 C102.805254,20.8164369 102.493272,21.1834878 101.942105,21.2806274 C101.463733,21.3650042 101.19335,21.1631617 101.058158,20.6876264" id="Fill-16"></path>
                <path d="M113.423919,15.7718391 C113.423919,14.9814861 112.955947,14.606163 112.321349,14.7181927 C111.687223,14.829986 111.24005,15.3664995 111.24005,16.1568525 C111.24005,16.9578412 111.666424,17.4024147 112.321349,17.2870761 C112.976746,17.1715012 113.423919,16.5728277 113.423919,15.7718391 M109.118576,16.5624283 C109.118576,14.4092838 110.522492,12.9446256 112.311186,12.6293352 C114.099879,12.3138086 115.545393,13.2655883 115.545393,15.4187328 C115.545393,17.5820404 114.08948,19.1804725 112.311186,19.4941083 C110.532892,19.8075079 109.118576,18.7257359 109.118576,16.5624283" id="Fill-18"></path>
                <path d="M116.463682,16.6087529 C116.026672,15.6562641 115.694128,14.3939211 115.694128,13.489175 C115.694128,12.6052276 115.860282,12.0245167 116.754865,11.8668716 C117.39939,11.7529511 117.659611,12.1334739 117.815365,13.0214392 C117.950794,13.7255245 118.023353,14.1287369 118.169181,14.7375734 C118.314536,15.3360105 118.439328,15.5321806 118.553721,15.5120909 C118.67875,15.4901104 118.792907,15.2516337 118.948898,14.6000179 C119.094725,13.9294942 119.167285,13.5111555 119.312876,12.7574367 C119.468867,11.8146383 119.718452,11.3443027 120.373613,11.2284914 C121.26796,11.0708462 121.424187,11.5945969 121.424187,12.4785442 C121.424187,13.3835267 121.10157,14.7614447 120.664796,15.8680333 C120.113628,17.3381276 119.427506,18.2390922 118.564121,18.3915376 C117.690573,18.5454012 117.00445,17.8862223 116.463682,16.6087529" id="Fill-20"></path>
                <path d="M122.087833,17.14607 C121.921443,16.8217984 121.817212,15.7478259 121.817212,14.3540726 C121.817212,12.9499198 121.921443,11.9021822 122.097996,11.5070057 C122.316383,11.0314704 122.805154,10.7998478 124.167709,10.5597167 C125.904169,10.2534076 126.486534,10.327385 126.486534,11.0969392 C126.486534,11.6273076 126.216151,11.9456705 125.592188,12.0558094 C125.113816,12.1399498 124.666879,12.1980918 124.219469,12.2767962 C124.021881,12.311776 123.938686,12.3680272 123.928287,12.588305 C123.918124,12.7357871 123.918124,12.8917778 123.918124,13.0269698 C123.918124,13.2141586 124.001319,13.2411025 124.198907,13.2061227 C124.70824,13.1163099 124.989024,13.0458777 125.456759,12.9636281 C126.070559,12.85538 126.299346,13.0335875 126.299346,13.5015597 C126.299346,13.9697682 126.06016,14.2302254 125.519392,14.3254743 C125.124216,14.3951974 124.635445,14.4606662 124.146674,14.5466975 C123.990683,14.574114 123.928287,14.6582544 123.928287,14.7620119 C123.928287,15.0739933 123.928287,15.438208 123.938686,15.4883141 C123.949086,15.632251 124.021881,15.6920474 124.177872,15.6643945 L125.800175,15.3784116 C126.195352,15.3089248 126.476135,15.4670427 126.476135,15.9560499 C126.476135,16.5800128 126.143355,17.0340403 124.20907,17.3750927 C122.784591,17.6263323 122.305983,17.5235202 122.087833,17.14607" id="Fill-22"></path>
                <path d="M127.124915,16.0915018 C126.979323,15.5242629 126.937726,14.637243 126.937726,13.4514772 C126.937726,12.4115391 127.000358,11.5786433 127.176912,10.9650798 C127.3745,10.2541403 127.800874,9.90836089 128.581064,9.77080544 C129.39198,9.62781396 129.870351,9.86581797 130.296726,11.3094411 C130.681503,12.5415314 130.712701,12.6920861 130.847893,12.6684511 C130.983085,12.6443434 131.014283,12.4826803 131.388661,11.1168162 C131.804636,9.53540128 132.303806,9.11422635 133.125121,8.96958042 C133.894912,8.83391577 134.321286,9.02914051 134.518874,9.67035688 C134.685264,10.2236512 134.747424,11.0343302 134.747424,12.0742683 C134.747424,13.2602704 134.705827,14.1617076 134.560472,14.7802345 C134.42528,15.3035124 134.144497,15.6024946 133.676525,15.6849806 C133.125121,15.7821203 132.823775,15.5129181 132.823775,14.3585868 C132.823775,13.5575982 132.854973,12.8967648 132.854973,12.3767957 C132.854973,12.1789712 132.823775,12.1326466 132.750743,12.1456459 C132.605388,12.1711716 132.605388,12.3063636 132.24141,13.5356177 C131.752639,15.3793806 131.513453,15.9312568 130.847893,16.0487226 C130.171933,16.1678427 129.901549,15.7057793 129.433577,14.0305336 C129.090398,12.9260721 129.100797,12.7889894 128.955206,12.8149878 C128.872011,12.8294052 128.830649,12.8887289 128.830649,13.0865535 C128.830649,13.6065225 128.872011,14.2751554 128.872011,15.0657447 C128.872011,16.220076 128.560029,16.5871269 128.008862,16.6845029 C127.53049,16.7686433 127.260107,16.5668008 127.124915,16.0915018" id="Fill-24"></path>
                <path d="M135.691901,14.7472637 C135.525511,14.4229921 135.421517,13.349256 135.421517,11.9555026 C135.421517,10.5513499 135.525511,9.50337591 135.7023,9.10819944 C135.920924,8.63266412 136.409458,8.40104154 137.771777,8.16091039 C139.508474,7.85460135 140.090839,7.92857877 140.090839,8.69813295 C140.090839,9.22850137 139.820455,9.54686423 139.196492,9.65700313 C138.718357,9.74114357 138.270947,9.79928557 137.823774,9.87798997 C137.626422,9.91296971 137.543227,9.9692209 137.532591,10.1894987 C137.522192,10.3369808 137.522192,10.4929715 137.522192,10.6281635 C137.522192,10.8153523 137.605387,10.8422962 137.803212,10.8073165 C138.312781,10.7175036 138.593328,10.6470715 139.061537,10.5648218 C139.6751,10.4565737 139.90365,10.6350176 139.90365,11.1025171 C139.90365,11.5707255 139.664464,11.8314191 139.123933,11.926668 C138.728756,11.9963911 138.239749,12.0618599 137.750978,12.1478912 C137.595224,12.1753077 137.532591,12.2594482 137.532591,12.3632056 C137.532591,12.6751871 137.532591,13.0394017 137.543227,13.0895078 C137.55339,13.2334447 137.626422,13.2932412 137.782176,13.2655883 L139.40448,12.9796053 C139.799656,12.9101185 140.08044,13.0682364 140.08044,13.5572436 C140.08044,14.1812065 139.747659,14.635234 137.813611,14.9762864 C136.388896,15.227526 135.910288,15.1247139 135.691901,14.7472637" id="Fill-26"></path>
                <path d="M140.739949,13.690852 C140.583959,13.1671014 140.542361,12.2798451 140.542361,11.0527182 C140.542361,9.91894935 140.594358,9.02578435 140.771148,8.43278329 C140.968736,7.84663637 141.415909,7.51834683 142.154029,7.38811822 C142.923819,7.25245357 143.433389,7.43278829 143.859764,9.12599656 C144.202943,10.4382093 144.244541,10.5764738 144.369097,10.5544933 C144.452528,10.5398397 144.48349,10.4408092 144.48349,10.3058536 C144.48349,9.67125501 144.462928,9.1337961 144.462928,8.14585492 C144.462928,7.33470322 144.795708,6.94307199 145.221846,6.86814918 C145.586061,6.80386209 145.866608,6.87902126 146.002036,7.38575472 C146.10603,7.86648974 146.178826,8.69631305 146.178826,10.0588683 C146.178826,11.2859952 146.116429,12.2434473 145.949803,12.79296 C145.773013,13.3441272 145.367674,13.6338918 144.702114,13.7513575 C143.828566,13.9052211 143.402191,13.4708106 142.892385,11.5221084 C142.601439,10.4502632 142.591039,10.2855275 142.455847,10.3093988 C142.372652,10.3240525 142.331055,10.3836126 142.331055,10.6019996 C142.331055,11.2155631 142.362253,12.1252725 142.362253,12.957223 C142.362253,13.7998092 142.091869,14.2011308 141.592699,14.2890528 C141.155925,14.3661027 140.875141,14.1765504 140.739949,13.690852" id="Fill-28"></path>
                <path d="M147.675438,11.9789249 C147.675438,11.198735 147.716799,9.2571233 147.716799,8.87210986 C147.716799,8.63316045 147.654403,8.5813999 147.488013,8.61070724 L147.072038,8.68421196 C146.687261,8.75204428 146.375516,8.59888976 146.375516,7.85013435 C146.375516,6.89315496 146.770456,6.5743194 148.819134,6.21294091 C150.867812,5.85156243 151.273388,6.02977 151.273388,6.98674939 C151.273388,7.73550481 150.951007,8.00021632 150.576629,8.06615785 L150.150255,8.14155336 C149.983865,8.1708607 149.911069,8.24601987 149.911069,8.48520562 C149.911069,8.87021906 149.963066,10.7955226 149.963066,11.5757125 C149.963066,12.5118931 149.484694,12.8976156 148.82977,13.0131906 C148.163973,13.13042 147.675438,12.9151055 147.675438,11.9789249" id="Fill-30"></path>
                <path d="M101.058158,30.1416089 C100.912566,29.5746063 100.870969,28.6875864 100.870969,27.5015843 C100.870969,26.4616462 100.933365,25.6289867 101.110154,25.0154232 C101.307743,24.3044837 101.734117,23.9587043 102.514071,23.8211489 C103.325223,23.6781574 103.803594,23.9161614 104.229969,25.3595482 C104.614746,26.5916385 104.645944,26.7424295 104.7809,26.7185582 C104.916091,26.6946869 104.947526,26.5330238 105.321904,25.1669233 C105.737643,23.5857447 106.237049,23.1645698 107.0586,23.0196875 C107.827918,22.8842592 108.254293,23.079484 108.451881,23.7207003 C108.618271,24.2739947 108.680667,25.0846737 108.680667,26.1246117 C108.680667,27.3103775 108.639306,28.2120511 108.493478,28.8305779 C108.358287,29.3536195 108.077503,29.652838 107.609531,29.735324 C107.0586,29.8322274 106.756782,29.5632615 106.756782,28.4089303 C106.756782,27.6079416 106.78798,26.9471082 106.78798,26.4271392 C106.78798,26.2293146 106.756782,26.1829901 106.684223,26.195753 C106.538395,26.2215151 106.538395,26.356707 106.174417,27.5859611 C105.685882,29.4294877 105.44646,29.9816003 104.7809,30.0988297 C104.105176,30.2181862 103.834792,29.7558864 103.36682,28.0808771 C103.023641,26.9764156 103.03404,26.8393328 102.888449,26.8650949 C102.805254,26.8797486 102.763656,26.9390723 102.763656,27.1368969 C102.763656,27.656866 102.805254,28.3254989 102.805254,29.1160882 C102.805254,30.2704194 102.493272,30.6374703 101.942105,30.73461 C101.463733,30.8189868 101.19335,30.6171443 101.058158,30.1416089" id="Fill-32"></path>
                <path d="M109.625026,28.880684 C109.427437,28.5308867 109.354642,27.690664 109.354642,26.0057279 C109.354642,24.3415906 109.427437,23.5486378 109.625026,23.118718 C109.801815,22.7235415 110.092998,22.5160266 110.529772,22.439213 C110.956146,22.3640538 111.257728,22.4772653 111.434518,22.7996461 C111.632106,23.1494434 111.704902,23.9272698 111.704902,25.5914071 C111.704902,27.3179407 111.632106,28.1210565 111.434518,28.5613757 C111.257728,28.9357535 110.966546,29.1432684 110.529772,29.2203183 C110.092998,29.2973683 109.801815,29.1926654 109.625026,28.880684" id="Fill-34"></path>
                <path d="M112.562662,28.113257 C112.406671,27.5895063 112.36531,26.7020137 112.36531,25.4751231 C112.36531,24.3413543 112.417307,23.4481893 112.59386,22.8551882 C112.791684,22.2690413 113.238621,21.9407518 113.976977,21.8105231 C114.746532,21.6748585 115.256101,21.8551932 115.682476,23.5484015 C116.025655,24.8606143 116.067253,24.9988788 116.192046,24.9768983 C116.275241,24.9622446 116.306439,24.8632141 116.306439,24.7282585 C116.306439,24.0936599 116.28564,23.556201 116.28564,22.5680235 C116.28564,21.7568718 116.61842,21.3654769 117.044795,21.2905541 C117.408773,21.226267 117.689556,21.3014262 117.824748,21.8081596 C117.928742,22.2888947 118.001301,23.118718 118.001301,24.4812732 C118.001301,25.7084002 117.939142,26.6658522 117.772751,27.2151286 C117.595726,27.7665322 117.190386,28.0562967 116.524826,28.1737625 C115.651278,28.327626 115.224903,27.8932155 114.715333,25.9445134 C114.424151,24.8726681 114.413988,24.7079325 114.278559,24.7318038 C114.195364,24.7464574 114.153767,24.8060175 114.153767,25.0244045 C114.153767,25.637968 114.184965,26.5476775 114.184965,27.3796279 C114.184965,28.2222141 113.914581,28.6235357 113.415411,28.7114577 C112.978637,28.7885077 112.697854,28.5989553 112.562662,28.113257" id="Fill-36"></path>
                <path d="M122.543798,23.6281458 C122.543798,22.6919652 121.951034,22.4428528 121.035888,22.6042795 C120.817501,22.6428045 120.755105,22.6643123 120.755105,23.9436725 C120.755105,25.2331957 120.807102,25.2970101 121.025489,25.2584851 C121.982232,25.0899679 122.543798,24.5851252 122.543798,23.6281458 M118.966411,27.2126233 C118.768823,26.8526629 118.664829,25.8410868 118.664829,24.3641384 C118.664829,22.9495862 118.768823,21.9016123 118.966411,21.4818554 C119.174399,21.029246 119.579975,20.8016414 120.755105,20.5943628 C123.219758,20.159716 124.623674,21.0668256 124.613039,23.2946566 C124.623674,25.5915017 123.18856,27.0301615 120.755105,27.4591359 C119.579975,27.6664145 119.174399,27.6127631 118.966411,27.2126233" id="Fill-38"></path>
                <path d="M125.248417,25.824306 C125.103062,25.3088276 125.051065,24.3405034 125.051065,23.2485684 C125.051065,22.1875952 125.113225,21.2303795 125.248417,20.6759034 C125.414807,20.0119975 125.789185,19.727669 127.31813,19.4579941 C128.711411,19.2124269 129.304176,19.4093061 129.304176,20.1478985 C129.304176,20.5742731 129.033792,21.0171922 128.420228,21.1254403 C128.212241,21.1620745 127.744269,21.2239981 127.453086,21.2752859 C127.266133,21.3083749 127.161903,21.3785707 127.161903,21.8153447 C127.161903,22.2313199 127.234935,22.2705539 127.432287,22.2355742 C127.754668,22.1788503 127.931694,22.1268534 128.253838,22.0698932 C128.857002,21.9637722 129.116987,22.1987037 129.116987,22.8125035 C129.116987,23.3740701 128.763408,23.8106077 128.149845,23.9188558 C127.983691,23.9483995 127.754668,23.9781795 127.577879,24.0093777 C127.411488,24.038685 127.338693,24.1452787 127.338693,24.2911064 C127.338693,24.3426306 127.349329,25.256358 127.349329,25.4123487 C127.349329,25.7867264 127.172303,26.2962961 126.392349,26.4336152 C125.654229,26.5638438 125.394245,26.3913086 125.248417,25.824306" id="Fill-40"></path>
                <path d="M129.528802,22.6148916 C129.528802,21.2939339 129.5704,20.1946721 129.830384,19.6078161 C130.007174,19.2024766 130.287957,18.955255 130.776728,18.8689874 C131.390292,18.7607393 131.743871,19.0209601 131.743871,19.8321118 C131.743871,20.5499055 131.712672,21.2624994 131.712672,22.3130732 C131.712672,22.9578348 131.972657,23.2239644 132.429993,23.1433692 C132.867004,23.0663193 133.137624,22.7068316 133.137624,22.0618336 C133.137624,21.0112598 133.116589,20.3076472 133.116589,19.5898535 C133.116589,18.7789382 133.438733,18.3995971 134.073332,18.2878038 C134.478671,18.2164262 134.749292,18.3454731 134.915682,18.6697447 C135.196465,19.1819142 135.227427,20.2580138 135.227427,21.6101696 C135.227427,23.6798828 134.395713,25.0225846 132.41983,25.3709639 C130.381552,25.7304516 129.528802,24.6846047 129.528802,22.6148916" id="Fill-42"></path>
                <path d="M136.110358,23.9609733 C135.913006,23.3197569 135.829811,22.1904787 135.829811,21.4102888 C135.829811,20.7135303 135.85061,19.8154019 136.037562,18.8773305 C136.18339,18.1964074 136.547368,17.841174 137.212929,17.7237083 C137.971847,17.5899344 138.190234,18.0401804 138.190234,19.0281215 C138.190234,19.7043176 138.138237,21.2944775 138.138237,21.7208521 C138.138237,22.0746674 138.242231,22.1394272 138.491816,22.0952298 L138.990986,22.0073078 C139.334166,21.9470387 139.77094,21.9947813 139.77094,22.7955336 C139.77094,23.7837111 139.157376,24.1933049 137.576671,24.471961 C136.57833,24.6480415 136.256185,24.340787 136.110358,23.9609733" id="Fill-44"></path>
                <path d="M140.160964,23.2468431 C140.004973,22.7230924 139.963376,21.8358362 139.963376,20.6087092 C139.963376,19.4749404 140.015373,18.5817754 140.192162,17.9887743 C140.38975,17.4026274 140.836924,17.0745742 141.57528,16.9443456 C142.344834,16.808681 142.854404,16.9887793 143.280778,18.6822239 C143.623958,19.9942004 143.665555,20.1327012 143.790348,20.1104844 C143.873543,20.096067 143.904505,19.9968002 143.904505,19.8618446 C143.904505,19.227246 143.883942,18.6900235 143.883942,17.701846 C143.883942,16.8906943 144.216722,16.4992994 144.643097,16.4241402 C145.007075,16.3598531 145.287859,16.4350123 145.423051,16.9417458 C145.527044,17.4227171 145.599604,18.2523041 145.599604,19.6148593 C145.599604,20.8419863 145.537444,21.7996747 145.370817,22.3489511 C145.194028,22.9001183 144.788688,23.1901192 144.123128,23.3073486 C143.24958,23.4612121 142.823205,23.0268016 142.313636,21.0780995 C142.022217,20.0062542 142.012054,19.8417549 141.876862,19.8653899 C141.793667,19.8802799 141.752069,19.9396036 141.752069,20.1579906 C141.752069,20.7715541 141.783267,21.6814999 141.783267,22.5134504 C141.783267,23.3560366 141.512883,23.7571218 141.013713,23.8450438 C140.576939,23.9220938 140.296156,23.7327778 140.160964,23.2468431" id="Fill-46"></path>
                <path d="M146.533397,22.2896746 C146.367007,21.965403 146.263013,20.8914306 146.263013,19.4976772 C146.263013,18.0935245 146.367007,17.0457868 146.543797,16.6506104 C146.76242,16.175075 147.250955,15.9434525 148.613273,15.7033213 C150.34997,15.3970123 150.932335,15.4709897 150.932335,16.2405439 C150.932335,16.7709123 150.661951,17.0892752 150.037989,17.1991777 C149.559853,17.2835545 149.112444,17.3416965 148.665507,17.4204009 C148.467918,17.4553806 148.384487,17.5116318 148.374088,17.7319096 C148.363688,17.8791554 148.363688,18.0351461 148.363688,18.1703381 C148.363688,18.3577633 148.446883,18.3847071 148.644708,18.3497274 C149.154278,18.2599145 149.434824,18.1894824 149.903033,18.1072327 C150.516596,17.9989846 150.745146,18.1771922 150.745146,18.644928 C150.745146,19.1131365 150.506197,19.37383 149.965429,19.4690789 C149.570253,19.538802 149.081246,19.6040345 148.592475,19.6903021 C148.43672,19.7177187 148.374088,19.8018591 148.374088,19.9056166 C148.374088,20.217598 148.374088,20.5818127 148.384487,20.6316824 C148.395123,20.7758557 148.467918,20.8356521 148.623673,20.8079992 L150.245976,20.5220162 C150.641153,20.4522931 150.921936,20.6106473 150.921936,21.0996546 C150.921936,21.7236174 150.589156,22.1774086 148.655107,22.5186973 C147.230156,22.7697006 146.751784,22.6671249 146.533397,22.2896746" id="Fill-48"></path>
                <path d="M151.13621,21.1658561 C151.13621,20.5938901 151.562821,20.3315421 151.97856,20.2060405 C152.685955,19.9985256 153.143291,19.7409046 153.143291,19.3870893 C153.143291,18.7004938 151.302601,18.9940399 151.302601,17.2363082 C151.292201,15.9276407 152.644357,14.9713703 154.027238,14.7276939 C154.932221,14.568158 155.2754,14.829797 155.2754,15.422798 C155.2754,15.9635658 154.921585,16.2341861 154.547207,16.3419615 C153.94428,16.5000793 153.621662,16.7234297 153.621662,17.0148487 C153.621662,17.6700097 155.51435,17.315249 155.51435,19.0833801 C155.51435,20.5707279 153.975478,21.5910489 152.394536,21.8699414 C151.490026,22.029241 151.13621,21.737822 151.13621,21.1658561" id="Fill-50"></path>
                <path d="M155.585066,20.3815773 C155.585066,19.8096114 156.011677,19.547027 156.427415,19.4215254 C157.134573,19.2140105 157.592146,18.9563894 157.592146,18.6025741 C157.592146,17.9159787 155.751456,18.2097612 155.751456,16.4520295 C155.741056,15.1433619 157.092976,14.1870916 158.476093,13.9431788 C159.38084,13.7836429 159.724019,14.0455182 159.724019,14.6385193 C159.724019,15.1792871 159.37044,15.449671 158.996062,15.5574464 C158.392898,15.7158006 158.070518,15.9389146 158.070518,16.2303336 C158.070518,16.8854946 159.962969,16.5307339 159.962969,18.298865 C159.962969,19.7862128 158.424097,20.8067702 156.843391,21.0854263 C155.938645,21.2447259 155.585066,20.9535433 155.585066,20.3815773" id="Fill-52"></path>
                <path d="M101.058158,39.5955915 C100.912566,39.0285889 100.870969,38.141569 100.870969,36.9555669 C100.870969,35.9156288 100.933365,35.0829693 101.110154,34.4694058 C101.307743,33.7584663 101.734117,33.4126869 102.514071,33.2751315 C103.325223,33.13214 103.803594,33.370144 104.229969,34.8135308 C104.614746,36.045621 104.645944,36.1964121 104.7809,36.1725408 C104.916091,36.1486695 104.947526,35.9870064 105.321904,34.6209059 C105.737643,33.0397273 106.237049,32.6185524 107.0586,32.4736701 C107.827918,32.3382418 108.254293,32.5334665 108.451881,33.1746829 C108.618271,33.7279772 108.680667,34.5386562 108.680667,35.5785943 C108.680667,36.7643601 108.639306,37.6660337 108.493478,38.2845605 C108.358287,38.807602 108.077503,39.1068206 107.609531,39.1893066 C107.0586,39.2862099 106.756782,39.0172441 106.756782,37.8629128 C106.756782,37.0619242 106.78798,36.4010908 106.78798,35.8811217 C106.78798,35.6832972 106.756782,35.6369726 106.684223,35.6497355 C106.538395,35.6754976 106.538395,35.8106896 106.174417,37.0399437 C105.685882,38.8834703 105.44646,39.4355828 104.7809,39.5528122 C104.105176,39.6721688 103.834792,39.209869 103.36682,37.5348596 C103.023641,36.4303981 103.03404,36.2933154 102.888449,36.3190775 C102.805254,36.3337312 102.763656,36.3930549 102.763656,36.5908795 C102.763656,37.1108485 102.805254,37.7794814 102.805254,38.5700707 C102.805254,39.724402 102.493272,40.0914529 101.942105,40.1885926 C101.463733,40.2729693 101.19335,40.0711268 101.058158,39.5955915" id="Fill-54"></path>
                <path d="M109.625026,38.2515661 C109.458636,37.9272945 109.354642,36.853322 109.354642,35.4595687 C109.354642,34.0554159 109.458636,33.0076783 109.635425,32.6125018 C109.853812,32.1369665 110.342583,31.9053439 111.704902,31.6652128 C113.441362,31.3589037 114.023727,31.4328811 114.023727,32.2024353 C114.023727,32.7328037 113.75358,33.0511666 113.129617,33.1610692 C112.651009,33.2454459 112.204072,33.3035879 111.756899,33.3822923 C111.55931,33.4172721 111.476115,33.4735233 111.465716,33.6938011 C111.455317,33.8412832 111.455317,33.9972739 111.455317,34.1324659 C111.455317,34.3196547 111.538512,34.3465986 111.7361,34.3116188 C112.245433,34.221806 112.526217,34.1513738 112.994189,34.0691242 C113.607752,33.9608761 113.836775,34.1390836 113.836775,34.6068194 C113.836775,35.0750279 113.597589,35.3357215 113.056821,35.4309704 C112.661645,35.5006935 112.172874,35.565926 111.684103,35.6521936 C111.527876,35.6796101 111.465716,35.7637506 111.465716,35.867508 C111.465716,36.1794894 111.465716,36.5437041 111.476115,36.5938102 C111.486278,36.7377471 111.55931,36.7975435 111.715301,36.7698906 L113.337605,36.4839077 C113.732545,36.4144209 114.013328,36.5725388 114.013328,37.061546 C114.013328,37.6855089 113.680784,38.1395364 111.746499,38.4805888 C110.321784,38.7318284 109.843413,38.6290163 109.625026,38.2515661" id="Fill-56"></path>
                <path d="M114.745539,37.3486398 C114.579149,37.0243682 114.475155,35.9506322 114.475155,34.5568788 C114.475155,33.152726 114.579149,32.104752 114.755938,31.7095756 C114.974325,31.2340403 115.463096,31.0024177 116.825179,30.7622865 C118.562112,30.4559775 119.144477,30.5301912 119.144477,31.2997454 C119.144477,31.8301139 118.873857,32.1482404 118.25013,32.2583793 C117.771759,32.3425197 117.324585,32.4006617 116.877412,32.4793661 C116.679824,32.5143458 116.596629,32.570597 116.586229,32.7908748 C116.57583,32.938357 116.57583,33.0943477 116.57583,33.2295396 C116.57583,33.4167285 116.659025,33.4436723 116.856613,33.4086926 C117.366183,33.3188798 117.646966,33.2486839 118.114938,33.1661979 C118.728502,33.0579498 118.957052,33.2363938 118.957052,33.7038932 C118.957052,34.1721017 118.718102,34.4327953 118.177335,34.5280441 C117.782158,34.5977672 117.293387,34.6632361 116.804616,34.7492673 C116.648626,34.7766839 116.586229,34.8608243 116.586229,34.9645818 C116.586229,35.2765632 116.586229,35.6407779 116.596629,35.690884 C116.607028,35.8348209 116.679824,35.8946173 116.835815,35.8669644 L118.458118,35.5809814 C118.853294,35.5114947 119.134078,35.6698489 119.134078,36.1588561 C119.134078,36.782819 118.801297,37.2366101 116.867249,37.5776626 C115.442297,37.8289021 114.963926,37.7260901 114.745539,37.3486398" id="Fill-58"></path>
                <path d="M120.580301,35.6644365 C120.580301,34.8842466 120.622135,32.9426349 120.622135,32.5576214 C120.622135,32.318672 120.559738,32.2669115 120.393112,32.2964552 L119.977373,32.3697235 C119.592359,32.4375559 119.280614,32.2844013 119.280614,31.5356459 C119.280614,30.5786665 119.675555,30.259831 121.724233,29.8984525 C123.773147,29.5373104 124.178486,29.7152816 124.178486,30.672261 C124.178486,31.4210164 123.856106,31.6857279 123.481728,31.7516694 L123.055353,31.8270649 C122.8892,31.8563723 122.816168,31.9315314 122.816168,32.1707172 C122.816168,32.5557306 122.868401,34.4810342 122.868401,35.2612241 C122.868401,36.1974047 122.389793,36.5831272 121.734868,36.6987022 C121.069308,36.8159315 120.580301,36.6006171 120.580301,35.6644365" id="Fill-60"></path>
                <path d="M126.171126,33.2859563 C125.891761,33.3377168 125.523055,33.7172942 125.368483,33.888884 C125.327358,33.9344995 125.263544,33.9456079 125.222419,33.9144098 C125.068083,33.7976531 124.699141,33.5478316 124.419776,33.5948651 C124.010655,33.6634065 123.827484,34.0909629 123.827247,34.3934903 C123.827247,34.6664741 123.921551,34.917241 124.068088,35.1301919 C124.332326,35.5135509 124.758228,35.7647905 125.184839,35.994995 C125.251017,36.0306838 125.339885,36.0150847 125.406299,35.9557609 C125.832673,35.5752381 126.258812,35.1739166 126.522814,34.6971995 C126.669587,34.4327243 126.763891,34.1486322 126.763655,33.8758848 C126.763418,33.5733573 126.580247,33.2103244 126.171126,33.2859563" id="Fill-62"></path>
                <path d="M155.419427,6.88426822 C155.421323,7.04451322 155.471429,7.17970517 155.570223,7.28842597 C155.714632,7.44725288 155.920257,7.47254228 156.114063,7.35720369 C156.357267,7.21255776 156.533111,6.89159505 156.510658,6.63350133 C156.48915,6.38817048 156.373102,6.26455966 156.147388,6.25817822 C156.077193,6.25605108 156.003452,6.26574141 155.931838,6.28015873 C155.624347,6.34184597 155.41825,6.58670412 155.419427,6.88426822 M155.91482,10.4058767 C155.942473,10.3983135 155.99447,10.3869688 156.045285,10.3692425 C156.266272,10.2917199 156.459843,10.1676364 156.597162,9.95870335 C156.688393,9.81996615 156.693356,9.72329918 156.593853,9.62734126 C156.381847,9.42195349 156.165115,9.22082001 155.941292,9.02819511 C155.81319,8.91829257 155.694306,8.93318259 155.538079,9.05915691 C155.298894,9.2517818 155.155429,9.49569455 155.112414,9.78167752 C155.06798,10.0773508 155.196791,10.2945561 155.454884,10.3829508 C155.591731,10.4299844 155.737558,10.4356568 155.91482,10.4058767 M152.989995,10.4833994 C152.994013,9.7648967 153.314975,9.14802434 153.898522,8.62380101 C153.993771,8.53800612 154.09162,8.45339297 154.177888,8.35885315 C154.301498,8.2231885 154.309062,8.12628518 154.225866,7.99582022 C154.129436,7.84432015 154.007243,7.7067647 153.940829,7.53895651 C153.712752,6.96060913 153.752931,6.36264473 154.200104,5.76538938 C154.443308,5.44064508 154.767343,5.22438523 155.123286,5.0740669 C155.776083,4.79871966 156.427699,4.67983583 157.066316,4.79848331 C157.479927,4.87529692 157.812471,5.07430325 157.968225,5.47113417 C158.174322,5.99583021 158.101527,6.53825245 157.72644,7.08091105 C157.636863,7.21043062 157.540433,7.33569588 157.451565,7.46592449 C157.336463,7.63515078 157.33599,7.68998388 157.456765,7.81383105 C157.561232,7.92066106 157.669952,8.02418216 157.784818,8.12014009 C157.873686,8.19435385 157.9349,8.18088193 158.011005,8.06507064 C158.113344,7.90978898 158.208357,7.74930762 158.294861,7.58646277 C158.42698,7.33853208 158.545864,7.0854017 158.675856,6.8365256 C158.879353,6.44725787 159.342835,6.24943329 159.69145,6.40140606 C159.89991,6.49240064 159.975542,6.68171664 159.995396,6.90861222 C160.022576,7.2179938 159.926854,7.52170299 159.791662,7.82210329 C159.637326,8.16481016 159.444229,8.48979081 159.22206,8.80059048 C159.185426,8.85187834 159.151391,8.90482064 159.118775,8.95847199 C159.039834,9.0882279 159.038416,9.20852983 159.122084,9.30448775 C159.186607,9.37846517 159.262239,9.44227955 159.338108,9.50467583 C159.44801,9.59496137 159.566421,9.67508387 159.67396,9.76796925 C160.116879,10.1513282 159.905347,11.021331 159.374742,11.3460753 C159.057324,11.5403546 158.757397,11.5514631 158.475668,11.4049263 C158.278552,11.3023506 158.120671,11.1515596 157.957826,11.0066773 C157.907011,10.9612982 157.856668,10.9147373 157.800654,10.875976 C157.692169,10.8012895 157.62481,10.8138161 157.516561,10.9263185 C157.403586,11.0433115 157.296284,11.1659769 157.181418,11.2810792 C156.842493,11.6216589 156.447789,11.8473727 156.015978,11.986819 C155.500027,12.1536817 154.987857,12.2283682 154.486324,12.1614813 C153.984554,12.094358 153.565269,11.895588 153.27905,11.4942665 C153.076026,11.2097016 152.992122,10.8703036 152.989995,10.4833994" id="Fill-64"></path>
            </g>
        </g>
    </g>
</svg>