<?xml version="1.0" encoding="UTF-8"?>
<svg width="170px" height="65px" viewBox="0 0 170 65" version="1.1" xmlns="http://www.w3.org/2000/svg" xmlns:xlink="http://www.w3.org/1999/xlink">
    <title>voicecollective</title>
    <g id="Exports" stroke="none" stroke-width="1" fill="none" fill-rule="evenodd">
        <g id="Clients" transform="translate(-1308, -524)" fill="#FFFFFF">
            <g id="Group-32" transform="translate(1307.9993, 524.0007)">
                <g id="Group" transform="translate(70.6154, 14.3846)">
                    <g id="Group-3">
                        <polygon id="Fill-1" points="6.15923077 16.5815385 0 0 2.72392308 0 6.86930769 11.56 7.48523077 13.5725385 8.10115385 11.56 12.2465385 0 14.9704615 0 8.81253846 16.5815385"></polygon>
                        <path d="M22.9128615,13.5615538 C23.6477846,12.8266308 24.0139385,11.8759385 24.0139385,10.7068615 C24.0139385,9.53909231 23.6477846,8.58709231 22.9128615,7.85216923 C22.1779385,7.11855385 21.2821692,6.75109231 20.2242462,6.75109231 C19.1506308,6.75109231 18.2470154,7.11855385 17.5120923,7.85216923 C16.7771692,8.58709231 16.4097077,9.53909231 16.4097077,10.7068615 C16.4097077,11.8759385 16.7771692,12.8266308 17.5120923,13.5615538 C18.2470154,14.2964769 19.1506308,14.6626308 20.2242462,14.6626308 C21.2821692,14.6626308 22.1779385,14.2964769 22.9128615,13.5615538 M15.7702462,15.2314769 C14.5384,14.1094769 13.9237846,12.6017077 13.9237846,10.7068615 C13.9237846,8.81201538 14.5384,7.30424615 15.7702462,6.18224615 C17.0020923,5.06155385 18.4876308,4.50055385 20.2242462,4.50055385 C21.9608615,4.50055385 23.4411692,5.06155385 24.6651692,6.18224615 C25.8891692,7.30424615 26.5011692,8.81201538 26.5011692,10.7068615 C26.5011692,12.6017077 25.8891692,14.1094769 24.6651692,15.2314769 C23.4411692,16.3521692 21.9608615,16.9131692 20.2242462,16.9131692 C18.4876308,16.9131692 17.0020923,16.3521692 15.7702462,15.2314769" id="Fill-2"></path>
                        <path d="M27.8699308,16.5820615 L30.3336231,16.5820615 L30.3336231,4.83244615 L27.8699308,4.83244615 L27.8699308,16.5820615 Z M27.7287,2.96113846 L30.4997,2.96113846 L30.4997,0.237215385 L27.7287,0.237215385 L27.7287,2.96113846 Z" id="Fill-4"></path>
                        <path d="M31.6916615,10.7069923 C31.6589692,8.95337692 32.2565846,7.47306923 33.4792769,6.26606923 C34.7032769,5.05645385 36.1443538,4.4693 37.8025077,4.50068462 C40.3616615,4.50068462 42.0825846,5.48799231 42.9665846,7.4613 L40.9527385,8.69314615 C40.2583538,7.41422308 39.2082769,6.77476154 37.8025077,6.77476154 C36.7759692,6.77476154 35.9194308,7.1383 35.2328923,7.86406923 C34.5450462,8.59114615 34.2024308,9.53922308 34.2024308,10.7069923 C34.2024308,11.8917615 34.5372,12.8437615 35.2093538,13.5616846 C35.8802,14.2796077 36.7445846,14.6392231 37.8025077,14.6392231 C38.5766615,14.6392231 39.2161231,14.4770692 39.7208923,14.1540692 C40.2269692,13.8297615 40.6768154,13.3289154 41.0717385,12.6489154 L43.0372,13.8572231 C41.8380462,15.8946077 40.0922769,16.9133 37.8025077,16.9133 C36.0502,16.9133 34.5934308,16.3326846 33.4322,15.1714538 C32.2722769,14.0115308 31.6916615,12.5233769 31.6916615,10.7069923" id="Fill-6"></path>
                        <path d="M45.8747615,9.30985385 L52.8630692,9.30985385 C52.7676077,8.42454615 52.4079923,7.72231538 51.7855308,7.20185385 C51.1604538,6.68008462 50.3836846,6.41985385 49.4513,6.41985385 C48.5673,6.41985385 47.8023,6.68793077 47.1536846,7.22408462 C46.5063769,7.76285385 46.0800692,8.45593077 45.8747615,9.30985385 M45.1882231,15.1604692 C44.0348385,13.9913923 43.4594538,12.5071615 43.4594538,10.7064692 C43.4594538,8.90577692 44.0426846,7.42285385 45.2117615,6.25377692 C46.3808385,5.0847 47.8166846,4.50016154 49.5232231,4.50016154 C51.2127615,4.50016154 52.5832231,5.04939231 53.6333,6.14785385 C54.6833769,7.24500769 55.2077615,8.6547 55.2077615,10.3756231 L55.2077615,11.2282385 L45.8276846,11.2282385 C45.9061462,12.2861615 46.2814538,13.1466231 46.9523,13.8096231 C47.6231462,14.4726231 48.4574538,14.8047769 49.4513,14.8047769 C51.0466846,14.8047769 52.2471462,14.0149308 53.0526846,12.4365462 L54.8520692,13.4787769 C53.7156846,15.7685462 51.8993,16.9140846 49.4042231,16.9140846 C47.7460692,16.9140846 46.3403,16.3295462 45.1882231,15.1604692" id="Fill-7"></path>
                    </g>
                    <g id="Group-2" transform="translate(1.1114, 19.9248)">
                        <path d="M0.00201441534,8.62378555 C-0.0450625077,6.20717017 0.763091338,4.15932402 2.43039903,2.47632402 C4.09639903,0.794631709 6.08147595,-0.0305221374 8.38693749,0.00086247798 C10.0137067,0.00086247798 11.4587067,0.397093247 12.7219375,1.18563171 C13.9851683,1.97547786 14.9097067,3.00986248 15.4942452,4.28878555 L13.4568606,5.75732402 C12.3348606,3.48324709 10.6217836,2.34686248 8.31632211,2.34686248 C6.7366298,2.31547786 5.38709134,2.90263171 4.26639903,4.11224709 C3.14439903,5.31924709 2.59124518,6.82440094 2.60824518,8.62378555 C2.60824518,10.4231702 3.15224518,11.9204779 4.24155288,13.1130932 C5.33216826,14.3057086 6.68955288,14.9007086 8.31632211,14.9007086 C10.6217836,14.9007086 12.375399,13.7551702 13.5745529,11.4667086 L15.5648606,12.863324 C14.585399,14.3959394 13.5510144,15.5087856 12.4617067,16.2044779 C11.355399,16.8988625 9.95878365,17.2467086 8.26924518,17.2467086 C5.91539903,17.2780932 3.93816826,16.4647086 2.33493749,14.8065548 C0.733014415,13.1484009 -0.0450625077,11.0874779 0.00201441534,8.62378555" id="Fill-8"></path>
                        <path d="M25.5229375,13.8945702 C26.2578606,13.1596471 26.6240144,12.2089548 26.6240144,11.0398779 C26.6240144,9.87210863 26.2578606,8.92010863 25.5229375,8.18518555 C24.7880144,7.45157017 23.8922452,7.08410863 22.8343221,7.08410863 C21.7607067,7.08410863 20.8570913,7.45157017 20.1221683,8.18518555 C19.3872452,8.92010863 19.0197836,9.87210863 19.0197836,11.0398779 C19.0197836,12.2089548 19.3872452,13.1596471 20.1221683,13.8945702 C20.8570913,14.6294932 21.7607067,14.9956471 22.8343221,14.9956471 C23.8922452,14.9956471 24.7880144,14.6294932 25.5229375,13.8945702 M18.3803221,15.5644932 C17.148476,14.4424932 16.5338606,12.934724 16.5338606,11.0398779 C16.5338606,9.14503171 17.148476,7.63726248 18.3803221,6.51526248 C19.6121683,5.39457017 21.0977067,4.83357017 22.8343221,4.83357017 C24.5709375,4.83357017 26.0512452,5.39457017 27.2752452,6.51526248 C28.4992452,7.63726248 29.1112452,9.14503171 29.1112452,11.0398779 C29.1112452,12.934724 28.4992452,14.4424932 27.2752452,15.5644932 C26.0512452,16.6851856 24.5709375,17.2461856 22.8343221,17.2461856 C21.0977067,17.2461856 19.6121683,16.6851856 18.3803221,15.5644932" id="Fill-9"></path>
                        <polygon id="Fill-10" points="30.5613452 16.9146856 33.0250375 16.9146856 33.0250375 0.333147093 30.5613452 0.333147093"></polygon>
                        <polygon id="Fill-11" points="35.1016529 16.9146856 37.5653452 16.9146856 37.5653452 0.333147093 35.1016529 0.333147093"></polygon>
                        <path d="M41.4306221,9.6427394 L48.4189298,9.6427394 C48.3234683,8.75743171 47.9638529,8.05520094 47.3413913,7.5347394 C46.7176221,7.01297017 45.9395452,6.7527394 45.0071606,6.7527394 C44.1231606,6.7527394 43.3581606,7.02081632 42.7095452,7.55697017 C42.0622375,8.0957394 41.6359298,8.78881632 41.4306221,9.6427394 M40.7440836,15.4933548 C39.590699,14.3242779 39.0153144,12.8400471 39.0153144,11.0393548 C39.0153144,9.23866248 39.5985452,7.7557394 40.7676221,6.58666248 C41.936699,5.41758555 43.3725452,4.83304709 45.0790836,4.83304709 C46.7686221,4.83304709 48.1390836,5.38227786 49.1891606,6.4807394 C50.2392375,7.57789325 50.7636221,8.98627786 50.7636221,10.7085086 L50.7636221,11.561124 L41.3835452,11.561124 C41.4620067,12.6190471 41.8373144,13.4795086 42.5081606,14.1425086 C43.1790067,14.8055086 44.0133144,15.1376625 45.0071606,15.1376625 C46.6025452,15.1376625 47.8030067,14.3478163 48.6085452,12.7694317 L50.4079298,13.8116625 C49.2715452,16.1014317 47.4551606,17.2469702 44.9600836,17.2469702 C43.3019298,17.2469702 41.8961606,16.6624317 40.7440836,15.4933548" id="Fill-12"></path>
                        <path d="M51.5573913,11.0400086 C51.524699,9.28639325 52.1223144,7.80608555 53.3450067,6.59908555 C54.5690067,5.38947017 56.0100836,4.80231632 57.6682375,4.83370094 C60.2273913,4.83370094 61.9483144,5.82100863 62.8323144,7.79431632 L60.8184683,9.02616248 C60.1240836,7.7472394 59.0740067,7.10777786 57.6682375,7.10777786 C56.641699,7.10777786 55.7851606,7.47131632 55.0986221,8.19708555 C54.410776,8.92416248 54.0681606,9.8722394 54.0681606,11.0400086 C54.0681606,12.2247779 54.4029298,13.1767779 55.0750836,13.8947009 C55.7459298,14.612624 56.6103144,14.9722394 57.6682375,14.9722394 C58.4423913,14.9722394 59.0818529,14.8100856 59.5866221,14.4870856 C60.092699,14.1627779 60.5425452,13.6619317 60.9374683,12.9819317 L62.9029298,14.1902394 C61.703776,16.227624 59.9580067,17.2463163 57.6682375,17.2463163 C55.9159298,17.2463163 54.4591606,16.6657009 53.2979298,15.5044702 C52.1380067,14.3445471 51.5573913,12.8563932 51.5573913,11.0400086" id="Fill-13"></path>
                        <path d="M65.2489298,13.6933163 L65.2489298,7.13131632 L63.3540836,7.13131632 L63.3540836,5.16585479 L65.2489298,5.16585479 L65.2489298,1.99208555 L67.6890836,1.99208555 L67.6890836,5.16585479 L70.3646221,5.16585479 L70.3646221,7.13131632 L67.6890836,7.13131632 L67.6890836,13.337624 C67.6890836,14.5067009 68.2095452,15.0899317 69.251776,15.0899317 C69.5839298,15.0899317 69.8990836,15.0428548 70.1998529,14.9487009 L70.4365452,16.9625471 C69.8833913,17.1521625 69.2988529,17.2463163 68.6829298,17.2463163 C67.6093144,17.2463163 66.7684683,16.9533932 66.1603913,16.3701625 C65.5523144,15.785624 65.2489298,14.8924702 65.2489298,13.6933163" id="Fill-14"></path>
                        <path d="M71.4751144,16.9146856 L73.9388067,16.9146856 L73.9388067,5.16507017 L71.4751144,5.16507017 L71.4751144,16.9146856 Z M71.3338836,3.29376248 L74.1048836,3.29376248 L74.1048836,0.569839401 L71.3338836,0.569839401 L71.3338836,3.29376248 Z" id="Fill-15"></path>
                        <polygon id="Fill-16" points="79.4227452 16.914424 74.684976 5.16480863 77.3147452 5.16480863 80.6075144 13.8831932 83.898976 5.16480863 86.5287452 5.16480863 81.790976 16.914424"></polygon>
                        <path d="M88.5352683,9.6427394 L95.523576,9.6427394 C95.4281144,8.75743171 95.068499,8.05520094 94.4460375,7.5347394 C93.8209606,7.01297017 93.0441913,6.7527394 92.1118067,6.7527394 C91.2278067,6.7527394 90.4628067,7.02081632 89.8141913,7.55697017 C89.1668836,8.0957394 88.740576,8.78881632 88.5352683,9.6427394 M87.8487298,15.4933548 C86.6953452,14.3242779 86.1199606,12.8400471 86.1199606,11.0393548 C86.1199606,9.23866248 86.7031913,7.7557394 87.8722683,6.58666248 C89.0413452,5.41758555 90.4771913,4.83304709 92.1837298,4.83304709 C93.8732683,4.83304709 95.2437298,5.38227786 96.2938067,6.4807394 C97.3438836,7.57789325 97.8682683,8.98627786 97.8682683,10.7085086 L97.8682683,11.561124 L88.4881913,11.561124 C88.5666529,12.6190471 88.9419606,13.4795086 89.6128067,14.1425086 C90.2836529,14.8055086 91.1179606,15.1376625 92.1118067,15.1376625 C93.7071913,15.1376625 94.9076529,14.3478163 95.7131913,12.7694317 L97.512576,13.8116625 C96.3761913,16.1014317 94.5598067,17.2469702 92.0647298,17.2469702 C90.406576,17.2469702 89.0008067,16.6624317 87.8487298,15.4933548" id="Fill-17"></path>
                    </g>
                </g>
                <path d="M23.9596692,0.801615385 C25.0359,1.57707692 25.9434385,2.57353846 26.2468231,3.86423077 C27.3936692,8.74976923 25.7551308,16.0323077 29.3395154,15.1326154 C38.4711308,20.5307692 35.5575923,6.78823077 38.3730538,0.986 C36.2336692,2.10538462 36.2951308,4.318 34.0145154,1.42407692 C31.3259,6.63392308 33.6666692,10.3935385 29.1773615,14.1361538 C27.8539769,8.27376923 25.8126692,5.83623077 26.5868231,0 C25.2699769,0 25.2699769,0.783307692 23.9531308,0.783307692 C23.9400538,0.783307692 23.9439769,0.789846154 23.9596692,0.801615385" id="Fill-18"></path>
                <path d="M23.4456154,15.8030692 C25.8949231,18.3439154 23.1069231,6.50276154 22.9787692,2.43453077 C20.3280769,0.0872230769 21.148,5.13491538 18.0487692,4.18553077 C18.1376923,9.90799231 23.341,12.3599154 20.2653077,17.3683769 C15.4150769,14.3959923 15.4922308,4.45491538 9.76061538,10.1629923 C12.7303846,13.9945308 16.3265385,14.5372231 21.1323077,18.8709154 C22.576,17.9633769 21.7508462,16.3653769 23.4456154,15.8030692" id="Fill-19"></path>
                <path d="M0.629392308,25.6284154 C0.739238462,25.5473385 1.16554615,25.6179538 1.30154615,25.6218769 C1.55785385,25.6297231 1.81285385,25.6467231 2.06916154,25.6689538 C2.64846923,25.7212615 3.22516154,25.8010308 3.79923846,25.8925692 C5.09646923,26.0978769 6.38454615,26.3581077 7.67523846,26.6000308 C8.9097,26.8301846 10.1493923,27.0577231 11.3995462,27.1767231 C12.2822385,27.2604154 13.2734692,27.3441077 14.1287,27.0485692 C14.4111615,26.9504923 14.6870846,26.7948769 14.8557769,26.5411846 C15.0467,26.2561077 15.0519308,25.8912615 15.1068538,25.5630308 C15.2101615,24.9458 15.3592385,24.3377231 15.5292385,23.7348769 C15.6704692,23.2340308 15.7829308,22.6664923 16.1608538,22.2833385 C16.3766231,22.0649538 16.6603923,21.9459538 16.9611615,21.9028 C17.1638538,21.8727231 17.3717769,21.8753385 17.5757769,21.8923385 C17.7013154,21.9028 17.8255462,21.9184923 17.9484692,21.9394154 C18.0177769,21.9498769 18.3028538,21.9642615 18.3420846,22.0165692 C14.0162385,16.0966462 10.7509308,17.1336462 7.32085385,10.7246462 C6.98346923,12.5488769 8.5187,14.1364154 5.69931538,14.4044923 C8.18523846,19.0677231 16.1857,18.8153385 14.1757769,24.1389538 C8.13293077,23.3386462 7.48954615,20.9664923 1.38916154,20.9063385 C1.26754615,22.6782615 2.52162308,24.2318 0.629392308,25.6284154" id="Fill-20"></path>
                <path d="M14.7537769,33.9861385 C18.7723154,28.9724462 6.48654615,28.4402154 3.82931538,28.3774462 C6.27600769,30.3376769 8.16823846,32.7739077 12.3214692,34.3575231 C7.85700769,36.9245231 0.388776923,33.6212923 1.06746923,38.3721385 C6.72846923,36.2994462 7.64777692,37.0775231 13.6160846,34.8204462 C14.0580846,34.6530615 14.4582385,34.3549077 14.7537769,33.9861385" id="Fill-21"></path>
                <path d="M1.09663077,27.3422769 C2.15978462,27.8692769 3.05032308,28.1896615 3.82970769,28.3779692 C3.26609231,28.1595846 1.70470769,25.9025077 1.09663077,27.3422769" id="Fill-22"></path>
                <path d="M17.374,42.8781846 C16.2912308,41.1036462 15.1600769,39.8626462 15.2764615,37.7049538 C8.26723077,39.4271846 6.38284615,39.7397231 0,42.4780308 C3.47715385,46.8601077 -1.44369231,38.8387231 11.2605385,44.3205692 C9.56969231,46.7986462 2.312,50.9518769 7.82392308,54.6121077 C11.8437692,49.0688 14.569,48.3469538 17.374,42.8781846" id="Fill-23"></path>
                <path d="M25.1619615,46.8505615 C17.8323462,45.4696385 15.6419615,51.9492538 9.26565385,55.4917923 C12.4355,61.1279462 17.3615769,52.8267154 21.0505769,51.2509462 C15.2810385,71.6862538 26.5638077,59.4514846 25.1619615,46.8505615" id="Fill-24"></path>
                <path d="M32.1884538,50.5340692 C30.8219154,49.5912231 28.6106077,46.9013 30.0320692,50.0214538 C28.9636846,56.1937615 22.1911462,61.4323769 27.9436846,64.0673769 C32.8606077,50.8858385 31.5620692,48.1266077 36.6346077,63.2317615 C34.8365308,63.3076077 37.3080692,63.4802231 38.1436846,63.6829154 C35.6041462,57.3105308 35.0941462,56.9012231 32.8645308,51.3683769 C32.7285308,51.0296846 32.4892231,50.7419923 32.1884538,50.5340692" id="Fill-25"></path>
                <path d="M40.8674769,46.9974154 C39.7284769,45.9826462 39.4420923,49.6088769 38.2259385,48.3665692 C39.8370154,54.5297231 37.4753231,58.9301077 40.0645538,62.6557231 C41.5736308,60.5804154 41.5854,59.8572615 44.0347077,61.4840308 C43.0068615,55.4594923 41.4899385,55.7184154 40.4634,49.6951846 C40.4411692,49.5709538 40.9982462,49.1734154 41.1015538,49.1001846 C41.2911692,48.9641846 41.4990923,48.8504154 41.7253231,48.7850308 C42.1215538,48.6686462 42.5308615,48.7261846 42.8996308,48.9066462 C43.8424769,49.3695692 44.4924,50.3869538 45.0390154,51.2421846 C45.7438615,52.3458769 46.3532462,53.5071077 47.0528615,54.6147231 C47.5798615,55.4503385 48.2062462,56.4677231 49.1268615,56.9201846 C49.6355538,57.1686462 50.1952462,57.0875692 50.7379385,57.0143385 C51.2440154,56.9463385 51.7461692,56.8391077 52.2365538,56.6913385 C52.6615538,56.5644923 53.1009385,56.4546462 53.4500923,56.1643385 C53.9888615,55.7171077 53.7024769,55.1194923 53.3114769,54.6801077 C52.6144769,53.8941846 51.6572462,53.3188 50.7680154,52.7787231 C49.5492462,52.0385692 48.2886308,51.3677231 47.0293231,50.6981846 C45.7830923,50.0351846 44.5303231,49.3813385 43.3076308,48.6738769 C42.4654769,48.1861077 41.5697077,47.6826462 40.8674769,46.9974154" id="Fill-26"></path>
                <path d="M60.2614692,41.2896 C61.1990846,39.4915231 50.2929308,40.9482923 45.9291615,39.2339077 C45.2635462,41.8989846 48.0790077,43.9350615 43.5530846,43.9546769 C47.7612385,49.2076769 50.3700846,47.9352923 54.2827,51.9826 C54.1453923,50.9024462 55.2229308,52.1944462 55.4230077,52.2179846 C46.4770846,40.6697538 44.6384692,40.7704462 60.1241615,42.4325231 C60.0365462,42.0807538 60.0169308,41.7146 60.2614692,41.2896" id="Fill-27"></path>
                <path d="M62.0645154,37.3882308 C59.4360538,35.2161538 54.4890538,33.9385385 53.0179,33.5488462 C55.5665923,34.2236154 57.4810538,31.6579231 62.4908231,29.8023077 C59.6910538,28.1676923 60.7555154,27.8943846 61.9415923,25.6046154 C61.2092846,22.1693077 47.6171308,32.1600769 49.7094385,34.6355385 C46.6716692,35.8085385 58.5350538,37.2692308 62.2279769,39.2111538 C65.1362846,40.9294615 62.9302077,38.1035385 62.0645154,37.3882308" id="Fill-28"></path>
                <path d="M43.5461538,21.6667615 C41.1086154,25.9651462 48.0446154,23.4844538 46.8663846,26.7340692 C50.7633077,25.3387615 61.4236154,23.7525308 61.472,20.5996846 C55.1702308,19.6241462 54.383,24.2533769 48.2904615,24.9595308 C49.6046923,19.4057615 53.5774615,17.0153 57.3187692,12.4279154 C56.338,10.9188385 55.8842308,9.51176154 54.4013077,11.3660692 C49.7668462,17.1513 48.1806154,15.8815308 43.5461538,21.6667615" id="Fill-29"></path>
                <path d="M37.1664462,18.7695692 C40.4827538,19.7241846 48.8794462,13.7990308 53.4406769,11.0254154 C44.7654462,7.86733846 53.0052154,4.19010769 42.6770615,12.3762615 C42.7019077,9.66149231 42.1304462,8.32764615 42.8771385,3.94687692 C42.1147538,4.99826154 41.0437538,3.76772308 40.1819846,3.53364615 C39.2077538,9.8838 37.7967538,11.7904154 37.1664462,18.7695692" id="Fill-30"></path>
            </g>
        </g>
    </g>
</svg>