<?xml version="1.0" encoding="UTF-8"?>
<svg width="164px" height="57px" viewBox="0 0 164 57" version="1.1" xmlns="http://www.w3.org/2000/svg" xmlns:xlink="http://www.w3.org/1999/xlink">
    <title>Group 30 Copy</title>
    <defs>
        <polygon id="path-1" points="0 57 164 57 164 0 0 0"></polygon>
    </defs>
    <g id="Home" stroke="none" stroke-width="1" fill="none" fill-rule="evenodd">
        <g transform="translate(-987, -4383)" id="Clients">
            <g transform="translate(-1, 3720)">
                <g id="Group-6" transform="translate(121, 365)">
                    <g id="Group-30-Copy" transform="translate(867, 298)">
                        <polygon id="Fill-1" fill="#FFFFFF" points="86.013986 26.22 83.3662679 26.22 73.7008757 12.4681526 73.7008757 26.22 71.1048951 26.22 71.1048951 7.98 73.6752139 7.98 83.4175915 21.8360472 83.4175915 7.98 86.013986 7.98"></polygon>
                        <g id="Group-29">
                            <path d="M93.4410551,26.452682 C91.7214828,26.452682 90.7426428,25.7175718 90.2136092,25.1135048 C89.2611783,24.0110508 89.2611783,22.8557568 89.2611783,20.7556834 L89.2611783,13.1944891 L91.7478919,13.1944891 L91.7478919,20.5718001 C91.7478919,21.8581374 91.7478919,21.9633947 91.8007101,22.2783211 C92.0124087,23.7747503 93.1765383,24.0896767 94.1553783,24.0896767 C95.2662637,24.0896767 96.2715128,23.6699157 96.8533646,22.9610141 C97.5676878,22.0944379 97.5940969,21.1496585 97.5940969,19.6790153 L97.5940969,13.1944891 L100.081237,13.1944891 L100.081237,26.1377556 L97.5940969,26.1377556 L97.5940969,24.5627005 C96.9594269,25.297388 95.6632519,26.452682 93.4410551,26.452682" id="Fill-2" fill="#FFFFFF"></path>
                            <path d="M108.801687,15.6099117 C107.690802,15.6099117 106.658718,16.0563041 106.050457,17.0277149 C105.521423,17.920077 105.521423,18.9705364 105.521423,19.9681558 L105.521423,26.1377556 L103.0083,26.1377556 L103.0083,13.1944891 L105.521423,13.1944891 L105.521423,15.0062674 C106.288564,13.7457161 107.505512,13.0896545 108.986977,13.0896545 C109.277903,13.0896545 109.568829,13.1158631 109.886589,13.1682804 L109.886589,15.715169 C109.51601,15.662329 109.172266,15.6099117 108.801687,15.6099117" id="Fill-4" fill="#FFFFFF"></path>
                            <path d="M117.298129,24.1948495 C117.45701,24.1948495 118.038861,24.1424322 118.329787,24.0371749 L118.329787,26.1638797 C117.906816,26.2949229 117.11284,26.3477629 116.689868,26.3477629 C115.552148,26.3477629 114.652961,26.0324137 114.150336,25.5073954 C113.436013,24.7722851 113.277133,23.6960398 113.277133,22.9871382 L113.277133,15.347318 L111.160572,15.347318 L111.160572,13.1681959 L113.277133,13.1681959 L113.277133,9.2829755 L115.790256,9.2829755 L115.790256,13.1681959 L118.594304,13.1681959 L118.594304,15.347318 L115.790256,15.347318 L115.790256,22.7508377 C115.790256,23.879923 116.398942,24.1948495 117.298129,24.1948495" id="Fill-6" fill="#FFFFFF"></path>
                            <path d="M124.387393,26.452682 C122.667821,26.452682 121.688981,25.7175718 121.159947,25.1135048 C120.207516,24.0110508 120.207516,22.8557568 120.207516,20.7556834 L120.207516,13.1944891 L122.69423,13.1944891 L122.69423,20.5718001 C122.69423,21.8581374 122.69423,21.9633947 122.747048,22.2783211 C122.958746,23.7747503 124.122876,24.0896767 125.101716,24.0896767 C126.212601,24.0896767 127.217851,23.6699157 127.799702,22.9610141 C128.514026,22.0944379 128.540435,21.1496585 128.540435,19.6790153 L128.540435,13.1944891 L131.027574,13.1944891 L131.027574,26.1377556 L128.540435,26.1377556 L128.540435,24.5627005 C127.905765,25.297388 126.60959,26.452682 124.387393,26.452682" id="Fill-8" fill="#FFFFFF"></path>
                            <path d="M139.748025,15.6099117 C138.637139,15.6099117 137.605481,16.0563041 136.996794,17.0277149 C136.467761,17.920077 136.467761,18.9705364 136.467761,19.9681558 L136.467761,26.1377556 L133.954638,26.1377556 L133.954638,13.1944891 L136.467761,13.1944891 L136.467761,15.0062674 C137.234902,13.7457161 138.45185,13.0896545 139.933314,13.0896545 C140.22424,13.0896545 140.515166,13.1158631 140.832927,13.1682804 L140.832927,15.715169 C140.462348,15.662329 140.118604,15.6099117 139.748025,15.6099117" id="Fill-10" fill="#FFFFFF"></path>
                            <path d="M147.768337,15.0848933 C145.837492,15.0848933 144.514482,16.3712306 144.223556,18.3140521 L151.022192,18.3140521 C150.890146,16.2926046 149.646789,15.0848933 147.768337,15.0848933 M147.874399,24.2473513 C149.27621,24.2473513 150.44034,23.6170757 150.995783,22.4093644 L153.640951,22.4093644 C152.345202,25.7961977 149.80567,26.5050993 147.821155,26.5050993 C143.906221,26.5050993 141.445916,23.7747503 141.445916,19.6532294 C141.445916,15.032476 144.540891,12.8271453 147.847564,12.8271453 C151.710106,12.8271453 153.773848,15.7937949 153.773848,19.9157385 L153.773848,20.2044564 L144.144328,20.2044564 C144.197147,22.3835784 145.466913,24.2473513 147.874399,24.2473513" id="Fill-12" fill="#FFFFFF"></path>
                            <path d="M79.3472073,31.649476 C75.2729668,31.649476 72.4689182,34.8000089 72.4689182,38.9481612 C72.4689182,43.1225221 75.3262109,46.3516809 79.4264345,46.3516809 C82.0456196,46.3516809 84.1617541,45.0653436 85.2198214,42.5708724 L88.0242959,42.5708724 C86.6748768,46.5089327 83.3946127,48.7142635 79.3472073,48.7142635 C73.7650932,48.7142635 69.796915,44.5661112 69.796915,39.0529958 C69.796915,33.5136717 73.7919282,29.3131021 79.4000255,29.3131021 C83.4474309,29.3131021 86.727695,31.5180101 88.050705,35.4560705 L85.1670032,35.4560705 C84.0825268,33.0144392 82.0456196,31.649476 79.3472073,31.649476" id="Fill-14" fill="#FFFFFF"></path>
                            <path d="M98.3585548,43.5687454 L98.3585548,41.284366 C97.3797148,41.7835985 96.2688293,41.9932676 95.2635802,42.1771509 C93.4911898,42.518286 92.0097252,42.7807952 92.0097252,44.5925735 C92.0097252,45.8527021 92.7504575,46.4563464 94.4431948,46.4563464 C96.8775162,46.4563464 98.3585548,45.1962178 98.3585548,43.5687454 M100.898087,39.4468018 L100.898087,48.189076 L98.3585548,48.189076 L98.3585548,46.6402296 C97.4065498,47.7688923 95.6341594,48.5044252 93.7557066,48.5044252 C91.0308852,48.5044252 89.3641311,46.9551561 89.3641311,44.5401562 C89.3641311,41.415832 92.247833,40.864605 95.0254725,40.3395866 C96.2155852,40.1032861 97.4325329,39.8931942 98.3585548,39.4730104 L98.3585548,39.4468018 C98.3585548,37.5039802 97.4065498,36.7426614 95.4488698,36.7426614 C93.6760534,36.7426614 92.6708043,37.372937 92.5387589,38.7907402 L89.9459829,38.7907402 C90.1312725,36.2962689 91.7980266,34.8526798 95.4752789,34.8526798 C99.3373948,34.8526798 100.898087,36.4539435 100.898087,39.4468018" id="Fill-16" fill="#FFFFFF"></path>
                            <path d="M108.423484,46.2465081 C108.582364,46.2465081 109.164216,46.1940908 109.455142,46.0888335 L109.455142,48.2155383 C109.03217,48.3465815 108.238194,48.3994215 107.815223,48.3994215 C106.677502,48.3994215 105.778315,48.0840724 105.275691,47.559054 C104.561368,46.8239438 104.402487,45.7476984 104.402487,45.0387968 L104.402487,37.3989766 L102.286353,37.3989766 L102.286353,35.2198545 L104.402487,35.2198545 L104.402487,31.3346341 L106.91561,31.3346341 L106.91561,35.2198545 L109.719659,35.2198545 L109.719659,37.3989766 L106.91561,37.3989766 L106.91561,44.8024963 C106.91561,45.9315816 107.524297,46.2465081 108.423484,46.2465081" id="Fill-18" fill="#FFFFFF"></path>
                            <path d="M116.687142,37.1365097 C114.756297,37.1365097 113.433287,38.4228469 113.142361,40.3656685 L119.940997,40.3656685 C119.808952,38.344221 118.565595,37.1365097 116.687142,37.1365097 M116.793204,46.2989677 C118.195016,46.2989677 119.359145,45.668692 119.914588,44.4609807 L122.559756,44.4609807 C121.264007,47.8478141 118.724475,48.5567157 116.73996,48.5567157 C112.825026,48.5567157 110.364722,45.8263666 110.364722,41.7048457 C110.364722,37.0840924 113.459696,34.8787617 116.766795,34.8787617 C120.628911,34.8787617 122.692228,37.8454113 122.692228,41.9673549 L122.692228,42.2560727 L113.063134,42.2560727 C113.115952,44.4351948 114.385718,46.2989677 116.793204,46.2989677" id="Fill-20" fill="#FFFFFF"></path>
                            <path d="M130.545353,37.661528 C129.434467,37.661528 128.402809,38.1079204 127.794122,39.0793312 C127.265089,39.9716933 127.265089,41.0221528 127.265089,42.0197722 L127.265089,48.1893719 L124.751966,48.1893719 L124.751966,35.2461054 L127.265089,35.2461054 L127.265089,37.0578837 C128.03223,35.7973324 129.249178,35.1412708 130.730642,35.1412708 C131.021568,35.1412708 131.312494,35.1674795 131.630255,35.2198968 L131.630255,37.7667853 C131.259676,37.7139453 130.915932,37.661528 130.545353,37.661528" id="Fill-22" fill="#FFFFFF"></path>
                            <mask id="mask-2" fill="white">
                                <use xlink:href="#path-1"></use>
                            </mask>
                            <g id="Clip-25"></g>
                            <path d="M133.118833,48.1892451 L135.631956,48.1892451 L135.631956,35.2464013 L133.118833,35.2464013 L133.118833,48.1892451 Z M133.118833,32.3845863 L135.631956,32.3845863 L135.631956,29.8381205 L133.118833,29.8381205 L133.118833,32.3845863 Z" id="Fill-24" fill="#FFFFFF" mask="url(#mask-2)"></path>
                            <path d="M144.292475,37.162676 C141.991051,37.162676 141.03862,38.7115225 141.03862,40.7596013 L141.03862,48.1893297 L138.525497,48.1893297 L138.525497,35.2464859 L141.012211,35.2464859 L141.012211,36.690075 C141.991051,35.4037377 143.340044,34.8787194 144.927571,34.8787194 C148.287062,34.8787194 149.371539,37.2417247 149.371539,40.2607916 L149.371539,48.1893297 L146.885251,48.1893297 L146.885251,40.3656262 C146.885251,38.5018533 146.408609,37.162676 144.292475,37.162676" id="Fill-26" fill="#FFFFFF" mask="url(#mask-2)"></path>
                            <path d="M160.719779,38.6593165 C160.031864,37.6354885 159.079433,37.1366788 157.783258,37.1366788 C156.910055,37.1366788 155.693107,37.3991879 154.79392,38.5540592 C153.947552,39.6831446 153.947552,41.1795737 153.947552,41.7045921 L153.947552,41.7570094 C153.947552,42.2824504 153.947552,43.7788796 154.79392,44.8813336 C155.693107,46.0628362 156.910055,46.2991368 157.783258,46.2991368 C159.079433,46.2991368 160.005455,45.8003271 160.719779,44.7760763 C161.248812,44.0147574 161.513329,43.069978 161.513329,41.7308007 C161.513329,40.3658375 161.222403,39.4468441 160.719779,38.6593165 M163.206492,51.8384609 C162.254061,53.4139386 160.375608,54.3325094 157.968122,54.3325094 C156.40743,54.3325094 154.952801,53.938957 153.973961,53.2300554 C152.360025,52.0485527 152.016281,50.2371971 151.989872,49.239155 L154.63504,49.239155 C154.688284,51.2086079 155.984459,52.2058046 158.100593,52.2058046 C159.502831,52.2058046 160.269972,51.7336263 160.640125,51.3396511 C161.381284,50.6045409 161.407267,49.5545042 161.407267,47.71694 L161.407267,46.6926892 C160.375608,47.9266091 159.000206,48.5568848 157.413105,48.5568848 C154.423767,48.5568848 151.381185,46.3777627 151.381185,41.7045921 C151.381185,36.585029 154.661875,34.878508 157.465923,34.878508 C158.946962,34.878508 160.217154,35.2986918 161.407267,36.6374463 L161.407267,35.2462745 L164.000043,35.2462745 L164.000043,47.4544308 C164.000043,48.9242285 163.973634,50.4997063 163.206492,51.8384609" id="Fill-27" fill="#FFFFFF" mask="url(#mask-2)"></path>
                            <path d="M36.3348988,53.3422876 C36.9823474,50.1600507 37.3985035,46.9465326 37.5595137,43.7376644 C38.146051,32.050722 35.4774554,22.1070772 34.1949109,17.3282266 C34.1165355,17.0344361 34.0368823,16.7389548 33.9614887,16.4540414 C36.4912236,18.5097292 39.8528447,23.4441409 41.5191728,29.7206888 C42.5912965,33.7593566 42.3161309,37.3013282 42.0209455,38.6100696 C41.4480387,41.1523083 39.9542215,41.933495 39.6837413,41.9821078 C39.6841673,41.9816851 39.7182435,41.975767 39.7787288,41.9804169 L39.6079217,44.5108194 C41.1285739,44.6084678 43.692811,42.8106392 44.5153263,39.163833 C44.8824977,37.5346697 45.1853503,33.5763188 43.9901262,29.0743498 C41.8935855,21.1762476 36.7080336,13.7993592 32.6665915,12.9657552 C32.1839868,12.866416 31.6992522,13.0156362 31.3670089,13.3643803 C30.6799467,14.085118 30.9014423,14.9102676 31.7252354,17.9809064 C33.070395,22.9922531 35.5737208,32.3208401 35.0072033,43.6112711 C34.8329885,47.0864529 34.3546433,50.5688211 33.5892057,54.0072263 C32.0101979,54.3027076 30.3834834,54.463764 28.7180072,54.463764 C25.8245084,54.463764 23.0438872,53.9907402 20.4421662,53.1296594 C20.9809968,50.3134981 21.449971,47.1917102 21.6378163,44.3024184 C23.5993299,43.7165284 25.2677878,41.8967184 26.4055083,39.0522349 C27.6211782,36.0137228 28.1289142,32.0807351 27.8350066,27.9773911 C27.5802867,24.4202016 26.761605,21.1098805 25.4671338,18.4053174 L23.1588945,19.4929762 C24.3013005,21.880922 25.0565151,24.9579015 25.2856778,28.1570472 C25.5527504,31.8879747 25.1072035,35.4248737 24.0303943,38.1163326 C23.408503,39.6698289 22.6204899,40.8065232 21.7638984,41.4296127 C21.8887026,36.5742497 21.6177965,31.8161123 20.9533098,27.255808 L18.4235749,27.6185018 C19.084654,32.1521748 19.3419296,36.8912897 19.1975316,41.7301666 C16.7172072,40.6188355 14.0831138,35.7609362 13.5979533,28.9813514 C13.1715744,23.0273389 14.607036,17.5763633 17.0894901,15.7261174 L15.5543555,13.6983291 C12.3673751,16.0740161 10.5566489,22.2884241 11.0486246,29.1610074 C11.6189757,37.1254767 15.0095616,43.3415756 19.0735792,44.3611765 C18.894679,46.9241284 18.4900236,49.6654682 18.0189196,52.1920662 C8.906081,48.1326852 2.55554765,39.0551939 2.55554765,28.4998732 C2.55554765,14.1607849 14.2688293,2.5364051 28.7180072,2.5364051 C43.167185,2.5364051 54.8804667,14.1607849 54.8804667,28.4998732 C54.8804667,40.2096425 47.0680626,50.1050971 36.3348988,53.3422876 M28.7180072,8.45440181e-05 C12.8827783,8.45440181e-05 -0.000170381202,12.784831 -0.000170381202,28.4998732 C-0.000170381202,44.2149153 12.8827783,57.0000845 28.7180072,57.0000845 C44.5532361,57.0000845 57.4361847,44.2149153 57.4361847,28.4998732 C57.4361847,12.784831 44.5532361,8.45440181e-05 28.7180072,8.45440181e-05" id="Fill-28" fill="#FFFFFF" mask="url(#mask-2)"></path>
                        </g>
                    </g>
                </g>
            </g>
        </g>
    </g>
</svg>