<?xml version="1.0" encoding="UTF-8"?>
<svg width="171px" height="24px" viewBox="0 0 171 24" version="1.1" xmlns="http://www.w3.org/2000/svg" xmlns:xlink="http://www.w3.org/1999/xlink">
    <title>visitbritain</title>
    <g id="Exports" stroke="none" stroke-width="1" fill="none" fill-rule="evenodd">
        <g id="Clients" transform="translate(-1463, -680)" fill="#FFFFFF">
            <g id="visitbritain" transform="translate(1463, 680)">
                <path d="M39.1882978,20.9010035 L34.8908641,20.9010035 L28.15842,1.19839271 L32.227693,1.19839271 L35.9821525,12.7290651 C36.3530353,13.8385872 36.7845991,15.1518638 37.1282967,16.5840796 L37.1848514,16.5840796 C37.4710234,15.2398937 37.786565,14.1612809 38.329782,12.4966268 L42.1432235,1.19863999 L45.9539951,1.19863999 L39.1882978,20.9010035 Z" id="Fill-1"></path>
                <path d="M48.3268921,20.9009046 L51.9920291,20.9009046 L51.9920291,6.39477426 L48.3268921,6.39477426 L48.3268921,20.9009046 Z M50.1594606,4.52438748 C48.8997215,4.52438748 47.8975129,3.50289518 47.8975129,2.24846999 C47.8975129,1.02322323 48.8997215,0 50.1594606,0 C51.4204134,0 52.4529626,0.992313874 52.4529626,2.24846999 C52.4529626,3.50289518 51.4223552,4.52438748 50.1594606,4.52438748 L50.1594606,4.52438748 Z" id="Fill-3"></path>
                <path d="M58.4106063,21.1952606 C57.3804844,21.1952606 56.3476925,21.0775577 55.4306801,20.9291929 L55.5168472,17.8661996 C56.4042472,18.0991325 57.4933512,18.3028869 58.5824551,18.3028869 C59.9849162,18.3028869 60.9021713,17.7198129 60.9021713,16.7569247 C60.9021713,14.1894702 55.1445081,15.6474026 55.1445081,10.7157535 C55.1445081,8.17500464 57.1775669,6.07489954 61.1876151,6.07489954 C62.0191886,6.07489954 62.936201,6.19037689 63.7971441,6.33701086 L63.6833064,9.2862577 C62.8796462,9.05357209 61.9327787,8.90570175 61.0473204,8.90570175 C59.6145189,8.90570175 58.9256673,9.48902306 58.9256673,10.3947907 C58.9256673,12.760469 64.7707124,11.7070782 64.7707124,16.4080199 C64.7726531,19.267506 62.3073023,21.1952606 58.4106063,21.1952606" id="Fill-5"></path>
                <path d="M67.3227389,20.9009046 L70.991274,20.9009046 L70.991274,6.39477426 L67.3227389,6.39477426 L67.3227389,20.9009046 Z M69.1572491,4.52438748 C67.8967818,4.52438748 66.8933596,3.50289518 66.8933596,2.24846999 C66.8933596,1.02322323 67.8943546,0 69.1572491,0 C70.4179592,0 71.4478384,0.992313874 71.4478384,2.24846999 C71.4475957,3.50289518 70.4179592,4.52438748 69.1572491,4.52438748 L69.1572491,4.52438748 Z" id="Fill-6"></path>
                <path d="M80.3019113,21.1952606 C77.1501362,21.1952606 76.1770545,20.0283707 76.1770545,16.6394692 L76.1770545,9.28452678 L73.7117037,9.28452678 L73.7117037,6.39487317 L76.1471994,6.39487317 L76.1471994,1.928348 L79.8159772,0.936281399 L79.8159772,6.39487317 L83.2811094,6.39487317 L83.2811094,9.28452678 L79.8159772,9.28452678 L79.8159772,15.6471553 C79.8159772,17.5140802 80.2455992,18.0405283 81.5053384,18.0405283 C82.1082655,18.0405283 82.7660484,17.9544767 83.2811094,17.8093264 L83.2811094,20.8149519 C82.364097,21.0466484 81.3046054,21.1952606 80.3019113,21.1952606" id="Fill-7"></path>
                <path d="M92.5073029,12.2023697 C92.2191891,12.2023697 91.2742634,12.2023697 90.8727974,12.2325372 L90.8727974,17.7492386 C91.3320318,17.8095737 92.0463694,17.8664469 92.9070698,17.8664469 C95.3428082,17.8664469 96.5758476,16.6985679 96.5758476,14.9176946 C96.5756049,12.991671 94.9430413,12.2023697 92.5073029,12.2023697 M93.0527044,4.14665046 C92.2772002,4.14665046 91.5317939,4.17681799 90.8727974,4.20599641 L90.8727974,9.34362546 C91.3320318,9.37280389 91.7893244,9.37280389 92.3920088,9.37280389 C94.943284,9.37280389 96.2605488,8.32114406 96.2605488,6.56969647 C96.2605488,5.10929135 95.4003338,4.14665046 93.0527044,4.14665046 M92.7932321,20.9601022 C91.6177183,20.9601022 89.5836886,20.9012508 87.1479503,20.9012508 L87.1479503,1.22732387 C88.7807566,1.13954131 91.3043612,1.08143172 93.6806322,1.08143172 C97.86617,1.08143172 100.186614,2.80370088 100.186614,5.95620763 C100.186614,7.91289332 98.9518759,9.6359043 97.1210064,10.3658596 L97.1210064,10.4234746 C99.4111102,10.920497 100.55774,12.8470152 100.55774,14.8311484 C100.557983,17.6921181 98.6382761,20.9601022 92.7932321,20.9601022" id="Fill-8"></path>
                <path d="M110.786142,9.75138165 C108.150642,9.19674421 106.831192,10.9479445 106.831192,14.9762987 L106.831192,20.9012508 L103.164356,20.9012508 L103.164356,6.39487317 L106.629488,6.39487317 C106.629488,7.12482845 106.546962,8.29048198 106.375599,9.31370521 L106.431425,9.31370521 C107.117121,7.47496961 108.494096,5.86867234 110.958962,6.07316862 L110.786142,9.75138165 Z" id="Fill-9"></path>
                <path d="M113.909543,20.9009046 L117.576621,20.9009046 L117.576621,6.39477426 L113.909543,6.39477426 L113.909543,20.9009046 Z M115.74381,4.52438748 C114.482372,4.52438748 113.479435,3.50289518 113.479435,2.24846999 C113.479435,1.02322323 114.482372,0 115.74381,0 C117.002578,0 118.035613,0.992313874 118.035613,2.24846999 C118.035856,3.50289518 117.002578,4.52438748 115.74381,4.52438748 L115.74381,4.52438748 Z" id="Fill-10"></path>
                <path d="M126.888715,21.1952606 C123.73694,21.1952606 122.761188,20.0283707 122.761188,16.6394692 L122.761188,9.28452678 L120.297051,9.28452678 L120.297051,6.39487317 L122.734003,6.39487317 L122.734003,1.928348 L126.402781,0.936281399 L126.402781,6.39487317 L129.867913,6.39487317 L129.867913,9.28452678 L126.402781,9.28452678 L126.402781,15.6471553 C126.402781,17.5140802 126.829733,18.0405283 128.089472,18.0405283 C128.692642,18.0405283 129.349697,17.9544767 129.866699,17.8093264 L129.866699,20.8149519 C128.950173,21.0466484 127.88971,21.1952606 126.888715,21.1952606" id="Fill-11"></path>
                <path d="M140.325447,14.48076 C136.457393,14.48076 135.596935,15.6177296 135.596935,16.784125 C135.596935,17.7193183 136.226804,18.333549 137.287267,18.333549 C139.09265,18.333549 140.32569,16.5840796 140.32569,14.8309011 L140.32569,14.48076 L140.325447,14.48076 Z M140.613803,20.9010035 C140.613803,20.0558182 140.640503,19.2086546 140.75604,18.4512518 L140.725699,18.4200952 C140.037576,20.0558182 138.291903,21.1952606 136.172434,21.1952606 C133.590818,21.1952606 132.100977,19.7041934 132.100977,17.3694245 C132.100977,13.8957077 135.484796,12.0557357 140.325447,12.0557357 L140.325447,11.2679182 C140.325447,9.75113437 139.607469,8.96455315 137.544797,8.96455315 C136.25763,8.96455315 134.537929,9.40074595 133.334016,10.1017701 L133.018717,6.97819448 C134.451519,6.45273548 136.28433,6.07316862 138.120539,6.07316862 C142.705359,6.07316862 143.994225,7.97026108 143.994225,11.1227678 L143.994225,17.1639391 C143.994225,18.3303344 144.02141,19.7039461 144.079421,20.9010035 L140.613803,20.9010035 Z" id="Fill-12"></path>
                <path d="M147.142869,20.9009046 L150.811647,20.9009046 L150.811647,6.39477426 L147.142869,6.39477426 L147.142869,20.9009046 Z M148.977379,4.52438748 C147.717154,4.52438748 146.714946,3.50289518 146.714946,2.24846999 C146.714946,1.02322323 147.717154,0 148.977379,0 C150.236147,0 151.267483,0.992313874 151.267483,2.24846999 C151.267483,3.50289518 150.237604,4.52438748 148.977379,4.52438748 L148.977379,4.52438748 Z" id="Fill-13"></path>
                <path d="M162.930847,20.9010035 L162.930847,11.6180593 C162.930847,10.1015228 162.531323,9.19649694 161.182746,9.19649694 C159.317896,9.19649694 157.855967,11.3557007 157.855967,13.8957077 L157.855967,20.9010035 L154.187189,20.9010035 L154.187189,6.39487317 L157.656205,6.39487317 C157.656205,7.06721342 157.598437,8.20418307 157.456443,8.96455315 L157.486783,8.99348431 C158.347484,7.27146242 160.007718,6.07489954 162.327677,6.07489954 C165.535521,6.07489954 166.568799,8.17673556 166.568799,10.7157535 L166.568799,20.9010035 C166.568799,20.9010035 162.930847,20.9010035 162.930847,20.9010035" id="Fill-14"></path>
                <path d="M2.74688454,3.57289868 C2.85344051,3.5471821 2.9701909,3.52022914 3.08864036,3.49426528 C4.39546801,3.20396464 6.37221473,2.87855097 8.64265787,2.88547466 C9.46743505,2.88893651 10.3329899,2.936166 11.2189336,3.04669785 C11.0716,2.78013559 10.313572,1.3773455 10.2159968,1.19856581 L2.74688454,1.19856581 L2.74688454,3.57289868 Z" id="Fill-15"></path>
                <path d="M2.74688454,6.28112675 L2.74688454,10.1240248 C4.83504172,8.1243133 8.23026928,6.1087762 10.3832338,5.4349523 C7.61739041,5.03214161 4.48139241,5.77198788 2.74688454,6.28112675" id="Fill-16"></path>
                <path d="M20.6184323,1.19839271 L20.6179468,1.19863999 L20.6164905,1.19863999 L15.7683152,3.25893383 C15.7452564,3.22431536 14.6474144,1.19839271 14.6474144,1.19839271 L11.3563156,1.19839271 L11.3565583,1.19863999 L11.3546165,1.19863999 C11.3560729,1.20136001 12.4888672,3.19711513 13.1852432,4.39466711 C12.9034403,4.33655752 12.6269773,4.28611346 12.3526988,4.23888397 C12.2976004,4.22948752 12.2429875,4.22033835 12.1881318,4.21118919 C11.6449148,4.1216757 11.1174749,4.0529333 10.6065402,4.00273651 C10.5536263,3.99754374 10.5009551,3.99259824 10.4485267,3.98790002 C9.94293196,3.94141235 9.45432794,3.9124812 8.98417096,3.89863381 C8.93319886,3.89690288 8.88295493,3.89566651 8.83246827,3.89443013 C8.36862213,3.88379732 7.92346576,3.88676461 7.49772733,3.9016011 C7.44869702,3.90333203 7.40015216,3.90506295 7.35185002,3.90704115 C6.93387877,3.92410311 6.53581091,3.95179789 6.15886007,3.98740547 C6.11152883,3.99185642 6.06492576,3.99655464 6.0183227,4.00125286 C5.83846399,4.0195512 5.6617607,4.03883863 5.49209641,4.06010427 C5.48165926,4.06158792 5.47170757,4.06282429 5.46151315,4.06406066 C5.29573245,4.0853263 5.1365053,4.10807558 4.98091903,4.13156669 C4.93407323,4.13873766 4.88795562,4.14590863 4.84208072,4.1530796 C4.69814521,4.17582889 4.55760784,4.19931999 4.42289585,4.22355293 C4.39595345,4.22825115 4.36998195,4.23319665 4.343525,4.23789487 C4.21585202,4.26163325 4.09351897,4.28537163 3.97458406,4.30985184 C3.92822372,4.31924828 3.88259155,4.32864473 3.83768756,4.33828845 C3.73331611,4.36029591 3.63258552,4.38255064 3.53598125,4.4045581 C3.48767911,4.41568547 3.44131877,4.42656556 3.3947157,4.43769293 C3.31097582,4.45772219 3.23014862,4.47750417 3.15247685,4.49703888 C3.10538833,4.50915535 3.05999889,4.52077727 3.01533762,4.53239918 C2.95392837,4.54871932 2.89567453,4.56429764 2.83887705,4.58012323 C2.80926468,4.58828329 2.77528328,4.59693791 2.74688454,4.60485071 L2.74688454,4.60534526 C2.19031771,4.7621175 1.87137797,4.88674401 1.82793032,4.90232232 L1.83157119,5.83949391 C2.1752688,5.71511467 2.52988901,5.60062643 2.89300457,5.49504008 C2.95489926,5.47698902 3.01703669,5.4594325 3.07941683,5.44212327 C3.20539075,5.40701024 3.33233556,5.37313359 3.46025126,5.34024604 C3.5274859,5.32318408 3.59496325,5.30612211 3.66292606,5.2895547 C3.78938542,5.25889262 3.91730113,5.22946692 4.04594501,5.20103031 C4.11536416,5.18569927 4.18478331,5.17012096 4.25493063,5.15553174 C4.38697265,5.12783696 4.52047102,5.10212038 4.65445484,5.07714562 C4.72144674,5.06453461 4.78819593,5.05142904 4.85591601,5.03955985 C5.00470601,5.01334872 5.15519508,4.98961034 5.30641232,4.96686105 C5.36005439,4.95870098 5.41296829,4.94955181 5.46709581,4.94163902 C5.88069802,4.88254034 6.30231013,4.83605267 6.73071853,4.80267057 C6.78630239,4.7984669 6.84261443,4.79574687 6.89844102,4.79203775 C7.05572637,4.78115766 7.21349717,4.77101939 7.37272431,4.76384842 C7.44893974,4.76038657 7.52612607,4.75865565 7.60306968,4.75593563 C7.74263615,4.7512374 7.88244535,4.74703373 8.02322545,4.74505553 C8.1096353,4.74406643 8.19628787,4.74431371 8.28294045,4.74431371 C8.41595337,4.74406643 8.54920901,4.74505553 8.68319283,4.74752828 C8.77518534,4.74925921 8.86742057,4.75197923 8.95989853,4.75494653 C9.08975604,4.7591502 9.22009899,4.76483752 9.35068466,4.77151394 C9.44680349,4.77645944 9.54316503,4.78189948 9.63976931,4.78832863 C9.76792774,4.79673597 9.89657162,4.80712151 10.0254582,4.81800161 C10.1247325,4.82640895 10.2240067,4.83456902 10.3235237,4.84446001 C10.4509539,4.85707103 10.5791124,4.87215479 10.7072708,4.88723856 C10.8089723,4.89935502 10.9106738,4.91048239 11.0128607,4.92408251 C11.1383492,4.9408972 11.2645658,4.96067918 11.3905397,4.97971934 C11.4958821,4.99579221 11.6009817,5.01038142 11.7068095,5.02793793 C11.8262298,5.04796719 11.9461356,5.07170558 12.0660414,5.09371304 C12.1718692,5.11349502 12.2772116,5.13105154 12.3832821,5.15256445 C12.0361864,5.29202745 11.6888479,5.44113417 11.3419948,5.59543366 C11.2958772,5.61595747 11.2495169,5.63598673 11.2031565,5.65700509 C11.0567938,5.72302747 10.910431,5.79078077 10.764311,5.8592759 C10.7070281,5.88622885 10.6497451,5.91318181 10.5924622,5.94038204 C10.4497403,6.00838262 10.3072611,6.07737229 10.1652674,6.14759834 C10.1079845,6.17603495 10.0509443,6.20471883 9.99366134,6.23340271 C9.84972583,6.30585423 9.70603304,6.37855303 9.5628257,6.45323003 C9.5188926,6.47597931 9.47544495,6.49971769 9.43175458,6.52271425 C8.95722857,6.77295638 8.48877066,7.03531497 8.0288081,7.30880092 C7.96958337,7.34416122 7.9098732,7.3787797 7.85089119,7.41438727 C7.73049994,7.48708607 7.61156503,7.56102125 7.49238739,7.63520369 C7.41665741,7.68243318 7.3406847,7.72966268 7.26544017,7.77763399 C7.15354427,7.84860187 7.04286198,7.92055884 6.93242243,7.99276309 C6.85110978,8.04592718 6.77052532,8.09933854 6.69018357,8.15324445 C6.5845985,8.22396505 6.47949888,8.29468565 6.37537015,8.36639535 C6.29065937,8.42475221 6.20716221,8.48409817 6.1231796,8.54319685 C6.02463353,8.61268108 5.92560201,8.6821653 5.82851229,8.75263863 C5.73409254,8.82138103 5.64161458,8.89111253 5.54840845,8.96059676 C5.40957015,9.06445218 5.27218819,9.16904943 5.1365053,9.27463578 C5.02582302,9.3609347 4.91489801,9.44723361 4.80664298,9.5347689 C4.72872847,9.59757671 4.65324122,9.66137361 4.57678306,9.72492324 C4.48479055,9.80133116 4.39255531,9.87749181 4.3025046,9.95488883 C4.22580372,10.0206639 4.15055918,10.0869336 4.07531465,10.1532032 C3.98769118,10.2306003 3.90079587,10.3079973 3.81535692,10.3861361 C3.74278235,10.4519112 3.67117868,10.5181809 3.60030319,10.5846978 C3.51389333,10.665804 3.42942528,10.7474046 3.34544267,10.8290053 C3.27917893,10.8935441 3.21267247,10.9580828 3.14786509,11.0231161 C3.05805709,11.1133714 2.97091907,11.2041212 2.88402377,11.2953657 C2.83887705,11.3425951 2.79130308,11.3893301 2.74688454,11.4368069 L2.74688454,11.4387851 C1.08495123,13.2226256 0.0249741961,15.1493911 0.00045904149,17.043269 C-0.0179880056,18.562031 0.519403602,19.9077006 1.63909081,21.533038 C2.84324608,23.2755837 4.42775034,24.1244781 6.21298759,23.9852624 L5.01223046,22.4370747 C3.66729509,22.4061654 2.52867539,21.8127058 2.12526759,21.1566857 C1.63423633,20.3498279 1.7238016,18.644868 2.74688454,16.6355128 L2.74688454,16.6372437 C3.08427132,15.9740526 3.52287413,15.2774794 4.07652827,14.5690371 C5.83943489,12.3143852 8.80625405,9.83916421 13.7112268,7.25093861 C13.7112268,7.25093861 13.6126807,7.60083249 13.4410746,8.21382678 C12.8277103,10.4029508 11.281071,15.9453687 9.95700997,20.8740506 C9.55311673,22.3782233 10.69562,22.4165509 10.69562,22.4165509 C10.825963,21.9076593 10.9538787,21.4128624 11.0793672,20.9291929 L11.0796099,20.9291929 C12.7216398,14.6071174 13.9517666,10.4061654 14.7920781,7.46112222 C15.492095,8.95837128 16.3591062,10.9390426 17.1484456,13.0957737 C17.168349,13.1501741 17.1880097,13.2050691 17.2079131,13.2597169 C17.3011192,13.51713 17.3933545,13.7767685 17.4838906,14.0383853 C17.5088912,14.1113314 17.5341346,14.1840302 17.5591352,14.2572235 C17.6404478,14.4958437 17.7200614,14.7357003 17.7984613,14.9767933 C17.8275882,15.0663067 17.8567152,15.155573 17.8853566,15.2453337 C17.9324451,15.3934513 17.9788055,15.5418162 18.0244376,15.6901811 C18.0603608,15.8071421 18.0953131,15.9241031 18.1302654,16.0413114 C18.191432,16.2458077 18.2508994,16.4507985 18.3086678,16.6557893 C18.3409501,16.769783 18.3722616,16.8837767 18.4033303,16.9980177 C18.4579433,17.1985576 18.5108572,17.3993447 18.5618293,17.5996373 C18.5938689,17.7257475 18.6251803,17.8513631 18.6557636,17.9769787 C18.6873177,18.1075398 18.7188719,18.2381009 18.7489697,18.3681675 C18.7938737,18.5640091 18.8361077,18.759109 18.8768854,18.9537143 C18.9026142,19.0773517 18.9273721,19.2004945 18.9514018,19.3233901 C18.9904804,19.5236827 19.0278599,19.7229863 19.0615986,19.9213007 C19.0807738,20.0330689 19.0977645,20.143848 19.1152407,20.2548744 C19.1387849,20.4049702 19.1603874,20.5540769 19.1805335,20.7024418 C19.2827204,21.4514373 19.3434015,22.1804035 19.3497123,22.8752457 C19.3344207,22.960061 20.1002159,22.5787632 20.6752298,22.0028601 C20.9764506,21.7014321 21.1963588,21.3601929 21.3298572,20.9291929 L21.3325272,20.9291929 C21.3463625,20.8841888 21.3570423,20.8354757 21.3691786,20.7884935 C21.3742758,20.7684642 21.3798584,20.7494241 21.3847129,20.7291475 C21.3958782,20.6809289 21.4058299,20.6309794 21.4152962,20.5805353 C21.4191798,20.5587752 21.4228206,20.5365204 21.4264615,20.5142657 C21.4444231,20.4054648 21.4585011,20.2914711 21.4677246,20.1715428 C21.4679673,20.16907 21.4682101,20.1668446 21.4684528,20.1646191 C21.4730646,20.1010695 21.47622,20.0350471 21.4784045,19.9680356 C21.4788899,19.9544355 21.4791327,19.9403408 21.4796181,19.9264934 C21.5148131,18.5466999 21.0249955,16.4537658 19.9184154,12.9370232 C19.2052914,10.6742113 18.2814827,8.7234602 17.3355861,6.51183416 C17.5974856,6.64140617 20.4410008,7.92921346 22.1471099,9.01648087 L22.1471099,9.01524449 C22.1471099,9.01524449 22.1473527,9.01524449 22.1473527,9.01524449 L22.1473527,7.8315399 C20.2477923,6.80658575 17.5671451,5.56229883 17.5671451,5.56229883 L18.2443459,5.35854438 L22.148809,4.18349441 L22.148809,1.19839271 L20.6184323,1.19839271 Z" id="Fill-17"></path>
                <path d="M11.7429754,20.9291929 L18.1186147,20.9291929 C17.7513728,18.263323 16.8676136,14.0512436 14.7556695,9.56567825 L11.7429754,20.9291929 Z" id="Fill-18"></path>
                <polygon id="Fill-19" points="22.148809 7.18095984 22.148809 4.83753632 19.3805383 5.72203837"></polygon>
                <path d="M19.3603922,8.74175854 C21.0191701,12.7364833 21.9068129,15.9218776 22.148809,17.6921181 L22.148809,10.641571 L20.7050849,9.6477735 C20.486633,9.49792495 19.5625816,8.8678687 19.3603922,8.74175854" id="Fill-20"></path>
                <path d="M15.7964713,1.19863999 C15.8802112,1.36505595 16.34964,2.30643121 16.3595916,2.33066414 C16.7719802,2.13976797 18.0957986,1.58686146 19.0324717,1.19863999 L15.7964713,1.19863999 Z" id="Fill-21"></path>
                <path d="M12.0524489,9.26647572 C6.7314467,12.1254672 3.31825755,16.0423005 2.82722628,18.9101939 C2.61290072,20.1628882 3.00247323,20.9291929 3.88089248,20.9291929 L8.91814995,20.9291929 C9.20432191,19.5105772 11.1900494,12.100987 12.0524489,9.26647572" id="Fill-22"></path>
                <path d="M169.201144,1.40140535 C169.092646,1.34008119 168.920069,1.31065548 168.682442,1.31065548 L168.313258,1.31065548 L168.313258,2.20949947 L168.703074,2.20949947 C168.884146,2.20949947 169.021528,2.19243751 169.111336,2.15336809 C169.278816,2.08536751 169.36207,1.95604278 169.36207,1.76514661 C169.363284,1.58537782 169.309399,1.4627295 169.201144,1.40140535 L169.201144,1.40140535 Z M168.737055,1.01120567 C169.038518,1.01120567 169.262068,1.04162047 169.400906,1.10096643 C169.654796,1.20729461 169.780041,1.41797276 169.780041,1.73102269 C169.780041,1.95109728 169.70067,2.11553504 169.543142,2.21939047 C169.457946,2.27478003 169.341438,2.3153331 169.190949,2.33931876 C169.380274,2.37121721 169.519598,2.4498506 169.607707,2.58238991 C169.697515,2.71344557 169.739506,2.83955573 169.739506,2.96838591 L169.739506,3.14939109 C169.739506,3.2052752 169.741205,3.26659935 169.749701,3.33311628 C169.753584,3.39963321 169.756254,3.44364813 169.770332,3.46244101 L169.783925,3.49433947 L169.384401,3.49433947 C169.380517,3.48593212 169.380517,3.47876115 169.377604,3.47010653 C169.375905,3.46071009 169.370565,3.45205547 169.369352,3.44166993 L169.362555,3.36155289 L169.362555,3.1639803 C169.362555,2.87862515 169.286097,2.68970719 169.130026,2.5972264 C169.039004,2.54480414 168.881719,2.51612026 168.656228,2.51612026 L168.317385,2.51612026 L168.317385,3.49285582 L167.88752,3.49285582 L167.88752,1.01145295 L168.737055,1.01145295 L168.737055,1.01120567 Z M167.432412,0.885342785 C167.060073,1.26515692 166.877301,1.72385172 166.877301,2.26216901 C166.877301,2.80468998 167.060073,3.26486843 167.429256,3.64789713 C167.801595,4.02771127 168.252577,4.22058563 168.780745,4.22058563 C169.308913,4.22058563 169.759895,4.02894764 170.132234,3.64789713 C170.501418,3.26486843 170.686131,2.80468998 170.686131,2.26216901 C170.686131,1.72385172 170.501418,1.26688784 170.132234,0.885342785 C169.756012,0.504045004 169.308913,0.313396114 168.780745,0.313396114 C168.254276,0.313396114 167.805479,0.504292279 167.432412,0.885342785 L167.432412,0.885342785 Z M170.351172,3.86376806 C169.919365,4.30614272 169.39411,4.52794824 168.780988,4.52794824 C168.167866,4.52794824 167.642854,4.30614272 167.212504,3.86376806 C166.782639,3.42287704 166.568799,2.8870325 166.568799,2.25895444 C166.568799,1.63780008 166.783852,1.10640648 167.215659,0.665515465 C167.648194,0.22660265 168.171265,0.00553895609 168.780988,0.00553895609 C169.393867,0.00553895609 169.919122,0.22660265 170.351172,0.665515465 C170.782978,1.10467555 170.999974,1.63433823 170.999974,2.25895444 C170.999974,2.88357065 170.782978,3.4194152 170.351172,3.86376806 L170.351172,3.86376806 Z" id="Fill-23"></path>
            </g>
        </g>
    </g>
</svg>