<?xml version="1.0" encoding="UTF-8"?>
<svg width="190px" height="51px" viewBox="0 0 190 51" version="1.1" xmlns="http://www.w3.org/2000/svg" xmlns:xlink="http://www.w3.org/1999/xlink">
    <title>uk-community-foundations-vector-logo</title>
    <g id="Exports" stroke="none" stroke-width="1" fill="none" fill-rule="evenodd">
        <g id="Clients" transform="translate(-1769, -969)" fill="#FFFFFF" fill-rule="nonzero">
            <g id="uk-community-foundations-vector-logo" transform="translate(1769, 969)">
                <path d="M61.9716667,10.8933333 L61.9716667,4.655 L64.6316667,4.655 L64.6316667,10.8933333 C64.6316667,12.16 65.4233333,13.3 67.0383333,13.3 C68.685,13.3 69.4133333,12.16 69.4133333,10.8933333 L69.4133333,4.655 L72.0733333,4.655 L72.0733333,10.8933333 C72.0733333,13.7116667 70.205,15.865 67.0383333,15.865 C63.935,15.865 61.9716667,13.7116667 61.9716667,10.8933333 M77.2983333,4.655 L74.6383333,4.655 L74.6383333,15.6116667 L77.2983333,15.6116667 L77.2983333,13.0466667 L78.945,11.305 C79.895,12.7616667 80.8133333,14.1866667 81.795,15.6116667 L85.025,15.6116667 L85.025,15.3583333 L80.8133333,9.37333333 L85.025,4.90833333 L85.025,4.655 L81.795,4.655 L77.33,9.37333333 L77.33,4.655 L77.2983333,4.655 Z" id="Shape"></path>
                <path d="M20.1716667,7.44166667 C18.8416667,7.82166667 17.5433333,8.36 16.3716667,9.025 L15.96,2.62833333 L20.1716667,7.44166667 Z M34.865,48.26 L34.4533333,41.9583333 C33.2816667,42.5916667 32.015,43.13 30.685,43.51 L34.865,48.26 Z M13.6166667,21.2483333 L0.696666667,25.46 L13.6166667,29.6716667 C13.2366667,28.6266667 13.015,27.5183333 12.92,26.3466667 C12.7933333,24.5733333 13.0466667,22.8316667 13.6166667,21.2483333 M37.3033333,29.6716667 L50.2233333,25.46 L37.3033333,21.2483333 C37.6833333,22.2933333 37.905,23.4016667 38,24.5733333 C38.1266667,26.3466667 37.8733333,28.0883333 37.3033333,29.6716667" id="Shape"></path>
                <path d="M16.1816667,9.37333333 L15.7066667,1.995 L20.5516667,7.53666667 L20.235,7.63166667 C18.9366667,8.01166667 17.67,8.55 16.4666667,9.215 L16.1816667,9.37333333 Z M16.2133333,3.23 L16.5616667,8.645 C17.6066667,8.10666667 18.6833333,7.63166667 19.7916667,7.28333333 L16.2133333,3.23 Z M35.1183333,48.8933333 L30.305,43.415 L30.6216667,43.32 C31.8883333,42.94 33.155,42.4333333 34.3266667,41.8 L34.6116667,41.6416667 L35.1183333,48.8933333 Z M31.065,43.6366667 L34.58,47.6583333 L34.2316667,42.3383333 C33.2183333,42.845 32.1733333,43.2883333 31.065,43.6366667 M13.965,30.02 L0,25.46 L13.965,20.9 L13.8066667,21.3116667 C13.2366667,22.9266667 12.9833333,24.6366667 13.11,26.3466667 C13.205,27.455 13.4266667,28.5633333 13.8066667,29.6083333 L13.965,30.02 Z M1.39333333,25.46 L13.2683333,29.355 C12.9516667,28.405 12.7616667,27.3916667 12.6983333,26.41 C12.5716667,24.7633333 12.7616667,23.1483333 13.2683333,21.5966667 L1.39333333,25.46 Z M36.955,30.02 L37.1133333,29.6083333 C37.6833333,27.9933333 37.9366667,26.2833333 37.81,24.5733333 C37.715,23.465 37.4933333,22.3566667 37.1133333,21.3116667 L36.955,20.9 L50.92,25.46 L36.955,30.02 Z M37.6516667,21.565 C37.9683333,22.515 38.1583333,23.5283333 38.2216667,24.51 C38.3483333,26.1566667 38.1583333,27.7716667 37.6516667,29.3233333 L49.5266667,25.4283333 L37.6516667,21.565 Z" id="Shape"></path>
                <path d="M8.99333333,16.4033333 C8.32833333,17.6066667 7.79,18.905 7.41,20.235 L2.59666667,15.9916667 L8.99333333,16.4033333 Z M43.51,30.7483333 C43.13,32.0466667 42.5916667,33.3133333 41.9583333,34.485 L48.2283333,34.8966667 L43.51,30.7483333 Z M14.0916667,30.8433333 L7.94833333,42.9716667 L20.0766667,36.8283333 C17.48,35.5933333 15.3583333,33.4716667 14.0916667,30.8433333 M36.8283333,20.0766667 L42.9716667,7.94833333 L30.8433333,14.0916667 C33.44,15.3266667 35.5616667,17.4483333 36.8283333,20.0766667" id="Shape"></path>
                <path d="M7.505,20.615 L1.96333333,15.7383333 L9.34166667,16.2133333 L9.18333333,16.4983333 C8.51833333,17.7016667 7.98,18.9683333 7.6,20.2666667 L7.505,20.615 Z M3.19833333,16.245 L7.28333333,19.855 C7.63166667,18.7466667 8.075,17.6383333 8.645,16.5933333 L3.19833333,16.245 Z M48.83,35.15 L41.5783333,34.675 L41.7366667,34.39 C42.37,33.2183333 42.9083333,31.9516667 43.2883333,30.685 L43.3833333,30.3683333 L48.83,35.15 Z M42.3066667,34.295 L47.6266667,34.6433333 L43.6366667,31.1283333 C43.2883333,32.205 42.845,33.2816667 42.3066667,34.295 M7.47333333,43.4783333 L14.1233333,30.3683333 L14.3133333,30.78 C15.5166667,33.345 17.6066667,35.435 20.1716667,36.6383333 L20.5833333,36.8283333 L7.47333333,43.4783333 Z M14.0916667,31.3183333 L8.42333333,42.465 L19.57,36.7966667 C17.2583333,35.5933333 15.3266667,33.6933333 14.0916667,31.3183333 M36.8283333,20.5516667 L36.6383333,20.14 C35.435,17.575 33.345,15.485 30.78,14.2816667 L30.3683333,14.0916667 L43.4783333,7.44166667 L36.8283333,20.5516667 Z M31.3183333,14.0916667 C33.6616667,15.295 35.5933333,17.2266667 36.8283333,19.57 L42.4966667,8.42333333 L31.3183333,14.0916667 Z" id="Shape"></path>
                <path d="M43.4783333,20.14 C43.0983333,18.81 42.56,17.575 41.9266667,16.4033333 L48.2283333,15.9916667 L43.4783333,20.14 Z M2.565,34.8966667 L8.96166667,34.485 C8.29666667,33.2816667 7.75833333,32.015 7.37833333,30.6533333 L2.565,34.8966667 Z M21.2483333,37.3033333 L25.46,50.2233333 L29.6716667,37.3033333 C28.6266667,37.6833333 27.5183333,37.905 26.3466667,38 C24.5733333,38.1266667 22.8316667,37.8733333 21.2483333,37.3033333 M29.7033333,13.6166667 L25.4916667,0.696666667 L21.28,13.6166667 C22.325,13.2366667 23.4333333,13.015 24.605,12.92 C26.3466667,12.7933333 28.0883333,13.0466667 29.7033333,13.6166667" id="Shape"></path>
                <path d="M43.3833333,20.52 L43.2883333,20.2033333 C42.9083333,18.905 42.4016667,17.67 41.7366667,16.4983333 L41.5783333,16.2133333 L48.83,15.7383333 L43.3833333,20.52 Z M42.275,16.5933333 C42.8133333,17.6066667 43.2566667,18.6833333 43.605,19.76 L47.595,16.245 L42.275,16.5933333 Z M1.96333333,35.15 L7.505,30.2733333 L7.6,30.59 C7.98,31.8883333 8.48666667,33.155 9.15166667,34.3583333 L9.31,34.6433333 L1.96333333,35.15 Z M7.28333333,31.0333333 L3.19833333,34.6116667 L8.61333333,34.2633333 C8.075,33.25 7.63166667,32.1733333 7.28333333,31.0333333 M25.46,50.92 L20.9,36.955 L21.3116667,37.1133333 C22.9266667,37.6833333 24.6366667,37.9366667 26.3466667,37.81 C27.455,37.715 28.5633333,37.4933333 29.6083333,37.1133333 L30.02,36.955 L25.46,50.92 Z M21.565,37.6516667 L25.46,49.5266667 L29.355,37.6516667 C28.405,37.9683333 27.3916667,38.1583333 26.41,38.2216667 C24.7633333,38.3483333 23.1483333,38.1583333 21.565,37.6516667 M20.9,13.965 L25.46,-3.00006933e-14 L30.02,13.965 L29.6083333,13.8066667 C27.9933333,13.2366667 26.2833333,12.9833333 24.5733333,13.11 C23.465,13.205 22.3566667,13.4266667 21.3116667,13.8066667 L20.9,13.965 Z M25.46,1.39333333 L21.565,13.2683333 C22.515,12.9516667 23.5283333,12.7616667 24.51,12.6983333 C26.1566667,12.5716667 27.7716667,12.7616667 29.3233333,13.2683333 L25.46,1.39333333 Z" id="Shape"></path>
                <path d="M34.4533333,8.96166667 C33.25,8.29666667 31.9833333,7.79 30.6533333,7.41 L34.8333333,2.62833333 L34.4533333,8.96166667 Z M15.96,48.26 L20.1716667,43.4783333 C18.8416667,43.0983333 17.575,42.56 16.4033333,41.895 L15.96,48.26 Z M30.8433333,36.8283333 L42.9716667,42.9716667 L36.8283333,30.8433333 C35.5933333,33.44 33.4716667,35.5616667 30.8433333,36.8283333 M20.0766667,14.0916667 L7.94833333,7.94833333 L14.0916667,20.0766667 C15.3266667,17.48 17.4483333,15.3583333 20.0766667,14.0916667" id="Shape"></path>
                <path d="M34.6433333,9.31 L34.3583333,9.15166667 C33.155,8.48666667 31.8883333,7.98 30.6216667,7.6 L30.305,7.505 L35.15,1.995 L34.6433333,9.31 Z M31.0333333,7.28333333 C32.1416667,7.63166667 33.2183333,8.075 34.2316667,8.61333333 L34.58,3.26166667 L31.0333333,7.28333333 Z M15.675,48.8933333 L16.15,41.5466667 L16.435,41.705 C17.6383333,42.37 18.8733333,42.9083333 20.1716667,43.2883333 L20.4883333,43.3833333 L15.675,48.8933333 Z M16.5616667,42.2433333 L16.2133333,47.6266667 L19.76,43.5733333 C18.6516667,43.2566667 17.575,42.8133333 16.5616667,42.2433333 M43.4783333,43.4783333 L30.3683333,36.8283333 L30.78,36.6383333 C33.345,35.435 35.435,33.345 36.6383333,30.78 L36.8283333,30.3683333 L43.4783333,43.4783333 Z M31.3183333,36.8283333 L42.465,42.4966667 L36.8283333,31.3183333 C35.5933333,33.6933333 33.6933333,35.625 31.3183333,36.8283333 M14.1233333,20.5833333 L7.47333333,7.47333333 L20.5833333,14.1233333 L20.1716667,14.3133333 C17.6066667,15.5166667 15.5166667,17.6066667 14.3133333,20.1716667 L14.1233333,20.5833333 Z M8.455,8.455 L14.1233333,19.6016667 C15.3266667,17.2583333 17.2583333,15.3266667 19.6016667,14.0916667 L8.455,8.455 Z" id="Shape"></path>
                <path d="M32.5533333,24.9533333 C32.8383333,28.88 29.8933333,32.2683333 25.9983333,32.5533333 C22.0716667,32.8383333 18.6833333,29.8933333 18.3983333,25.9983333 C18.1133333,22.0716667 21.0583333,18.6833333 24.9533333,18.3983333 C28.8483333,18.0816667 32.2683333,21.0266667 32.5533333,24.9533333" id="Path"></path>
                <path d="M25.46,33.44 C21.3116667,33.44 17.8283333,30.2416667 17.5116667,26.03 C17.195,21.66 20.4883333,17.8283333 24.89,17.5116667 C27.0116667,17.3533333 29.07,18.05 30.685,19.4433333 C32.3,20.8366667 33.2816667,22.7683333 33.4083333,24.89 C33.725,29.26 30.4316667,33.0916667 26.03,33.4083333 C25.84,33.44 25.65,33.44 25.46,33.44 M25.46,19.2216667 C25.3016667,19.2216667 25.1433333,19.2216667 24.985,19.2533333 C21.565,19.5066667 18.9683333,22.4833333 19.2216667,25.935 C19.475,29.355 22.4833333,31.9516667 25.9033333,31.6983333 C29.3233333,31.445 31.92,28.4683333 31.6666667,25.0166667 C31.54,23.3383333 30.78,21.85 29.5133333,20.7416667 C28.405,19.76 26.98,19.2216667 25.46,19.2216667" id="Shape"></path>
                <path d="M3.07166667,21.3433333 C3.00833333,21.7233333 2.66,22.0083333 2.28,21.9766667 C1.9,21.9133333 1.615,21.565 1.64666667,21.185 C1.71,20.805 2.05833333,20.52 2.43833333,20.5516667 C2.85,20.615 3.135,20.9633333 3.07166667,21.3433333 M49.2416667,30.115 C49.305,29.735 49.02,29.355 48.6083333,29.3233333 C48.2283333,29.26 47.8483333,29.545 47.8166667,29.9566667 C47.7533333,30.3366667 48.0383333,30.7166667 48.45,30.7483333 C48.83,30.78 49.1783333,30.495 49.2416667,30.115 M6.49166667,12.6983333 C6.68166667,12.35 6.555,11.9066667 6.23833333,11.7166667 C5.89,11.5266667 5.44666667,11.6533333 5.25666667,11.97 C5.06666667,12.3183333 5.19333333,12.7616667 5.51,12.9516667 C5.85833333,13.1733333 6.30166667,13.0466667 6.49166667,12.6983333 M45.6316667,38.855 C45.8216667,38.5066667 45.695,38.0633333 45.3783333,37.8733333 C45.03,37.6833333 44.5866667,37.81 44.3966667,38.1266667 C44.2066667,38.475 44.3333333,38.9183333 44.65,39.1083333 C44.9983333,39.2983333 45.4416667,39.2033333 45.6316667,38.855 M12.825,6.42833333 C13.1416667,6.175 13.205,5.73166667 12.9516667,5.415 C12.6983333,5.09833333 12.255,5.035 11.9383333,5.28833333 C11.6216667,5.54166667 11.5583333,5.985 11.8116667,6.30166667 C12.065,6.58666667 12.5083333,6.65 12.825,6.42833333 M38.95,45.5683333 C39.2666667,45.315 39.33,44.8716667 39.0766667,44.555 C38.8233333,44.2383333 38.38,44.175 38.0633333,44.4283333 C37.7466667,44.6816667 37.6833333,45.125 37.9366667,45.4416667 C38.2216667,45.7583333 38.665,45.79 38.95,45.5683333 M21.0583333,3.04 C21.4383333,2.945 21.66,2.53333333 21.565,2.15333333 C21.47,1.77333333 21.0583333,1.55166667 20.6783333,1.64666667 C20.2983333,1.74166667 20.0766667,2.15333333 20.1716667,2.53333333 C20.2666667,2.91333333 20.6783333,3.135 21.0583333,3.04 M30.2416667,49.21 C30.6216667,49.115 30.8433333,48.7033333 30.7483333,48.3233333 C30.6533333,47.9433333 30.2416667,47.7216667 29.8616667,47.8166667 C29.4816667,47.9116667 29.26,48.3233333 29.355,48.7033333 C29.45,49.0833333 29.8616667,49.305 30.2416667,49.21 M29.9566667,3.04 C30.3366667,3.10333333 30.7166667,2.81833333 30.7483333,2.40666667 C30.78,1.995 30.5266667,1.64666667 30.115,1.615 C29.735,1.55166667 29.355,1.83666667 29.3233333,2.24833333 C29.2916667,2.62833333 29.5766667,3.00833333 29.9566667,3.04 M20.7733333,49.21 C21.1533333,49.2733333 21.5333333,48.9883333 21.565,48.5766667 C21.6283333,48.1966667 21.3433333,47.8166667 20.9316667,47.785 C20.5516667,47.7216667 20.1716667,48.0066667 20.14,48.4183333 C20.1083333,48.7983333 20.3933333,49.1783333 20.7733333,49.21 M38.19,6.46 C38.5383333,6.65 38.9816667,6.52333333 39.1716667,6.20666667 C39.3616667,5.85833333 39.235,5.415 38.9183333,5.225 C38.57,5.035 38.1266667,5.16166667 37.9366667,5.47833333 C37.715,5.85833333 37.8416667,6.27 38.19,6.46 M12.0333333,45.6 C12.3816667,45.79 12.825,45.6633333 13.015,45.3466667 C13.205,44.9983333 13.0783333,44.555 12.7616667,44.365 C12.4133333,44.175 11.97,44.3016667 11.78,44.6183333 C11.5583333,44.9983333 11.685,45.41 12.0333333,45.6 M44.46,12.7933333 C44.7133333,13.11 45.1566667,13.1733333 45.4733333,12.92 C45.79,12.6666667 45.8533333,12.2233333 45.6,11.9066667 C45.3466667,11.59 44.9033333,11.5266667 44.5866667,11.78 C44.27,12.0333333 44.2066667,12.4766667 44.46,12.7933333 M5.32,38.95 C5.57333333,39.2666667 6.01666667,39.33 6.33333333,39.0766667 C6.65,38.8233333 6.71333333,38.38 6.46,38.0633333 C6.20666667,37.7466667 5.76333333,37.6833333 5.44666667,37.9366667 C5.13,38.19 5.06666667,38.6333333 5.32,38.95 M47.8483333,21.0266667 C47.9433333,21.4066667 48.355,21.6283333 48.735,21.5333333 C49.115,21.4383333 49.3366667,21.0266667 49.2416667,20.6466667 C49.1466667,20.2666667 48.735,20.045 48.355,20.14 C47.975,20.235 47.7533333,20.6466667 47.8483333,21.0266667 M1.67833333,30.6216667 C1.77333333,31.0016667 2.185,31.2233333 2.565,31.1283333 C2.945,31.0333333 3.16666667,30.6216667 3.07166667,30.2416667 C2.97666667,29.8616667 2.565,29.64 2.185,29.735 C1.805,29.8616667 1.58333333,30.2733333 1.67833333,30.6216667" id="Shape"></path>
                <path d="M2.375,22.42 C2.31166667,22.42 2.28,22.42 2.21666667,22.42 C1.9,22.3883333 1.64666667,22.23 1.45666667,21.9766667 C1.26666667,21.7233333 1.17166667,21.4383333 1.235,21.1216667 C1.29833333,20.4883333 1.9,20.045 2.50166667,20.14 C2.81833333,20.1716667 3.07166667,20.33 3.26166667,20.5833333 C3.45166667,20.8366667 3.54666667,21.1216667 3.48333333,21.4383333 C3.45166667,21.755 3.29333333,22.0083333 3.04,22.1983333 C2.88166667,22.325 2.62833333,22.42 2.375,22.42 M2.375,20.995 C2.24833333,20.995 2.12166667,21.09 2.09,21.2483333 C2.09,21.3116667 2.09,21.4066667 2.15333333,21.47 C2.185,21.5333333 2.28,21.565 2.34333333,21.565 C2.40666667,21.565 2.50166667,21.565 2.565,21.5016667 C2.62833333,21.47 2.66,21.375 2.66,21.3116667 L2.66,21.3116667 C2.66,21.2483333 2.66,21.1533333 2.59666667,21.09 C2.565,21.0266667 2.47,20.995 2.40666667,20.995 C2.375,20.995 2.375,20.995 2.375,20.995 M48.545,31.16 C48.4816667,31.16 48.45,31.16 48.3866667,31.16 C48.07,31.1283333 47.8166667,30.97 47.6266667,30.7166667 C47.4366667,30.4633333 47.3416667,30.1783333 47.405,29.8616667 C47.4683333,29.2283333 48.07,28.785 48.6716667,28.88 C49.305,28.9433333 49.7483333,29.545 49.6533333,30.1466667 C49.6216667,30.4633333 49.4633333,30.7166667 49.21,30.9066667 C49.02,31.065 48.7983333,31.16 48.545,31.16 M48.545,29.735 C48.4183333,29.735 48.2916667,29.83 48.26,29.9883333 C48.26,30.0516667 48.26,30.1466667 48.3233333,30.21 C48.355,30.2733333 48.45,30.305 48.5133333,30.305 C48.5766667,30.305 48.6716667,30.305 48.735,30.2416667 C48.7983333,30.21 48.83,30.115 48.83,30.0516667 L48.83,30.0516667 C48.8616667,29.8933333 48.735,29.7666667 48.5766667,29.735 C48.545,29.735 48.545,29.735 48.545,29.735 M5.89,13.49 C5.7,13.49 5.51,13.4266667 5.32,13.3316667 C5.06666667,13.1733333 4.87666667,12.92 4.78166667,12.635 C4.68666667,12.35 4.75,12.0333333 4.87666667,11.78 C5.19333333,11.2416667 5.89,11.0516667 6.42833333,11.3366667 C6.96666667,11.6533333 7.15666667,12.35 6.87166667,12.8883333 C6.65,13.2683333 6.27,13.49 5.89,13.49 M5.89,12.065 C5.795,12.065 5.7,12.1283333 5.63666667,12.1916667 C5.605,12.255 5.605,12.3183333 5.605,12.4133333 C5.63666667,12.4766667 5.66833333,12.54 5.73166667,12.5716667 C5.85833333,12.635 6.04833333,12.6033333 6.11166667,12.4766667 C6.175,12.35 6.14333333,12.16 6.01666667,12.0966667 C5.985,12.065 5.92166667,12.065 5.89,12.065 M45.03,39.6466667 C44.84,39.6466667 44.65,39.5833333 44.46,39.4883333 C44.2066667,39.33 44.0166667,39.0766667 43.9216667,38.7916667 C43.8266667,38.5066667 43.89,38.19 44.0166667,37.9366667 C44.3333333,37.3983333 45.03,37.2083333 45.5683333,37.4933333 C46.1066667,37.81 46.2966667,38.5066667 46.0116667,39.045 L46.0116667,39.045 C45.8533333,39.2983333 45.6,39.4883333 45.315,39.5833333 C45.22,39.6466667 45.125,39.6466667 45.03,39.6466667 M45.03,38.2216667 C44.935,38.2216667 44.84,38.285 44.7766667,38.3483333 C44.745,38.4116667 44.745,38.475 44.745,38.57 C44.7766667,38.6333333 44.8083333,38.6966667 44.8716667,38.7283333 C44.935,38.76 44.9983333,38.76 45.0933333,38.76 C45.1566667,38.7283333 45.22,38.6966667 45.2516667,38.6333333 C45.315,38.5066667 45.2833333,38.3166667 45.1566667,38.2533333 C45.125,38.2216667 45.0616667,38.2216667 45.03,38.2216667 M12.3816667,6.99833333 C12.0333333,6.99833333 11.7166667,6.84 11.4633333,6.555 C11.2733333,6.30166667 11.1783333,6.01666667 11.2416667,5.7 C11.2733333,5.38333333 11.4316667,5.13 11.685,4.94 C12.1916667,4.56 12.8883333,4.655 13.3,5.13 C13.68,5.63666667 13.585,6.33333333 13.11,6.745 L13.11,6.745 C12.8566667,6.90333333 12.635,6.99833333 12.3816667,6.99833333 M12.3816667,5.57333333 C12.3183333,5.57333333 12.255,5.605 12.2233333,5.63666667 C12.16,5.66833333 12.1283333,5.76333333 12.1283333,5.82666667 C12.1283333,5.89 12.1283333,5.985 12.1916667,6.04833333 C12.2866667,6.175 12.4766667,6.20666667 12.5716667,6.11166667 C12.6983333,6.01666667 12.73,5.82666667 12.635,5.73166667 C12.54,5.605 12.445,5.57333333 12.3816667,5.57333333 M38.5383333,46.1383333 C38.475,46.1383333 38.4433333,46.1383333 38.38,46.1383333 C38.0633333,46.1066667 37.81,45.9483333 37.62,45.695 C37.24,45.1883333 37.335,44.46 37.81,44.08 C38.3166667,43.7 39.045,43.795 39.425,44.27 C39.615,44.5233333 39.71,44.8083333 39.6466667,45.125 C39.615,45.4416667 39.4566667,45.695 39.2033333,45.885 C39.0133333,46.0433333 38.7916667,46.1383333 38.5383333,46.1383333 M38.5383333,44.7133333 C38.475,44.7133333 38.4116667,44.745 38.38,44.7766667 C38.2533333,44.8716667 38.2216667,45.0616667 38.3166667,45.1566667 C38.3483333,45.22 38.4433333,45.2516667 38.5066667,45.2516667 C38.57,45.2516667 38.665,45.2516667 38.7283333,45.1883333 L38.7283333,45.1883333 C38.7916667,45.1566667 38.8233333,45.0616667 38.8233333,44.9983333 C38.8233333,44.935 38.8233333,44.84 38.76,44.7766667 C38.6966667,44.745 38.6016667,44.7133333 38.5383333,44.7133333 M20.8683333,3.48333333 C20.3616667,3.48333333 19.9183333,3.135 19.76,2.62833333 C19.665,2.34333333 19.7283333,2.02666667 19.855,1.77333333 C20.0133333,1.52 20.2666667,1.33 20.5516667,1.235 C20.8366667,1.14 21.1533333,1.20333333 21.4066667,1.33 C21.66,1.48833333 21.85,1.74166667 21.945,2.02666667 C22.1033333,2.62833333 21.755,3.26166667 21.1533333,3.42 L21.1533333,3.42 C21.0583333,3.48333333 20.9633333,3.48333333 20.8683333,3.48333333 M20.8683333,2.05833333 C20.8366667,2.05833333 20.805,2.05833333 20.805,2.05833333 C20.7416667,2.09 20.6783333,2.12166667 20.6466667,2.185 C20.615,2.24833333 20.615,2.31166667 20.615,2.40666667 C20.6466667,2.565 20.805,2.62833333 20.9633333,2.59666667 C21.1216667,2.565 21.2166667,2.40666667 21.1533333,2.24833333 C21.1216667,2.185 21.09,2.12166667 21.0266667,2.09 C20.9633333,2.05833333 20.9,2.05833333 20.8683333,2.05833333 M30.0516667,49.6533333 C29.545,49.6533333 29.1016667,49.305 28.9433333,48.7983333 C28.8483333,48.5133333 28.9116667,48.1966667 29.0383333,47.9433333 C29.1966667,47.69 29.45,47.5 29.735,47.405 C30.3366667,47.2466667 30.97,47.595 31.1283333,48.1966667 C31.2866667,48.7983333 30.9383333,49.4316667 30.3366667,49.59 C30.2416667,49.6533333 30.1466667,49.6533333 30.0516667,49.6533333 M30.0516667,48.2283333 C30.02,48.2283333 29.9883333,48.2283333 29.9883333,48.2283333 C29.925,48.26 29.8616667,48.2916667 29.83,48.355 C29.7983333,48.4183333 29.7983333,48.4816667 29.7983333,48.5766667 C29.83,48.735 29.9883333,48.7983333 30.1466667,48.7666667 C30.305,48.735 30.4,48.5766667 30.3366667,48.4183333 C30.2733333,48.3233333 30.1783333,48.2283333 30.0516667,48.2283333 M30.0516667,3.48333333 C30.02,3.48333333 29.9566667,3.48333333 29.925,3.48333333 L29.925,3.48333333 C29.6083333,3.45166667 29.355,3.29333333 29.165,3.04 C28.975,2.78666667 28.88,2.50166667 28.9433333,2.185 C28.975,1.86833333 29.1333333,1.615 29.3866667,1.425 C29.64,1.235 29.925,1.14 30.2416667,1.20333333 C30.5583333,1.235 30.8116667,1.39333333 31.0016667,1.64666667 C31.1916667,1.9 31.2866667,2.185 31.2233333,2.50166667 C31.0966667,3.07166667 30.6216667,3.48333333 30.0516667,3.48333333 M30.02,2.62833333 C30.1783333,2.62833333 30.305,2.53333333 30.3366667,2.375 C30.3366667,2.31166667 30.3366667,2.21666667 30.2733333,2.15333333 C30.2416667,2.09 30.1466667,2.05833333 30.0833333,2.05833333 C30.02,2.05833333 29.925,2.05833333 29.8616667,2.12166667 C29.7983333,2.15333333 29.7666667,2.24833333 29.7666667,2.31166667 C29.7666667,2.375 29.7666667,2.47 29.83,2.53333333 C29.8616667,2.565 29.925,2.59666667 30.02,2.62833333 M20.8683333,49.6533333 C20.805,49.6533333 20.7733333,49.6533333 20.71,49.6533333 C20.3933333,49.6216667 20.14,49.4633333 19.95,49.21 C19.76,48.9566667 19.665,48.6716667 19.7283333,48.355 C19.76,48.0383333 19.9183333,47.785 20.1716667,47.595 C20.425,47.405 20.71,47.3416667 21.0266667,47.3733333 C21.66,47.4366667 22.1033333,48.0383333 22.0083333,48.64 C21.9766667,48.9566667 21.8183333,49.21 21.565,49.4 C21.3433333,49.5583333 21.1216667,49.6533333 20.8683333,49.6533333 M20.8683333,48.2283333 C20.805,48.2283333 20.7416667,48.26 20.71,48.2916667 C20.6466667,48.3233333 20.615,48.4183333 20.615,48.4816667 C20.615,48.545 20.615,48.64 20.6783333,48.7033333 C20.71,48.7666667 20.805,48.7983333 20.8683333,48.7983333 L20.8683333,48.7983333 C20.9316667,48.7983333 21.0266667,48.7983333 21.09,48.735 C21.1533333,48.7033333 21.185,48.6083333 21.185,48.545 C21.2166667,48.3866667 21.09,48.26 20.9316667,48.2283333 C20.8683333,48.2283333 20.8683333,48.2283333 20.8683333,48.2283333 M38.5383333,6.99833333 C38.3483333,6.99833333 38.1583333,6.935 37.9683333,6.84 L37.9683333,6.84 C37.43,6.52333333 37.24,5.82666667 37.525,5.28833333 C37.6833333,5.035 37.905,4.845 38.2216667,4.75 C38.5066667,4.655 38.8233333,4.71833333 39.0766667,4.845 C39.33,5.00333333 39.52,5.225 39.615,5.54166667 C39.71,5.82666667 39.6466667,6.14333333 39.52,6.39666667 C39.2983333,6.77666667 38.9183333,6.99833333 38.5383333,6.99833333 M38.38,6.11166667 C38.5066667,6.175 38.6966667,6.14333333 38.76,6.01666667 C38.7916667,5.95333333 38.7916667,5.89 38.7916667,5.795 C38.76,5.73166667 38.7283333,5.66833333 38.665,5.63666667 C38.6016667,5.605 38.5383333,5.605 38.4433333,5.605 C38.38,5.63666667 38.3166667,5.66833333 38.285,5.73166667 C38.2216667,5.85833333 38.2533333,6.01666667 38.38,6.11166667 M12.3816667,46.1383333 C12.1916667,46.1383333 12.0016667,46.075 11.8116667,45.98 L11.8116667,45.98 C11.2733333,45.6633333 11.0833333,44.9666667 11.3683333,44.4283333 C11.685,43.89 12.3816667,43.7 12.92,43.985 C13.4583333,44.3016667 13.6483333,44.9983333 13.3633333,45.5366667 C13.205,45.79 12.9516667,45.98 12.6666667,46.075 C12.5716667,46.1383333 12.4766667,46.1383333 12.3816667,46.1383333 M12.2233333,45.2516667 C12.2866667,45.2833333 12.35,45.2833333 12.445,45.2833333 C12.5083333,45.2516667 12.5716667,45.22 12.6033333,45.1566667 C12.6666667,45.03 12.635,44.84 12.5083333,44.7766667 C12.3816667,44.7133333 12.1916667,44.745 12.1283333,44.8716667 C12.065,44.9983333 12.0966667,45.1566667 12.2233333,45.2516667 M45.03,13.49 C44.6816667,13.49 44.365,13.3316667 44.1116667,13.0466667 L44.1116667,13.0466667 C43.7316667,12.54 43.8266667,11.8433333 44.3016667,11.4316667 C44.555,11.2416667 44.84,11.1466667 45.1566667,11.21 C45.4733333,11.2416667 45.7266667,11.4 45.9166667,11.6533333 C46.2966667,12.16 46.2016667,12.8566667 45.7266667,13.2683333 C45.505,13.4266667 45.2833333,13.49 45.03,13.49 M44.8083333,12.5083333 C44.9033333,12.635 45.0933333,12.6666667 45.1883333,12.5716667 C45.315,12.4766667 45.3466667,12.2866667 45.2516667,12.1916667 C45.22,12.1283333 45.125,12.0966667 45.0616667,12.0966667 C44.9983333,12.0966667 44.9033333,12.0966667 44.84,12.16 C44.7133333,12.2233333 44.7133333,12.4133333 44.8083333,12.5083333 M5.89,39.6466667 C5.54166667,39.6466667 5.225,39.4883333 4.97166667,39.2033333 C4.59166667,38.6966667 4.68666667,38 5.16166667,37.5883333 C5.415,37.3983333 5.7,37.3033333 6.01666667,37.3666667 C6.33333333,37.3983333 6.58666667,37.5566667 6.77666667,37.81 C7.15666667,38.3166667 7.06166667,39.0133333 6.58666667,39.425 C6.365,39.5516667 6.14333333,39.6466667 5.89,39.6466667 M5.89,38.2216667 C5.82666667,38.2216667 5.76333333,38.2533333 5.73166667,38.285 C5.605,38.38 5.57333333,38.57 5.66833333,38.665 C5.76333333,38.7916667 5.95333333,38.8233333 6.04833333,38.7283333 C6.175,38.6333333 6.20666667,38.4433333 6.11166667,38.3483333 C6.08,38.285 5.985,38.2533333 5.92166667,38.2533333 C5.89,38.2216667 5.89,38.2216667 5.89,38.2216667 M48.545,21.9766667 C48.0383333,21.9766667 47.595,21.6283333 47.4366667,21.1216667 L47.4366667,21.1216667 C47.3416667,20.8366667 47.405,20.52 47.5316667,20.2666667 C47.69,20.0133333 47.9433333,19.8233333 48.2283333,19.7283333 C48.5133333,19.6333333 48.83,19.6966667 49.0833333,19.8233333 C49.3366667,19.9816667 49.5266667,20.235 49.6216667,20.52 C49.7166667,20.805 49.6533333,21.1216667 49.5266667,21.375 C49.3683333,21.6283333 49.115,21.8183333 48.83,21.9133333 C48.735,21.9766667 48.64,21.9766667 48.545,21.9766667 M48.26,20.9 C48.2916667,21.0583333 48.45,21.1533333 48.6083333,21.09 C48.6716667,21.0583333 48.735,21.0266667 48.7666667,20.9633333 C48.7983333,20.9 48.7983333,20.8366667 48.7983333,20.7416667 C48.7666667,20.6783333 48.735,20.615 48.6716667,20.5833333 C48.6083333,20.5516667 48.545,20.5516667 48.45,20.5516667 C48.3866667,20.5833333 48.3233333,20.615 48.2916667,20.6783333 C48.26,20.7733333 48.26,20.8366667 48.26,20.9 M2.375,31.6033333 C2.185,31.6033333 1.995,31.54 1.805,31.445 C1.55166667,31.2866667 1.36166667,31.0333333 1.26666667,30.7483333 C1.10833333,30.1466667 1.45666667,29.5133333 2.05833333,29.355 C2.34333333,29.26 2.66,29.3233333 2.91333333,29.45 C3.16666667,29.6083333 3.35666667,29.8616667 3.45166667,30.1466667 C3.61,30.7483333 3.26166667,31.3816667 2.66,31.54 C2.565,31.5716667 2.47,31.6033333 2.375,31.6033333 M2.375,30.1783333 C2.34333333,30.1783333 2.31166667,30.1783333 2.31166667,30.1783333 C2.15333333,30.21 2.05833333,30.3683333 2.12166667,30.5266667 L2.12166667,30.5266667 C2.15333333,30.59 2.185,30.6533333 2.24833333,30.685 C2.31166667,30.7166667 2.375,30.7166667 2.47,30.7166667 C2.62833333,30.685 2.72333333,30.5266667 2.66,30.3683333 C2.62833333,30.305 2.59666667,30.2416667 2.53333333,30.21 C2.47,30.1783333 2.40666667,30.1783333 2.375,30.1783333" id="Shape"></path>
                <polygon id="Path" points="185.946667 37.905 61.9716667 37.905 61.9716667 37.2716667 62.2883333 37.2716667 186.295 37.2716667 186.295 37.905"></polygon>
                <path d="M95.7916667,14.5033333 C95.7916667,14.5033333 94.5566667,15.865 91.9283333,15.865 C88.35,15.865 86.1016667,13.3 86.1016667,10.1333333 C86.1016667,6.96666667 88.35,4.40166667 91.9283333,4.40166667 C94.5883333,4.40166667 95.7916667,5.76333333 95.7916667,5.76333333 L94.525,7.47333333 C94.525,7.47333333 93.385,6.555 91.96,6.555 C89.87,6.555 88.3816667,8.075 88.3816667,10.165 C88.3816667,12.255 89.87,13.775 91.96,13.775 C93.6383333,13.775 94.525,12.825 94.525,12.825 L95.7916667,14.5033333 Z M96.9316667,10.1333333 C96.9316667,13.3 99.1483333,15.865 102.726667,15.865 C106.336667,15.865 108.521667,13.3 108.521667,10.1333333 C108.521667,6.96666667 106.305,4.40166667 102.726667,4.40166667 C99.1483333,4.43333333 96.9316667,6.96666667 96.9316667,10.1333333 M106.273333,10.1333333 C106.273333,12.2233333 104.785,13.7433333 102.726667,13.7433333 C100.668333,13.7433333 99.2116667,12.2233333 99.2116667,10.1333333 C99.2116667,8.04333333 100.668333,6.52333333 102.726667,6.52333333 C104.785,6.52333333 106.273333,8.04333333 106.273333,10.1333333 M119.985,15.6116667 L122.17,15.6116667 L122.17,4.655 L121.6,4.655 L116.565,9.56333333 L111.561667,4.655 L110.96,4.655 L110.96,15.6116667 L113.176667,15.6116667 L113.176667,9.15166667 L116.375,12.3816667 L116.818333,12.3816667 L119.985,9.15166667 L119.985,15.6116667 Z M134.266667,15.6116667 L136.451667,15.6116667 L136.451667,4.655 L135.881667,4.655 L130.846667,9.56333333 L125.843333,4.655 L125.241667,4.655 L125.241667,15.6116667 L127.458333,15.6116667 L127.458333,9.15166667 L130.656667,12.3816667 L131.1,12.3816667 L134.266667,9.15166667 L134.266667,15.6116667 Z M139.396667,10.9566667 C139.396667,13.775 141.265,15.865 144.305,15.865 C147.376667,15.865 149.181667,13.775 149.181667,10.9566667 L149.181667,4.68666667 L146.965,4.68666667 L146.965,10.9566667 C146.965,12.4766667 146.11,13.7433333 144.305,13.7433333 C142.5,13.7433333 141.613333,12.4766667 141.613333,10.9566667 L141.613333,4.68666667 L139.396667,4.68666667 L139.396667,10.9566667 M162.228333,4.68666667 L160.011667,4.68666667 L160.011667,11.21 L152.665,4.655 L152.126667,4.655 L152.126667,15.6116667 L154.343333,15.6116667 L154.343333,8.93 L161.69,15.6116667 L162.228333,15.6116667 L162.228333,4.68666667 L162.228333,4.68666667 Z M167.516667,4.655 L165.3,4.655 L165.3,15.6116667 L167.516667,15.6116667 L167.516667,4.655 Z M169.575,6.58666667 L173.153333,6.58666667 L173.153333,15.6116667 L175.37,15.6116667 L175.37,6.58666667 L178.948333,6.58666667 L178.948333,4.655 L169.606667,4.655 L169.606667,6.58666667 L169.575,6.58666667 Z M185.186667,8.48666667 L184.87,9.18333333 L184.68,9.18333333 L184.363333,8.48666667 L182.083333,4.655 L179.518333,4.655 L183.635,11.4 L183.635,15.6116667 L185.851667,15.6116667 L185.851667,11.4316667 L190,4.655 L187.435,4.655 L185.186667,8.48666667 Z M62.2566667,32.0466667 L64.505,32.0466667 L64.505,27.4233333 L70.015,27.4233333 L70.015,25.5866667 L64.505,25.5866667 L64.505,22.8633333 L70.9016667,22.8633333 L70.9016667,20.9 L62.2566667,20.9 L62.2566667,32.0466667 L62.2566667,32.0466667 Z M72.3583333,26.4733333 C72.3583333,29.6716667 74.6066667,32.3 78.2483333,32.3 C81.9216667,32.3 84.17,29.7033333 84.17,26.4733333 C84.17,23.275 81.9216667,20.6466667 78.2483333,20.6466667 C74.6066667,20.6466667 72.3583333,23.2433333 72.3583333,26.4733333 M81.8583333,26.4733333 C81.8583333,28.595 80.3383333,30.1466667 78.2483333,30.1466667 C76.1583333,30.1466667 74.67,28.595 74.67,26.4733333 C74.67,24.3516667 76.1583333,22.8 78.2483333,22.8 C80.37,22.8 81.8583333,24.3516667 81.8583333,26.4733333 M86.45,27.265 C86.45,30.1466667 88.35,32.2683333 91.4533333,32.2683333 C94.5883333,32.2683333 96.425,30.1466667 96.425,27.265 L96.425,20.8683333 L94.145,20.8683333 L94.145,27.265 C94.145,28.8166667 93.29,30.115 91.4216667,30.115 C89.585,30.115 88.6666667,28.8166667 88.6666667,27.265 L88.6666667,20.8683333 L86.4183333,20.8683333 L86.4183333,27.265 M109.63,20.9 L107.413333,20.9 L107.413333,27.5183333 L99.94,20.8683333 L99.37,20.8683333 L99.37,32.015 L101.618333,32.015 L101.618333,25.2066667 L109.091667,32.015 L109.63,32.015 L109.63,20.9 Z M117.198333,32.0466667 C120.871667,32.0466667 123.12,29.735 123.12,26.4733333 C123.12,23.2116667 120.84,20.9 117.198333,20.9 L112.828333,20.9 L112.828333,32.0466667 L117.198333,32.0466667 M117.04,22.8633333 C119.193333,22.8633333 120.776667,24.13 120.776667,26.4733333 C120.776667,28.8166667 119.193333,30.0833333 117.04,30.0833333 L115.045,30.0833333 L115.045,22.8633333 L117.04,22.8633333 L117.04,22.8633333 Z M123.595,32.0466667 L126.128333,32.0466667 L126.825,30.5266667 L132.145,30.5266667 L132.873333,32.0466667 L135.406667,32.0466667 L129.675,20.9 L129.295,20.9 L123.595,32.0466667 Z M131.258333,28.595 L131.385,28.8483333 L127.585,28.8483333 L127.711667,28.595 L129.39,24.9533333 L129.548333,24.9533333 L131.258333,28.595 Z M134.773333,22.8633333 L138.415,22.8633333 L138.415,32.0466667 L140.663333,32.0466667 L140.663333,22.8633333 L144.273333,22.8633333 L144.273333,20.9 L134.773333,20.9 L134.773333,22.8633333 Z M148.58,20.9 L146.331667,20.9 L146.331667,32.0466667 L148.58,32.0466667 L148.58,20.9 Z M151.018333,26.4733333 C151.018333,29.6716667 153.266667,32.3 156.908333,32.3 C160.581667,32.3 162.83,29.7033333 162.83,26.4733333 C162.83,23.275 160.581667,20.6466667 156.908333,20.6466667 C153.266667,20.6466667 151.018333,23.2433333 151.018333,26.4733333 M160.518333,26.4733333 C160.518333,28.595 158.998333,30.1466667 156.908333,30.1466667 C154.818333,30.1466667 153.33,28.595 153.33,26.4733333 C153.33,24.3516667 154.818333,22.8 156.908333,22.8 C159.03,22.8 160.518333,24.3516667 160.518333,26.4733333 M175.528333,20.9 L173.311667,20.9 L173.311667,27.5183333 L165.838333,20.8683333 L165.268333,20.8683333 L165.268333,32.015 L167.516667,32.015 L167.516667,25.2066667 L174.99,32.015 L175.528333,32.015 L175.528333,20.9 L175.528333,20.9 Z M177.935,30.8433333 C177.935,30.8433333 179.455,32.2683333 182.495,32.2683333 C185.535,32.2683333 186.896667,30.7166667 186.896667,28.7533333 C186.896667,26.9483333 185.661667,25.9983333 182.906667,25.27 C181.165,24.795 180.595,24.4783333 180.595,23.8133333 C180.595,23.1166667 181.196667,22.705 182.4,22.705 C184.205,22.705 185.408333,23.6233333 185.408333,23.6233333 L186.611667,21.7866667 C186.611667,21.7866667 185.376667,20.6466667 182.4,20.6466667 C179.55,20.6466667 178.061667,21.9766667 178.061667,23.94 C178.061667,25.7133333 179.391667,26.6 181.893333,27.3283333 C183.825,27.8666667 184.3,28.2466667 184.3,28.975 C184.3,29.6716667 183.761667,30.21 182.4,30.21 C180.595,30.21 179.106667,29.1333333 179.106667,29.1333333 L177.935,30.8433333 Z M66.5316667,45.6 C66.5316667,46.5816667 65.835,47.2783333 64.7266667,47.2783333 C63.4283333,47.2783333 62.6366667,46.36 62.6366667,45.1566667 C62.6366667,43.9533333 63.46,43.0033333 64.7583333,43.0033333 C65.8033333,43.0033333 66.405,43.5733333 66.405,43.5733333 L66.975,42.8133333 C66.975,42.8133333 66.2783333,42.0533333 64.7583333,42.0533333 C62.8266667,42.0533333 61.6233333,43.415 61.6233333,45.125 C61.6233333,46.835 62.795,48.1966667 64.7266667,48.1966667 C66.5316667,48.1966667 67.545,46.9933333 67.545,45.22 L67.545,44.7133333 L64.6,44.7133333 L64.6,45.5366667 L66.5316667,45.6 L66.5316667,45.6 Z M70.3316667,42.2116667 L69.35,42.2116667 L69.35,48.1016667 L70.3316667,48.1016667 L70.3316667,42.2116667 Z M74.7966667,46.3283333 L74.2583333,45.0616667 L72.865,42.2116667 L71.7566667,42.2116667 L74.7333333,48.1016667 L74.9233333,48.1016667 L77.9,42.2116667 L76.7916667,42.2116667 L75.3983333,45.0616667 L74.8283333,46.3283333 L74.7966667,46.3283333 Z M80.275,42.2116667 L79.2933333,42.2116667 L79.2933333,48.1016667 L80.275,48.1016667 L80.275,42.2116667 Z M87.875,42.2116667 L86.8933333,42.2116667 L86.8933333,46.075 L82.7766667,42.18 L82.5233333,42.18 L82.5233333,48.07 L83.505,48.07 L83.505,44.1433333 L87.6216667,48.07 L87.875,48.07 L87.875,42.2116667 Z M94.5883333,45.6 C94.5883333,46.5816667 93.8916667,47.2783333 92.7833333,47.2783333 C91.485,47.2783333 90.6933333,46.36 90.6933333,45.1566667 C90.6933333,43.9533333 91.5166667,43.0033333 92.815,43.0033333 C93.86,43.0033333 94.4616667,43.5733333 94.4616667,43.5733333 L95.0316667,42.8133333 C95.0316667,42.8133333 94.335,42.0533333 92.815,42.0533333 C90.8833333,42.0533333 89.68,43.415 89.68,45.125 C89.68,46.835 90.8516667,48.1966667 92.7833333,48.1966667 C94.5883333,48.1966667 95.57,46.9933333 95.57,45.22 L95.57,44.7133333 L92.625,44.7133333 L92.625,45.5366667 L94.5883333,45.6 L94.5883333,45.6 Z M100.066667,48.07 L101.048333,48.07 L101.048333,45.5683333 L104.12,45.5683333 L104.12,44.745 L101.048333,44.745 L101.048333,43.035 L104.563333,43.035 L104.563333,42.18 L100.066667,42.18 L100.066667,48.07 L100.066667,48.07 Z M105.83,45.1566667 C105.83,46.8666667 107.033333,48.2283333 108.933333,48.2283333 C110.865,48.2283333 112.068333,46.8666667 112.068333,45.1566667 C112.068333,43.4466667 110.865,42.085 108.933333,42.085 C107.033333,42.085 105.83,43.4466667 105.83,45.1566667 M111.055,45.1566667 C111.055,46.36 110.2,47.2783333 108.933333,47.2783333 C107.666667,47.2783333 106.843333,46.36 106.843333,45.1566667 C106.843333,43.9533333 107.698333,43.0033333 108.933333,43.0033333 C110.2,43.0033333 111.055,43.9533333 111.055,45.1566667 M113.905,48.07 L114.886667,48.07 L114.886667,46.2016667 L116.565,46.2016667 L118.021667,48.07 L119.098333,48.07 L119.098333,47.9433333 L117.61,46.075 L117.61,46.0116667 C118.37,45.7266667 118.845,45.125 118.845,44.175 C118.845,42.9083333 117.926667,42.18 116.438333,42.18 L113.873333,42.18 L113.873333,48.07 L113.905,48.07 Z M116.438333,43.0666667 C117.325,43.0666667 117.863333,43.4466667 117.863333,44.2383333 C117.863333,45.03 117.325,45.3783333 116.501667,45.3783333 L114.886667,45.3783333 L114.886667,43.0666667 L116.438333,43.0666667 M127.806667,48.07 L127.806667,47.215 L124.513333,47.215 L124.513333,42.2116667 L123.531667,42.2116667 L123.531667,48.1016667 L127.806667,48.1016667 L127.806667,48.07 Z M128.725,45.1566667 C128.725,46.8666667 129.928333,48.2283333 131.828333,48.2283333 C133.76,48.2283333 134.963333,46.8666667 134.963333,45.1566667 C134.963333,43.4466667 133.76,42.085 131.828333,42.085 C129.928333,42.085 128.725,43.4466667 128.725,45.1566667 M133.95,45.1566667 C133.95,46.36 133.095,47.2783333 131.828333,47.2783333 C130.561667,47.2783333 129.738333,46.36 129.738333,45.1566667 C129.738333,43.9533333 130.593333,43.0033333 131.828333,43.0033333 C133.126667,43.0033333 133.95,43.9533333 133.95,45.1566667 M141.043333,46.74 C141.043333,46.74 140.473333,47.31 139.523333,47.31 C138.256667,47.31 137.37,46.3916667 137.37,45.1883333 C137.37,43.985 138.256667,43.035 139.523333,43.035 C140.41,43.035 141.043333,43.605 141.043333,43.605 L141.613333,42.845 C141.613333,42.845 140.948333,42.1166667 139.523333,42.1166667 C137.623333,42.1166667 136.388333,43.4783333 136.388333,45.1883333 C136.388333,46.8983333 137.623333,48.26 139.523333,48.26 C140.948333,48.26 141.613333,47.5 141.613333,47.5 L141.043333,46.74 Z M142.436667,48.07 L143.545,48.07 L143.988333,47.1833333 L147.06,47.1833333 L147.503333,48.07 L148.611667,48.07 L145.603333,42.18 L145.445,42.18 L142.436667,48.07 Z M146.616667,46.2966667 L146.68,46.3916667 L144.368333,46.3916667 L144.431667,46.2966667 L145.508333,43.985 L145.571667,43.985 L146.616667,46.2966667 Z M154.311667,48.07 L154.311667,47.215 L151.018333,47.215 L151.018333,42.2116667 L150.036667,42.2116667 L150.036667,48.1016667 L154.311667,48.1016667 L154.311667,48.07 Z M163.02,45.6 C163.02,46.5816667 162.323333,47.2783333 161.215,47.2783333 C159.916667,47.2783333 159.125,46.36 159.125,45.1566667 C159.125,43.9533333 159.948333,43.0033333 161.246667,43.0033333 C162.291667,43.0033333 162.893333,43.5733333 162.893333,43.5733333 L163.463333,42.8133333 C163.463333,42.8133333 162.766667,42.0533333 161.246667,42.0533333 C159.315,42.0533333 158.111667,43.415 158.111667,45.125 C158.111667,46.835 159.283333,48.1966667 161.215,48.1966667 C163.02,48.1966667 164.033333,46.9933333 164.033333,45.22 L164.033333,44.7133333 L161.088333,44.7133333 L161.088333,45.5366667 L163.02,45.6 L163.02,45.6 Z M165.426667,45.1566667 C165.426667,46.8666667 166.63,48.2283333 168.53,48.2283333 C170.461667,48.2283333 171.665,46.8666667 171.665,45.1566667 C171.665,43.4466667 170.461667,42.085 168.53,42.085 C166.63,42.085 165.426667,43.4466667 165.426667,45.1566667 M170.651667,45.1566667 C170.651667,46.36 169.796667,47.2783333 168.53,47.2783333 C167.263333,47.2783333 166.44,46.36 166.44,45.1566667 C166.44,43.9533333 167.295,43.0033333 168.53,43.0033333 C169.828333,43.0033333 170.651667,43.9533333 170.651667,45.1566667 M173.09,45.1566667 C173.09,46.8666667 174.293333,48.2283333 176.193333,48.2283333 C178.125,48.2283333 179.328333,46.8666667 179.328333,45.1566667 C179.328333,43.4466667 178.125,42.085 176.193333,42.085 C174.293333,42.085 173.09,43.4466667 173.09,45.1566667 M178.315,45.1566667 C178.315,46.36 177.46,47.2783333 176.193333,47.2783333 C174.926667,47.2783333 174.103333,46.36 174.103333,45.1566667 C174.103333,43.9533333 174.958333,43.0033333 176.193333,43.0033333 C177.46,43.0033333 178.315,43.9533333 178.315,45.1566667 M183.381667,48.07 C185.313333,48.07 186.548333,46.8983333 186.548333,45.125 C186.548333,43.3833333 185.313333,42.18 183.381667,42.18 L181.165,42.18 L181.165,48.07 L183.381667,48.07 M183.286667,43.0666667 C184.553333,43.0666667 185.503333,43.8266667 185.503333,45.1566667 C185.503333,46.4866667 184.553333,47.2466667 183.286667,47.2466667 L182.115,47.2466667 L182.115,43.0983333 L183.286667,43.0983333 L183.286667,43.0666667 Z" id="Shape"></path>
            </g>
        </g>
    </g>
</svg>