<?xml version="1.0" encoding="UTF-8"?>
<svg width="164px" height="59px" viewBox="0 0 164 59" version="1.1" xmlns="http://www.w3.org/2000/svg" xmlns:xlink="http://www.w3.org/1999/xlink">
    <title>lccf</title>
    <defs>
        <polygon id="path-1" points="0 59 164 59 164 0 0 0"></polygon>
    </defs>
    <g id="Home" stroke="none" stroke-width="1" fill="none" fill-rule="evenodd">
        <g transform="translate(-987, -4092)" id="Clients">
            <g transform="translate(-1, 3720)">
                <g id="Group-6" transform="translate(121, 365)">
                    <g id="lccf" transform="translate(867, 7)">
                        <polygon id="Fill-1" fill="#FFFFFF" points="61.8936 21.1901991 61.8936 8.61313637 66.1107158 8.61313637 66.1107158 17.8701918 72.217822 17.8701918 72.217822 21.1901991"></polygon>
                        <g id="Group-36">
                            <path d="M81.3088021,15.8150905 C81.2737715,14.7786403 80.4164357,14.076174 79.2790214,14.076174 C78.1240089,14.076174 77.2316425,14.7786403 77.1091185,15.8150905 L81.3088021,15.8150905 Z M73.2069458,16.6407175 C73.2069458,13.7598559 75.6743595,11.792617 79.2964537,11.792617 C82.8137883,11.792617 85.1234814,13.6545276 85.1234814,16.4825585 C85.1234814,16.8338749 85.0884509,17.2555213 84.9835252,17.5716728 L77.1615814,17.5716728 C77.4590922,18.6256222 78.7015982,19.1350977 80.1888201,19.1350977 C81.5712823,19.1350977 82.9711768,18.7486163 83.7061546,18.1864766 L85.1234814,19.9605581 C84.1260234,20.8740142 82.113675,21.5063172 79.9613704,21.5063172 C75.954272,21.5063172 73.2069458,19.5740767 73.2069458,16.6407175 L73.2069458,16.6407175 Z" id="Fill-2" fill="#FFFFFF"></path>
                            <path d="M98.176319,15.3934941 L98.176319,21.1902157 L94.379072,21.1902157 L94.379072,16.2014553 C94.379072,15.1125076 93.7491858,14.4625388 92.6466361,14.4625388 C91.3694316,14.4625388 90.5643926,15.2705 90.5643926,16.6056026 L90.5643926,21.1902157 L86.7671455,21.1902157 L86.7671455,12.1263177 L89.9869693,12.1263177 L90.4943315,14.1638865 L90.5119298,14.1638865 C91.2293093,12.7411215 92.6292038,11.8628303 94.4665654,11.8628303 C96.741394,11.8628303 98.176319,13.1977662 98.176319,15.3934941" id="Fill-4" fill="#FFFFFF"></path>
                            <path d="M111.424979,15.3934941 L111.424979,21.1902157 L107.627732,21.1902157 L107.627732,16.2014553 C107.627732,15.1125076 106.997846,14.4625388 105.895462,14.4625388 C104.618092,14.4625388 103.813053,15.2705 103.813053,16.6056026 L103.813053,21.1902157 L100.015972,21.1902157 L100.015972,12.1263177 L103.235629,12.1263177 L103.743158,14.1638865 L103.76059,14.1638865 C104.478135,12.7411215 105.877864,11.8628303 107.715226,11.8628303 C109.990054,11.8628303 111.424979,13.1977662 111.424979,15.3934941" id="Fill-6" fill="#FFFFFF"></path>
                            <path d="M121.443439,16.6582167 C121.443439,15.2881158 120.498444,14.4098247 119.011222,14.4098247 C117.506236,14.4098247 116.561407,15.2881158 116.561407,16.6582167 C116.561407,18.0283176 117.506236,18.9066087 119.011222,18.9066087 C120.498444,18.9066087 121.443439,18.0283176 121.443439,16.6582167 M112.79919,16.6582167 C112.79919,13.7246909 115.266438,11.792617 119.011222,11.792617 C122.75584,11.792617 125.205656,13.7246909 125.205656,16.6582167 C125.205656,19.5917425 122.75584,21.5063172 119.011222,21.5063172 C115.266438,21.5063172 112.79919,19.5917425 112.79919,16.6582167" id="Fill-8" fill="#FFFFFF"></path>
                            <polygon id="Fill-10" fill="#FFFFFF" points="125.228899 21.1901991 129.201133 16.4825918 125.368855 12.126301 129.481045 12.126301 131.615917 14.7786736 133.750624 12.126301 137.880412 12.126301 133.978239 16.4825918 138.00277 21.1901991 133.785654 21.1901991 131.615917 18.4674965 129.446015 21.1901991"></polygon>
                            <path d="M61.4911303,30.5539827 C61.4911303,27.3078053 63.7030367,25.2420711 67.202773,25.2420711 C69.764487,25.2420711 71.766376,26.6051724 72.3262009,28.7412364 L70.6324481,29.2048808 C70.2683627,27.7012864 68.9526411,26.7598316 67.2306646,26.7598316 C64.8509103,26.7598316 63.3389512,28.2352607 63.3389512,30.5539827 C63.353063,32.8727047 65.0049784,34.3481338 67.594584,34.3481338 C69.6104189,34.3481338 71.1363238,33.2380205 71.5283009,31.5096035 L73.2502774,31.86092 C72.7462357,34.3059692 70.5343293,35.8658943 67.5806382,35.8658943 C63.8569387,35.8658943 61.4911303,33.8141595 61.4911303,30.5539827" id="Fill-12" fill="#FFFFFF"></path>
                            <path d="M74.4532703,35.5285772 L74.4532703,25.1437425 L76.1191315,25.1437425 L76.1191315,29.8513498 L76.1330773,29.8513498 C76.7491836,28.7692351 77.9110031,28.1229328 79.4508538,28.1229328 C81.4527428,28.1229328 82.6706776,29.2752108 82.6706776,31.1862857 L82.6565658,35.5285772 L80.9767588,35.5285772 L80.9767588,31.4674389 C80.9767588,30.2026663 80.1786927,29.4297034 78.8349135,29.4297034 C77.1690524,29.4297034 76.1191315,30.4134895 76.1191315,31.9732479 L76.1191315,35.5285772 L74.4532703,35.5285772 Z" id="Fill-14" fill="#FFFFFF"></path>
                            <mask id="mask-2" fill="white">
                                <use xlink:href="#path-1"></use>
                            </mask>
                            <g id="Clip-17"></g>
                            <path d="M84.2360625,35.5286272 L85.9019237,35.5286272 L85.9019237,28.375804 L84.2360625,28.375804 L84.2360625,35.5286272 Z M84.0120993,26.1695766 C84.0120993,25.5652723 84.4460799,25.1577919 85.075966,25.1577919 C85.7060182,25.1577919 86.1539446,25.5652723 86.1539446,26.1695766 C86.1539446,26.7878802 85.7060182,27.1953607 85.075966,27.1953607 C84.4460799,27.1953607 84.0120993,26.7878802 84.0120993,26.1695766 L84.0120993,26.1695766 Z" id="Fill-16" fill="#FFFFFF" mask="url(#mask-2)"></path>
                            <polygon id="Fill-18" fill="#FFFFFF" mask="url(#mask-2)" points="87.545538 35.5286272 89.2113992 35.5286272 89.2113992 25.1437925 87.545538 25.1437925"></polygon>
                            <path d="M98.0235459,31.9592152 C98.0235459,30.5259507 96.8336688,29.5 95.0977465,29.5 C93.3619902,29.5 92.1580012,30.5259507 92.1580012,31.9592152 C92.1580012,33.3926464 93.3619902,34.4184305 95.0977465,34.4184305 C96.8336688,34.4184305 98.0235459,33.3926464 98.0235459,31.9592152 M90.49214,31.9592152 C90.49214,29.6826579 92.1580012,28.1228995 94.5799249,28.1228995 C96.1056639,28.1228995 97.3656021,28.7833677 97.939539,29.8794818 L97.9536508,29.8794818 L97.9536508,25.1437092 L99.6474036,25.1437092 L99.6474036,35.5285438 L98.1915598,35.5285438 L97.9956543,34.0249494 L97.9815424,34.0249494 C97.3936598,35.1210634 96.1337215,35.7815317 94.5938708,35.7815317 C92.172113,35.7815317 90.49214,34.2357726 90.49214,31.9592152" id="Fill-19" fill="#FFFFFF" mask="url(#mask-2)"></path>
                            <path d="M107.858154,30.652328 L106.388198,31.0458091 C106.290245,30.005859 105.716308,29.4157207 104.890351,29.4157207 C103.65847,29.4157207 102.916519,30.4133395 102.916519,32.0435945 L102.916519,35.5285938 L101.250824,35.5285938 L101.250824,28.3757707 L102.650553,28.3757707 L102.86057,29.7248725 L102.874516,29.7248725 C103.336554,28.7270871 104.246519,28.1087835 105.352389,28.1087835 C106.738172,28.1087835 107.704251,29.0504049 107.858154,30.652328" id="Fill-20" fill="#FFFFFF" mask="url(#mask-2)"></path>
                            <path d="M115.738471,31.3830929 C115.61246,30.1183203 114.534482,29.3735227 113.106695,29.3735227 C111.692855,29.3735227 110.586819,30.2026496 110.446863,31.3830929 L115.738471,31.3830929 Z M108.683049,31.9030679 C108.683049,29.6826746 110.53087,28.1087501 113.148699,28.1087501 C115.710413,28.1087501 117.446335,29.6546759 117.460447,31.8609033 C117.460447,32.0435612 117.446335,32.296549 117.404332,32.4652076 L110.460808,32.4652076 C110.65688,33.7018149 111.986879,34.5309417 113.638629,34.5309417 C114.968628,34.5309417 116.242512,34.0108 116.830395,33.3223331 L117.712302,34.15146 C116.970351,35.1210801 115.318602,35.7955477 113.540676,35.7955477 C110.712829,35.7955477 108.683049,34.1936246 108.683049,31.9030679 L108.683049,31.9030679 Z" id="Fill-21" fill="#FFFFFF" mask="url(#mask-2)"></path>
                            <path d="M127.131175,31.1863357 L127.117063,35.5286272 L125.437256,35.5286272 L125.437256,31.4673222 C125.437256,30.2027163 124.639356,29.4297534 123.295411,29.4297534 C121.629549,29.4297534 120.579629,30.4133728 120.579629,31.9732979 L120.579629,35.5286272 L118.913767,35.5286272 L118.913767,28.375804 L120.369777,28.375804 L120.565683,29.8513998 L120.579629,29.8513998 C121.181623,28.7692851 122.3715,28.1228161 123.911351,28.1228161 C125.91324,28.1228161 127.131175,29.2752608 127.131175,31.1863357" id="Fill-22" fill="#FFFFFF" mask="url(#mask-2)"></path>
                            <path d="M128.182789,28.5865939 C129.106699,28.853581 129.84865,28.1509481 129.862596,27.0969987 C128.994635,27.4764805 128.238738,26.9565055 128.25285,26.2398732 C128.25285,25.6637342 128.686665,25.2420878 129.260768,25.2420878 C129.946603,25.2420878 130.408641,25.8182268 130.422587,26.8721762 C130.422587,28.5022646 129.428781,29.4437194 128.042833,29.0925696 L128.182789,28.5865939 Z" id="Fill-23" fill="#FFFFFF" mask="url(#mask-2)"></path>
                            <path d="M130.414236,33.5190737 L131.576222,32.9850993 C131.898138,33.9265541 133.185968,34.5870224 134.711872,34.5870224 C136.013814,34.5870224 136.95167,34.165376 136.95167,33.533073 C136.95167,33.013098 136.33573,32.7461108 135.145853,32.5776189 L133.63406,32.380795 C131.898138,32.1559725 130.932224,31.6079988 130.932224,30.4133895 C130.932224,28.980125 132.374122,28.1228328 134.361899,28.1228328 C135.999868,28.1228328 137.399597,28.8394651 137.903639,29.8934144 L136.811714,30.4697201 C136.461741,29.7670872 135.467769,29.2751108 134.333841,29.2751108 C133.256029,29.2751108 132.444017,29.6827579 132.444017,30.2447309 C132.444017,30.7367073 132.948059,30.9615298 134.011925,31.1160224 L135.565888,31.3128463 C137.4416,31.5938328 138.491521,32.1278071 138.491521,33.4065791 C138.491521,34.8821749 136.895721,35.795631 134.725818,35.795631 C132.625977,35.795631 130.820159,34.9101735 130.414236,33.5190737" id="Fill-24" fill="#FFFFFF" mask="url(#mask-2)"></path>
                            <path d="M61.4911303,44.3532034 C61.4911303,41.1070259 63.7030367,39.0412918 67.202773,39.0412918 C69.764487,39.0412918 71.766376,40.404393 72.3262009,42.5404571 L70.6324481,43.0041015 C70.2683627,41.500507 68.9526411,40.5590522 67.2306646,40.5590522 C64.8509103,40.5590522 63.3389512,42.0344814 63.3389512,44.3532034 C63.353063,46.6719254 65.0049784,48.1473545 67.594584,48.1473545 C69.6104189,48.1473545 71.1363238,47.0372411 71.5283009,45.3088242 L73.2502774,45.6601406 C72.7462357,48.1051899 70.5343293,49.665115 67.5806382,49.665115 C63.8569387,49.665115 61.4911303,47.6133801 61.4911303,44.3532034" id="Fill-25" fill="#FFFFFF" mask="url(#mask-2)"></path>
                            <path d="M80.7443617,46.222197 L80.7443617,45.8848798 L78.000688,46.1378677 C76.3346608,46.3065262 75.6347135,46.728006 75.6347135,47.3323103 C75.6347135,47.9787793 76.3627184,48.358261 77.594599,48.358261 C79.4143623,48.358261 80.7443617,47.4448049 80.7443617,46.222197 M73.9690183,47.5149682 C73.9690183,46.2503623 75.2007329,45.3509055 77.7765588,45.0979176 L80.2263742,44.8730951 C80.5763478,44.8450964 80.7863652,44.6764379 80.7863652,44.3954513 C80.7863652,43.6786524 79.8485089,43.1586774 78.5185095,43.1586774 C77.0487199,43.1586774 75.7047746,43.847311 75.2148448,44.7044365 L74.1229204,44.0018036 C74.6829114,42.8215269 76.4606712,41.9080708 78.5045637,41.9080708 C80.7583075,41.9080708 82.4241687,42.9056896 82.4241687,44.6202739 L82.4241687,47.7257914 C82.4241687,48.1052732 82.6341861,48.3440951 82.9841597,48.3440951 C83.2640722,48.3440951 83.5580965,48.1754365 83.7261104,47.9226153 L84.3000473,48.8359048 C83.922182,49.2997158 83.2081229,49.5807023 82.480284,49.5807023 C81.5142041,49.5807023 80.8564263,49.0045633 80.7863652,48.1896025 L80.7724194,47.9366146 L80.7583075,47.9366146 C80.156479,48.9202341 78.798588,49.5807023 77.1325608,49.5807023 C75.1867871,49.5807023 73.9690183,48.8079061 73.9690183,47.5149682" id="Fill-26" fill="#FFFFFF" mask="url(#mask-2)"></path>
                            <path d="M93.4206954,44.9855563 L93.4067496,49.3278478 L91.7267766,49.3278478 L91.7267766,45.2665428 C91.7267766,44.0019369 90.9288765,43.228974 89.5850973,43.228974 C87.9190701,43.228974 86.8693153,44.2125935 86.8693153,45.7725186 L86.8693153,49.3278478 L85.2034541,49.3278478 L85.2034541,42.1750246 L86.6592979,42.1750246 L86.8552034,43.6506205 L86.8693153,43.6506205 C87.4711437,42.5685057 88.6611869,41.9220368 90.2008716,41.9220368 C92.2027606,41.9220368 93.4206954,43.0744815 93.4206954,44.9855563" id="Fill-27" fill="#FFFFFF" mask="url(#mask-2)"></path>
                            <path d="M94.6137768,45.7584359 C94.6137768,43.4678792 96.4056484,41.9081208 98.9814742,41.9081208 C101.025201,41.9081208 102.607055,42.9199055 103.02709,44.409334 L101.473127,44.7888158 C101.193215,43.8191957 100.255358,43.2148914 99.0653151,43.2148914 C97.4414574,43.2148914 96.279638,44.2408421 96.279638,45.7584359 C96.279638,47.2901957 97.4834609,48.3019804 99.1913256,48.3019804 C100.661281,48.3019804 101.851158,47.4868529 102.145183,46.2924103 L103.713091,46.6015621 C103.307002,48.3723104 101.459181,49.5947517 99.1353763,49.5947517 C96.4476519,49.5947517 94.6137768,48.0489926 94.6137768,45.7584359" id="Fill-28" fill="#FFFFFF" mask="url(#mask-2)"></path>
                            <path d="M111.64519,45.1823136 C111.51918,43.917541 110.441201,43.1727434 109.013415,43.1727434 C107.599575,43.1727434 106.493539,44.0018702 106.353582,45.1823136 L111.64519,45.1823136 Z M104.589768,45.7022886 C104.589768,43.4818952 106.437589,41.9079708 109.055419,41.9079708 C111.617133,41.9079708 113.353055,43.4538966 113.367001,45.6601239 C113.367001,45.8427818 113.353055,46.0957697 113.311051,46.2644283 L106.367694,46.2644283 C106.5636,47.5010355 107.893599,48.3301624 109.545349,48.3301624 C110.875182,48.3301624 112.149232,47.8100207 112.737115,47.1215538 L113.619022,47.9506806 C112.877071,48.9203007 111.225156,49.5947683 109.447396,49.5947683 C106.619549,49.5947683 104.589768,47.9928453 104.589768,45.7022886 L104.589768,45.7022886 Z" id="Fill-29" fill="#FFFFFF" mask="url(#mask-2)"></path>
                            <path d="M121.427966,44.4515487 L119.95801,44.8450298 C119.860058,43.8050797 119.286121,43.2149414 118.460163,43.2149414 C117.228282,43.2149414 116.486332,44.2125601 116.486332,45.8428152 L116.486332,49.3278145 L114.82047,49.3278145 L114.82047,42.1749913 L116.220365,42.1749913 L116.430382,43.5240932 L116.444328,43.5240932 C116.906366,42.5263078 117.816165,41.9080041 118.922201,41.9080041 C120.307984,41.9080041 121.273898,42.8496256 121.427966,44.4515487" id="Fill-30" fill="#FFFFFF" mask="url(#mask-2)"></path>
                            <polygon id="Fill-31" fill="#FFFFFF" mask="url(#mask-2)" points="127.013897 49.3277978 127.013897 39.3646096 135.021287 39.3646096 135.021287 40.8962027 128.861884 40.8962027 128.861884 43.805063 134.195329 43.805063 134.195329 45.1823302 128.861884 45.1823302 128.861884 49.3277978"></polygon>
                            <path d="M135.577327,46.5172828 L135.591273,42.1749913 L137.271246,42.1749913 L137.271246,46.2361296 C137.271246,47.5009022 138.069146,48.2738651 139.413091,48.2738651 C141.078952,48.2738651 142.128707,47.290079 142.128707,45.7303206 L142.128707,42.1749913 L143.794734,42.1749913 L143.794734,49.3278145 L142.338724,49.3278145 L142.142819,47.8522187 L142.128707,47.8522187 C141.526878,48.9343334 140.336835,49.5808023 138.797151,49.5808023 C136.795261,49.5808023 135.577327,48.4283577 135.577327,46.5172828" id="Fill-32" fill="#FFFFFF" mask="url(#mask-2)"></path>
                            <path d="M153.622236,44.9855563 L153.60829,49.3278478 L151.928317,49.3278478 L151.928317,45.2665428 C151.928317,44.0019369 151.130417,43.228974 149.786638,43.228974 C148.120611,43.228974 147.070856,44.2125935 147.070856,45.7725186 L147.070856,49.3278478 L145.404995,49.3278478 L145.404995,42.1750246 L146.860838,42.1750246 L147.056744,43.6506205 L147.070856,43.6506205 C147.672684,42.5685057 148.862727,41.9220368 150.402412,41.9220368 C152.404301,41.9220368 153.622236,43.0744815 153.622236,44.9855563" id="Fill-33" fill="#FFFFFF" mask="url(#mask-2)"></path>
                            <path d="M162.376142,45.7584359 C162.376142,44.3251714 161.186265,43.2992207 159.450343,43.2992207 C157.714587,43.2992207 156.510598,44.3251714 156.510598,45.7584359 C156.510598,47.1918671 157.714587,48.2176511 159.450343,48.2176511 C161.186265,48.2176511 162.376142,47.1918671 162.376142,45.7584359 M154.844736,45.7584359 C154.844736,43.4818786 156.510598,41.9221201 158.932355,41.9221201 C160.45826,41.9221201 161.718199,42.5825884 162.292135,43.6787024 L162.306081,43.6787024 L162.306081,38.9429299 L164,38.9429299 L164,49.3277645 L162.544156,49.3277645 L162.348085,47.82417 L162.334139,47.82417 C161.746256,48.9202841 160.486318,49.5807523 158.946301,49.5807523 C156.524543,49.5807523 154.844736,48.0349932 154.844736,45.7584359" id="Fill-34" fill="#FFFFFF" mask="url(#mask-2)"></path>
                            <path d="M44.3149127,46.6474599 C42.9834191,49.865472 41.1988524,52.238858 38.8594414,53.9032781 C36.5565552,55.5415328 33.7029751,56.5038199 30.135502,56.8448035 C28.0824783,57.0411274 26.2583985,57.1452891 24.5598311,57.1632882 C22.8612636,57.1452891 21.0371838,57.0411274 18.9841601,56.8448035 C15.416687,56.5038199 12.563107,55.5415328 10.2602207,53.9032781 C7.9208097,52.238858 6.13624303,49.865472 4.80474943,46.6474599 C4.32146042,45.479516 3.89677705,44.2475751 3.5305333,42.9546372 C5.09628344,43.8489276 6.89230561,44.2885731 8.97986178,44.2885731 L8.97986178,44.2885731 C11.6682503,44.2885731 13.87501,43.5629413 15.7263174,42.0703463 C16.6326295,41.3392148 17.372588,40.4687566 17.9956672,39.4934701 C18.8161462,41.1287249 19.8871518,43.008468 21.5579937,43.8995918 C23.4723893,44.9205428 25.664041,43.8260954 27.2615013,42.7039826 C28.1437403,42.084179 28.8406992,41.5947025 29.9329556,41.5947025 C31.0041273,41.5947025 31.6145888,42.0758461 32.3874196,42.6846502 C33.2945619,43.3994492 34.4235091,44.2890731 36.3726032,44.2890731 C40.052639,44.2890731 41.7078748,40.8937362 41.7078748,38.482852 L39.6604959,38.482852 C39.6604959,39.932949 38.7679635,42.2340051 36.3726032,42.2340051 C35.1310933,42.2340051 34.4781302,41.7193632 33.6515084,41.0680611 C32.7423739,40.3515955 31.7117115,39.5396345 29.9329556,39.5396345 C28.1957051,39.5396345 27.0760551,40.3260968 26.0878943,41.0198968 C25.1741112,41.6616993 24.1080862,42.3603324 22.9321548,42.2205058 C22.603266,42.1815077 22.3240176,42.021682 22.0680122,41.8201917 C21.4851102,41.3612137 21.0424965,40.7129115 20.6543379,40.0887748 C20.0852157,39.1738188 19.6160385,38.1970323 19.1923513,37.2072465 C20.0115021,35.3130042 20.5982226,33.1869396 21.2013792,31.0005446 C23.3536838,23.1995859 23.2545689,16.1929224 20.9488603,13.1500685 C19.9794599,11.8707966 18.8627983,11.6023095 18.0969404,11.6023095 C16.8401566,11.6023095 15.7633402,12.1369505 14.9823744,13.1485686 C12.4448995,16.4360774 13.3158491,24.5166893 14.9770617,30.9827121 C15.2445226,32.0243288 15.6356695,33.4257615 16.1408734,34.9285226 C16.183873,35.0563498 16.3628444,35.060183 16.4106586,34.9340224 L16.8790057,33.6960818 C17.234292,32.7571269 17.2897432,31.7306762 17.034734,30.7593895 C17.0094987,30.6632275 16.9844294,30.5665654 16.9595261,30.4694034 C15.0838136,23.168754 14.9362204,16.5637379 16.6007534,14.4073415 C16.9957189,13.8955327 17.4710388,13.6573775 18.0969404,13.6573775 C18.5437047,13.6573775 18.9438169,13.8983659 19.3193578,14.3941754 C20.8514056,16.4160783 21.4766431,22.3036289 19.228378,30.4517376 C18.807015,31.9791643 18.3874783,33.4994246 17.8306417,34.98402 C17.2997045,36.399452 16.7332386,37.8143841 15.8196215,39.0291591 C15.4198414,39.5604669 14.9627838,40.05161 14.4441322,40.46809 C12.9504355,41.6725321 11.2141811,42.2335052 8.97986178,42.2335052 L8.97986178,42.2335052 C6.74537645,42.2335052 5.0092881,41.6725321 3.51542533,40.46809 C3.51276899,40.4659234 3.51011264,40.4637568 3.5074563,40.4617569 C3.03462665,40.0807752 2.72150983,39.5338015 2.61558802,38.9344969 C2.10274715,36.031803 1.8392708,32.8802877 1.82947552,29.49995 C1.84856801,22.8466028 2.84967854,17.0777132 4.80474943,12.3526068 C6.13624303,9.13459467 7.9208097,6.76120864 10.2602207,5.09678857 C12.563107,3.45853391 15.416687,2.49624679 18.9841601,2.15526317 C21.0371838,1.95893926 22.8612636,1.8547776 24.5598311,1.8366118 C26.2583985,1.8547776 28.0824783,1.95893926 30.135502,2.15526317 C33.7029751,2.49624679 36.5565552,3.45853391 38.8594414,5.09678857 C41.1988524,6.76120864 42.9834191,9.13459467 44.3149127,12.3526068 C46.2699836,17.0777132 47.2709281,22.8466028 47.2901866,29.49995 C47.2709281,36.1534638 46.2699836,41.9223534 44.3149127,46.6474599 M46.004515,11.6481406 C43.0664299,4.54748162 37.9420058,1.05681592 30.3089946,0.327017629 C28.3934369,0.143859758 26.4752228,0.019699054 24.5598311,3.33317325e-05 C22.6444393,0.019699054 20.7262252,0.143859758 18.8106675,0.327017629 C11.1776563,1.05681592 6.05323221,4.54748162 3.11514715,11.6481406 C0.862897503,17.0912126 0.017349262,23.2787488 8.30108229e-05,29.49995 C0.017349262,35.7213179 0.862897503,41.9088541 3.11514715,47.351926 C6.05323221,54.452585 11.1776563,57.9432507 18.8106675,58.673049 C20.7262252,58.8562069 22.6444393,58.9803676 24.5598311,59.0000333 C26.4752228,58.9803676 28.3934369,58.8562069 30.3089946,58.673049 C37.9420058,57.9432507 43.0664299,54.452585 46.004515,47.351926 C48.2567646,41.9088541 49.1023129,35.7213179 49.1195791,29.49995 C49.1023129,23.2787488 48.2567646,17.0912126 46.004515,11.6481406" id="Fill-35" fill="#FFFFFF" mask="url(#mask-2)"></path>
                        </g>
                    </g>
                </g>
            </g>
        </g>
    </g>
</svg>