<?xml version="1.0" encoding="UTF-8"?>
<svg width="120px" height="77px" viewBox="0 0 120 77" version="1.1" xmlns="http://www.w3.org/2000/svg" xmlns:xlink="http://www.w3.org/1999/xlink">
    <title>londoncf</title>
    <g id="Home" stroke="none" stroke-width="1" fill="none" fill-rule="evenodd">
        <g transform="translate(-397, -4085)" fill="#FFFFFF" fill-rule="nonzero" id="Clients">
            <g transform="translate(-1, 3720)">
                <g id="Group-6" transform="translate(121, 365)">
                    <g id="londoncf" transform="translate(277, 0)">
                        <path d="M120.001,0 L120.001,76.776128 L0,76.776128 L0,0 L120.001,0 Z M27.2350854,52.9371282 C24.4606808,52.9371282 22.0390767,54.606731 22.0390767,57.5555359 C22.0390767,60.5051408 24.4766808,62.1587436 27.2350854,62.1587436 C30.00629,62.1587436 32.427894,60.4867408 32.427894,57.5555359 C32.427894,54.606731 30.00629,52.9371282 27.2350854,52.9371282 Z M36.3079005,53.2243287 L33.2494954,53.2243287 L33.2494954,58.4323374 C33.2494954,61.2803421 35.2494954,62.1587436 37.8383031,62.1587436 C40.4279074,62.1587436 42.4279107,61.2803421 42.4279107,58.4323374 L42.4279107,53.2243287 L39.3679056,53.2243287 L39.3679056,57.8419364 C39.3679056,58.9363382 39.0991052,59.7107395 37.8383031,59.7107395 C36.578301,59.7107395 36.3079005,58.9363382 36.3079005,57.8419364 L36.3079005,53.2243287 Z M68.4575541,52.9371282 C65.9039498,52.9371282 64.1375469,55.0595318 64.1375469,57.5379359 C64.1375469,60.01634 65.9375499,62.1587436 68.4927542,62.1587436 C69.4999558,62.1587436 70.5607576,61.7683429 71.0975585,60.9075415 L71.1327586,60.9075415 L71.1327586,61.8683431 L74.1919637,61.8683431 L74.1919637,53.2243287 L71.1327586,53.2243287 L71.1327586,54.0675301 C70.4927575,53.3067288 69.4511558,52.9371282 68.4575541,52.9371282 Z M63.4351457,49.1475219 L60.3751406,49.1475219 L60.3751406,54.0675301 C59.7367396,53.3067288 58.6951378,52.9371282 57.7031362,52.9371282 C55.1479319,52.9371282 53.380729,55.0595318 53.380729,57.5379359 C53.380729,60.01634 55.179132,62.1587436 57.7359362,62.1587436 C58.7447379,62.1587436 59.8039397,61.7683429 60.3431406,60.9075415 L60.3751406,60.9075415 L60.3751406,61.8691431 L63.4351457,61.8691431 L63.4351457,49.1475219 Z M90.9839916,52.9371282 C88.207987,52.9371282 85.787983,54.606731 85.787983,57.5555359 C85.787983,60.5051408 88.224787,62.1587436 90.9839916,62.1587436 C93.7559963,62.1587436 96.1776003,60.4867408 96.1776003,57.5555359 C96.1776003,54.606731 93.7559963,52.9371282 90.9839916,52.9371282 Z M102.898411,52.9371282 C101.70321,52.9371282 100.846408,53.2907288 100.142407,54.3371306 L100.105607,54.3371306 L100.105607,53.2243287 L97.0488017,53.2243287 L97.0488017,61.8691431 L100.105607,61.8691431 L100.105607,57.3859356 C100.105607,56.3083338 100.460007,55.3819323 101.70321,55.3819323 C103.162293,55.3819323 103.090963,56.7254034 103.083677,57.5614289 L103.083212,61.8691431 L106.141617,61.8691431 L106.141617,56.5267342 C106.141617,54.4051307 105.219215,52.9371282 102.898411,52.9371282 Z M49.3831223,52.9371282 C48.1919203,52.9371282 47.3335189,53.2907288 46.6255177,54.3371306 L46.5919177,54.3371306 L46.5919177,53.2243287 L43.5335126,53.2243287 L43.5335126,61.8691431 L46.5919177,61.8691431 L46.5919177,57.3859356 C46.5919177,56.3083338 46.9471182,55.3819323 48.1919203,55.3819323 C49.646382,55.3819323 49.5771056,56.7254034 49.5699789,57.5614289 L49.5695226,61.8691431 L52.6279277,61.8691431 L52.6279277,56.5267342 C52.6279277,54.4051307 51.7039262,52.9371282 49.3831223,52.9371282 Z M84.8311814,53.2251287 L81.7711763,53.2251287 L81.7711763,61.8691431 L84.8311814,61.8691431 L84.8311814,53.2251287 Z M21.5430759,49.1603219 L13.2958622,49.1603219 L13.2958622,61.8691431 L16.5894676,61.8691431 L16.5894676,56.8803348 L21.1742753,56.8803348 L21.1742753,54.0811301 L16.5894676,54.0811301 L16.5894676,51.9571266 L21.5430759,51.9571266 L21.5430759,49.1603219 Z M79.1471719,50.6267244 L76.0871668,50.6267244 L76.0871668,53.2243287 L75.0975652,53.2243287 L75.0975652,55.7515329 L76.0871668,55.7515329 L76.0871668,61.8691431 L79.1471719,61.8691431 L79.1471719,55.7515329 L80.8807748,55.7515329 L80.8807748,53.2243287 L79.1471719,53.2243287 L79.1471719,50.6267244 Z M90.9839916,55.5995327 C92.2255937,55.5995327 92.9479949,56.4931342 92.9479949,57.5555359 C92.9479949,58.6515378 92.2255937,59.4931392 90.9839916,59.4931392 C89.7391896,59.4931392 89.0159884,58.6515378 89.0159884,57.5555359 C89.0159884,56.4931342 89.7391896,55.5995327 90.9839916,55.5995327 Z M27.2350854,55.5995327 C28.4774875,55.5995327 29.1990887,56.4931342 29.1990887,57.5555359 C29.1990887,58.6515378 28.4774875,59.4931392 27.2350854,59.4931392 C25.9878833,59.4931392 25.2654821,58.6515378 25.2654821,57.5555359 C25.2654821,56.4931342 25.9878833,55.5995327 27.2350854,55.5995327 Z M69.2655554,55.5995327 C70.5087575,55.5995327 71.2327587,56.4931342 71.2327587,57.5555359 C71.2327587,58.6515378 70.5087575,59.4931392 69.2655554,59.4931392 C68.0231534,59.4931392 67.2983522,58.6515378 67.2983522,57.5555359 C67.2983522,56.4931342 68.0231534,55.5995327 69.2655554,55.5995327 Z M58.5095375,55.5995327 C59.7511396,55.5995327 60.4759408,56.4931342 60.4759408,57.5555359 C60.4759408,58.6515378 59.7511396,59.4931392 58.5095375,59.4931392 C57.2663354,59.4931392 56.5431342,58.6515378 56.5431342,57.5555359 C56.5431342,56.4931342 57.2663354,55.5995327 58.5095375,55.5995327 Z M83.3007788,48.1835203 C82.3599773,48.1835203 81.587176,48.9587216 81.587176,49.9011232 C81.587176,50.8459247 82.3599773,51.622726 83.3007788,51.622726 C84.2423804,51.622726 85.0167817,50.8459247 85.0167817,49.9011232 C85.0167817,48.9587216 84.2423804,48.1835203 83.3007788,48.1835203 Z M99.3728056,35.9715 L95.8423997,35.9715 L100.011207,43.4395124 L97.0712018,48.9355216 L100.499207,48.9355216 L107.408819,35.9715 L103.930413,35.9715 L101.678409,40.4051073 L99.3728056,35.9715 Z M19.2822721,31.5738926 C17.5006692,31.5738926 15.7022662,32.3490939 14.4590641,33.629896 C13.2486621,34.8746981 12.591861,36.5443009 12.591861,38.2803038 C12.591861,40.1691069 13.2318621,41.8211097 14.6286644,43.0851118 C15.9374666,44.2827138 17.6174694,44.9555149 19.3822723,44.9555149 C20.408674,44.9555149 21.1990753,44.7019145 22.2910772,44.3659139 L22.2910772,40.4051073 C21.603876,41.2315087 20.5254742,41.7547096 19.4510724,41.7547096 C17.399069,41.7547096 16.0214667,40.3051072 16.0214667,38.2963038 C16.0214667,36.3267005 17.384669,34.776298 19.3998723,34.776298 C20.5254742,34.776298 21.620676,35.2642988 22.2910772,36.1771003 L22.2910772,32.2146937 C21.3174755,31.809893 20.3422739,31.5738926 19.2822721,31.5738926 Z M28.4414874,35.6858995 C25.6678828,35.6858995 23.2470787,37.3547023 23.2470787,40.3051072 C23.2470787,43.2539121 25.6854828,44.9051148 28.4414874,44.9051148 C31.215092,44.9051148 33.6358961,43.2371121 33.6358961,40.3051072 C33.6358961,37.3547023 31.215092,35.6858995 28.4414874,35.6858995 Z M68.6583544,35.9715 L65.5959493,35.9715 L65.5959493,41.1811086 C65.5959493,44.0299134 67.6015527,44.9059148 70.187157,44.9059148 C72.7767613,44.9059148 74.7751646,44.0299134 74.7751646,41.1811086 L74.7751646,35.9715 L71.7159595,35.9715 L71.7159595,40.5907077 C71.7159595,41.6875095 71.4479591,42.4627108 70.187157,42.4627108 C68.9271549,42.4627108 68.6583544,41.6875095 68.6583544,40.5907077 L68.6583544,35.9715 Z M46.0223167,35.6850995 C44.8479147,35.6850995 43.6887128,36.2587004 43.0975118,37.3371022 C42.4767108,36.1907003 41.399109,35.6850995 40.1559069,35.6850995 C39.0447051,35.6850995 38.1559036,36.0891001 37.4319024,37.0499017 L37.3991023,37.0499017 L37.3991023,35.9715 L34.3374972,35.9715 L34.3374972,44.6179144 L37.3991023,44.6179144 L37.3997221,40.2583626 C37.4071591,39.3127458 37.503841,38.0619034 38.7607046,38.0619034 C40.0699376,38.0619034 40.1202927,39.4191542 40.1222294,40.3748625 L40.1223069,44.6179144 L43.180712,44.6179144 L43.180712,40.4875075 C43.180712,39.4595058 43.2311121,38.1299035 44.6431144,38.1299035 C45.8354364,38.1299035 45.9017059,39.3703895 45.9046782,40.2634581 L45.9047165,44.6179144 L48.9647216,44.6179144 L48.9647216,39.1099052 C48.9647216,37.1171019 48.2103203,35.6850995 46.0223167,35.6850995 Z M89.0391884,35.9715 L85.9831833,35.9715 L85.9831833,44.6179144 L89.0391884,44.6179144 L89.0391884,35.9715 Z M93.9815966,33.3778956 L90.9239915,33.3778956 L90.9239915,35.9715 L89.9319899,35.9715 L89.9319899,38.5019042 L90.9239915,38.5019042 L90.9239915,44.6179144 L93.9815966,44.6179144 L93.9815966,38.5019042 L95.7135995,38.5019042 L95.7135995,35.9715 L93.9815966,35.9715 L93.9815966,33.3778956 Z M61.6343427,35.6850995 C60.4591408,35.6850995 59.2999388,36.2587004 58.7103378,37.3371022 C58.0879368,36.1907003 57.011935,35.6850995 55.7671329,35.6850995 C54.6575311,35.6850995 53.7695296,36.0891001 53.0439284,37.0499017 L53.0135284,37.0499017 L53.0135284,35.9715 L49.9511233,35.9715 L49.9511233,44.6179144 L53.0135284,44.6179144 L53.0135284,40.4875075 C53.0135284,39.5299059 53.0135284,38.0619034 54.3727306,38.0619034 C55.6827328,38.0619034 55.7331175,39.4191542 55.7350554,40.3748625 L55.7351329,44.6179144 L58.795138,44.6179144 L58.795138,40.4875075 C58.795138,39.4595058 58.8439381,38.1299035 60.2575404,38.1299035 C61.4461824,38.1299035 61.514866,39.3703895 61.5182481,40.2634581 L61.5183425,44.6179144 L64.5759476,44.6179144 L64.5759476,39.1099052 C64.5759476,37.1171019 63.8199464,35.6850995 61.6343427,35.6850995 Z M81.6455761,35.6850995 C80.4543741,35.6850995 79.5975727,36.0387001 78.8919715,37.0835018 L78.8583714,37.0835018 L78.8583714,35.9715 L75.7991663,35.9715 L75.7991663,44.6179144 L78.8583714,44.6179144 L78.8583714,40.1371069 C78.8583714,39.0563051 79.209572,38.1299035 80.4543741,38.1299035 C81.687028,38.1299035 81.8260658,39.0923282 81.8352892,39.895411 L81.8353103,40.1096402 C81.8344356,40.2139367 81.8327764,40.3133739 81.8327764,40.4051073 L81.8327764,44.6179144 L84.8927815,44.6179144 L84.8927815,39.2763055 C84.8927815,37.1515019 83.9679799,35.6850995 81.6455761,35.6850995 Z M28.4414874,38.3483039 C29.6862895,38.3483039 30.4094907,39.2411054 30.4094907,40.3051072 C30.4094907,41.401109 29.6862895,42.2427104 28.4414874,42.2427104 C27.1974853,42.2427104 26.4742841,41.401109 26.4742841,40.3051072 C26.4742841,39.2411054 27.1974853,38.3483039 28.4414874,38.3483039 Z M87.5127859,30.9330916 C86.5695843,30.9330916 85.794383,31.7082928 85.794383,32.6522944 C85.794383,33.595496 86.5695843,34.3706973 87.5127859,34.3706973 C88.4535874,34.3706973 89.2263887,33.595496 89.2263887,32.6522944 C89.2263887,31.7082928 88.4535874,30.9330916 87.5127859,30.9330916 Z M37.6583028,18.4362707 C34.8518981,18.4362707 32.8854948,20.1706736 32.8854948,23.0530784 C32.8854948,26.0386834 35.0174984,27.6538861 37.8775031,27.6538861 C38.8695048,27.6538861 39.8447064,27.4186857 40.6351077,26.9314849 C41.425509,26.4418841 42.03031,25.6994828 42.2655104,24.6866811 L39.3215055,24.6866811 C38.987105,25.2618821 38.5127042,25.4802825 37.8591031,25.4802825 C36.599101,25.4802825 35.9422999,24.8050813 35.9422999,23.5570793 L42.3815106,23.5570793 L42.3815106,23.2370787 C42.3815106,20.2882738 40.6511078,18.4362707 37.6583028,18.4362707 Z M59.6191394,18.4434707 C56.8487347,18.4434707 54.4319307,20.1098735 54.4319307,23.0554784 C54.4319307,26.0018833 56.8663348,27.6514861 59.6191394,27.6514861 C62.389544,27.6514861 64.807148,25.9850833 64.807148,23.0554784 C64.807148,20.1098735 62.389544,18.4434707 59.6191394,18.4434707 Z M85.2383821,14.6426644 L82.182377,14.6426644 L82.182377,19.5714726 C81.5447759,18.8138714 80.5039742,18.4434707 79.5127725,18.4434707 C76.9615683,18.4434707 75.1991653,20.5650743 75.1991653,23.0386784 C75.1991653,25.5138825 76.9951683,27.6514861 79.5463726,27.6514861 C80.5543743,27.6514861 81.611976,27.2642854 82.1495769,26.405884 L82.182377,26.405884 L82.182377,27.3650856 L85.2383821,27.3650856 L85.2383821,14.6426644 Z M91.174392,18.4434707 C88.4047873,18.4434707 85.9871833,20.1098735 85.9871833,23.0554784 C85.9871833,26.0018833 88.4215874,27.6514861 91.174392,27.6514861 C93.9447966,27.6514861 96.3624006,25.9850833 96.3624006,23.0554784 C96.3624006,20.1098735 93.9447966,18.4434707 91.174392,18.4434707 Z M22.0814768,14.6594644 L13.3374622,14.6594644 L13.3374622,17.4570691 L16.0614668,17.4570691 L16.0614668,27.3690856 L19.3574723,27.3690856 L19.3574723,17.4570691 L22.0814768,17.4570691 L22.0814768,14.6594644 Z M26.0654834,14.6450644 L23.0070783,14.6450644 L23.0070783,27.3690856 L26.0654834,27.3690856 L26.0654834,22.9338782 C26.0654834,21.9226765 26.4542841,20.8770748 27.6638861,20.8770748 C28.8902882,20.8770748 29.0422884,21.9226765 29.0422884,22.9338782 L29.0422884,27.3690856 L32.1014935,27.3690856 L32.1014935,22.0746768 C32.1014935,19.8850731 31.0446917,18.4362707 28.8566881,18.4362707 C27.6638861,18.4362707 26.8070847,18.8738715 26.0990835,19.817073 L26.0654834,19.817073 L26.0654834,14.6450644 Z M50.1191235,14.6730645 L46.828718,14.6730645 L46.828718,27.3650856 L54.0639301,27.3650856 L54.0639301,24.570681 L50.1191235,24.570681 L50.1191235,14.6730645 Z M102.880811,18.4434707 C101.688009,18.4434707 100.831208,18.7970713 100.127207,19.8410731 L100.093607,19.8410731 L100.093607,18.7298712 L97.0384017,18.7298712 L97.0384017,27.3650856 L100.093607,27.3650856 L100.093607,22.8874781 C100.093607,21.8106764 100.445607,20.8842748 101.688009,20.8842748 C102.91936,20.8842748 103.058156,21.8456372 103.067335,22.6478938 L103.067348,22.8619044 C103.066471,22.9660956 103.064812,23.065434 103.064812,23.1570786 L103.064812,27.3650856 L106.120017,27.3650856 L106.120017,22.0290767 C106.120017,19.9082732 105.196815,18.4434707 102.880811,18.4434707 Z M71.3239589,18.4434707 C70.1319569,18.4434707 69.2759555,18.7970713 68.5711543,19.8410731 L68.5375542,19.8410731 L68.5375542,18.7298712 L65.4815491,18.7298712 L65.4815491,27.3650856 L68.5375542,27.3650856 L68.5375542,22.8874781 C68.5375542,21.8106764 68.8903548,20.8842748 70.1319569,20.8842748 C71.6431594,20.8842748 71.5079592,22.3322772 71.5079592,23.1570786 L71.5079592,27.3650856 L74.5639643,27.3650856 L74.5639643,22.0290767 C74.5639643,19.9082732 73.6399627,18.4434707 71.3239589,18.4434707 Z M59.6191394,21.1034752 C60.8615414,21.1034752 61.5831426,21.9954767 61.5831426,23.0554784 C61.5831426,24.1498802 60.8615414,24.9914817 59.6191394,24.9914817 C58.3767373,24.9914817 57.6551361,24.1498802 57.6551361,23.0554784 C57.6551361,21.9954767 58.3767373,21.1034752 59.6191394,21.1034752 Z M80.3191739,21.1034752 C81.5615759,21.1034752 82.2831771,21.9954767 82.2831771,23.0554784 C82.2831771,24.1498802 81.5615759,24.9914817 80.3191739,24.9914817 C79.0759718,24.9914817 78.3551706,24.1498802 78.3551706,23.0554784 C78.3551706,21.9954767 79.0759718,21.1034752 80.3191739,21.1034752 Z M91.174392,21.1034752 C92.417594,21.1034752 93.1391952,21.9954767 93.1391952,23.0554784 C93.1391952,24.1498802 92.417594,24.9914817 91.174392,24.9914817 C89.9327899,24.9914817 89.2103887,24.1498802 89.2103887,23.0554784 C89.2103887,21.9954767 89.9327899,21.1034752 91.174392,21.1034752 Z M37.809503,20.424274 C38.6327044,20.424274 39.3895056,20.9634749 39.5399059,21.7890763 L35.9943,21.7890763 C36.1783003,20.8954748 36.9183015,20.424274 37.809503,20.424274 Z" id="Combined-Shape"></path>
                    </g>
                </g>
            </g>
        </g>
    </g>
</svg>