<?xml version="1.0" encoding="UTF-8"?>
<svg width="156px" height="54px" viewBox="0 0 156 54" version="1.1" xmlns="http://www.w3.org/2000/svg" xmlns:xlink="http://www.w3.org/1999/xlink">
    <title>Logo</title>
    <g id="Exports" stroke="none" stroke-width="1" fill="none" fill-rule="evenodd">
        <g id="Clients" transform="translate(-1314, -373)" fill="#FFFFFF" fill-rule="nonzero">
            <g id="Logo" transform="translate(1314, 373)">
                <path d="M75.6879517,16.3833182 L75.6879517,23.8501074 C75.6879517,24.5667642 75.248273,25.0064428 74.6691368,25.0064428 C74.0900007,25.0064428 73.650322,24.5648273 73.650322,23.8501074 L73.650322,7.6497897 C73.650322,6.93313289 74.0900007,6.49345425 74.6691368,6.49345425 C75.248273,6.49345425 75.6879517,6.93313289 75.6879517,7.6497897 L75.6879517,14.3999221 L84.5047673,14.3999221 L84.5047673,7.6497897 C84.5047673,6.93313289 84.9463828,6.49345425 85.5235821,6.49345425 C86.1007814,6.49345425 86.5423969,6.93313289 86.5423969,7.6497897 L86.5423969,23.8501074 C86.5423969,24.5667642 86.1007814,25.0064428 85.5235821,25.0064428 C84.9463828,25.0064428 84.5047673,24.5648273 84.5047673,23.8501074 L84.5047673,16.3833182 L75.6879517,16.3833182 Z" id="Path"></path>
                <path d="M95.5800204,23.2167377 C96.6259519,23.2167377 97.3697255,22.8584093 97.8946281,22.389677 C98.1967862,22.1146358 98.5008811,21.893828 98.8863262,21.893828 C99.4364087,21.893828 99.7966741,22.2521564 99.7966741,22.8022389 C99.7966741,23.2709712 99.5487495,23.5731292 99.300825,23.793937 C98.3904772,24.6209977 97.0966211,25.1439635 95.609074,25.1439635 C91.8069191,25.1439635 89.7673526,22.0584654 89.7673526,18.3938311 C89.7673526,14.7291968 91.8069191,11.6436987 95.3049791,11.6436987 C98.8030391,11.6436987 100.869722,14.7291968 100.869722,18.3938311 C100.869722,19.000084 100.484277,19.3855292 99.8780243,19.3855292 L91.8320989,19.3855292 C92.02579,21.1771712 93.0717215,23.2148008 95.5800204,23.2148008 L95.5800204,23.2148008 L95.5800204,23.2167377 Z M98.8301558,17.4583034 C98.5822313,15.2269828 97.3426087,13.5728614 95.3030453,13.5728614 C93.2634756,13.5728614 92.0529067,15.2250458 91.8030453,17.4583034 L98.8301558,17.4583034 Z" id="Shape"></path>
                <path d="M107.124006,25.1459004 C104.534357,25.1459004 102.742715,23.6021829 102.742715,21.1229377 C102.742715,17.5687073 106.324062,17.0728583 108.913711,17.0728583 L110.759586,17.0728583 L110.759586,16.3562015 C110.759586,14.2895182 109.436677,13.5728614 107.838726,13.5728614 C106.240775,13.5728614 105.828213,14.2333478 105.330427,14.6207298 C105.109619,14.7853672 104.890748,14.8957711 104.586653,14.8957711 C104.090804,14.8957711 103.676305,14.5936131 103.676305,13.9854233 C103.676305,13.5457446 103.869996,13.2958832 104.145038,13.0208419 C105.136736,12.0833774 106.486762,11.6436987 108.003363,11.6436987 C110.647246,11.6436987 112.742982,13.0208419 112.742982,16.2729143 L112.742982,21.5083828 C112.742982,22.5562513 113.047077,23.0792171 113.65333,23.0792171 C114.313817,23.0792171 114.755432,23.5188957 114.755432,24.0437984 C114.755432,24.5687011 114.315754,25.0083797 113.65333,25.0083797 C112.303304,25.0083797 111.394893,24.4021268 110.980394,23.1353875 C110.290854,24.3207766 108.996998,25.1459004 107.124006,25.1459004 L107.124006,25.1459004 L107.124006,25.1459004 Z M108.913711,19.0020209 C107.261526,19.0020209 104.753227,19.0562544 104.753227,21.1519913 C104.753227,22.4749011 105.744926,23.2186746 107.205356,23.2186746 C109.463793,23.2186746 110.759586,21.5103197 110.759586,19.3332326 L110.759586,19.0020209 L108.913711,19.0020209 L108.913711,19.0020209 Z" id="Shape"></path>
                <path d="M117.345081,21.5083828 L117.345081,7.62267295 C117.345081,6.93313289 117.78476,6.49345425 118.336779,6.49345425 C118.888799,6.49345425 119.328477,6.93313289 119.328477,7.62267295 L119.328477,21.5083828 C119.328477,22.5562513 119.632572,23.0792171 120.238825,23.0792171 C120.899312,23.0792171 121.340927,23.5188957 121.340927,24.0437984 C121.340927,24.5687011 120.901249,25.0083797 120.238825,25.0083797 C118.145025,25.0083797 117.345081,23.5208326 117.345081,21.5083828 L117.345081,21.5083828 Z" id="Path"></path>
                <path d="M126.932787,20.7374925 C126.932787,22.6666552 127.622327,23.2167377 128.668259,23.2167377 C129.274512,23.2167377 129.522436,23.0249836 129.964052,23.0249836 C130.570305,23.0249836 130.901516,23.383312 130.901516,23.9062778 C130.901516,24.8166256 129.909818,25.1459004 128.724429,25.1459004 C125.99726,25.1459004 124.949391,23.4375455 124.949391,20.8478964 L124.949391,13.904073 L123.653598,13.904073 C122.993112,13.904073 122.551496,13.4624575 122.551496,12.9394917 C122.551496,12.4165259 122.991175,11.9749104 123.653598,11.9749104 L124.949391,11.9749104 L124.949391,9.1373368 C124.949391,8.44779674 125.391007,8.0081181 125.941089,8.0081181 C126.491172,8.0081181 126.932787,8.44973365 126.932787,9.1373368 L126.932787,11.9749104 L129.522436,11.9749104 C130.182923,11.9749104 130.624538,12.4165259 130.624538,12.9394917 C130.624538,13.4624575 130.18486,13.904073 129.522436,13.904073 L126.932787,13.904073 L126.932787,20.7374925 L126.932787,20.7374925 L126.932787,20.7374925 Z" id="Path"></path>
                <path d="M138.807984,11.6456356 C142.05812,11.6456356 143.739358,13.8498395 143.739358,17.4873571 L143.739358,23.9333945 C143.739358,24.5667642 143.297742,25.0083797 142.74766,25.0083797 C142.197577,25.0083797 141.755962,24.5667642 141.755962,23.9333945 L141.755962,17.5687073 C141.755962,14.6207298 140.433052,13.5747983 138.670464,13.5747983 C136.907878,13.5747983 135.391274,15.2560364 135.391274,17.4602403 L135.391274,23.9353314 C135.391274,24.5687011 134.922542,25.0103166 134.399576,25.0103166 C133.849494,25.0103166 133.407878,24.5687011 133.407878,23.9353314 L133.407878,7.57037637 C133.407878,6.93700671 133.849494,6.49539116 134.399576,6.49539116 C134.949659,6.49539116 135.391274,6.9350698 135.391274,7.57037637 L135.391274,13.5225017 C136.162165,12.3371126 137.320437,11.6495094 138.807984,11.6495094 L138.807984,11.6456356 L138.807984,11.6456356 Z" id="Path"></path>
                <path d="M154.070837,12.6373337 C154.235475,12.1686014 154.510516,11.7831563 155.089652,11.7831563 C155.668788,11.7831563 156,12.1414847 156,12.7206208 C156,12.8852582 155.972883,13.1331827 155.889596,13.3811073 L151.233264,25.4480584 C150.654128,26.9356055 149.414505,28.7001308 147.541513,29.6085417 C147.210301,29.7731791 146.93526,29.9106997 146.576931,29.9106997 C145.970679,29.9106997 145.61235,29.5252545 145.61235,29.0022888 C145.61235,28.5606732 145.833158,28.2585152 146.24572,28.0648242 C148.118712,27.18353 148.889602,25.9439074 149.414505,24.6752312 L149.689546,23.9585744 L145.585233,13.3791703 C145.501946,13.1312458 145.474829,12.8833213 145.474829,12.7186839 C145.474829,12.1395478 145.833158,11.7812193 146.385177,11.7812193 C146.964313,11.7812193 147.239355,12.1666645 147.403992,12.6353968 L150.737415,21.4522124 L154.070837,12.6353968 L154.070837,12.6353968 L154.070837,12.6373337 Z" id="Path"></path>
                <path d="M87.2590537,35.1868433 C87.534095,34.6367608 87.8924234,34.3888363 88.3069222,34.3888363 C88.8570047,34.3888363 89.2986203,34.8013982 89.2986203,35.4638215 L89.2986203,51.7474263 C89.2986203,52.4640831 88.8570047,52.9037618 88.2798055,52.9037618 C87.7026062,52.9037618 87.2609906,52.4621462 87.2609906,51.7474263 L87.2609906,39.6514215 L82.4942544,48.9640862 C82.2192132,49.487052 81.8880015,49.7349765 81.4754396,49.7349765 C81.0628777,49.7349765 80.7316661,49.487052 80.4566248,48.9640862 L75.6898886,39.6514215 L75.6898886,51.7474263 C75.6898886,52.4640831 75.2502099,52.9037618 74.6710737,52.9037618 C74.0919376,52.9037618 73.6522589,52.4621462 73.6522589,51.7474263 L73.6522589,35.4638215 C73.6522589,34.8033351 74.0919376,34.3888363 74.643957,34.3888363 C75.0584558,34.3888363 75.4148473,34.6367608 75.6918255,35.1868433 L81.4773765,46.5100209 L87.2629276,35.1868433 L87.2590537,35.1868433 L87.2590537,35.1868433 Z" id="Path"></path>
                <path d="M93.0736584,35.8221499 C93.0736584,35.1326098 93.6527946,34.5554106 94.3403978,34.5554106 C95.0280009,34.5554106 95.6071371,35.1345467 95.6071371,35.8221499 C95.6071371,36.509753 95.0280009,37.0888892 94.3403978,37.0888892 C93.6527946,37.0888892 93.0736584,36.509753 93.0736584,35.8221499 Z M93.3486997,51.7745431 L93.3486997,40.8096939 C93.3486997,40.1201538 93.7903152,39.6804752 94.3403978,39.6804752 C94.8904803,39.6804752 95.3320958,40.1201538 95.3320958,40.8096939 L95.3320958,51.7745431 C95.3320958,52.4640831 94.8904803,52.9037618 94.3403978,52.9037618 C93.7903152,52.9037618 93.3486997,52.4621462 93.3486997,51.7745431 Z" id="Shape"></path>
                <path d="M104.644761,39.5410177 C107.894896,39.5410177 109.576134,41.7452216 109.576134,45.3827391 L109.576134,51.7745431 C109.576134,52.4640831 109.134519,52.9037618 108.584436,52.9037618 C108.034354,52.9037618 107.592738,52.4621462 107.592738,51.7745431 L107.592738,45.4660262 C107.592738,42.5180488 106.269828,41.4721172 104.50724,41.4721172 C102.744655,41.4721172 101.228051,43.1533553 101.228051,45.3575593 L101.228051,51.77648 C101.228051,52.46602 100.759318,52.9056987 100.236353,52.9056987 C99.6862702,52.9056987 99.2446546,52.4640831 99.2446546,51.77648 L99.2446546,40.8116308 C99.2446546,40.1220907 99.6862702,39.6824121 100.236353,39.6824121 C100.786435,39.6824121 101.228051,40.1220907 101.228051,40.8116308 L101.228051,41.4178837 C101.998941,40.2324946 103.157213,39.5448915 104.644761,39.5448915 L104.644761,39.5410177 L104.644761,39.5410177 Z" id="Path"></path>
                <path d="M117.951334,53.0412824 C114.507508,53.0412824 112.524112,49.9557843 112.524112,46.29115 C112.524112,42.6265158 114.507508,39.5410177 117.951334,39.5410177 C119.465998,39.5410177 120.845078,40.2305577 121.615968,41.4140099 L121.615968,35.518055 C121.615968,34.8285149 122.057584,34.3888363 122.607667,34.3888363 C123.157749,34.3888363 123.599365,34.8285149 123.599365,35.518055 L123.599365,51.7726061 C123.599365,52.4621462 123.159686,52.9018248 122.607667,52.9018248 C122.055647,52.9018248 121.615968,52.4602093 121.615968,51.7726061 L121.615968,51.1663532 C120.845078,52.3517423 119.465998,53.0393455 117.951334,53.0393455 L117.951334,53.0393455 L117.951334,53.0412824 Z M121.670202,46.29115 C121.670202,43.6182138 120.320176,41.4701803 118.088855,41.4701803 C115.857534,41.4701803 114.507508,43.5097468 114.507508,46.29115 C114.507508,49.0725532 115.857534,51.1121197 118.088855,51.1121197 C120.320176,51.1121197 121.670202,48.9621493 121.670202,46.29115 L121.670202,46.29115 Z" id="Shape"></path>
                <path d="M126.959904,51.5266185 C126.684863,51.2515773 126.545405,50.9203656 126.545405,50.589154 C126.545405,50.0661882 126.903734,49.7078598 127.426699,49.7078598 C127.949665,49.7078598 128.19759,50.0100178 128.555918,50.3141127 C129.107938,50.782845 129.824594,51.1682901 131.064217,51.1682901 C132.910092,51.1682901 133.76427,50.3683462 133.76427,49.1577773 C133.76427,47.780634 132.551764,47.5327095 130.870526,47.1472644 C129.218341,46.7618192 126.903734,46.1284496 126.903734,43.3179927 C126.903734,41.0305017 128.501685,39.5429546 131.174621,39.5429546 C132.36001,39.5429546 133.570579,39.8451126 134.45381,40.4533024 C134.839255,40.7283437 135.08718,41.0324386 135.08718,41.5011709 C135.08718,42.0241366 134.785022,42.3824651 134.205885,42.3824651 C133.82044,42.3824651 133.516345,42.1907109 133.1309,41.9408495 C132.691222,41.6658082 132.139202,41.4178837 131.147504,41.4178837 C129.603787,41.4178837 128.889067,42.0241366 128.889067,43.2366425 C128.889067,44.4491483 129.659957,44.8617102 131.451599,45.276209 C133.10572,45.6616542 135.749603,46.2950238 135.749603,49.1887678 C135.749603,51.5866628 133.876611,53.0451562 131.176558,53.0451562 C129.384916,53.0451562 127.843135,52.4117865 126.961841,51.5304924 L126.961841,51.5266185 L126.959904,51.5266185 Z" id="Path"></path>
                <path d="M31.2223021,52.638405 C30.8426677,52.638405 30.4959607,52.3866067 30.3913676,52.0030985 C29.5158841,48.7936381 29.5972343,46.2620964 30.6063646,45.2316601 C31.6232425,44.1954131 33.2463733,44.1876654 34.8152707,44.1818547 C36.1226851,44.176044 37.4727116,44.1702333 38.1874315,43.5601065 L38.2184221,43.5116838 C38.477968,43.1727245 38.4895895,42.7388565 38.4954002,42.5296702 C38.543823,40.7147853 37.7090146,39.448046 37.701267,39.4364245 L37.6644657,39.3763803 C35.9851645,36.403223 33.6937996,35.4948121 32.6459311,35.2275184 C32.4929152,35.4153987 32.3340886,35.5994052 32.173325,35.777601 C31.1177089,36.9455579 29.8780863,37.8520319 28.4854478,38.4699063 L28.4467096,38.4873385 C22.7793101,41.0266278 15.2621613,38.3149534 11.7989657,34.1893345 C5.64927549,26.8639398 9.82138026,13.2416497 17.5167249,6.4082302 C18.3863976,5.63540299 26.3083607,-1.0818019 36.3938526,0.889972777 C45.5883657,2.68742553 52.3036337,10.7778998 53.9519444,17.4796094 C54.2521654,18.7017998 54.3896861,19.885252 54.5233329,21.0280291 C54.7906265,23.3348892 55.0676047,25.7211627 56.6965462,28.8608943 C57.1091081,29.6589013 57.5739666,30.3852427 57.9826547,31.02636 C59.0150279,32.6494908 59.9912306,34.1815869 58.6605733,35.2449506 C57.4519413,36.2134058 56.3440286,36.5581758 55.4530498,36.835154 C53.9674396,37.2980755 53.2875841,37.5091988 53.0377227,40.5850123 C52.7123218,44.5827951 52.4411543,45.2219755 51.8503967,45.8146701 C50.3686603,47.3002803 48.1993208,47.0291128 46.2837165,46.788936 C44.912384,46.616551 43.616591,46.4557874 43.1401111,47.0155545 C42.6190822,47.629555 42.8921866,49.2333168 43.8916323,51.4162147 C44.0891971,51.8481457 43.8993799,52.35949 43.4674489,52.5570548 C43.0355179,52.7546197 42.5241736,52.5648025 42.3266088,52.1328715 C40.961087,49.1519665 40.7964497,47.1124 41.8268859,45.8998941 C42.905745,44.6312179 44.7322514,44.8597733 46.4967766,45.0805811 C48.0947276,45.2800829 49.7449752,45.4873323 50.6301432,44.6002273 C50.829645,44.4007256 51.0523896,43.7576714 51.3196833,40.4474917 C51.6392735,36.5058792 52.9602463,35.8085915 54.9397686,35.192654 C55.7668293,34.935045 56.6210067,34.6696883 57.5720297,33.9123563 C57.566219,33.5830816 56.9696506,32.6436801 56.529972,31.95414 C56.1019148,31.2820322 55.6176872,30.5208264 55.168324,29.6550275 C53.3941142,26.2344439 53.0861455,23.5750661 52.814978,21.2275308 C52.6832681,20.0866907 52.5573689,19.0097686 52.2823277,17.8921713 C50.7599162,11.7095537 44.5598663,4.24276449 36.0645778,2.58089546 C26.7945251,0.767947429 19.4671935,6.98155565 18.6614388,7.69627554 C15.0936501,10.8631239 12.2754456,15.6550399 11.122984,20.510874 C9.90660431,25.6359387 10.6155135,30.1005169 13.1199385,33.0814218 C16.1802567,36.726687 22.7870578,39.1381403 27.7455481,36.9145673 L27.7881601,36.8951982 C28.8728299,36.4129075 29.8490327,35.7214306 30.6973994,34.8381995 C22.4480985,32.9748918 16.6160616,28.3824775 15.6882815,22.9184535 C15.3435115,20.8846977 15.7347674,18.1478435 17.3908257,16.6234951 C19.3839064,14.7853672 22.1207606,14.4483448 24.9002269,15.695715 C25.0687381,15.7712546 25.2333755,15.8506679 25.394139,15.933955 C26.5679066,13.0673278 28.7508045,11.420954 31.5089648,11.420954 L31.6077472,11.420954 C33.5272253,11.4480708 35.1232394,12.6973779 36.0994422,14.94032 C38.133198,19.6063369 37.420415,28.0357705 33.7189794,33.7574035 C35.1890944,34.2706848 37.4591532,35.5161181 39.1539497,38.5028337 C39.3263347,38.7701274 40.2812315,40.3487092 40.2211873,42.5742192 C40.2115027,42.8996201 40.1901967,43.7557345 39.6091236,44.5304986 C39.558764,44.6041012 39.4541708,44.7435587 39.3089025,44.867521 C38.1138289,45.8863358 36.3667358,45.8940834 34.8268921,45.8998941 C33.6105125,45.9057049 32.3534577,45.9095787 31.8401765,46.4325445 C31.6445485,46.6320462 31.1118982,48.0808551 32.0551735,51.5459876 C32.1810727,52.0050354 31.9099052,52.4776415 31.4508575,52.6035407 C31.375318,52.6248467 31.2997785,52.6345312 31.224239,52.6345312 L31.224239,52.638405 L31.2223021,52.638405 Z M21.6326592,16.6777286 C20.6370873,16.6777286 19.5485437,16.9760128 18.5549088,17.8902344 C17.4334377,18.9245445 17.1157844,21.0590196 17.383078,22.6317908 C18.2236971,27.5786597 23.9104657,31.7565752 31.9195898,33.3409678 C35.5784133,28.153922 36.3899787,19.9298009 34.5169865,15.6298601 C33.8061404,13.9989816 32.8183162,13.1622364 31.5786936,13.1448042 C29.7425026,13.1215613 28.2995044,14.0493413 27.3136171,15.912649 C27.1470428,16.2283654 27.0017746,16.5537663 26.8797492,16.8791672 C28.4583311,18.0897362 29.4887674,19.6528228 29.4655244,20.9815432 C29.4480922,21.9325662 28.892199,22.7015196 27.9373022,23.0889016 C26.8991183,23.5111481 26.1146696,23.3697536 25.6401266,23.1760626 C24.2397405,22.606611 24.42181,19.7070563 24.7510848,18.0839254 C24.7840123,17.921225 24.8188767,17.7623983 24.8576149,17.6074455 C24.6426178,17.4854202 24.42181,17.3711425 24.1913177,17.2684862 C23.5637588,16.9856973 22.6456633,16.6777286 21.6326592,16.6777286 L21.6326592,16.6777286 Z M26.40908,21.6187867 C26.6511938,21.6749571 26.9456042,21.634282 27.2903742,21.4928876 C27.7029361,21.3243764 27.7416743,21.1248746 27.7455481,20.9505527 C27.7552327,20.3752903 27.2361407,19.5211129 26.387774,18.7269797 C26.1572817,20.0866907 26.2386319,21.2352785 26.4110169,21.6187867 L26.40908,21.6187867 L26.40908,21.6187867 Z" id="Shape"></path>
                <path d="M16.9666423,52.6926385 C16.5095315,52.6926385 16.1279602,52.3323732 16.1066542,51.8713886 C16.0156194,49.8899293 15.5120227,48.1195933 14.6113594,46.614614 C13.1838565,44.2244667 11.1810913,43.2385794 9.06211143,42.1945848 C7.36537801,41.3597764 5.61053728,40.4959144 4.03001849,38.8921527 C-0.209878143,34.5999595 -0.0510514987,28.2313985 0.0244880027,25.1710802 C0.264664879,15.5000871 6.78236801,6.05183871 15.8742249,2.19545031 C18.2353186,1.19406769 24.4314946,-1.43625648 30.447538,1.01587195 C41.9392267,5.69544721 43.5294301,13.6852022 44.8077909,20.1041229 C45.2687755,22.4206676 45.7045803,24.6093762 46.5490732,26.3719646 C46.8977171,27.1021798 47.2928468,27.7316756 47.6395537,28.2875689 C48.4085071,29.5175069 49.1329115,30.6796531 48.2613019,31.7294584 C46.5606947,33.7767726 45.6174194,34.0401924 44.2189701,34.2997384 C43.7076258,34.394647 43.1769124,34.4934294 42.4718771,34.7568492 C42.0283246,34.9234235 41.5305387,34.6987419 41.3639644,34.2532526 C41.1973901,33.8077632 41.4220717,33.3119142 41.867561,33.1453399 C42.7139908,32.8276866 43.3744772,32.7056612 43.9051907,32.6068788 C44.9646806,32.4112509 45.5476906,32.3027839 46.9383922,30.6292934 C46.9519506,30.4336655 46.5064612,29.7208825 46.1810603,29.1998536 C45.8285426,28.6362127 45.388864,27.9331143 44.9976081,27.1157381 C44.0582066,25.1575218 43.6030327,22.866157 43.120742,20.4392084 C41.8617503,14.1113224 40.4342474,6.94088053 29.8006099,2.60994912 C24.4489268,0.428988128 18.9326063,2.76877576 16.5792603,3.76822147 C8.05879189,7.38249608 1.97301976,16.1954379 1.75027507,25.2136922 C1.6805463,28.0357705 1.53527803,33.9084825 5.25995652,37.6815838 C6.63903665,39.0780961 8.18856488,39.8393018 9.8291279,40.6489303 C12.0798177,41.756843 14.4060469,42.9034939 16.0950327,45.729446 C17.1429012,47.4823499 17.7259112,49.5219164 17.8305043,51.7900383 C17.8518103,52.2645814 17.4857343,52.6674587 17.0111913,52.6907016 L16.9666423,52.6907016 L16.9666423,52.6926385 Z" id="Path"></path>
            </g>
        </g>
    </g>
</svg>