<?xml version="1.0" encoding="UTF-8"?>
<svg width="165px" height="61px" viewBox="0 0 165 61" version="1.1" xmlns="http://www.w3.org/2000/svg" xmlns:xlink="http://www.w3.org/1999/xlink">
    <title>stgc</title>
    <g id="Home" stroke="none" stroke-width="1" fill="none" fill-rule="evenodd">
        <g transform="translate(-669, -4089)" id="Clients">
            <g transform="translate(-1, 3720)">
                <g id="Group-6" transform="translate(121, 365)">
                    <g id="stgc" transform="translate(550, 5)">
                        <polygon id="Path" fill="#FFFFFF" opacity="0.3" points="74.5454545 0 74.5454545 60 73.3986014 60 73.3986014 0"></polygon>
                        <g id="Group-22">
                            <path d="M94.377649,3.83745761 L93.3563569,3.83745761 L93.3563569,3.33709834 C93.3563569,2.98263439 93.3358285,2.1904845 93.1695477,1.87814525 C92.814405,1.16921734 91.440023,0.917496558 90.6270951,0.917496558 C89.3358535,0.917496558 87.6484122,1.52368129 87.6484122,3.33709834 C87.6484122,4.63063493 88.3566448,5.40223617 90.7102355,6.50672531 C93.3984403,7.75813719 94.8364606,8.59241178 94.8364606,11.0531108 C94.8364606,13.0339993 93.6068044,14.9737904 90.2729788,14.9737904 C88.794928,14.9737904 87.3353528,14.6614512 85.9814993,14.0768425 L85.9814993,10.7191955 L87.0438483,10.7191955 L87.0438483,11.5329215 C87.0438483,12.72166 87.4605765,13.9936205 90.2524503,13.9936205 C92.6275958,13.9936205 93.5021092,12.5346674 93.5021092,11.1784575 C93.5021092,9.88492093 92.9396287,8.98900044 89.9814743,7.61326931 C87.8773048,6.63207199 86.3356157,5.65190209 86.3356157,3.58779169 C86.3356157,1.75177114 87.752081,0 90.6691785,0 C91.2111304,0 92.6070673,0.0637007689 94.377649,0.876399288 L94.377649,3.83745761 L94.377649,3.83745761 Z M99.7314774,2.31583118 L99.7314774,4.83920357 L102.398127,4.83920357 L102.398127,5.69402679 L99.7314774,5.69402679 L99.7314774,12.1997247 C99.7314774,12.9292012 99.7314774,13.9525233 100.793826,13.9525233 C101.584173,13.9525233 102.23082,13.5343585 102.62702,13.2846926 L102.62702,14.1600645 C102.252375,14.3902092 101.543116,14.8484437 100.43971,14.8484437 C98.5644332,14.8484437 98.5644332,13.2425679 98.5644332,12.2839741 L98.5644332,5.69402679 L97.3553055,5.69402679 L97.3553055,5.17209146 C98.8354091,4.62960749 99.0016898,3.06585636 99.0643017,2.31583118 L99.7314774,2.31583118 L99.7314774,2.31583118 Z M107.08478,13.9730719 C107.080871,14.4781614 106.672777,14.886655 106.168183,14.8905684 C105.663589,14.886655 105.255496,14.4781614 105.251587,13.9730719 C105.255496,13.4679824 105.663589,13.0594888 106.168183,13.0555753 C106.672777,13.0594888 107.080871,13.4679824 107.08478,13.9730719 M99.12794,27.7581238 L99.12794,28.4670517 L98.5439047,28.4670517 C97.6273079,28.4670517 97.6273079,28.6345231 97.6273079,29.6352416 L97.6273079,33.3062552 C96.2108425,34.2648491 94.5028727,34.7652083 92.7723216,34.7652083 C88.4192567,34.7652083 86.0225563,31.4291374 86.0225563,27.3204378 C86.0225563,22.9209751 88.7733731,19.7924454 93.2106047,19.7924454 C93.586276,19.7924454 95.6904455,19.7924454 97.6478364,20.8979619 L97.6478364,23.8795689 L96.5865138,23.8795689 L96.5865138,23.2127657 C96.5865138,22.7124064 96.5865138,22.1277977 96.2323975,21.7322365 C95.6073051,21.0438572 94.1487564,20.81474 93.0864074,20.81474 C88.4202831,20.81474 87.4410745,24.7970654 87.4410745,27.2166672 C87.4410745,30.6791122 89.024847,33.7233925 92.8780433,33.7233925 C94.3581469,33.7233925 95.4410244,33.2857066 96.2960357,32.9096666 L96.2960357,29.802713 C96.2960357,28.6766478 96.2960357,28.4670517 95.2531888,28.4670517 L94.7533202,28.4670517 L94.7533202,27.7581238 L99.1289664,27.7581238 L99.12794,27.7581238 Z M108.480717,28.3006077 C108.43966,27.5711312 108.251824,25.1731055 105.85615,25.1731055 C104.709635,25.1731055 103.272641,25.7361381 102.897996,28.3006077 L108.481743,28.3006077 L108.480717,28.3006077 Z M102.752244,29.093785 C102.772772,30.1571769 102.793301,31.8462747 104.043485,32.9517913 C104.543354,33.3894772 105.231058,33.7018165 106.064515,33.7018165 C107.667789,33.7018165 108.980586,32.5552026 109.523564,32.0548434 L109.523564,33.2014572 C108.897445,33.7860659 107.897708,34.6819864 105.918762,34.6819864 C103.188474,34.6819864 101.543116,32.6600007 101.543116,29.6773663 C101.543116,25.4854447 104.085569,24.3593795 105.897207,24.3593795 C109.585149,24.3593795 109.689845,27.8218245 109.710373,29.093785 L102.751217,29.093785 L102.752244,29.093785 Z M113.751405,29.6352416 C113.751405,33.4942753 116.460138,33.7860659 117.1889,33.7860659 C118.271777,33.7860659 120.460113,33.2230333 120.460113,29.5109223 C120.460113,28.8636403 120.460113,25.2563274 117.084204,25.2563274 C116.334915,25.2563274 113.751405,25.63134 113.751405,29.6352416 M121.710298,29.260229 C121.710298,31.9510728 120.751618,33.0555619 120.001302,33.6812678 C119.084705,34.431293 118.022356,34.6819864 117.063676,34.6819864 C114.855837,34.6819864 112.521749,33.3689286 112.521749,29.719491 C112.521749,25.9231306 114.751142,24.3593795 117.209428,24.3593795 C120.563782,24.3593795 121.710298,26.9875499 121.710298,29.260229 M126.459563,24.6306215 C126.605315,25.2357788 126.625843,25.5070208 126.646372,26.4029413 L126.687429,26.4029413 C127.375133,25.0056341 128.563732,24.4426015 129.541914,24.4426015 C129.980198,24.4426015 130.250147,24.5473995 130.500595,24.6306215 L130.500595,26.2991707 L129.72975,26.2991707 L129.72975,25.902582 C129.72975,25.6529161 129.72975,25.2984521 129.084129,25.2984521 C128.396425,25.2984521 126.667927,26.278622 126.667927,29.8859349 L126.667927,32.9096666 C126.667927,33.7233925 126.770569,33.7233925 127.584524,33.7233925 L127.896556,33.7233925 L127.896556,34.3912232 L124.39645,34.3912232 L124.39645,33.7233925 L124.708483,33.7233925 C125.584023,33.7233925 125.541939,33.5764698 125.541939,32.534654 L125.541939,26.633086 C125.541939,25.7566867 125.582996,25.4854447 124.979459,25.4854447 C124.750566,25.4854447 124.542202,25.5059934 124.188086,25.5481181 L124.188086,24.9018635 L126.459563,24.6306215 L126.459563,24.6306215 Z M133.188799,28.0303932 C133.188799,29.4071517 133.958618,30.8250076 135.771283,30.8250076 C138.000676,30.8250076 138.375321,29.0095356 138.375321,28.0098445 C138.375321,27.0286472 137.980147,25.1309808 135.750754,25.1309808 C134.395874,25.1309808 133.187773,25.9231306 133.187773,28.0303932 L133.188799,28.0303932 Z M132.916797,35.0374778 C132.459012,35.3703656 132.292731,35.7669543 132.292731,36.1840916 C132.292731,37.6224961 134.333262,38.081758 135.646059,38.081758 C136.646822,38.081758 139.313472,37.7478427 139.313472,35.9344257 C139.313472,34.4323205 137.583948,34.3901957 135.646059,34.3901957 C134.021229,34.3901957 133.459775,34.619313 132.916797,35.0374778 L132.916797,35.0374778 Z M140.563657,25.6107914 L138.604213,25.6107914 C138.938828,26.0279287 139.438696,26.633086 139.438696,27.9461438 C139.438696,28.988987 139.042496,30.3030722 138.022231,30.9914515 C137.458724,31.3870127 136.896244,31.5339355 135.54239,31.6377061 C134.625793,31.699352 133.438221,31.7836014 133.438221,32.5552026 C133.438221,33.1809086 134.771546,33.2641305 135.188274,33.2846792 C138.625768,33.4521506 140.438433,33.5353725 140.438433,35.704281 C140.438433,38.6447907 136.646822,38.9160326 135.54239,38.9160326 C133.292468,38.9160326 131.208827,38.1023067 131.208827,36.3299869 C131.208827,34.8494577 132.750516,34.2853977 133.479277,34.0357318 L133.479277,33.9946345 C133.125161,33.8898365 132.375872,33.6401706 132.375872,32.8264446 C132.375872,32.2418359 132.7926,31.5339355 134.000701,31.2205688 C133.125161,30.7623342 132.062812,29.8643589 132.062812,28.0088171 C132.062812,26.173824 133.312997,24.3593795 135.791811,24.3593795 C136.563682,24.3593795 136.938327,24.5052748 137.334527,24.6306215 L140.563657,24.6306215 L140.563657,25.6107914 L140.563657,25.6107914 Z M149.62493,28.3006077 C149.583873,27.5711312 149.396037,25.1731055 147.000363,25.1731055 C145.853847,25.1731055 144.416853,25.7361381 144.041182,28.3006077 L149.62493,28.3006077 Z M143.896456,29.093785 C143.916985,30.1571769 143.937513,31.8462747 145.187698,32.9517913 C145.687566,33.3894772 146.375271,33.7018165 147.208727,33.7018165 C148.813028,33.7018165 150.124798,32.5552026 150.667777,32.0548434 L150.667777,33.2014572 C150.041658,33.7860659 149.041921,34.6819864 147.061948,34.6819864 C144.333713,34.6819864 142.687329,32.6600007 142.687329,29.6773663 C142.687329,25.4854447 145.229781,24.3593795 147.04142,24.3593795 C150.729362,24.3593795 150.833031,27.8218245 150.854586,29.093785 L143.89543,29.093785 L143.896456,29.093785 Z M153.811714,23.3381123 C154.291054,23.1500923 155.04137,22.8377531 155.166594,21.6479871 C154.16583,21.7733338 153.958492,21.0017325 153.958492,20.7099419 C153.958492,20.1469093 154.394723,19.7924454 154.874063,19.7924454 C155.541238,19.7924454 155.978495,20.4181513 155.978495,21.2513984 C155.978495,22.1493738 155.478627,23.441883 153.81274,23.8805963 L153.81274,23.3381123 L153.811714,23.3381123 Z M163.478577,27.4879092 L162.624592,27.4879092 L162.624592,26.633086 C162.624592,26.3823926 162.624592,26.1327267 162.519896,25.9036094 C162.311532,25.4022227 161.394935,25.1309808 160.686703,25.1309808 C159.353378,25.1309808 158.62359,25.7782628 158.62359,26.716308 C158.62359,27.8423732 159.603825,28.3006077 160.895067,28.8225431 C162.436756,29.448249 164,30.0945036 164,31.8883994 C164,33.4726992 162.770344,34.6830138 160.332586,34.6830138 C159.937413,34.6830138 158.541476,34.5987644 157.374432,34.0768291 L157.374432,31.2832421 L158.333112,31.2832421 L158.333112,32.2839606 C158.333112,32.429856 158.333112,32.889118 158.45731,33.1387839 C158.74984,33.7018165 159.729049,33.9319612 160.354141,33.9319612 C160.833481,33.9319612 162.875039,33.8692878 162.875039,31.99217 C162.875039,31.1784441 162.374144,30.5537656 160.729813,29.8859349 C158.93665,29.1564584 157.541739,28.5513011 157.541739,26.9033005 C157.541739,25.6529161 158.374169,24.3593795 160.728786,24.3593795 C162.063138,24.3593795 162.832956,24.6727462 163.479603,24.9861129 L163.479603,27.4879092 L163.478577,27.4879092 Z M97.6067794,43.6298895 L96.502347,43.6298895 C96.4818185,42.4421784 96.4818185,42.2952557 96.4202331,42.0661384 C96.1061473,40.9195246 94.0645896,40.5856092 92.9611836,40.5856092 C89.5647461,40.5856092 87.5026599,43.0668569 87.5026599,47.1128832 C87.5026599,51.9305107 90.4608144,53.4315885 92.8770169,53.4315885 C95.2521624,53.4315885 96.8359349,52.2223013 97.6067794,51.6592687 L97.6067794,52.9312292 C96.7107111,53.5569352 95.2521624,54.5576537 92.8154314,54.5576537 C87.8988597,54.5576537 86.0851682,50.7201961 86.0851682,47.2382299 C86.0851682,43.0874056 88.5650089,39.5838633 93.044324,39.5838633 C94.648625,39.5838633 96.2108425,39.9804519 97.6067794,40.7520532 L97.6067794,43.6298895 L97.6067794,43.6298895 Z M102.459713,44.4230669 C102.606492,45.0271967 102.62702,45.2984387 102.647548,46.1953866 L102.688605,46.1953866 C103.37631,44.7980794 104.563882,44.2350468 105.543091,44.2350468 C105.981374,44.2350468 106.251324,44.3398449 106.501771,44.4230669 L106.501771,46.0905886 L105.730927,46.0905886 L105.730927,45.6950274 C105.730927,45.444334 105.730927,45.0898701 105.084279,45.0898701 C104.396575,45.0898701 102.668077,46.07004 102.668077,49.6783803 L102.668077,52.7021119 C102.668077,53.5148105 102.772772,53.5148105 103.584674,53.5148105 L103.897733,53.5148105 L103.897733,54.1826411 L100.397627,54.1826411 L100.397627,53.5148105 L100.70966,53.5148105 C101.585199,53.5148105 101.543116,53.3689152 101.543116,52.3260719 L101.543116,46.4245039 C101.543116,45.5491321 101.584173,45.2778901 100.980636,45.2778901 C100.751743,45.2778901 100.543379,45.2984387 100.189263,45.339536 L100.189263,44.6932814 L102.459713,44.4230669 L102.459713,44.4230669 Z M111.959268,44.4230669 L111.959268,45.0908975 L111.397814,45.0908975 C111.167895,45.0908975 110.834308,45.173092 110.834308,45.5070074 C110.834308,45.6744787 111.042672,46.1953866 111.126838,46.4039553 L113.397289,52.535668 L115.835046,45.9662693 C115.939741,45.6529027 115.959243,45.610778 115.959243,45.527556 C115.959243,45.0898701 115.418318,45.0898701 115.168897,45.0898701 L114.834283,45.0898701 L114.834283,44.4220394 L118.189663,44.4220394 L118.189663,45.0898701 L117.918687,45.0898701 C117.251511,45.0898701 117.085231,45.2152167 116.668503,46.3412819 L113.063701,55.9344122 C113.016712,56.0362103 112.975253,56.1404753 112.939504,56.2467515 C112.543304,57.3317194 112.02188,58.7701239 110.127101,58.7701239 C109.439397,58.7701239 109.043197,58.5831313 108.710636,58.4156599 L108.710636,56.7686868 L109.605678,56.7686868 C109.605678,57.5813854 109.605678,57.9985226 110.293382,57.9985226 C111.188424,57.9985226 111.709847,57.1858241 112.02188,56.2467515 C112.042409,56.1851056 112.084492,56.0381829 112.126576,55.9344122 L112.793751,54.1826411 L109.855099,46.4871772 C109.500983,45.527556 109.251562,45.0898701 108.543329,45.0898701 L108.230269,45.0898701 L108.230269,44.4220394 L111.959268,44.4220394 L111.959268,44.4230669 Z M123.125737,45.8614713 C122.042859,46.8416412 121.896081,48.6149884 121.896081,49.5109089 C121.896081,51.7424907 122.854761,53.5148105 124.938402,53.5148105 C127.4593,53.5148105 128.063864,51.0756875 128.063864,49.261243 C128.063864,47.2587785 127.291993,45.1525434 125.001014,45.1525434 C124.813178,45.1525434 123.855525,45.1936407 123.125737,45.8614713 L123.125737,45.8614713 Z M121.917636,44.4230669 C121.979221,45.1114461 121.979221,45.1936407 121.99975,45.8614713 C122.564283,45.2357654 123.479853,44.2350468 125.250435,44.2350468 C127.647135,44.2350468 129.292493,46.07004 129.292493,49.0526743 C129.292493,51.7630393 127.876028,54.432307 125.043097,54.432307 C123.188349,54.432307 122.417504,53.4521371 122.042859,52.9322567 L122.000776,52.9322567 L122.000776,56.8519088 C122.000776,57.8526273 122.000776,57.9574254 122.793176,57.9574254 L123.35463,57.9574254 L123.35463,58.60368 L119.708771,58.60368 L119.708771,57.9563979 L120.042359,57.9563979 C120.791648,57.9563979 120.875815,58.0406473 120.875815,56.6844374 L120.875815,46.3618306 C120.875815,45.527556 120.916872,45.2778901 120.396475,45.2984387 L119.563019,45.3189873 L119.563019,44.7148575 L121.917636,44.4230669 L121.917636,44.4230669 Z M134.063313,41.8996945 L134.063313,44.4230669 L136.729963,44.4230669 L136.729963,45.2778901 L134.063313,45.2778901 L134.063313,51.7846154 C134.063313,52.5140919 134.063313,53.5363865 135.125662,53.5363865 C135.916008,53.5363865 136.562656,53.1192492 136.957829,52.8685559 L136.957829,53.7449552 C136.584211,53.9740725 135.874951,54.4333345 134.771546,54.4333345 C132.896269,54.4333345 132.896269,52.8264312 132.896269,51.8678374 L132.896269,45.2778901 L131.687141,45.2778901 L131.687141,44.7559547 C133.167245,44.2144982 133.333525,42.6497196 133.396137,41.8996945 L134.063313,41.8996945 Z" id="Shape" fill="#FFFFFF"></path>
                            <path d="M30.2929173,0.895998693 L30.2431809,0.972030938 L30.223,1.00251126 L30.2746473,0.923966311 L30.224,1.00251126 L30.2055519,1.03070477 L30.1681033,1.08920718 C25.8773791,7.81888368 26.319371,16.3523253 30.8296762,22.5572642 C34.7888259,17.1008724 35.6035718,9.84921848 32.8270055,3.60761515 L32.6634726,3.24866322 L32.619,3.15751126 L32.6401488,3.2005782 C32.585265,3.08465083 32.5291208,2.96909845 32.4717131,2.85393942 L32.4406993,2.79063949 L32.3954748,2.70269706 C32.3823921,2.67702828 32.3692461,2.65137956 32.3560369,2.62575112 L32.3366099,2.58827286 L32.291,2.50251126 L32.2046832,2.33677297 L32.162536,2.26012711 C32.1491849,2.2355488 32.1357746,2.21099035 32.122305,2.18645193 L32.045,2.04851126 L31.9553838,1.88731808 L31.799,1.62351126 L31.766,1.56751126 L31.6927607,1.44252924 L31.5533739,1.21847316 C31.5387628,1.19520126 31.5240955,1.17195057 31.509372,1.14872125 L31.476,1.09751126 L31.4167733,1.00266088 C31.3881801,0.958425883 31.3593812,0.914270299 31.3303763,0.870195318 C31.3000279,0.825486587 31.2701468,0.780498777 31.2400502,0.73559652 C31.1876893,0.656062062 31.1339709,0.577170563 31.0795816,0.4985519 C31.0383148,0.440318063 30.9973707,0.381834378 30.9560528,0.323505327 L30.8245441,0.138703287 L38.4426642,5.67347816 C35.3525548,9.98437152 36.3219059,15.9841982 40.6119582,19.1003871 C44.9020106,22.216576 50.9010595,21.2784241 54.0371265,17.0009133 L61.6603788,22.5387704 C53.6050019,19.9239566 45.0764436,22.9702918 40.3589981,29.4800994 C47.9999749,31.9631579 56.68462,29.4014908 61.658912,22.5438751 L58.754572,31.5092771 C53.7063928,29.9075 48.3130762,32.6845898 46.6793526,37.7269667 C45.045629,42.7693436 47.7840875,48.1862933 52.8105496,49.8550985 L49.9037164,58.8266326 L40.4831954,58.8307424 C40.4816336,56.3843341 39.551466,54.0343621 37.8884079,52.2529347 L37.657103,52.0135812 C35.8492192,50.2062349 33.3981201,49.191797 30.8430197,49.1934325 C25.5231006,49.1968361 21.2128928,53.5158746 21.215161,58.8410167 L11.7936136,58.8461538 C14.4064292,57.9941385 16.7095954,56.6310137 18.6288345,54.9035159 C18.7560731,54.7887081 18.8819552,54.6722978 19.0061196,54.5543194 C19.1435964,54.4238983 19.2790679,54.2912207 19.4124002,54.1566779 C19.5196193,54.0483661 19.6258619,53.9385655 19.7306953,53.8275795 C19.8297702,53.7227454 19.9271856,53.6172143 20.0233392,53.5106596 C20.119639,53.4039409 20.2146516,53.296242 20.3083866,53.187542 C20.3718622,53.1138797 20.4346545,53.0399129 20.4968585,52.9654966 C20.7554977,52.6562138 21.0039723,52.3390748 21.2419885,52.0147359 C21.4785598,51.6920429 21.7044824,51.3629725 21.9198143,51.0273737 C23.8741425,47.9822836 24.9563156,44.3995667 24.9544267,40.6986267 C26.8539955,40.0784299 28.8401918,39.7629062 30.838914,39.762631 C32.8380437,39.7611339 34.824927,40.0749231 36.726483,40.6924621 C36.7295623,48.7331431 41.8483396,56.2107914 49.9037164,58.8256052 C49.8996107,50.3492932 44.3692373,43.171655 36.726483,40.6914347 L36.7340191,40.1469465 C36.785135,38.3299484 37.0958406,36.5286593 37.6574497,34.7980862 C38.2733267,32.8943912 39.1850223,31.0997221 40.3589981,29.4800994 L39.8432483,29.3043891 C38.133419,28.6944103 36.5186077,27.842493 35.0482795,26.7738441 C33.4294787,25.598924 32.0058077,24.1759359 30.8296762,22.5572642 C29.6558462,24.1760795 28.2346272,25.5997338 26.6182578,26.775899 C25.0016216,27.9535012 23.2097659,28.8688584 21.3085656,29.4883188 C21.216797,29.3619682 21.1235911,29.2369256 21.0289793,29.1132071 C16.2556957,22.8677381 7.89893945,19.9964921 0.00307927249,22.568566 L0.002,22.5685113 L7.61914657,17.0224893 C10.748631,21.3288041 16.7728188,22.2809254 21.0755673,19.1492731 C25.3783078,16.0166568 26.3295465,9.98577107 23.2002654,5.67861532 L30.8194119,0.131511265 C30.7369686,0.245872376 30.6569536,0.358767705 30.5783372,0.472231259 L30.5249355,0.549206882 L30.5047314,0.579226776 L30.5350337,0.534992518 C30.4527789,0.654710022 30.3720747,0.775053535 30.2929173,0.895998693 Z M15.3662583,30.4220323 L15.7385836,30.4199163 C16.1059239,30.4137993 16.4734421,30.3970716 16.8406543,30.3696574 C17.4721612,30.3222215 18.1032542,30.2434705 18.7309766,30.1326975 L19.1018973,30.0635273 C19.3212583,30.0202671 19.5401457,29.9730668 19.7584535,29.92191 C20.2791585,29.8000006 20.7967441,29.6555271 21.3095921,29.4883188 C22.485353,31.1062804 23.3991237,32.8995562 24.017299,34.8021959 C24.5804973,36.5328343 24.8927787,38.3344152 24.9454075,40.1519239 L24.9533978,40.6975993 C17.3137228,43.1829567 11.7915608,50.3636773 11.7936136,58.8379344 L8.87856901,49.8756472 C11.3083169,49.0842625 13.3244175,47.3590209 14.4832517,45.0795415 C15.6420859,42.8000621 15.8487041,40.1531149 15.0576425,37.7211295 C14.2670339,35.2889965 12.5434842,33.2709167 10.2662403,32.1109449 C7.9889964,30.9509732 5.34464501,30.7441521 2.91504462,31.5359903 L0,22.5706208 L0.159,22.7845113 L0.239985779,22.8928167 C0.274956186,22.9389105 0.310097555,22.9848013 0.345408349,23.0304888 C1.28195833,24.2428373 2.33806699,25.3117843 3.48468295,26.2332305 C3.63769345,26.355901 3.79271488,26.47655 3.94928866,26.5945474 C4.47921866,26.9941973 5.02709545,27.3632956 5.59009034,27.7015906 C5.7263387,27.7831686 5.86327014,27.863114 6.00104722,27.9412546 C6.78321798,28.3851619 7.59230999,28.7704874 8.4217469,29.0966193 L8.77200456,29.2299788 C9.03467528,29.327329 9.2992649,29.4188072 9.56555941,29.5043802 C10.105664,29.6784071 10.6532874,29.8278235 11.2061435,29.952619 L11.2839746,29.9695343 L11.64982,30.0472597 C12.8722049,30.2929049 14.1176134,30.4189762 15.3669734,30.4224875 Z" id="Combined-Shape" stroke="#FFFFFF" stroke-linejoin="round"></path>
                        </g>
                    </g>
                </g>
            </g>
        </g>
    </g>
</svg>