<?xml version="1.0" encoding="UTF-8"?>
<svg width="113px" height="47px" viewBox="0 0 113 47" version="1.1" xmlns="http://www.w3.org/2000/svg" xmlns:xlink="http://www.w3.org/1999/xlink">
    <title>Group 46</title>
    <defs>
        <polygon id="path-1" points="0 0 7.73908569 0 7.73908569 9.53700842 0 9.53700842"></polygon>
        <polygon id="path-3" points="0 0 8.96161968 0 8.96161968 10.2165508 0 10.2165508"></polygon>
    </defs>
    <g id="Symbols" stroke="none" stroke-width="1" fill="none" fill-rule="evenodd">
        <g id="Footer" transform="translate(-219, -418)">
            <g id="Group-23" transform="translate(117, 110)">
                <g id="Group-46" transform="translate(102.8643, 308)">
                    <path d="M33.8286139,19.5380825 C33.8286139,18.9044369 33.3129739,18.3889005 32.6793283,18.3889005 C32.0456827,18.3889005 31.5300427,18.9044369 31.5300427,19.5380825 C31.5300427,20.1714172 32.0456827,20.68685 32.6793283,20.68685 C33.3129739,20.68685 33.8286139,20.1714172 33.8286139,19.5380825" id="Fill-1" fill="#FFFFFF"></path>
                    <path d="M36.8626117,25.3663371 C36.8626117,23.9308957 38.0300281,22.7629614 39.4658839,22.7629614 C40.9012217,22.7629614 42.068638,23.9308957 42.068638,25.3663371 C42.068638,26.8017785 40.9012217,27.9698165 39.4658839,27.9698165 C39.3896309,27.9698165 39.3142068,27.965776 39.2396115,27.9593525 C38.8218778,27.9231945 38.432221,27.7881977 38.0940557,27.5776732 C37.3553551,27.1177725 36.8626117,26.2986747 36.8626117,25.3663371 L36.8626117,25.3663371 Z M31.1312066,27.9743751 L39.2272825,16.8848521 L41.112057,16.8848521 L40.6791971,17.4777811 L35.0684913,25.1634794 L33.0166026,27.9743751 L31.1312066,27.9743751 Z M30.075994,19.5380617 C30.075994,18.1025167 31.2440319,16.9347896 32.6793697,16.9347896 C34.1146039,16.9347896 35.2832635,18.1025167 35.2832635,19.5380617 C35.2832635,20.9733995 34.1146039,22.1411267 32.6793697,22.1411267 C31.2440319,22.1411267 30.075994,20.9733995 30.075994,19.5380617 L30.075994,19.5380617 Z M27.8131664,41.1565033 L22.6553162,41.1565033 L18.7790546,41.1565033 L18.7790546,32.8422361 L18.7790546,13.1935247 L15.4131491,13.1620289 L15.4212303,11.8607555 L15.441226,8.63357652 L18.1233412,6.24466221 L19.8005957,4.75078783 L27.8131664,4.75078783 L27.8131664,41.1565033 Z M44.3999482,32.3148888 C44.4106195,32.2903346 44.4216016,32.2659875 44.4321692,32.2413296 C44.4952644,32.0940039 44.5563911,31.9455385 44.6164818,31.7966588 C44.6277747,31.7685819 44.6395856,31.7407123 44.6507749,31.7126354 C44.7087934,31.5671746 44.7648435,31.4206777 44.8199611,31.2737665 C44.8320829,31.2415454 44.8447226,31.2095316 44.8566372,31.177207 C44.9096827,31.0340255 44.9606562,30.8898079 45.0109044,30.7452795 C45.0235441,30.7087071 45.0369091,30.6725491 45.0493417,30.6359767 C45.0976214,30.4948673 45.1438291,30.3528254 45.1894151,30.2105763 C45.2023656,30.1699633 45.2160414,30.1296611 45.2288884,30.0889445 C45.2725059,29.950218 45.3139478,29.8104554 45.3550788,29.6704856 C45.3682366,29.6257285 45.3821196,29.5812821 45.3949665,29.5364213 C45.4340255,29.4002849 45.4709087,29.2632161 45.5074811,29.1260436 C45.5206389,29.0767278 45.5346255,29.0276193 45.5474725,28.9781999 C45.5822836,28.8444464 45.6148155,28.709864 45.6471401,28.5751781 C45.659987,28.5217181 45.6737665,28.4686726 45.686199,28.415109 C45.7169696,28.2834276 45.7453572,28.1508137 45.7737449,28.0181999 C45.7860738,27.9611137 45.7992316,27.9043384 45.8110425,27.8470451 C45.8378761,27.7173322 45.8623268,27.5867904 45.8868811,27.4563523 C45.8983812,27.3955364 45.9108137,27.3351349 45.9217958,27.2741118 C45.944796,27.1465746 45.9654133,27.0182085 45.9863415,26.8900496 C45.9968055,26.8254004 46.0084092,26.7612692 46.0183553,26.6965163 C46.0377293,26.5707403 46.0547205,26.4441355 46.0721261,26.317738 C46.0813469,26.2499806 46.0918109,26.182534 46.1005137,26.1145694 C46.1163652,25.9904511 46.1298338,25.8656076 46.1438204,25.7408677 C46.1516944,25.6698986 46.1608116,25.5993438 46.1680639,25.5281675 C46.1808073,25.4041528 46.1909605,25.2794129 46.2017354,25.1548802 C46.2079517,25.0825642 46.2154112,25.0106626 46.2209022,24.9381394 C46.2305374,24.8123635 46.2375826,24.6858623 46.2452493,24.5595683 C46.2496007,24.4875631 46.2551953,24.4159724 46.2589251,24.3438636 C46.2658666,24.2067947 46.270218,24.068897 46.2747766,23.931103 C46.2768487,23.8694582 46.2802676,23.8082279 46.2818217,23.7464796 C46.2868983,23.5466264 46.2894885,23.3461515 46.2894885,23.145055 C46.2894885,22.9601209 46.2867947,22.7758083 46.2825469,22.5919102 C46.2810965,22.5326484 46.2787136,22.4736974 46.2769523,22.4146428 C46.2730153,22.2889704 46.2684567,22.1635053 46.2626549,22.0384546 C46.2594431,21.9705936 46.2556098,21.9029398 46.25188,21.835286 C46.2453529,21.717384 46.2378934,21.5996892 46.2295014,21.4823052 C46.2247356,21.4145478 46.2198662,21.3467904 46.2144787,21.2791366 C46.2046363,21.1558472 46.193447,21.0329722 46.1817397,20.9103043 C46.176145,20.8515605 46.1710684,20.7927131 46.1649558,20.7341766 C46.1469286,20.5603281 46.1273473,20.386894 46.1054867,20.2141852 C46.1047615,20.2079689 46.1041399,20.2017526 46.103311,20.1955364 C46.0807252,20.0175437 46.0555493,19.8402763 46.0289229,19.6635269 C46.020013,19.6046795 46.0101705,19.5461429 46.0008461,19.4873991 C45.9819901,19.368461 45.9625124,19.2496266 45.9417915,19.1313102 C45.9299806,19.06376 45.9176516,18.996417 45.9052191,18.929074 C45.8849126,18.8184243 45.8637773,18.7080855 45.8418131,18.5979538 C45.8283445,18.5300928 45.8147723,18.4623354 45.8006821,18.3947852 C45.776853,18.2807166 45.7518843,18.167166 45.7263976,18.053719 C45.7127218,17.9929031 45.699564,17.93188 45.6854738,17.8712713 C45.6497302,17.7181438 45.6125362,17.5657414 45.573788,17.4138571 C45.5669501,17.3868163 45.5602158,17.3595683 45.5532743,17.3325275 C45.5117289,17.1721476 45.4684222,17.012493 45.4235614,16.85346 C45.4061558,16.7917116 45.3878178,16.7303777 45.3698942,16.668733 C45.3386057,16.5612951 45.3070063,16.4540643 45.2742672,16.347248 C45.2529247,16.2778329 45.2309605,16.2086251 45.2089963,16.1394172 C45.1776041,16.040164 45.1454867,15.9412217 45.1127477,15.8426937 C45.089333,15.7724498 45.066022,15.7023095 45.0419858,15.63248 C45.007589,15.5320872 44.9721563,15.4322124 44.9363091,15.3324412 C44.9128945,15.2669631 44.8897906,15.2012778 44.8657544,15.1360069 C44.8200648,15.012303 44.7730283,14.8893244 44.7252666,14.7666566 C44.6996762,14.7007641 44.6739823,14.6349752 44.6477703,14.5692899 C44.5963825,14.440613 44.5441658,14.3122469 44.4906022,14.1846061 C44.4620073,14.1165379 44.4322728,14.0490913 44.4030563,13.9813339 C44.3636866,13.8901619 44.3242133,13.7991971 44.2838075,13.7086467 C44.2510684,13.6355018 44.2177077,13.5626678 44.1842435,13.4899374 C44.1454954,13.4056033 44.1062292,13.3214764 44.0664451,13.2376603 C44.0313231,13.1634794 43.9958904,13.0894021 43.9599396,13.0157393 C43.9196374,12.9330628 43.8785064,12.8508008 43.8372717,12.7686423 C43.8006993,12.6961191 43.7645413,12.6232851 43.7273473,12.5510727 C43.681036,12.4613512 43.6334815,12.3724585 43.5861343,12.2834621 C43.5251112,12.1687719 43.4631556,12.0548068 43.400164,11.9412562 C43.3514699,11.8533995 43.3028793,11.7653356 43.2530455,11.6781006 C43.2095316,11.6019512 43.164878,11.5265271 43.1205353,11.4508957 C43.078679,11.3796158 43.0369264,11.3083359 42.9943449,11.2374703 C42.9473084,11.1593525 42.8996503,11.0817526 42.851785,11.0042564 C42.8105504,10.9374315 42.769005,10.8707101 42.7270451,10.8044032 C42.6773149,10.7255601 42.6272739,10.6469242 42.5765077,10.5688064 C42.5354803,10.505504 42.4937276,10.442616 42.4520786,10.3796244 C42.3993438,10.3000561 42.3467127,10.2202806 42.2930455,10.1414375 C42.2556443,10.0864235 42.2173106,10.0322383 42.1794949,9.97763868 C42.0629398,9.80948845 41.9444161,9.6429959 41.8236132,9.47816102 C41.7936715,9.43734082 41.7642478,9.39610619 41.7339953,9.3553896 C41.6717289,9.27157349 41.6082193,9.18879344 41.5448133,9.10580617 C41.5059616,9.05493633 41.4673171,9.00396288 41.4280509,8.95340384 C41.3643341,8.87155623 41.2998921,8.79033024 41.2352428,8.70941507 C41.1957695,8.65999568 41.1560889,8.61067991 41.1163048,8.56167494 C41.0495834,8.47962012 40.9825513,8.39797971 40.9148975,8.31685733 C40.8779106,8.27261817 40.8405094,8.22879344 40.8032117,8.1848651 C40.7309994,8.09970214 40.6586834,8.01453918 40.5852277,7.93041226 C40.5653356,7.90751565 40.5449255,7.88513706 40.5248262,7.86234405 C40.2574228,7.55847183 39.9821455,7.26195554 39.6994086,6.97248435 C39.668638,6.94109216 39.6381783,6.90949277 39.6073041,6.87820419 C39.5248349,6.7948025 39.4415368,6.71212605 39.3577207,6.62996762 C39.3239456,6.59671055 39.2900669,6.56355709 39.255981,6.53061084 C39.170818,6.44793438 39.0850335,6.36577596 38.9986272,6.28444636 C38.9692035,6.25688755 38.9395726,6.22953594 38.9100453,6.20208073 C38.7008677,6.00730412 38.4880639,5.81646449 38.2718411,5.62945823 C38.0556184,5.44255558 37.8357695,5.25948629 37.6126052,5.08056119 C37.5925059,5.06439888 37.5726139,5.04813296 37.5525146,5.03207425 C37.4510857,4.95136629 37.348828,4.87169437 37.2460522,4.79254047 C37.2192186,4.77192316 37.1923851,4.75130585 37.1654479,4.73079214 C37.0618433,4.65184546 36.9577207,4.5735204 36.8526657,4.49623138 C36.8322556,4.48120872 36.8116382,4.46628966 36.7911245,4.451267 C36.5217526,4.2543147 36.2475113,4.06368228 35.9695403,3.87823009 C35.7529031,3.73370171 35.5341938,3.59207425 35.3123764,3.45479819 C35.303052,3.44899633 35.2938312,3.44309087 35.2845068,3.43739262 C35.1654651,3.36383337 35.0455946,3.29172458 34.9251025,3.22034103 C34.9052104,3.20853011 34.8853184,3.19671919 34.8653227,3.18501187 C34.7451414,3.11424995 34.6242348,3.04442046 34.5026031,2.97573063 C34.4896525,2.96847831 34.4764947,2.96122599 34.4634405,2.95387006 C34.1308698,2.76696741 33.7924973,2.58907835 33.4499806,2.41833801 C33.2445327,2.31597669 33.0378416,2.21548025 32.8288711,2.11912799 C32.8271099,2.11829916 32.825245,2.11747032 32.8234837,2.11664148 C32.6907662,2.05541118 32.5572199,1.99563134 32.4231556,1.93699115 C32.4066825,1.92973883 32.3902094,1.92248651 32.3737362,1.91533779 C32.2411224,1.85763005 32.1079905,1.80095834 31.9741334,1.7456335 C31.964291,1.74159292 31.9543449,1.73765595 31.9445025,1.73361537 C31.3714656,1.49781135 30.7869286,1.28417872 30.1918239,1.09416793 C30.1912022,1.09396072 30.190477,1.09375351 30.1898554,1.0935463 C30.048746,1.04847831 29.9069113,1.00496439 29.7645586,0.962590114 C29.747153,0.957409886 29.7297475,0.952229657 29.7123419,0.947049428 C29.5723721,0.905711202 29.4318843,0.865512627 29.2907749,0.826764515 C29.2868379,0.82572847 29.2829009,0.824485215 29.2788603,0.823345564 C29.2788603,0.823449169 29.278964,0.823449169 29.278964,0.823552774 C27.3247744,0.287709907 25.2679128,0 23.1436046,0 C19.7590503,0 16.5444075,0.726889704 13.6465875,2.03251457 C13.6465875,2.03251457 13.6464839,2.03251457 13.6464839,2.03251457 C13.6445154,2.03334341 13.6425469,2.03427585 13.6405785,2.03520829 C13.6087719,2.04950572 13.5772761,2.06442478 13.5455731,2.07892942 C13.4268422,2.13311461 13.3086294,2.18833585 13.1909346,2.24448953 C13.1430693,2.26738614 13.0951004,2.29028275 13.0473387,2.31338657 C12.9090265,2.38062594 12.7712325,2.44879776 12.6344744,2.51862724 C12.5975912,2.53748327 12.5610188,2.55696093 12.5242392,2.57602417 C12.4145219,2.63269588 12.3053227,2.69030002 12.1966415,2.74883661 C12.1483618,2.77484136 12.0999784,2.8008461 12.0518023,2.82716167 C11.9190848,2.89978847 11.7870926,2.97324412 11.6560328,3.04835744 C11.615109,3.07187567 11.574496,3.09601554 11.5336758,3.11963738 C11.4324541,3.17848478 11.3317505,3.23805741 11.2314613,3.29835528 C11.1825599,3.32777898 11.1335549,3.35720268 11.0848608,3.38693719 C10.9581524,3.46443341 10.8320656,3.54296568 10.7069113,3.62284481 C10.6628793,3.65102525 10.6191582,3.67982733 10.5752299,3.70831858 C10.4814677,3.76903087 10.3882236,3.83046838 10.2953939,3.89252752 C10.2464926,3.92526657 10.1974876,3.9577984 10.1487934,3.99095187 C10.0277833,4.0732139 9.90760199,4.15640837 9.78824951,4.2408461 C9.74183466,4.27379236 9.69573063,4.30725664 9.64952299,4.34051371 C9.56311677,4.40267645 9.47712497,4.46535722 9.3916512,4.52865962 C9.34233542,4.56512843 9.29291604,4.60149363 9.24380747,4.63837686 C9.1290136,4.72478308 9.01494496,4.81212174 8.90180876,4.90060004 C8.85342543,4.93851932 8.80556011,4.97695662 8.75738398,5.0150831 C8.67791927,5.07828189 8.59886898,5.1418951 8.52033671,5.20612994 C8.47102094,5.24632851 8.42160155,5.28642348 8.37259659,5.32703648 C8.26391539,5.41727606 8.15616663,5.50844809 8.0491431,5.60055256 C7.9992057,5.64354846 7.94978632,5.68716598 7.90015972,5.73067991 C7.82753292,5.79418951 7.75542413,5.85832074 7.68362616,5.92276279 C7.63431038,5.96710555 7.58468379,6.0113447 7.53567883,6.05610188 C7.4333175,6.14965681 7.33178502,6.24424779 7.23118498,6.339564 C7.18031513,6.38774013 7.12996331,6.43643428 7.07961148,6.48512843 C7.01351176,6.54874164 6.94793007,6.61287287 6.88265918,6.67741852 C6.83334341,6.72611267 6.78382042,6.77459961 6.73491906,6.82381179 C6.63887762,6.92037125 6.54387222,7.01786316 6.44948845,7.11597669 C6.39820419,7.16954025 6.34733434,7.22351824 6.2965681,7.27739262 C6.23689186,7.34079862 6.17763005,7.40451543 6.11867904,7.46843946 C6.06957047,7.52179581 6.02015109,7.57494496 5.97145694,7.62881934 C5.88194259,7.72786531 5.79336067,7.82784373 5.70550399,7.92854738 C5.65421973,7.98729117 5.60345349,8.04655299 5.55268724,8.10581481 C5.49943449,8.16818476 5.44649255,8.23076193 5.39386143,8.2936499 C5.32682927,8.37373624 5.26031513,8.45413339 5.19431902,8.53504856 C5.12935895,8.61482409 5.06460609,8.69480682 5.00068206,8.77551479 C4.94991582,8.83954241 4.8996676,8.90398446 4.84952299,8.96863371 C4.80196849,9.02996762 4.7547248,9.09171595 4.70779193,9.15346428 C4.63402547,9.25054177 4.56108785,9.34803367 4.48897906,9.44625081 C4.4376948,9.51597669 4.38641053,9.58570257 4.3359551,9.65605008 C4.28622491,9.72525793 4.23690913,9.79498381 4.18790417,9.8648133 C4.14635873,9.92417872 4.10512411,9.98375135 4.0640967,10.0435312 C3.98680768,10.1557349 3.91065832,10.2687675 3.83533779,10.3824218 C3.79441399,10.4441701 3.75349018,10.5059184 3.71308439,10.5681848 C3.66470106,10.6427801 3.61693935,10.7176862 3.56938485,10.7929031 C3.53364127,10.8494712 3.49831211,10.9064537 3.46298295,10.9633326 C3.38507231,11.0889014 3.30840492,11.2152989 3.23298079,11.3424218 C3.19972372,11.3983682 3.16636305,11.4543147 3.1335204,11.510572 C3.08710555,11.5903475 3.04110512,11.6703302 2.99562271,11.7507274 C2.96516296,11.8044982 2.93522124,11.8584761 2.90517591,11.9125577 C2.82892294,12.0497302 2.75401684,12.1877315 2.68045759,12.3265616 C2.65300237,12.3783639 2.62544356,12.429959 2.59850637,12.4819685 C2.55437082,12.5668206 2.51064969,12.6520872 2.46755018,12.737561 C2.44247788,12.7873948 2.41781999,12.8374358 2.3931621,12.8873732 C2.31970645,13.0356313 2.24790848,13.1847183 2.17756098,13.3346341 C2.15466436,13.3836391 2.13156054,13.4325405 2.10897475,13.481649 C2.06784373,13.5710598 2.02723074,13.6607814 1.98713577,13.7509173 C1.96693287,13.7963997 1.9471444,13.8422966 1.92714872,13.8879862 C1.85763005,14.0472264 1.78976905,14.2072955 1.72377293,14.368297 C1.7048133,14.4145046 1.68575005,14.4607123 1.66699763,14.5071271 C1.62918196,14.6012001 1.5917807,14.6954803 1.55520829,14.7900712 C1.53977121,14.829959 1.52485215,14.870054 1.50962227,14.9099417 C1.44466221,15.0804749 1.38167062,15.252044 1.32064753,15.4245457 C1.30489963,15.468992 1.28915174,15.5133348 1.27361105,15.5579883 C1.23952515,15.6562055 1.20595726,15.7547334 1.17311461,15.8535722 C1.16244334,15.8858968 1.15218649,15.9184287 1.14161882,15.9508569 C1.08173538,16.1340298 1.02413123,16.3182387 0.968806389,16.5033801 C0.955959422,16.5462724 0.94300885,16.5891647 0.930472696,16.6321606 C0.900530973,16.7344183 0.871107274,16.8368832 0.842512411,16.939659 C0.836296136,16.961934 0.83049428,16.9844161 0.82438161,17.0066911 C0.770196417,17.2043687 0.718601338,17.4030822 0.669492769,17.6027283 C0.659235916,17.6447917 0.648875459,17.6867516 0.63872221,17.7289186 C0.613339089,17.8346989 0.588370386,17.94079 0.564437729,18.0471919 C0.562883661,18.0541334 0.561536801,18.0610749 0.559982733,18.06812 C0.511392186,18.2847572 0.466324196,18.5027412 0.423949924,18.7217613 C0.415868768,18.7633067 0.407891215,18.8049558 0.400017267,18.8466048 C0.33712929,19.1814548 0.281597237,19.5187913 0.233317505,19.8585107 C0.227308439,19.9004705 0.221402979,19.9423268 0.215704727,19.9843902 C0.200889273,20.0927606 0.186488237,20.2012346 0.173123246,20.310123 L0.173744874,20.3112627 C0.060090654,21.2401813 0,22.1855731 0,23.145055 C0,31.797902 4.74975178,39.3405223 11.7831556,43.3113749 L11.7832592,43.3116857 C11.8015972,43.3220462 11.8201425,43.3319922 11.8384805,43.3422491 C12.0268336,43.4479258 12.216948,43.5511159 12.4085128,43.6516123 C12.4315131,43.6637341 12.4544097,43.676063 12.4775135,43.6880812 C12.5755234,43.738951 12.6739478,43.7890956 12.7726829,43.8387222 C12.8065616,43.8557134 12.8406475,43.8724973 12.8746298,43.8893848 C13.1857544,44.0436521 13.5008159,44.1912886 13.8196072,44.3317764 C13.851621,44.3458666 13.8837384,44.3598532 13.9158558,44.3738398 C14.2430391,44.5162961 14.5742629,44.6513965 14.9091129,44.7789337 C14.9319059,44.7875329 14.9546989,44.7962357 14.9774919,44.8048349 C15.3279862,44.9370343 15.6824174,45.0609454 16.0407857,45.1763609 C16.0496957,45.1792618 16.0586057,45.1822664 16.0675156,45.1850637 C16.5598446,45.3430607 17.0593223,45.4848953 17.565327,45.6101532 C17.5696784,45.6111893 17.5739262,45.6123289 17.578174,45.6134686 C17.5782776,45.613365 17.5782776,45.613365 17.5783812,45.6132614 C19.3612087,46.0534772 21.2248478,46.288556 23.1436046,46.288556 C29.4551953,46.288556 35.1756184,43.7614332 39.35109,39.6653227 C39.35109,39.6653227 39.3511936,39.6654263 39.3511936,39.6654263 C39.3531621,39.6634578 39.3551306,39.6613857 39.3572027,39.6594172 C39.4867084,39.5321908 39.6147637,39.4035139 39.7412648,39.2733866 C39.7447874,39.2697604 39.7482063,39.2662379 39.7517289,39.2627153 C39.8795769,39.1310339 40.0058709,38.9977984 40.1305072,38.8631125 C40.1326829,38.8608332 40.1348586,38.8585539 40.1369307,38.8561709 C40.2624995,38.7205526 40.3864105,38.5833801 40.5087675,38.4446536 C40.510218,38.4429959 40.5116685,38.4413382 40.5131189,38.4396806 C40.6358904,38.300436 40.7571077,38.1596374 40.8764602,38.0173883 C40.8774962,38.016145 40.8785323,38.0150054 40.8794647,38.0138657 C40.9989208,37.8715131 41.1166156,37.7278135 41.2326527,37.5826635 C41.233896,37.581213 41.2351392,37.579659 41.2362789,37.5782085 C41.3521088,37.4332657 41.4661774,37.2868724 41.5785884,37.1391323 C41.5798316,37.137371 41.5811785,37.1357134 41.5825254,37.1339521 C41.6944183,36.98673 41.80455,36.8380574 41.913024,36.6881416 C41.9147852,36.6856551 41.9166501,36.6831686 41.9184114,36.6806821 C42.0260566,36.5316987 42.1319404,36.3813684 42.236063,36.2297949 C42.2385495,36.2260652 42.2411397,36.222439 42.2436262,36.2188129 C42.3468163,36.0684826 42.448038,35.9169091 42.5477056,35.7640924 C42.5511245,35.7588085 42.5545435,35.7536283 42.5579624,35.7484481 C42.6563868,35.5971854 42.7529463,35.4446795 42.8479517,35.2910339 C42.852303,35.2839888 42.856758,35.2770473 42.8611094,35.2700022 C42.9545608,35.1183251 43.0462508,34.9654047 43.1362832,34.8114483 C43.1417742,34.8021239 43.1473689,34.7929031 43.1527563,34.7835787 C43.241131,34.6320052 43.3276408,34.479292 43.4125966,34.3255428 C43.4193309,34.3134211 43.4262724,34.301403 43.4329031,34.2892812 C43.5163048,34.137915 43.597738,33.9853054 43.6778243,33.8319706 C43.685491,33.8172588 43.693365,33.8027542 43.7010317,33.7880423 C43.7792532,33.637194 43.8556098,33.4853097 43.9306195,33.3325966 C43.9393223,33.3147766 43.9484395,33.2970602 43.9571422,33.2792402 C44.0301835,33.129428 44.1013598,32.9785798 44.1712929,32.8270063 C44.1810317,32.8057673 44.191185,32.7848392 44.2009238,32.7636003 C44.268992,32.6149277 44.3349881,32.4652191 44.3999482,32.3148888 L44.3999482,32.3148888 Z" id="Fill-3" fill="#FFFFFF"></path>
                    <path d="M40.6151798,25.3663371 C40.6151798,24.7324844 40.0995398,24.2172588 39.4658942,24.2172588 C38.8322487,24.2172588 38.3167123,24.7324844 38.3167123,25.3663371 C38.3167123,25.9999827 38.8322487,26.5154155 39.4658942,26.5154155 C40.0995398,26.5154155 40.6151798,25.9999827 40.6151798,25.3663371" id="Fill-5" fill="#FFFFFF"></path>
                    <polygon id="Fill-7" fill="#FFFFFF" points="54.8450628 17.9893028 59.3547628 17.9893028 59.3547628 15.7956831 54.8450628 15.7956831 54.8450628 14.1745823 59.8321727 14.1745823 59.8321727 11.8581912 52.2019029 11.8581912 52.2019029 21.3953033 54.8450628 21.3953033"></polygon>
                    <path d="M68.3465832,16.6541714 C68.3465832,18.0298329 67.3794345,19.2016007 65.9218217,19.2016007 C64.4777811,19.2016007 63.4835916,18.0027921 63.4835916,16.6269234 L63.4835916,16.5993646 C63.4835916,15.2233922 64.4502223,14.0516244 65.8947809,14.0516244 C67.3522901,14.0516244 68.3465832,15.250433 68.3465832,16.6269234 L68.3465832,16.6541714 Z M65.9218217,11.6673723 C62.9791409,11.6673723 60.7718455,13.8885508 60.7718455,16.6269234 L60.7718455,16.6541714 C60.7718455,19.3921295 62.9515821,21.5858528 65.8947809,21.5858528 C68.8374617,21.5858528 71.0448608,19.3651923 71.0448608,16.6269234 L71.0448608,16.5993646 C71.0448608,13.860474 68.8639845,11.6673723 65.9218217,11.6673723 L65.9218217,11.6673723 Z" id="Fill-9" fill="#FFFFFF"></path>
                    <path d="M78.2926536,15.305043 C78.2926536,16.0000224 77.7752523,16.4360941 76.8761718,16.4360941 L75.1315744,16.4360941 L75.1315744,14.1467438 L76.8620816,14.1467438 C77.7475899,14.1467438 78.2926536,14.5284231 78.2926536,15.2776913 L78.2926536,15.305043 Z M80.9498001,15.1417621 L80.9498001,15.1142033 C80.9498001,14.1746134 80.6633335,13.4385029 80.1048012,12.8935428 C79.4641105,12.2395908 78.4564524,11.8582223 76.9983216,11.8582223 L72.4884144,11.8582223 L72.4884144,21.3953343 L75.1315744,21.3953343 L75.1315744,18.5069424 L76.2625219,18.5069424 L76.2896663,18.5069424 L78.2104951,21.3953343 L81.2627896,21.3953343 L78.9878403,18.0709743 C80.1728694,17.5668344 80.9498001,16.5993749 80.9498001,15.1417621 L80.9498001,15.1417621 Z" id="Fill-11" fill="#FFFFFF"></path>
                    <polygon id="Fill-13" fill="#FFFFFF" points="89.8735005 21.3952825 89.8735005 14.1745616 92.7345409 14.1745616 92.7345409 11.8582741 84.3687822 11.8582741 84.3687822 14.1745616 87.2303406 14.1745616 87.2303406 21.3952825"></polygon>
                    <polygon id="Fill-15" fill="#FFFFFF" points="99.9962996 15.4272653 96.6037678 15.4272653 96.6037678 11.8581912 93.9607114 11.8581912 93.9607114 21.3953033 96.6037678 21.3953033 96.6037678 17.7708008 99.9962996 17.7708008 99.9962996 21.3953033 102.63946 21.3953033 102.63946 11.8581912 99.9962996 11.8581912"></polygon>
                    <g id="Group-19" transform="translate(104.3966, 11.8583)">
                        <mask id="mask-2" fill="white">
                            <use xlink:href="#path-1"></use>
                        </mask>
                        <g id="Clip-18"></g>
                        <polygon id="Fill-17" fill="#FFFFFF" mask="url(#mask-2)" points="2.61663717 7.28878912 2.61663717 5.77647313 7.19419814 5.77647313 7.19419814 3.69194906 2.61663717 3.69194906 2.61663717 2.24759767 7.67046838 2.24759767 7.67046838 0 0 0 0 9.53700842 7.73915821 9.53700842 7.73915821 7.28878912"></polygon>
                    </g>
                    <path d="M57.929858,27.0460315 C57.929858,27.8490706 57.3169333,28.3743458 56.3098968,28.3743458 L54.9673887,28.3743458 L54.9673887,25.6740997 L56.2953922,25.6740997 C57.3169333,25.6740997 57.929858,26.1413564 57.929858,27.0175403 L57.929858,27.0460315 Z M56.5143087,23.2953387 L52.1356685,23.2953387 L52.1356685,33.5118895 L54.9673887,33.5118895 L54.9673887,30.592727 L56.3681226,30.592727 C58.908196,30.592727 60.7616818,29.3233637 60.7616818,26.9145573 L60.7616818,26.885548 C60.7616818,24.6231349 59.0975852,23.2953387 56.5143087,23.2953387 L56.5143087,23.2953387 Z" id="Fill-20" fill="#FFFFFF"></path>
                    <polygon id="Fill-22" fill="#FFFFFF" points="69.7373814 31.0305703 64.7897449 31.0305703 64.7897449 23.295349 61.9576102 23.295349 61.9576102 33.5118998 69.7373814 33.5118998"></polygon>
                    <path d="M75.8233836,26.5792204 L76.9617906,29.4832566 L74.6699538,29.4832566 L75.8233836,26.5792204 Z M73.1087365,33.511817 L73.8383199,31.6877548 L77.7789199,31.6877548 L78.5236296,33.511817 L81.5591401,33.511817 L77.2102344,23.2224321 L74.4805646,23.2224321 L70.1311409,33.511817 L73.1087365,33.511817 Z" id="Fill-24" fill="#FFFFFF"></path>
                    <polygon id="Fill-26" fill="#FFFFFF" points="89.3972925 28.6957272 85.1933296 23.2953387 82.5516201 23.2953387 82.5516201 33.5118895 85.3537095 33.5118895 85.3537095 27.9076072 89.7176378 33.5118895 92.1989674 33.5118895 92.1989674 23.2953387 89.3972925 23.2953387"></polygon>
                    <polygon id="Fill-28" fill="#FFFFFF" points="96.811153 29.4832877 101.71424 29.4832877 101.71424 27.2504019 96.811153 27.2504019 96.811153 25.7036892 102.225528 25.7036892 102.225528 23.2952972 94.0085457 23.2952972 94.0085457 33.511848 102.298984 33.511848 102.298984 31.1035597 96.811153 31.1035597"></polygon>
                    <g id="Group-32" transform="translate(103.174, 23.2953)">
                        <mask id="mask-4" fill="white">
                            <use xlink:href="#path-3"></use>
                        </mask>
                        <g id="Clip-31"></g>
                        <polygon id="Fill-30" fill="#FFFFFF" mask="url(#mask-4)" points="0 2.48081157 3.06503777 2.48081157 3.06503777 10.2165508 5.89717246 10.2165508 5.89717246 2.48081157 8.96169221 2.48081157 8.96169221 0 0 0"></polygon>
                    </g>
                    <path d="M111.345818,32.6099288 C111.345818,33.0196849 111.022779,33.3617872 110.603491,33.3617872 C110.179231,33.3617872 109.861061,33.0243471 109.861061,32.614591 L109.861061,32.6099288 C109.861061,32.1999655 110.183997,31.8578632 110.603491,31.8578632 C111.027649,31.8578632 111.345818,32.1953033 111.345818,32.6049558 L111.345818,32.6099288 Z M110.603491,31.7128167 C110.10619,31.7128167 109.711456,32.1227801 109.711456,32.6099288 L109.711456,32.6149018 C109.711456,33.1020505 110.101009,33.5070408 110.603491,33.5070408 C111.100793,33.5070408 111.49532,33.0967667 111.49532,32.6099288 L111.49532,32.6046449 C111.49532,32.117807 111.10587,31.7128167 110.603491,31.7128167 L110.603491,31.7128167 Z" id="Fill-33" fill="#FFFFFF"></path>
                    <path d="M110.734213,32.6301276 L110.541152,32.6301276 L110.541152,32.3909312 L110.734213,32.3909312 C110.839417,32.3909312 110.897989,32.4344957 110.897989,32.5104126 C110.897989,32.5811904 110.839417,32.6301276 110.734213,32.6301276 M111.202036,32.4888055 C111.202036,32.2550984 111.014882,32.1518515 110.751684,32.1518515 L110.237104,32.1518515 L110.237104,33.1518515 L110.541152,33.1518515 L110.541152,32.8529727 L110.669734,32.8529727 L110.8863,33.1518515 L111.237104,33.1518515 L110.979814,32.8040356 C111.114304,32.7550984 111.202036,32.6462453 111.202036,32.4888055" id="Fill-35" fill="#FFFFFF"></path>
                    <polygon id="Fill-37" fill="#FFFFFF" points="68.1845353 39.6704667 71.6463786 39.6704667 71.6463786 38.9848116 68.1845353 38.9848116"></polygon>
                    <polygon id="Fill-39" fill="#FFFFFF" points="74.4854237 38.8375998 73.7787369 37.6975351 72.9111522 37.6975351 72.9111522 40.6422879 73.7152273 40.6422879 73.7152273 38.959646 74.4685362 40.103855 74.4854237 40.103855 75.2429804 38.951254 75.2429804 40.6422879 76.0596952 40.6422879 76.0596952 37.6975351 75.1922141 37.6975351"></polygon>
                    <polygon id="Fill-40" fill="#FFFFFF" points="77.3965776 39.4811811 78.818654 39.4811811 78.818654 38.8375895 77.3965776 38.8375895 77.3965776 38.3916754 78.9667049 38.3916754 78.9667049 37.6975247 76.5840069 37.6975247 76.5840069 40.6422776 78.9878403 40.6422776 78.9878403 39.9482305 77.3965776 39.9482305"></polygon>
                    <polygon id="Fill-41" fill="#FFFFFF" points="80.9807468 38.8375998 80.27406 37.6975351 79.4064753 37.6975351 79.4064753 40.6422879 80.2105504 40.6422879 80.2105504 38.959646 80.9638593 40.103855 80.9807468 40.103855 81.7383035 38.951254 81.7383035 40.6422879 82.5550183 40.6422879 82.5550183 37.6975351 81.6875372 37.6975351"></polygon>
                    <path d="M84.9076503,39.7168193 C84.9076503,39.889321 84.7637436,39.9860876 84.5140566,39.9860876 L83.8792713,39.9860876 L83.8792713,39.4433033 L84.505561,39.4433033 C84.7805275,39.4433033 84.9076503,39.5485655 84.9076503,39.7084274 L84.9076503,39.7168193 Z M83.8792713,38.3539011 L84.4125241,38.3539011 C84.6579633,38.3539011 84.7847753,38.4463164 84.7847753,38.6061783 L84.7847753,38.6145703 C84.7847753,38.7870719 84.6452199,38.8713024 84.3955329,38.8713024 L83.8792713,38.8713024 L83.8792713,38.3539011 Z M85.1403462,39.1025478 C85.4027766,38.9891008 85.5974496,38.7870719 85.5974496,38.4463164 L85.5974496,38.4379245 C85.5974496,38.2359991 85.5254444,38.0803851 85.4070244,37.9625867 C85.2334867,37.790085 84.9711599,37.6975662 84.5987015,37.6975662 L83.079444,37.6975662 L83.079444,40.642319 L84.6071971,40.642319 C85.3139875,40.642319 85.728613,40.3352351 85.728613,39.83037 L85.728613,39.821978 C85.728613,39.4222715 85.5001649,39.2204498 85.1403462,39.1025478 L85.1403462,39.1025478 Z" id="Fill-42" fill="#FFFFFF"></path>
                    <polygon id="Fill-43" fill="#FFFFFF" points="86.9174237 39.4811811 88.3393965 39.4811811 88.3393965 38.8375895 86.9174237 38.8375895 86.9174237 38.3916754 88.4874474 38.3916754 88.4874474 37.6975247 86.1047494 37.6975247 86.1047494 40.6422776 88.5086864 40.6422776 88.5086864 39.9482305 86.9174237 39.9482305"></polygon>
                    <path d="M90.730155,38.7619167 C90.730155,38.9763782 90.5692571,39.1110641 90.2900427,39.1110641 L89.7482944,39.1110641 L89.7482944,38.4042737 L90.2857949,38.4042737 C90.5607615,38.4042737 90.730155,38.5221757 90.730155,38.7534211 L90.730155,38.7619167 Z M91.5553654,38.7114613 L91.5553654,38.7029657 C91.5553654,38.4127693 91.4664727,38.1855644 91.292935,38.0173106 C91.0940142,37.8153853 90.7809212,37.6975869 90.3280656,37.6975869 L88.9272281,37.6975869 L88.9272281,40.6422361 L89.7482944,40.6422361 L89.7482944,39.7504079 L90.0996175,39.7504079 L90.1079059,39.7504079 L90.7046682,40.6422361 L91.6526501,40.6422361 L90.9458597,39.6158256 C91.314174,39.4602115 91.5553654,39.1614159 91.5553654,38.7114613 L91.5553654,38.7114613 Z" id="Fill-44" fill="#FFFFFF"></path>
                    <polygon id="Fill-45" fill="#FFFFFF" points="92.62558 39.6704667 96.0874233 39.6704667 96.0874233 38.9848116 92.62558 38.9848116"></polygon>
                </g>
            </g>
        </g>
    </g>
</svg>